%TF.GenerationSoftware,KiCad,Pcbnew,9.0.7*%
%TF.CreationDate,2026-05-09T02:55:24-07:00*%
%TF.ProjectId,Speaker,53706561-6b65-4722-9e6b-696361645f70,rev?*%
%TF.SameCoordinates,Original*%
%TF.FileFunction,Soldermask,Bot*%
%TF.FilePolarity,Negative*%
%FSLAX46Y46*%
G04 Gerber Fmt 4.6, Leading zero omitted, Abs format (unit mm)*
G04 Created by KiCad (PCBNEW 9.0.7) date 2026-05-09 02:55:24*
%MOMM*%
%LPD*%
G01*
G04 APERTURE LIST*
G04 Aperture macros list*
%AMRoundRect*
0 Rectangle with rounded corners*
0 $1 Rounding radius*
0 $2 $3 $4 $5 $6 $7 $8 $9 X,Y pos of 4 corners*
0 Add a 4 corners polygon primitive as box body*
4,1,4,$2,$3,$4,$5,$6,$7,$8,$9,$2,$3,0*
0 Add four circle primitives for the rounded corners*
1,1,$1+$1,$2,$3*
1,1,$1+$1,$4,$5*
1,1,$1+$1,$6,$7*
1,1,$1+$1,$8,$9*
0 Add four rect primitives between the rounded corners*
20,1,$1+$1,$2,$3,$4,$5,0*
20,1,$1+$1,$4,$5,$6,$7,0*
20,1,$1+$1,$6,$7,$8,$9,0*
20,1,$1+$1,$8,$9,$2,$3,0*%
G04 Aperture macros list end*
%ADD10C,1.700000*%
%ADD11R,1.700000X1.700000*%
%ADD12C,1.800000*%
%ADD13R,1.800000X1.800000*%
%ADD14C,1.600000*%
%ADD15C,1.440000*%
%ADD16C,3.800000*%
%ADD17RoundRect,0.250000X0.750000X0.750000X-0.750000X0.750000X-0.750000X-0.750000X0.750000X-0.750000X0*%
%ADD18C,2.000000*%
%ADD19RoundRect,0.250000X-0.750000X-0.750000X0.750000X-0.750000X0.750000X0.750000X-0.750000X0.750000X0*%
%ADD20R,1.905000X2.000000*%
%ADD21O,1.905000X2.000000*%
%ADD22RoundRect,0.250000X0.550000X0.550000X-0.550000X0.550000X-0.550000X-0.550000X0.550000X-0.550000X0*%
%ADD23RoundRect,0.250000X-0.750000X0.750000X-0.750000X-0.750000X0.750000X-0.750000X0.750000X0.750000X0*%
%ADD24RoundRect,0.250000X-0.550000X-0.550000X0.550000X-0.550000X0.550000X0.550000X-0.550000X0.550000X0*%
G04 APERTURE END LIST*
D10*
%TO.C,J5*%
X218000000Y-96500000D03*
D11*
X218000000Y-93960000D03*
%TD*%
D10*
%TO.C,SW1*%
X206000000Y-93710000D03*
D11*
X206000000Y-96250000D03*
%TD*%
D12*
%TO.C,D1*%
X197315000Y-95000000D03*
D13*
X199855000Y-95000000D03*
%TD*%
D14*
%TO.C,R9*%
X192240000Y-93500000D03*
X182080000Y-93500000D03*
%TD*%
%TO.C,R10*%
X192240000Y-96500000D03*
X182080000Y-96500000D03*
%TD*%
D10*
%TO.C,J1*%
X212318355Y-96234760D03*
D11*
X209778355Y-96234760D03*
%TD*%
D14*
%TO.C,C8*%
X196250000Y-74000000D03*
X198750000Y-74000000D03*
%TD*%
%TO.C,C18*%
X203300000Y-90000000D03*
X203300000Y-87500000D03*
%TD*%
%TO.C,R3*%
X181500000Y-69080000D03*
X181500000Y-58920000D03*
%TD*%
D15*
%TO.C,RV1*%
X184500000Y-78460000D03*
X184500000Y-81000000D03*
X184500000Y-83540000D03*
%TD*%
D16*
%TO.C,REF\u002A\u002A*%
X223000000Y-96500000D03*
%TD*%
D17*
%TO.C,C9*%
X175185000Y-82690000D03*
D18*
X170185000Y-82690000D03*
%TD*%
D14*
%TO.C,C11*%
X165685000Y-72940000D03*
X165685000Y-75440000D03*
%TD*%
%TO.C,C20*%
X200150000Y-90000000D03*
X200150000Y-87500000D03*
%TD*%
%TO.C,C13*%
X161500000Y-60670000D03*
X161500000Y-63170000D03*
%TD*%
D19*
%TO.C,C10*%
X205132323Y-60500000D03*
D18*
X210132323Y-60500000D03*
%TD*%
D16*
%TO.C,REF\u002A\u002A*%
X223000000Y-53500000D03*
%TD*%
D14*
%TO.C,R8*%
X192000000Y-59000000D03*
X192000000Y-69160000D03*
%TD*%
%TO.C,R7*%
X185000000Y-69080000D03*
X185000000Y-58920000D03*
%TD*%
%TO.C,R4*%
X198300000Y-69160000D03*
X198300000Y-59000000D03*
%TD*%
%TO.C,C12*%
X214000000Y-70000000D03*
X214000000Y-67500000D03*
%TD*%
D11*
%TO.C,J4*%
X161525000Y-93960000D03*
D10*
X161525000Y-96500000D03*
%TD*%
D20*
%TO.C,U3*%
X192540000Y-88000000D03*
D21*
X190000000Y-88000000D03*
X187460000Y-88000000D03*
%TD*%
D14*
%TO.C,C19*%
X197000000Y-90000000D03*
X197000000Y-87500000D03*
%TD*%
%TO.C,R6*%
X218000000Y-65340000D03*
X218000000Y-75500000D03*
%TD*%
D15*
%TO.C,RV2*%
X195500000Y-78460000D03*
X195500000Y-81000000D03*
X195500000Y-83540000D03*
%TD*%
D22*
%TO.C,C6*%
X209152651Y-81500000D03*
D14*
X206652651Y-81500000D03*
%TD*%
%TO.C,C4*%
X198750000Y-71500000D03*
X196250000Y-71500000D03*
%TD*%
%TO.C,R5*%
X161500000Y-65840000D03*
X161500000Y-76000000D03*
%TD*%
%TO.C,C14*%
X217850000Y-60244646D03*
X217850000Y-62744646D03*
%TD*%
%TO.C,C1*%
X186750000Y-56500000D03*
X189250000Y-56500000D03*
%TD*%
D16*
%TO.C,REF\u002A\u002A*%
X157000000Y-96500000D03*
%TD*%
D14*
%TO.C,R1*%
X188500000Y-58920000D03*
X188500000Y-69080000D03*
%TD*%
%TO.C,R2*%
X195200000Y-69160000D03*
X195200000Y-59000000D03*
%TD*%
%TO.C,C7*%
X183500000Y-74000000D03*
X181000000Y-74000000D03*
%TD*%
D11*
%TO.C,J3*%
X192540000Y-53500000D03*
D10*
X190000000Y-53500000D03*
X187460000Y-53500000D03*
%TD*%
D23*
%TO.C,C16*%
X218000000Y-80000000D03*
D18*
X218000000Y-85000000D03*
%TD*%
D24*
%TO.C,C5*%
X171032349Y-61690000D03*
D14*
X173532349Y-61690000D03*
%TD*%
%TO.C,C2*%
X194000000Y-56500000D03*
X191500000Y-56500000D03*
%TD*%
%TO.C,C17*%
X183000000Y-88000000D03*
X183000000Y-90500000D03*
%TD*%
D22*
%TO.C,U1*%
X176305000Y-75310000D03*
D14*
X176305000Y-72770000D03*
X176305000Y-70230000D03*
X176305000Y-67690000D03*
X168685000Y-67690000D03*
X168685000Y-70230000D03*
X168685000Y-72770000D03*
X168685000Y-75310000D03*
%TD*%
D23*
%TO.C,C15*%
X161500000Y-80000000D03*
D18*
X161500000Y-85000000D03*
%TD*%
D14*
%TO.C,C3*%
X181000000Y-71500000D03*
X183500000Y-71500000D03*
%TD*%
D16*
%TO.C,REF\u002A\u002A*%
X157000000Y-53500000D03*
%TD*%
D24*
%TO.C,U2*%
X203695000Y-67690000D03*
D14*
X203695000Y-70230000D03*
X203695000Y-72770000D03*
X203695000Y-75310000D03*
X211315000Y-75310000D03*
X211315000Y-72770000D03*
X211315000Y-70230000D03*
X211315000Y-67690000D03*
%TD*%
M02*
