%TF.GenerationSoftware,KiCad,Pcbnew,9.0.7*%
%TF.CreationDate,2026-05-09T02:55:23-07:00*%
%TF.ProjectId,Speaker,53706561-6b65-4722-9e6b-696361645f70,rev?*%
%TF.SameCoordinates,Original*%
%TF.FileFunction,Copper,L2,Bot*%
%TF.FilePolarity,Positive*%
%FSLAX46Y46*%
G04 Gerber Fmt 4.6, Leading zero omitted, Abs format (unit mm)*
G04 Created by KiCad (PCBNEW 9.0.7) date 2026-05-09 02:55:23*
%MOMM*%
%LPD*%
G01*
G04 APERTURE LIST*
G04 Aperture macros list*
%AMRoundRect*
0 Rectangle with rounded corners*
0 $1 Rounding radius*
0 $2 $3 $4 $5 $6 $7 $8 $9 X,Y pos of 4 corners*
0 Add a 4 corners polygon primitive as box body*
4,1,4,$2,$3,$4,$5,$6,$7,$8,$9,$2,$3,0*
0 Add four circle primitives for the rounded corners*
1,1,$1+$1,$2,$3*
1,1,$1+$1,$4,$5*
1,1,$1+$1,$6,$7*
1,1,$1+$1,$8,$9*
0 Add four rect primitives between the rounded corners*
20,1,$1+$1,$2,$3,$4,$5,0*
20,1,$1+$1,$4,$5,$6,$7,0*
20,1,$1+$1,$6,$7,$8,$9,0*
20,1,$1+$1,$8,$9,$2,$3,0*%
G04 Aperture macros list end*
%TA.AperFunction,ComponentPad*%
%ADD10C,1.700000*%
%TD*%
%TA.AperFunction,ComponentPad*%
%ADD11R,1.700000X1.700000*%
%TD*%
%TA.AperFunction,ComponentPad*%
%ADD12C,1.800000*%
%TD*%
%TA.AperFunction,ComponentPad*%
%ADD13R,1.800000X1.800000*%
%TD*%
%TA.AperFunction,ComponentPad*%
%ADD14C,1.600000*%
%TD*%
%TA.AperFunction,ComponentPad*%
%ADD15C,1.440000*%
%TD*%
%TA.AperFunction,ComponentPad*%
%ADD16C,3.800000*%
%TD*%
%TA.AperFunction,ComponentPad*%
%ADD17RoundRect,0.250000X0.750000X0.750000X-0.750000X0.750000X-0.750000X-0.750000X0.750000X-0.750000X0*%
%TD*%
%TA.AperFunction,ComponentPad*%
%ADD18C,2.000000*%
%TD*%
%TA.AperFunction,ComponentPad*%
%ADD19RoundRect,0.250000X-0.750000X-0.750000X0.750000X-0.750000X0.750000X0.750000X-0.750000X0.750000X0*%
%TD*%
%TA.AperFunction,ComponentPad*%
%ADD20R,1.905000X2.000000*%
%TD*%
%TA.AperFunction,ComponentPad*%
%ADD21O,1.905000X2.000000*%
%TD*%
%TA.AperFunction,ComponentPad*%
%ADD22RoundRect,0.250000X0.550000X0.550000X-0.550000X0.550000X-0.550000X-0.550000X0.550000X-0.550000X0*%
%TD*%
%TA.AperFunction,ComponentPad*%
%ADD23RoundRect,0.250000X-0.750000X0.750000X-0.750000X-0.750000X0.750000X-0.750000X0.750000X0.750000X0*%
%TD*%
%TA.AperFunction,ComponentPad*%
%ADD24RoundRect,0.250000X-0.550000X-0.550000X0.550000X-0.550000X0.550000X0.550000X-0.550000X0.550000X0*%
%TD*%
G04 APERTURE END LIST*
D10*
%TO.P,J5,2,Pin_2*%
%TO.N,GND*%
X218000000Y-96500000D03*
D11*
%TO.P,J5,1,Pin_1*%
%TO.N,/OUTPUT_R*%
X218000000Y-93960000D03*
%TD*%
D10*
%TO.P,SW1,2,B*%
%TO.N,Net-(D1-A)*%
X206000000Y-93710000D03*
D11*
%TO.P,SW1,1,A*%
%TO.N,/V_IN*%
X206000000Y-96250000D03*
%TD*%
D12*
%TO.P,D1,2,A*%
%TO.N,Net-(D1-A)*%
X197315000Y-95000000D03*
D13*
%TO.P,D1,1,K*%
%TO.N,Net-(D1-K)*%
X199855000Y-95000000D03*
%TD*%
D14*
%TO.P,R9,2*%
%TO.N,Net-(D1-K)*%
X192240000Y-93500000D03*
%TO.P,R9,1*%
%TO.N,Net-(U3-IN)*%
X182080000Y-93500000D03*
%TD*%
%TO.P,R10,2*%
%TO.N,Net-(D1-A)*%
X192240000Y-96500000D03*
%TO.P,R10,1*%
%TO.N,Net-(U3-IN)*%
X182080000Y-96500000D03*
%TD*%
D10*
%TO.P,J1,2,Pin_2*%
%TO.N,GND*%
X212318355Y-96234760D03*
D11*
%TO.P,J1,1,Pin_1*%
%TO.N,/V_IN*%
X209778355Y-96234760D03*
%TD*%
D14*
%TO.P,C8,1*%
%TO.N,Net-(C8-Pad1)*%
X196250000Y-74000000D03*
%TO.P,C8,2*%
%TO.N,Net-(C4-Pad1)*%
X198750000Y-74000000D03*
%TD*%
%TO.P,C18,1*%
%TO.N,Net-(U3-IN)*%
X203300000Y-90000000D03*
%TO.P,C18,2*%
%TO.N,GND*%
X203300000Y-87500000D03*
%TD*%
%TO.P,R3,1*%
%TO.N,Net-(C3-Pad1)*%
X181500000Y-69080000D03*
%TO.P,R3,2*%
%TO.N,Net-(C1-Pad1)*%
X181500000Y-58920000D03*
%TD*%
D15*
%TO.P,RV1,1,1*%
%TO.N,Net-(C7-Pad1)*%
X184500000Y-78460000D03*
%TO.P,RV1,2,2*%
%TO.N,Net-(U1-+)*%
X184500000Y-81000000D03*
%TO.P,RV1,3,3*%
%TO.N,GND*%
X184500000Y-83540000D03*
%TD*%
D16*
%TO.P,REF\u002A\u002A,1*%
%TO.N,GND*%
X223000000Y-96500000D03*
%TD*%
D17*
%TO.P,C9,1*%
%TO.N,Net-(C9-Pad1)*%
X175185000Y-82690000D03*
D18*
%TO.P,C9,2*%
%TO.N,Net-(C9-Pad2)*%
X170185000Y-82690000D03*
%TD*%
D14*
%TO.P,C11,1*%
%TO.N,Net-(U1-BYPASS)*%
X165685000Y-72940000D03*
%TO.P,C11,2*%
%TO.N,GND*%
X165685000Y-75440000D03*
%TD*%
%TO.P,C20,1*%
%TO.N,Net-(U3-IN)*%
X200150000Y-90000000D03*
%TO.P,C20,2*%
%TO.N,GND*%
X200150000Y-87500000D03*
%TD*%
%TO.P,C13,1*%
%TO.N,GND*%
X161500000Y-60670000D03*
%TO.P,C13,2*%
%TO.N,Net-(C13-Pad2)*%
X161500000Y-63170000D03*
%TD*%
D19*
%TO.P,C10,1*%
%TO.N,Net-(C10-Pad1)*%
X205132323Y-60500000D03*
D18*
%TO.P,C10,2*%
%TO.N,Net-(C10-Pad2)*%
X210132323Y-60500000D03*
%TD*%
D16*
%TO.P,REF\u002A\u002A,1*%
%TO.N,GND*%
X223000000Y-53500000D03*
%TD*%
D14*
%TO.P,R8,1*%
%TO.N,GND*%
X192000000Y-59000000D03*
%TO.P,R8,2*%
%TO.N,Net-(R2-Pad1)*%
X192000000Y-69160000D03*
%TD*%
%TO.P,R7,1*%
%TO.N,Net-(R1-Pad2)*%
X185000000Y-69080000D03*
%TO.P,R7,2*%
%TO.N,Net-(C1-Pad1)*%
X185000000Y-58920000D03*
%TD*%
%TO.P,R4,1*%
%TO.N,Net-(C4-Pad1)*%
X198300000Y-69160000D03*
%TO.P,R4,2*%
%TO.N,Net-(C2-Pad1)*%
X198300000Y-59000000D03*
%TD*%
%TO.P,C12,1*%
%TO.N,Net-(U2-BYPASS)*%
X214000000Y-70000000D03*
%TO.P,C12,2*%
%TO.N,GND*%
X214000000Y-67500000D03*
%TD*%
D11*
%TO.P,J4,1,Pin_1*%
%TO.N,/OUTPUT_L*%
X161525000Y-93960000D03*
D10*
%TO.P,J4,2,Pin_2*%
%TO.N,GND*%
X161525000Y-96500000D03*
%TD*%
D20*
%TO.P,U3,1,IN*%
%TO.N,Net-(U3-IN)*%
X192540000Y-88000000D03*
D21*
%TO.P,U3,2,GND*%
%TO.N,GND*%
X190000000Y-88000000D03*
%TO.P,U3,3,OUT*%
%TO.N,+9V*%
X187460000Y-88000000D03*
%TD*%
D14*
%TO.P,C19,1*%
%TO.N,Net-(U3-IN)*%
X197000000Y-90000000D03*
%TO.P,C19,2*%
%TO.N,GND*%
X197000000Y-87500000D03*
%TD*%
%TO.P,R6,1*%
%TO.N,Net-(C14-Pad2)*%
X218000000Y-65340000D03*
%TO.P,R6,2*%
%TO.N,Net-(C16-Pad1)*%
X218000000Y-75500000D03*
%TD*%
D15*
%TO.P,RV2,1,1*%
%TO.N,Net-(C8-Pad1)*%
X195500000Y-78460000D03*
%TO.P,RV2,2,2*%
%TO.N,Net-(U2-+)*%
X195500000Y-81000000D03*
%TO.P,RV2,3,3*%
%TO.N,GND*%
X195500000Y-83540000D03*
%TD*%
D22*
%TO.P,C6,1*%
%TO.N,+9V*%
X209152651Y-81500000D03*
D14*
%TO.P,C6,2*%
%TO.N,GND*%
X206652651Y-81500000D03*
%TD*%
%TO.P,C4,1*%
%TO.N,Net-(C4-Pad1)*%
X198750000Y-71500000D03*
%TO.P,C4,2*%
%TO.N,GND*%
X196250000Y-71500000D03*
%TD*%
%TO.P,R5,1*%
%TO.N,Net-(C13-Pad2)*%
X161500000Y-65840000D03*
%TO.P,R5,2*%
%TO.N,Net-(C15-Pad1)*%
X161500000Y-76000000D03*
%TD*%
%TO.P,C14,1*%
%TO.N,GND*%
X217850000Y-60244646D03*
%TO.P,C14,2*%
%TO.N,Net-(C14-Pad2)*%
X217850000Y-62744646D03*
%TD*%
%TO.P,C1,1*%
%TO.N,Net-(C1-Pad1)*%
X186750000Y-56500000D03*
%TO.P,C1,2*%
%TO.N,/INPUT_L*%
X189250000Y-56500000D03*
%TD*%
D16*
%TO.P,REF\u002A\u002A,1*%
%TO.N,GND*%
X157000000Y-96500000D03*
%TD*%
D14*
%TO.P,R1,1*%
%TO.N,GND*%
X188500000Y-58920000D03*
%TO.P,R1,2*%
%TO.N,Net-(R1-Pad2)*%
X188500000Y-69080000D03*
%TD*%
%TO.P,R2,1*%
%TO.N,Net-(R2-Pad1)*%
X195200000Y-69160000D03*
%TO.P,R2,2*%
%TO.N,Net-(C2-Pad1)*%
X195200000Y-59000000D03*
%TD*%
%TO.P,C7,1*%
%TO.N,Net-(C7-Pad1)*%
X183500000Y-74000000D03*
%TO.P,C7,2*%
%TO.N,Net-(C3-Pad1)*%
X181000000Y-74000000D03*
%TD*%
D11*
%TO.P,J3,1,Pin_1*%
%TO.N,/INPUT_R*%
X192540000Y-53500000D03*
D10*
%TO.P,J3,2,Pin_2*%
%TO.N,/INPUT_L*%
X190000000Y-53500000D03*
%TO.P,J3,3,Pin_3*%
%TO.N,GND*%
X187460000Y-53500000D03*
%TD*%
D23*
%TO.P,C16,1*%
%TO.N,Net-(C16-Pad1)*%
X218000000Y-80000000D03*
D18*
%TO.P,C16,2*%
%TO.N,/OUTPUT_R*%
X218000000Y-85000000D03*
%TD*%
D24*
%TO.P,C5,1*%
%TO.N,+9V*%
X171032349Y-61690000D03*
D14*
%TO.P,C5,2*%
%TO.N,GND*%
X173532349Y-61690000D03*
%TD*%
%TO.P,C2,1*%
%TO.N,Net-(C2-Pad1)*%
X194000000Y-56500000D03*
%TO.P,C2,2*%
%TO.N,/INPUT_R*%
X191500000Y-56500000D03*
%TD*%
%TO.P,C17,1*%
%TO.N,+9V*%
X183000000Y-88000000D03*
%TO.P,C17,2*%
%TO.N,GND*%
X183000000Y-90500000D03*
%TD*%
D22*
%TO.P,U1,1,GAIN*%
%TO.N,Net-(C9-Pad1)*%
X176305000Y-75310000D03*
D14*
%TO.P,U1,2,-*%
%TO.N,GND*%
X176305000Y-72770000D03*
%TO.P,U1,3,+*%
%TO.N,Net-(U1-+)*%
X176305000Y-70230000D03*
%TO.P,U1,4,GND*%
%TO.N,GND*%
X176305000Y-67690000D03*
%TO.P,U1,5*%
%TO.N,Net-(C15-Pad1)*%
X168685000Y-67690000D03*
%TO.P,U1,6,V+*%
%TO.N,+9V*%
X168685000Y-70230000D03*
%TO.P,U1,7,BYPASS*%
%TO.N,Net-(U1-BYPASS)*%
X168685000Y-72770000D03*
%TO.P,U1,8,GAIN*%
%TO.N,Net-(C9-Pad2)*%
X168685000Y-75310000D03*
%TD*%
D23*
%TO.P,C15,1*%
%TO.N,Net-(C15-Pad1)*%
X161500000Y-80000000D03*
D18*
%TO.P,C15,2*%
%TO.N,/OUTPUT_L*%
X161500000Y-85000000D03*
%TD*%
D14*
%TO.P,C3,1*%
%TO.N,Net-(C3-Pad1)*%
X181000000Y-71500000D03*
%TO.P,C3,2*%
%TO.N,GND*%
X183500000Y-71500000D03*
%TD*%
D16*
%TO.P,REF\u002A\u002A,1*%
%TO.N,GND*%
X157000000Y-53500000D03*
%TD*%
D24*
%TO.P,U2,1,GAIN*%
%TO.N,Net-(C10-Pad1)*%
X203695000Y-67690000D03*
D14*
%TO.P,U2,2,-*%
%TO.N,GND*%
X203695000Y-70230000D03*
%TO.P,U2,3,+*%
%TO.N,Net-(U2-+)*%
X203695000Y-72770000D03*
%TO.P,U2,4,GND*%
%TO.N,GND*%
X203695000Y-75310000D03*
%TO.P,U2,5*%
%TO.N,Net-(C16-Pad1)*%
X211315000Y-75310000D03*
%TO.P,U2,6,V+*%
%TO.N,+9V*%
X211315000Y-72770000D03*
%TO.P,U2,7,BYPASS*%
%TO.N,Net-(U2-BYPASS)*%
X211315000Y-70230000D03*
%TO.P,U2,8,GAIN*%
%TO.N,Net-(C10-Pad2)*%
X211315000Y-67690000D03*
%TD*%
%TA.AperFunction,Conductor*%
%TO.N,GND*%
G36*
X223004043Y-51500765D02*
G01*
X223252895Y-51517075D01*
X223268953Y-51519190D01*
X223476105Y-51560395D01*
X223509535Y-51567045D01*
X223525202Y-51571243D01*
X223694947Y-51628863D01*
X223757481Y-51650091D01*
X223772458Y-51656294D01*
X223981799Y-51759529D01*
X223992460Y-51764787D01*
X224006508Y-51772897D01*
X224210464Y-51909177D01*
X224223328Y-51919048D01*
X224407749Y-52080781D01*
X224419218Y-52092250D01*
X224498587Y-52182753D01*
X224556196Y-52248444D01*
X224580951Y-52276671D01*
X224590825Y-52289539D01*
X224727102Y-52493492D01*
X224735212Y-52507539D01*
X224843702Y-52727534D01*
X224849909Y-52742520D01*
X224928756Y-52974797D01*
X224932954Y-52990464D01*
X224980807Y-53231035D01*
X224982925Y-53247116D01*
X224999235Y-53495956D01*
X224999500Y-53504066D01*
X224999500Y-96495933D01*
X224999235Y-96504043D01*
X224982925Y-96752883D01*
X224980807Y-96768964D01*
X224932954Y-97009535D01*
X224928756Y-97025202D01*
X224849909Y-97257479D01*
X224843702Y-97272465D01*
X224735212Y-97492460D01*
X224727102Y-97506507D01*
X224590825Y-97710460D01*
X224580951Y-97723328D01*
X224419218Y-97907749D01*
X224407749Y-97919218D01*
X224223328Y-98080951D01*
X224210460Y-98090825D01*
X224006507Y-98227102D01*
X223992460Y-98235212D01*
X223772465Y-98343702D01*
X223757479Y-98349909D01*
X223525202Y-98428756D01*
X223509535Y-98432954D01*
X223268964Y-98480807D01*
X223252883Y-98482925D01*
X223004043Y-98499235D01*
X222995933Y-98499500D01*
X157004067Y-98499500D01*
X156995957Y-98499235D01*
X156747116Y-98482925D01*
X156731035Y-98480807D01*
X156490464Y-98432954D01*
X156474797Y-98428756D01*
X156242520Y-98349909D01*
X156227534Y-98343702D01*
X156007539Y-98235212D01*
X155993492Y-98227102D01*
X155789539Y-98090825D01*
X155776671Y-98080951D01*
X155592250Y-97919218D01*
X155580781Y-97907749D01*
X155419048Y-97723328D01*
X155409174Y-97710460D01*
X155405671Y-97705218D01*
X155272897Y-97506507D01*
X155264787Y-97492460D01*
X155193159Y-97347213D01*
X155156294Y-97272458D01*
X155150090Y-97257479D01*
X155071243Y-97025202D01*
X155067045Y-97009535D01*
X155059186Y-96970026D01*
X155019190Y-96768953D01*
X155017075Y-96752895D01*
X155000765Y-96504043D01*
X155000500Y-96495933D01*
X155000500Y-96397648D01*
X180779500Y-96397648D01*
X180779500Y-96602351D01*
X180811522Y-96804534D01*
X180874781Y-96999223D01*
X180938691Y-97124653D01*
X180942759Y-97132636D01*
X180967715Y-97181613D01*
X181088028Y-97347213D01*
X181232786Y-97491971D01*
X181361187Y-97585258D01*
X181398390Y-97612287D01*
X181514607Y-97671503D01*
X181580776Y-97705218D01*
X181580778Y-97705218D01*
X181580781Y-97705220D01*
X181636512Y-97723328D01*
X181775465Y-97768477D01*
X181876557Y-97784488D01*
X181977648Y-97800500D01*
X181977649Y-97800500D01*
X182182351Y-97800500D01*
X182182352Y-97800500D01*
X182384534Y-97768477D01*
X182579219Y-97705220D01*
X182761610Y-97612287D01*
X182855885Y-97543793D01*
X182927213Y-97491971D01*
X182927215Y-97491968D01*
X182927219Y-97491966D01*
X183071966Y-97347219D01*
X183071968Y-97347215D01*
X183071971Y-97347213D01*
X183124732Y-97274590D01*
X183192287Y-97181610D01*
X183285220Y-96999219D01*
X183348477Y-96804534D01*
X183380500Y-96602352D01*
X183380500Y-96397648D01*
X190939500Y-96397648D01*
X190939500Y-96602351D01*
X190971522Y-96804534D01*
X191034781Y-96999223D01*
X191098691Y-97124653D01*
X191102759Y-97132636D01*
X191127715Y-97181613D01*
X191248028Y-97347213D01*
X191392786Y-97491971D01*
X191521187Y-97585258D01*
X191558390Y-97612287D01*
X191674607Y-97671503D01*
X191740776Y-97705218D01*
X191740778Y-97705218D01*
X191740781Y-97705220D01*
X191796512Y-97723328D01*
X191935465Y-97768477D01*
X192036557Y-97784488D01*
X192137648Y-97800500D01*
X192137649Y-97800500D01*
X192342351Y-97800500D01*
X192342352Y-97800500D01*
X192544534Y-97768477D01*
X192739219Y-97705220D01*
X192921610Y-97612287D01*
X193015885Y-97543793D01*
X193087213Y-97491971D01*
X193087215Y-97491968D01*
X193087219Y-97491966D01*
X193231966Y-97347219D01*
X193231968Y-97347215D01*
X193231971Y-97347213D01*
X193284732Y-97274590D01*
X193352287Y-97181610D01*
X193445220Y-96999219D01*
X193508477Y-96804534D01*
X193540500Y-96602352D01*
X193540500Y-96397648D01*
X193508477Y-96195466D01*
X193491212Y-96142331D01*
X193450838Y-96018072D01*
X193445220Y-96000781D01*
X193445218Y-96000778D01*
X193445218Y-96000776D01*
X193400166Y-95912358D01*
X193352287Y-95818390D01*
X193290991Y-95734022D01*
X193231971Y-95652786D01*
X193087213Y-95508028D01*
X192921613Y-95387715D01*
X192921612Y-95387714D01*
X192921610Y-95387713D01*
X192864653Y-95358691D01*
X192739223Y-95294781D01*
X192544534Y-95231522D01*
X192369995Y-95203878D01*
X192342352Y-95199500D01*
X192137648Y-95199500D01*
X192113329Y-95203351D01*
X191935465Y-95231522D01*
X191740776Y-95294781D01*
X191558386Y-95387715D01*
X191392786Y-95508028D01*
X191248028Y-95652786D01*
X191127715Y-95818386D01*
X191034781Y-96000776D01*
X190971522Y-96195465D01*
X190939500Y-96397648D01*
X183380500Y-96397648D01*
X183348477Y-96195466D01*
X183331212Y-96142331D01*
X183290838Y-96018072D01*
X183285220Y-96000781D01*
X183285218Y-96000778D01*
X183285218Y-96000776D01*
X183240166Y-95912358D01*
X183192287Y-95818390D01*
X183130991Y-95734022D01*
X183071971Y-95652786D01*
X182927213Y-95508028D01*
X182761613Y-95387715D01*
X182761612Y-95387714D01*
X182761610Y-95387713D01*
X182704653Y-95358691D01*
X182579223Y-95294781D01*
X182384534Y-95231522D01*
X182209995Y-95203878D01*
X182182352Y-95199500D01*
X181977648Y-95199500D01*
X181953329Y-95203351D01*
X181775465Y-95231522D01*
X181580776Y-95294781D01*
X181398386Y-95387715D01*
X181232786Y-95508028D01*
X181088028Y-95652786D01*
X180967715Y-95818386D01*
X180874781Y-96000776D01*
X180811522Y-96195465D01*
X180779500Y-96397648D01*
X155000500Y-96397648D01*
X155000500Y-93062135D01*
X160174500Y-93062135D01*
X160174500Y-94857870D01*
X160174501Y-94857876D01*
X160180908Y-94917483D01*
X160231202Y-95052328D01*
X160231206Y-95052335D01*
X160317452Y-95167544D01*
X160317455Y-95167547D01*
X160432664Y-95253793D01*
X160432671Y-95253797D01*
X160567517Y-95304091D01*
X160567516Y-95304091D01*
X160574444Y-95304835D01*
X160627127Y-95310500D01*
X162422872Y-95310499D01*
X162482483Y-95304091D01*
X162617331Y-95253796D01*
X162732546Y-95167546D01*
X162818796Y-95052331D01*
X162869091Y-94917483D01*
X162872070Y-94889778D01*
X195914500Y-94889778D01*
X195914500Y-95110222D01*
X195922014Y-95157664D01*
X195948985Y-95327952D01*
X196017103Y-95537603D01*
X196017104Y-95537606D01*
X196117187Y-95734025D01*
X196246752Y-95912358D01*
X196246756Y-95912363D01*
X196402636Y-96068243D01*
X196402641Y-96068247D01*
X196504606Y-96142328D01*
X196580978Y-96197815D01*
X196709375Y-96263237D01*
X196777393Y-96297895D01*
X196777396Y-96297896D01*
X196882221Y-96331955D01*
X196987049Y-96366015D01*
X197204778Y-96400500D01*
X197204779Y-96400500D01*
X197425221Y-96400500D01*
X197425222Y-96400500D01*
X197642951Y-96366015D01*
X197852606Y-96297895D01*
X198049022Y-96197815D01*
X198227365Y-96068242D01*
X198277536Y-96018070D01*
X198338857Y-95984586D01*
X198408548Y-95989570D01*
X198464482Y-96031441D01*
X198481398Y-96062419D01*
X198511202Y-96142328D01*
X198511206Y-96142335D01*
X198597452Y-96257544D01*
X198597455Y-96257547D01*
X198712664Y-96343793D01*
X198712671Y-96343797D01*
X198847517Y-96394091D01*
X198847516Y-96394091D01*
X198854444Y-96394835D01*
X198907127Y-96400500D01*
X200802872Y-96400499D01*
X200862483Y-96394091D01*
X200997331Y-96343796D01*
X201112546Y-96257546D01*
X201198796Y-96142331D01*
X201249091Y-96007483D01*
X201255500Y-95947873D01*
X201255499Y-94052128D01*
X201249091Y-93992517D01*
X201228601Y-93937581D01*
X201198797Y-93857671D01*
X201198793Y-93857664D01*
X201112547Y-93742455D01*
X201112544Y-93742452D01*
X201053307Y-93698107D01*
X200997335Y-93656206D01*
X200997328Y-93656202D01*
X200862482Y-93605908D01*
X200862483Y-93605908D01*
X200842064Y-93603713D01*
X204649500Y-93603713D01*
X204649500Y-93816286D01*
X204678473Y-93999219D01*
X204682754Y-94026243D01*
X204734569Y-94185713D01*
X204748444Y-94228414D01*
X204844951Y-94417820D01*
X204969890Y-94589786D01*
X205083430Y-94703326D01*
X205116915Y-94764649D01*
X205111931Y-94834341D01*
X205070059Y-94890274D01*
X205039083Y-94907189D01*
X204907669Y-94956203D01*
X204907664Y-94956206D01*
X204792455Y-95042452D01*
X204792452Y-95042455D01*
X204706206Y-95157664D01*
X204706202Y-95157671D01*
X204655908Y-95292517D01*
X204649501Y-95352116D01*
X204649500Y-95352135D01*
X204649500Y-97147870D01*
X204649501Y-97147876D01*
X204655908Y-97207483D01*
X204706202Y-97342328D01*
X204706206Y-97342335D01*
X204792452Y-97457544D01*
X204792455Y-97457547D01*
X204907664Y-97543793D01*
X204907671Y-97543797D01*
X205042517Y-97594091D01*
X205042516Y-97594091D01*
X205049444Y-97594835D01*
X205102127Y-97600500D01*
X206897872Y-97600499D01*
X206957483Y-97594091D01*
X207092331Y-97543796D01*
X207207546Y-97457546D01*
X207293796Y-97342331D01*
X207344091Y-97207483D01*
X207350500Y-97147873D01*
X207350499Y-95352128D01*
X207348861Y-95336895D01*
X208427855Y-95336895D01*
X208427855Y-97132630D01*
X208427856Y-97132636D01*
X208434263Y-97192243D01*
X208484557Y-97327088D01*
X208484561Y-97327095D01*
X208570807Y-97442304D01*
X208570810Y-97442307D01*
X208686019Y-97528553D01*
X208686026Y-97528557D01*
X208820872Y-97578851D01*
X208820871Y-97578851D01*
X208827799Y-97579595D01*
X208880482Y-97585260D01*
X210676227Y-97585259D01*
X210735838Y-97578851D01*
X210870686Y-97528556D01*
X210985901Y-97442306D01*
X211072151Y-97327091D01*
X211122446Y-97192243D01*
X211128855Y-97132633D01*
X211128854Y-95336888D01*
X211122446Y-95277277D01*
X211113688Y-95253796D01*
X211072152Y-95142431D01*
X211072148Y-95142424D01*
X210985902Y-95027215D01*
X210985899Y-95027212D01*
X210870690Y-94940966D01*
X210870683Y-94940962D01*
X210735837Y-94890668D01*
X210735838Y-94890668D01*
X210676238Y-94884261D01*
X210676236Y-94884260D01*
X210676228Y-94884260D01*
X210676219Y-94884260D01*
X208880484Y-94884260D01*
X208880478Y-94884261D01*
X208820871Y-94890668D01*
X208686026Y-94940962D01*
X208686019Y-94940966D01*
X208570810Y-95027212D01*
X208570807Y-95027215D01*
X208484561Y-95142424D01*
X208484557Y-95142431D01*
X208434263Y-95277277D01*
X208427856Y-95336876D01*
X208427856Y-95336883D01*
X208427855Y-95336895D01*
X207348861Y-95336895D01*
X207344091Y-95292517D01*
X207338406Y-95277276D01*
X207293797Y-95157671D01*
X207293793Y-95157664D01*
X207207547Y-95042455D01*
X207207544Y-95042452D01*
X207092335Y-94956206D01*
X207092328Y-94956202D01*
X206960917Y-94907189D01*
X206904983Y-94865318D01*
X206880566Y-94799853D01*
X206895418Y-94731580D01*
X206916563Y-94703332D01*
X207030104Y-94589792D01*
X207155051Y-94417816D01*
X207251557Y-94228412D01*
X207317246Y-94026243D01*
X207350500Y-93816287D01*
X207350500Y-93603713D01*
X207317246Y-93393757D01*
X207251557Y-93191588D01*
X207185598Y-93062135D01*
X216649500Y-93062135D01*
X216649500Y-94857870D01*
X216649501Y-94857876D01*
X216655908Y-94917483D01*
X216706202Y-95052328D01*
X216706206Y-95052335D01*
X216792452Y-95167544D01*
X216792455Y-95167547D01*
X216907664Y-95253793D01*
X216907671Y-95253797D01*
X217042517Y-95304091D01*
X217042516Y-95304091D01*
X217049444Y-95304835D01*
X217102127Y-95310500D01*
X218897872Y-95310499D01*
X218957483Y-95304091D01*
X219092331Y-95253796D01*
X219207546Y-95167546D01*
X219293796Y-95052331D01*
X219344091Y-94917483D01*
X219350500Y-94857873D01*
X219350499Y-93062128D01*
X219344091Y-93002517D01*
X219293796Y-92867669D01*
X219293795Y-92867668D01*
X219293793Y-92867664D01*
X219207547Y-92752455D01*
X219207544Y-92752452D01*
X219092335Y-92666206D01*
X219092328Y-92666202D01*
X218957482Y-92615908D01*
X218957483Y-92615908D01*
X218897883Y-92609501D01*
X218897881Y-92609500D01*
X218897873Y-92609500D01*
X218897864Y-92609500D01*
X217102129Y-92609500D01*
X217102123Y-92609501D01*
X217042516Y-92615908D01*
X216907671Y-92666202D01*
X216907664Y-92666206D01*
X216792455Y-92752452D01*
X216792452Y-92752455D01*
X216706206Y-92867664D01*
X216706202Y-92867671D01*
X216655908Y-93002517D01*
X216649501Y-93062116D01*
X216649501Y-93062123D01*
X216649500Y-93062135D01*
X207185598Y-93062135D01*
X207155051Y-93002184D01*
X207155049Y-93002181D01*
X207155048Y-93002179D01*
X207030109Y-92830213D01*
X206879786Y-92679890D01*
X206707820Y-92554951D01*
X206518414Y-92458444D01*
X206518413Y-92458443D01*
X206518412Y-92458443D01*
X206316243Y-92392754D01*
X206316241Y-92392753D01*
X206316240Y-92392753D01*
X206154957Y-92367208D01*
X206106287Y-92359500D01*
X205893713Y-92359500D01*
X205845042Y-92367208D01*
X205683760Y-92392753D01*
X205481585Y-92458444D01*
X205292179Y-92554951D01*
X205120213Y-92679890D01*
X204969890Y-92830213D01*
X204844951Y-93002179D01*
X204748444Y-93191585D01*
X204682753Y-93393760D01*
X204649500Y-93603713D01*
X200842064Y-93603713D01*
X200802883Y-93599501D01*
X200802881Y-93599500D01*
X200802873Y-93599500D01*
X200802864Y-93599500D01*
X198907129Y-93599500D01*
X198907123Y-93599501D01*
X198847516Y-93605908D01*
X198712671Y-93656202D01*
X198712664Y-93656206D01*
X198597455Y-93742452D01*
X198597452Y-93742455D01*
X198511206Y-93857664D01*
X198511203Y-93857669D01*
X198481398Y-93937581D01*
X198439526Y-93993514D01*
X198374062Y-94017931D01*
X198305789Y-94003079D01*
X198277535Y-93981928D01*
X198227363Y-93931756D01*
X198227358Y-93931752D01*
X198049025Y-93802187D01*
X198049024Y-93802186D01*
X198049022Y-93802185D01*
X197931791Y-93742452D01*
X197852606Y-93702104D01*
X197852603Y-93702103D01*
X197642952Y-93633985D01*
X197534086Y-93616742D01*
X197425222Y-93599500D01*
X197204778Y-93599500D01*
X197132201Y-93610995D01*
X196987047Y-93633985D01*
X196777396Y-93702103D01*
X196777393Y-93702104D01*
X196580974Y-93802187D01*
X196402641Y-93931752D01*
X196402636Y-93931756D01*
X196246756Y-94087636D01*
X196246752Y-94087641D01*
X196117187Y-94265974D01*
X196017104Y-94462393D01*
X196017103Y-94462396D01*
X195948985Y-94672047D01*
X195933712Y-94768476D01*
X195914500Y-94889778D01*
X162872070Y-94889778D01*
X162875500Y-94857873D01*
X162875499Y-93397648D01*
X180779500Y-93397648D01*
X180779500Y-93602352D01*
X180783878Y-93629995D01*
X180811522Y-93804534D01*
X180874781Y-93999223D01*
X180967715Y-94181613D01*
X181088028Y-94347213D01*
X181232786Y-94491971D01*
X181367417Y-94589784D01*
X181398390Y-94612287D01*
X181514607Y-94671503D01*
X181580776Y-94705218D01*
X181580778Y-94705218D01*
X181580781Y-94705220D01*
X181661909Y-94731580D01*
X181775465Y-94768477D01*
X181876557Y-94784488D01*
X181977648Y-94800500D01*
X181977649Y-94800500D01*
X182182351Y-94800500D01*
X182182352Y-94800500D01*
X182384534Y-94768477D01*
X182579219Y-94705220D01*
X182761610Y-94612287D01*
X182854590Y-94544732D01*
X182927213Y-94491971D01*
X182927215Y-94491968D01*
X182927219Y-94491966D01*
X183071966Y-94347219D01*
X183071968Y-94347215D01*
X183071971Y-94347213D01*
X183124732Y-94274590D01*
X183192287Y-94181610D01*
X183285220Y-93999219D01*
X183348477Y-93804534D01*
X183380500Y-93602352D01*
X183380500Y-93397648D01*
X190939500Y-93397648D01*
X190939500Y-93602352D01*
X190943878Y-93629995D01*
X190971522Y-93804534D01*
X191034781Y-93999223D01*
X191127715Y-94181613D01*
X191248028Y-94347213D01*
X191392786Y-94491971D01*
X191527417Y-94589784D01*
X191558390Y-94612287D01*
X191674607Y-94671503D01*
X191740776Y-94705218D01*
X191740778Y-94705218D01*
X191740781Y-94705220D01*
X191821909Y-94731580D01*
X191935465Y-94768477D01*
X192036557Y-94784488D01*
X192137648Y-94800500D01*
X192137649Y-94800500D01*
X192342351Y-94800500D01*
X192342352Y-94800500D01*
X192544534Y-94768477D01*
X192544538Y-94768475D01*
X192544542Y-94768475D01*
X192549156Y-94766976D01*
X192549158Y-94766975D01*
X192658091Y-94731580D01*
X192739219Y-94705220D01*
X192921610Y-94612287D01*
X193014590Y-94544732D01*
X193087213Y-94491971D01*
X193087215Y-94491968D01*
X193087219Y-94491966D01*
X193231966Y-94347219D01*
X193231968Y-94347215D01*
X193231971Y-94347213D01*
X193284732Y-94274590D01*
X193352287Y-94181610D01*
X193445220Y-93999219D01*
X193508477Y-93804534D01*
X193540500Y-93602352D01*
X193540500Y-93397648D01*
X193508477Y-93195466D01*
X193445220Y-93000781D01*
X193445218Y-93000778D01*
X193445218Y-93000776D01*
X193411503Y-92934607D01*
X193352287Y-92818390D01*
X193304383Y-92752455D01*
X193231971Y-92652786D01*
X193087213Y-92508028D01*
X192921613Y-92387715D01*
X192921612Y-92387714D01*
X192921610Y-92387713D01*
X192864653Y-92358691D01*
X192739223Y-92294781D01*
X192544534Y-92231522D01*
X192369995Y-92203878D01*
X192342352Y-92199500D01*
X192137648Y-92199500D01*
X192113329Y-92203351D01*
X191935465Y-92231522D01*
X191740776Y-92294781D01*
X191558386Y-92387715D01*
X191392786Y-92508028D01*
X191248028Y-92652786D01*
X191127715Y-92818386D01*
X191034781Y-93000776D01*
X190971522Y-93195465D01*
X190940116Y-93393757D01*
X190939500Y-93397648D01*
X183380500Y-93397648D01*
X183348477Y-93195466D01*
X183285220Y-93000781D01*
X183285218Y-93000778D01*
X183285218Y-93000776D01*
X183251503Y-92934607D01*
X183192287Y-92818390D01*
X183144383Y-92752455D01*
X183071971Y-92652786D01*
X182927213Y-92508028D01*
X182761613Y-92387715D01*
X182761612Y-92387714D01*
X182761610Y-92387713D01*
X182704653Y-92358691D01*
X182579223Y-92294781D01*
X182384534Y-92231522D01*
X182209995Y-92203878D01*
X182182352Y-92199500D01*
X181977648Y-92199500D01*
X181953329Y-92203351D01*
X181775465Y-92231522D01*
X181580776Y-92294781D01*
X181398386Y-92387715D01*
X181232786Y-92508028D01*
X181088028Y-92652786D01*
X180967715Y-92818386D01*
X180874781Y-93000776D01*
X180811522Y-93195465D01*
X180780116Y-93393757D01*
X180779500Y-93397648D01*
X162875499Y-93397648D01*
X162875499Y-93062128D01*
X162869091Y-93002517D01*
X162818796Y-92867669D01*
X162818795Y-92867668D01*
X162818793Y-92867664D01*
X162732547Y-92752455D01*
X162732544Y-92752452D01*
X162617335Y-92666206D01*
X162617328Y-92666202D01*
X162482482Y-92615908D01*
X162482483Y-92615908D01*
X162422883Y-92609501D01*
X162422881Y-92609500D01*
X162422873Y-92609500D01*
X162422864Y-92609500D01*
X160627129Y-92609500D01*
X160627123Y-92609501D01*
X160567516Y-92615908D01*
X160432671Y-92666202D01*
X160432664Y-92666206D01*
X160317455Y-92752452D01*
X160317452Y-92752455D01*
X160231206Y-92867664D01*
X160231202Y-92867671D01*
X160180908Y-93002517D01*
X160174501Y-93062116D01*
X160174501Y-93062123D01*
X160174500Y-93062135D01*
X155000500Y-93062135D01*
X155000500Y-89897648D01*
X195699500Y-89897648D01*
X195699500Y-90102351D01*
X195731522Y-90304534D01*
X195794781Y-90499223D01*
X195887715Y-90681613D01*
X196008028Y-90847213D01*
X196152786Y-90991971D01*
X196307749Y-91104556D01*
X196318390Y-91112287D01*
X196434607Y-91171503D01*
X196500776Y-91205218D01*
X196500778Y-91205218D01*
X196500781Y-91205220D01*
X196605137Y-91239127D01*
X196695465Y-91268477D01*
X196796557Y-91284488D01*
X196897648Y-91300500D01*
X196897649Y-91300500D01*
X197102351Y-91300500D01*
X197102352Y-91300500D01*
X197304534Y-91268477D01*
X197499219Y-91205220D01*
X197681610Y-91112287D01*
X197774590Y-91044732D01*
X197847213Y-90991971D01*
X197847215Y-90991968D01*
X197847219Y-90991966D01*
X197991966Y-90847219D01*
X197991968Y-90847215D01*
X197991971Y-90847213D01*
X198044732Y-90774590D01*
X198112287Y-90681610D01*
X198205220Y-90499219D01*
X198268477Y-90304534D01*
X198300500Y-90102352D01*
X198300500Y-89897648D01*
X198849500Y-89897648D01*
X198849500Y-90102351D01*
X198881522Y-90304534D01*
X198944781Y-90499223D01*
X199037715Y-90681613D01*
X199158028Y-90847213D01*
X199302786Y-90991971D01*
X199457749Y-91104556D01*
X199468390Y-91112287D01*
X199584607Y-91171503D01*
X199650776Y-91205218D01*
X199650778Y-91205218D01*
X199650781Y-91205220D01*
X199755137Y-91239127D01*
X199845465Y-91268477D01*
X199946557Y-91284488D01*
X200047648Y-91300500D01*
X200047649Y-91300500D01*
X200252351Y-91300500D01*
X200252352Y-91300500D01*
X200454534Y-91268477D01*
X200649219Y-91205220D01*
X200831610Y-91112287D01*
X200924590Y-91044732D01*
X200997213Y-90991971D01*
X200997215Y-90991968D01*
X200997219Y-90991966D01*
X201141966Y-90847219D01*
X201141968Y-90847215D01*
X201141971Y-90847213D01*
X201194732Y-90774590D01*
X201262287Y-90681610D01*
X201355220Y-90499219D01*
X201418477Y-90304534D01*
X201450500Y-90102352D01*
X201450500Y-89897648D01*
X201999500Y-89897648D01*
X201999500Y-90102351D01*
X202031522Y-90304534D01*
X202094781Y-90499223D01*
X202187715Y-90681613D01*
X202308028Y-90847213D01*
X202452786Y-90991971D01*
X202607749Y-91104556D01*
X202618390Y-91112287D01*
X202734607Y-91171503D01*
X202800776Y-91205218D01*
X202800778Y-91205218D01*
X202800781Y-91205220D01*
X202905137Y-91239127D01*
X202995465Y-91268477D01*
X203096557Y-91284488D01*
X203197648Y-91300500D01*
X203197649Y-91300500D01*
X203402351Y-91300500D01*
X203402352Y-91300500D01*
X203604534Y-91268477D01*
X203799219Y-91205220D01*
X203981610Y-91112287D01*
X204074590Y-91044732D01*
X204147213Y-90991971D01*
X204147215Y-90991968D01*
X204147219Y-90991966D01*
X204291966Y-90847219D01*
X204291968Y-90847215D01*
X204291971Y-90847213D01*
X204344732Y-90774590D01*
X204412287Y-90681610D01*
X204505220Y-90499219D01*
X204568477Y-90304534D01*
X204600500Y-90102352D01*
X204600500Y-89897648D01*
X204568477Y-89695466D01*
X204505220Y-89500781D01*
X204505218Y-89500778D01*
X204505218Y-89500776D01*
X204450837Y-89394049D01*
X204412287Y-89318390D01*
X204391818Y-89290216D01*
X204291971Y-89152786D01*
X204147213Y-89008028D01*
X203981613Y-88887715D01*
X203981612Y-88887714D01*
X203981610Y-88887713D01*
X203924653Y-88858691D01*
X203799223Y-88794781D01*
X203604534Y-88731522D01*
X203429995Y-88703878D01*
X203402352Y-88699500D01*
X203197648Y-88699500D01*
X203173329Y-88703351D01*
X202995465Y-88731522D01*
X202800776Y-88794781D01*
X202618386Y-88887715D01*
X202452786Y-89008028D01*
X202308028Y-89152786D01*
X202187715Y-89318386D01*
X202094781Y-89500776D01*
X202031522Y-89695465D01*
X201999500Y-89897648D01*
X201450500Y-89897648D01*
X201418477Y-89695466D01*
X201355220Y-89500781D01*
X201355218Y-89500778D01*
X201355218Y-89500776D01*
X201300837Y-89394049D01*
X201262287Y-89318390D01*
X201241818Y-89290216D01*
X201141971Y-89152786D01*
X200997213Y-89008028D01*
X200831613Y-88887715D01*
X200831612Y-88887714D01*
X200831610Y-88887713D01*
X200774653Y-88858691D01*
X200649223Y-88794781D01*
X200454534Y-88731522D01*
X200279995Y-88703878D01*
X200252352Y-88699500D01*
X200047648Y-88699500D01*
X200023329Y-88703351D01*
X199845465Y-88731522D01*
X199650776Y-88794781D01*
X199468386Y-88887715D01*
X199302786Y-89008028D01*
X199158028Y-89152786D01*
X199037715Y-89318386D01*
X198944781Y-89500776D01*
X198881522Y-89695465D01*
X198849500Y-89897648D01*
X198300500Y-89897648D01*
X198268477Y-89695466D01*
X198205220Y-89500781D01*
X198205218Y-89500778D01*
X198205218Y-89500776D01*
X198150837Y-89394049D01*
X198112287Y-89318390D01*
X198091818Y-89290216D01*
X197991971Y-89152786D01*
X197847213Y-89008028D01*
X197681613Y-88887715D01*
X197681612Y-88887714D01*
X197681610Y-88887713D01*
X197624653Y-88858691D01*
X197499223Y-88794781D01*
X197304534Y-88731522D01*
X197129995Y-88703878D01*
X197102352Y-88699500D01*
X196897648Y-88699500D01*
X196873329Y-88703351D01*
X196695465Y-88731522D01*
X196500776Y-88794781D01*
X196318386Y-88887715D01*
X196152786Y-89008028D01*
X196008028Y-89152786D01*
X195887715Y-89318386D01*
X195794781Y-89500776D01*
X195731522Y-89695465D01*
X195699500Y-89897648D01*
X155000500Y-89897648D01*
X155000500Y-87897648D01*
X181699500Y-87897648D01*
X181699500Y-88102351D01*
X181731522Y-88304534D01*
X181794781Y-88499223D01*
X181887715Y-88681613D01*
X182008028Y-88847213D01*
X182152786Y-88991971D01*
X182307749Y-89104556D01*
X182318390Y-89112287D01*
X182434607Y-89171503D01*
X182500776Y-89205218D01*
X182500778Y-89205218D01*
X182500781Y-89205220D01*
X182605137Y-89239127D01*
X182695465Y-89268477D01*
X182796557Y-89284488D01*
X182897648Y-89300500D01*
X182897649Y-89300500D01*
X183102351Y-89300500D01*
X183102352Y-89300500D01*
X183304534Y-89268477D01*
X183499219Y-89205220D01*
X183681610Y-89112287D01*
X183774590Y-89044732D01*
X183847213Y-88991971D01*
X183847215Y-88991968D01*
X183847219Y-88991966D01*
X183991966Y-88847219D01*
X183991968Y-88847215D01*
X183991971Y-88847213D01*
X184099289Y-88699500D01*
X184112287Y-88681610D01*
X184205220Y-88499219D01*
X184268477Y-88304534D01*
X184300500Y-88102352D01*
X184300500Y-87897648D01*
X184291076Y-87838146D01*
X186007000Y-87838146D01*
X186007000Y-88161853D01*
X186042778Y-88387746D01*
X186042778Y-88387749D01*
X186113450Y-88605255D01*
X186177787Y-88731523D01*
X186217283Y-88809038D01*
X186351714Y-88994066D01*
X186513434Y-89155786D01*
X186698462Y-89290217D01*
X186753755Y-89318390D01*
X186902244Y-89394049D01*
X187119751Y-89464721D01*
X187119752Y-89464721D01*
X187119755Y-89464722D01*
X187345646Y-89500500D01*
X187345647Y-89500500D01*
X187574353Y-89500500D01*
X187574354Y-89500500D01*
X187800245Y-89464722D01*
X187800248Y-89464721D01*
X187800249Y-89464721D01*
X188017755Y-89394049D01*
X188017755Y-89394048D01*
X188017758Y-89394048D01*
X188221538Y-89290217D01*
X188406566Y-89155786D01*
X188568286Y-88994066D01*
X188702717Y-88809038D01*
X188806548Y-88605258D01*
X188877222Y-88387745D01*
X188913000Y-88161854D01*
X188913000Y-87838146D01*
X188877222Y-87612255D01*
X188877221Y-87612251D01*
X188877221Y-87612250D01*
X188806549Y-87394744D01*
X188702716Y-87190961D01*
X188674980Y-87152786D01*
X188568286Y-87005934D01*
X188514487Y-86952135D01*
X191087000Y-86952135D01*
X191087000Y-89047870D01*
X191087001Y-89047876D01*
X191093408Y-89107483D01*
X191143702Y-89242328D01*
X191143706Y-89242335D01*
X191229952Y-89357544D01*
X191229955Y-89357547D01*
X191345164Y-89443793D01*
X191345171Y-89443797D01*
X191480017Y-89494091D01*
X191480016Y-89494091D01*
X191486944Y-89494835D01*
X191539627Y-89500500D01*
X193540372Y-89500499D01*
X193599983Y-89494091D01*
X193734831Y-89443796D01*
X193850046Y-89357546D01*
X193936296Y-89242331D01*
X193986591Y-89107483D01*
X193993000Y-89047873D01*
X193992999Y-86952128D01*
X193986591Y-86892517D01*
X193984799Y-86887713D01*
X193936297Y-86757671D01*
X193936293Y-86757664D01*
X193850047Y-86642455D01*
X193850044Y-86642452D01*
X193734835Y-86556206D01*
X193734828Y-86556202D01*
X193599982Y-86505908D01*
X193599983Y-86505908D01*
X193540383Y-86499501D01*
X193540381Y-86499500D01*
X193540373Y-86499500D01*
X193540364Y-86499500D01*
X191539629Y-86499500D01*
X191539623Y-86499501D01*
X191480016Y-86505908D01*
X191345171Y-86556202D01*
X191345164Y-86556206D01*
X191229955Y-86642452D01*
X191229952Y-86642455D01*
X191143706Y-86757664D01*
X191143702Y-86757671D01*
X191093408Y-86892517D01*
X191087001Y-86952116D01*
X191087001Y-86952123D01*
X191087000Y-86952135D01*
X188514487Y-86952135D01*
X188406566Y-86844214D01*
X188221538Y-86709783D01*
X188017755Y-86605950D01*
X187800248Y-86535278D01*
X187614812Y-86505908D01*
X187574354Y-86499500D01*
X187345646Y-86499500D01*
X187305188Y-86505908D01*
X187119753Y-86535278D01*
X187119750Y-86535278D01*
X186902244Y-86605950D01*
X186698461Y-86709783D01*
X186632550Y-86757671D01*
X186513434Y-86844214D01*
X186513432Y-86844216D01*
X186513431Y-86844216D01*
X186351716Y-87005931D01*
X186351716Y-87005932D01*
X186351714Y-87005934D01*
X186293980Y-87085396D01*
X186217283Y-87190961D01*
X186113450Y-87394744D01*
X186042778Y-87612250D01*
X186042778Y-87612253D01*
X186007000Y-87838146D01*
X184291076Y-87838146D01*
X184268477Y-87695466D01*
X184205220Y-87500781D01*
X184205218Y-87500778D01*
X184205218Y-87500776D01*
X184151190Y-87394742D01*
X184112287Y-87318390D01*
X184104556Y-87307749D01*
X183991971Y-87152786D01*
X183847213Y-87008028D01*
X183681613Y-86887715D01*
X183681612Y-86887714D01*
X183681610Y-86887713D01*
X183624653Y-86858691D01*
X183499223Y-86794781D01*
X183304534Y-86731522D01*
X183129995Y-86703878D01*
X183102352Y-86699500D01*
X182897648Y-86699500D01*
X182873329Y-86703351D01*
X182695465Y-86731522D01*
X182500776Y-86794781D01*
X182318386Y-86887715D01*
X182152786Y-87008028D01*
X182008028Y-87152786D01*
X181887715Y-87318386D01*
X181794781Y-87500776D01*
X181731522Y-87695465D01*
X181699500Y-87897648D01*
X155000500Y-87897648D01*
X155000500Y-84881902D01*
X159999500Y-84881902D01*
X159999500Y-85118097D01*
X160036446Y-85351368D01*
X160109433Y-85575996D01*
X160216657Y-85786433D01*
X160355483Y-85977510D01*
X160522490Y-86144517D01*
X160713567Y-86283343D01*
X160812991Y-86334002D01*
X160924003Y-86390566D01*
X160924005Y-86390566D01*
X160924008Y-86390568D01*
X161044412Y-86429689D01*
X161148631Y-86463553D01*
X161381903Y-86500500D01*
X161381908Y-86500500D01*
X161618097Y-86500500D01*
X161851368Y-86463553D01*
X162075992Y-86390568D01*
X162286433Y-86283343D01*
X162477510Y-86144517D01*
X162644517Y-85977510D01*
X162783343Y-85786433D01*
X162890568Y-85575992D01*
X162963553Y-85351368D01*
X163000500Y-85118097D01*
X163000500Y-84881902D01*
X216499500Y-84881902D01*
X216499500Y-85118097D01*
X216536446Y-85351368D01*
X216609433Y-85575996D01*
X216716657Y-85786433D01*
X216855483Y-85977510D01*
X217022490Y-86144517D01*
X217213567Y-86283343D01*
X217312991Y-86334002D01*
X217424003Y-86390566D01*
X217424005Y-86390566D01*
X217424008Y-86390568D01*
X217544412Y-86429689D01*
X217648631Y-86463553D01*
X217881903Y-86500500D01*
X217881908Y-86500500D01*
X218118097Y-86500500D01*
X218351368Y-86463553D01*
X218575992Y-86390568D01*
X218786433Y-86283343D01*
X218977510Y-86144517D01*
X219144517Y-85977510D01*
X219283343Y-85786433D01*
X219390568Y-85575992D01*
X219463553Y-85351368D01*
X219500500Y-85118097D01*
X219500500Y-84881902D01*
X219463553Y-84648631D01*
X219390566Y-84424003D01*
X219283342Y-84213566D01*
X219144517Y-84022490D01*
X218977510Y-83855483D01*
X218786433Y-83716657D01*
X218575996Y-83609433D01*
X218351368Y-83536446D01*
X218118097Y-83499500D01*
X218118092Y-83499500D01*
X217881908Y-83499500D01*
X217881903Y-83499500D01*
X217648631Y-83536446D01*
X217424003Y-83609433D01*
X217213566Y-83716657D01*
X217104550Y-83795862D01*
X217022490Y-83855483D01*
X217022488Y-83855485D01*
X217022487Y-83855485D01*
X216855485Y-84022487D01*
X216855485Y-84022488D01*
X216855483Y-84022490D01*
X216813288Y-84080566D01*
X216716657Y-84213566D01*
X216609433Y-84424003D01*
X216536446Y-84648631D01*
X216499500Y-84881902D01*
X163000500Y-84881902D01*
X162963553Y-84648631D01*
X162890566Y-84424003D01*
X162783342Y-84213566D01*
X162644517Y-84022490D01*
X162477510Y-83855483D01*
X162286433Y-83716657D01*
X162075996Y-83609433D01*
X161851368Y-83536446D01*
X161618097Y-83499500D01*
X161618092Y-83499500D01*
X161381908Y-83499500D01*
X161381903Y-83499500D01*
X161148631Y-83536446D01*
X160924003Y-83609433D01*
X160713566Y-83716657D01*
X160604550Y-83795862D01*
X160522490Y-83855483D01*
X160522488Y-83855485D01*
X160522487Y-83855485D01*
X160355485Y-84022487D01*
X160355485Y-84022488D01*
X160355483Y-84022490D01*
X160313288Y-84080566D01*
X160216657Y-84213566D01*
X160109433Y-84424003D01*
X160036446Y-84648631D01*
X159999500Y-84881902D01*
X155000500Y-84881902D01*
X155000500Y-82571902D01*
X168684500Y-82571902D01*
X168684500Y-82808097D01*
X168721446Y-83041368D01*
X168794433Y-83265996D01*
X168901657Y-83476433D01*
X169040483Y-83667510D01*
X169207490Y-83834517D01*
X169398567Y-83973343D01*
X169495018Y-84022487D01*
X169609003Y-84080566D01*
X169609005Y-84080566D01*
X169609008Y-84080568D01*
X169729412Y-84119689D01*
X169833631Y-84153553D01*
X170066903Y-84190500D01*
X170066908Y-84190500D01*
X170303097Y-84190500D01*
X170536368Y-84153553D01*
X170760992Y-84080568D01*
X170971433Y-83973343D01*
X171162510Y-83834517D01*
X171329517Y-83667510D01*
X171468343Y-83476433D01*
X171575568Y-83265992D01*
X171648553Y-83041368D01*
X171685500Y-82808097D01*
X171685500Y-82571902D01*
X171648553Y-82338631D01*
X171604417Y-82202795D01*
X171575568Y-82114008D01*
X171575566Y-82114005D01*
X171575566Y-82114003D01*
X171488501Y-81943129D01*
X171488500Y-81943125D01*
X171468346Y-81903571D01*
X171460407Y-81892644D01*
X171458474Y-81889983D01*
X173684500Y-81889983D01*
X173684500Y-83490001D01*
X173684501Y-83490018D01*
X173695000Y-83592796D01*
X173695001Y-83592799D01*
X173719759Y-83667512D01*
X173750186Y-83759334D01*
X173842288Y-83908656D01*
X173966344Y-84032712D01*
X174115666Y-84124814D01*
X174282203Y-84179999D01*
X174384991Y-84190500D01*
X175985008Y-84190499D01*
X176087797Y-84179999D01*
X176254334Y-84124814D01*
X176403656Y-84032712D01*
X176527712Y-83908656D01*
X176619814Y-83759334D01*
X176674999Y-83592797D01*
X176685500Y-83490009D01*
X176685499Y-81889992D01*
X176674999Y-81787203D01*
X176619814Y-81620666D01*
X176527712Y-81471344D01*
X176403656Y-81347288D01*
X176254334Y-81255186D01*
X176087797Y-81200001D01*
X176087795Y-81200000D01*
X175985010Y-81189500D01*
X174384998Y-81189500D01*
X174384981Y-81189501D01*
X174282203Y-81200000D01*
X174282200Y-81200001D01*
X174115668Y-81255185D01*
X174115663Y-81255187D01*
X173966342Y-81347289D01*
X173842289Y-81471342D01*
X173750187Y-81620663D01*
X173750186Y-81620666D01*
X173695001Y-81787203D01*
X173695001Y-81787204D01*
X173695000Y-81787204D01*
X173684500Y-81889983D01*
X171458474Y-81889983D01*
X171329517Y-81712490D01*
X171162510Y-81545483D01*
X170971433Y-81406657D01*
X170760996Y-81299433D01*
X170536368Y-81226446D01*
X170303097Y-81189500D01*
X170303092Y-81189500D01*
X170066908Y-81189500D01*
X170066903Y-81189500D01*
X169833631Y-81226446D01*
X169609003Y-81299433D01*
X169398566Y-81406657D01*
X169359812Y-81434814D01*
X169207490Y-81545483D01*
X169207488Y-81545485D01*
X169207487Y-81545485D01*
X169040485Y-81712487D01*
X169040485Y-81712488D01*
X169040483Y-81712490D01*
X168986203Y-81787200D01*
X168901657Y-81903566D01*
X168794433Y-82114003D01*
X168721446Y-82338631D01*
X168684500Y-82571902D01*
X155000500Y-82571902D01*
X155000500Y-79199983D01*
X159999500Y-79199983D01*
X159999500Y-80800001D01*
X159999501Y-80800018D01*
X160010000Y-80902796D01*
X160010001Y-80902799D01*
X160065185Y-81069331D01*
X160065187Y-81069336D01*
X160100069Y-81125888D01*
X160157288Y-81218656D01*
X160281344Y-81342712D01*
X160430666Y-81434814D01*
X160597203Y-81489999D01*
X160699991Y-81500500D01*
X162300008Y-81500499D01*
X162402797Y-81489999D01*
X162569334Y-81434814D01*
X162718656Y-81342712D01*
X162842712Y-81218656D01*
X162934814Y-81069334D01*
X162989999Y-80902797D01*
X163000500Y-80800009D01*
X163000499Y-79199992D01*
X162989999Y-79097203D01*
X162934814Y-78930666D01*
X162842712Y-78781344D01*
X162718656Y-78657288D01*
X162569334Y-78565186D01*
X162402797Y-78510001D01*
X162402795Y-78510000D01*
X162300010Y-78499500D01*
X160699998Y-78499500D01*
X160699981Y-78499501D01*
X160597203Y-78510000D01*
X160597200Y-78510001D01*
X160430668Y-78565185D01*
X160430663Y-78565187D01*
X160281342Y-78657289D01*
X160157289Y-78781342D01*
X160065187Y-78930663D01*
X160065186Y-78930666D01*
X160010001Y-79097203D01*
X160010001Y-79097204D01*
X160010000Y-79097204D01*
X159999500Y-79199983D01*
X155000500Y-79199983D01*
X155000500Y-78363945D01*
X183279500Y-78363945D01*
X183279500Y-78556055D01*
X183294526Y-78650928D01*
X183309553Y-78745802D01*
X183368916Y-78928506D01*
X183370017Y-78930666D01*
X183456135Y-79099681D01*
X183569055Y-79255102D01*
X183704898Y-79390945D01*
X183860319Y-79503865D01*
X184031491Y-79591082D01*
X184031493Y-79591083D01*
X184096081Y-79612069D01*
X184153756Y-79651506D01*
X184180955Y-79715865D01*
X184169041Y-79784711D01*
X184121797Y-79836187D01*
X184096081Y-79847931D01*
X184031493Y-79868916D01*
X183860318Y-79956135D01*
X183771645Y-80020560D01*
X183704898Y-80069055D01*
X183704896Y-80069057D01*
X183704895Y-80069057D01*
X183569057Y-80204895D01*
X183569057Y-80204896D01*
X183569055Y-80204898D01*
X183520560Y-80271645D01*
X183456135Y-80360318D01*
X183368916Y-80531493D01*
X183309553Y-80714197D01*
X183279500Y-80903945D01*
X183279500Y-81096054D01*
X183309553Y-81285802D01*
X183368916Y-81468506D01*
X183385218Y-81500500D01*
X183456135Y-81639681D01*
X183569055Y-81795102D01*
X183704898Y-81930945D01*
X183860319Y-82043865D01*
X183970521Y-82100016D01*
X184031493Y-82131083D01*
X184122845Y-82160764D01*
X184214199Y-82190447D01*
X184403945Y-82220500D01*
X184403946Y-82220500D01*
X184596054Y-82220500D01*
X184596055Y-82220500D01*
X184785801Y-82190447D01*
X184968509Y-82131082D01*
X185139681Y-82043865D01*
X185295102Y-81930945D01*
X185430945Y-81795102D01*
X185543865Y-81639681D01*
X185631082Y-81468509D01*
X185690447Y-81285801D01*
X185720500Y-81096055D01*
X185720500Y-80903945D01*
X185690447Y-80714199D01*
X185631082Y-80531491D01*
X185543865Y-80360319D01*
X185430945Y-80204898D01*
X185295102Y-80069055D01*
X185139681Y-79956135D01*
X184968504Y-79868915D01*
X184903919Y-79847931D01*
X184846243Y-79808494D01*
X184819044Y-79744136D01*
X184830958Y-79675289D01*
X184878202Y-79623813D01*
X184903919Y-79612069D01*
X184968504Y-79591084D01*
X184968506Y-79591082D01*
X184968509Y-79591082D01*
X185139681Y-79503865D01*
X185295102Y-79390945D01*
X185430945Y-79255102D01*
X185543865Y-79099681D01*
X185631082Y-78928509D01*
X185690447Y-78745801D01*
X185720500Y-78556055D01*
X185720500Y-78363945D01*
X194279500Y-78363945D01*
X194279500Y-78556055D01*
X194294526Y-78650928D01*
X194309553Y-78745802D01*
X194368916Y-78928506D01*
X194370017Y-78930666D01*
X194456135Y-79099681D01*
X194569055Y-79255102D01*
X194704898Y-79390945D01*
X194860319Y-79503865D01*
X195031491Y-79591082D01*
X195031493Y-79591083D01*
X195096081Y-79612069D01*
X195153756Y-79651506D01*
X195180955Y-79715865D01*
X195169041Y-79784711D01*
X195121797Y-79836187D01*
X195096081Y-79847931D01*
X195031493Y-79868916D01*
X194860318Y-79956135D01*
X194771645Y-80020560D01*
X194704898Y-80069055D01*
X194704896Y-80069057D01*
X194704895Y-80069057D01*
X194569057Y-80204895D01*
X194569057Y-80204896D01*
X194569055Y-80204898D01*
X194520560Y-80271645D01*
X194456135Y-80360318D01*
X194368916Y-80531493D01*
X194309553Y-80714197D01*
X194279500Y-80903945D01*
X194279500Y-81096054D01*
X194309553Y-81285802D01*
X194368916Y-81468506D01*
X194385218Y-81500500D01*
X194456135Y-81639681D01*
X194569055Y-81795102D01*
X194704898Y-81930945D01*
X194860319Y-82043865D01*
X194970521Y-82100016D01*
X195031493Y-82131083D01*
X195122845Y-82160764D01*
X195214199Y-82190447D01*
X195403945Y-82220500D01*
X195403946Y-82220500D01*
X195596054Y-82220500D01*
X195596055Y-82220500D01*
X195785801Y-82190447D01*
X195968509Y-82131082D01*
X196139681Y-82043865D01*
X196295102Y-81930945D01*
X196430945Y-81795102D01*
X196543865Y-81639681D01*
X196631082Y-81468509D01*
X196690447Y-81285801D01*
X196720500Y-81096055D01*
X196720500Y-80903945D01*
X196719872Y-80899983D01*
X207852151Y-80899983D01*
X207852151Y-82100001D01*
X207852152Y-82100018D01*
X207862651Y-82202796D01*
X207862652Y-82202799D01*
X207868518Y-82220500D01*
X207917837Y-82369334D01*
X208009939Y-82518656D01*
X208133995Y-82642712D01*
X208283317Y-82734814D01*
X208449854Y-82789999D01*
X208552642Y-82800500D01*
X209752659Y-82800499D01*
X209855448Y-82789999D01*
X210021985Y-82734814D01*
X210171307Y-82642712D01*
X210295363Y-82518656D01*
X210387465Y-82369334D01*
X210442650Y-82202797D01*
X210453151Y-82100009D01*
X210453150Y-80899992D01*
X210442650Y-80797203D01*
X210387465Y-80630666D01*
X210295363Y-80481344D01*
X210171307Y-80357288D01*
X210021985Y-80265186D01*
X209855448Y-80210001D01*
X209855446Y-80210000D01*
X209752661Y-80199500D01*
X208552649Y-80199500D01*
X208552632Y-80199501D01*
X208449854Y-80210000D01*
X208449851Y-80210001D01*
X208283319Y-80265185D01*
X208283314Y-80265187D01*
X208133993Y-80357289D01*
X208009940Y-80481342D01*
X207917838Y-80630663D01*
X207917837Y-80630666D01*
X207862652Y-80797203D01*
X207862652Y-80797204D01*
X207862651Y-80797204D01*
X207852151Y-80899983D01*
X196719872Y-80899983D01*
X196690447Y-80714199D01*
X196631082Y-80531491D01*
X196543865Y-80360319D01*
X196430945Y-80204898D01*
X196295102Y-80069055D01*
X196139681Y-79956135D01*
X195968504Y-79868915D01*
X195903919Y-79847931D01*
X195846243Y-79808494D01*
X195819044Y-79744136D01*
X195830958Y-79675289D01*
X195878202Y-79623813D01*
X195903919Y-79612069D01*
X195968504Y-79591084D01*
X195968506Y-79591082D01*
X195968509Y-79591082D01*
X196139681Y-79503865D01*
X196295102Y-79390945D01*
X196430945Y-79255102D01*
X196470991Y-79199983D01*
X216499500Y-79199983D01*
X216499500Y-80800001D01*
X216499501Y-80800018D01*
X216510000Y-80902796D01*
X216510001Y-80902799D01*
X216565185Y-81069331D01*
X216565187Y-81069336D01*
X216600069Y-81125888D01*
X216657288Y-81218656D01*
X216781344Y-81342712D01*
X216930666Y-81434814D01*
X217097203Y-81489999D01*
X217199991Y-81500500D01*
X218800008Y-81500499D01*
X218902797Y-81489999D01*
X219069334Y-81434814D01*
X219218656Y-81342712D01*
X219342712Y-81218656D01*
X219434814Y-81069334D01*
X219489999Y-80902797D01*
X219500500Y-80800009D01*
X219500499Y-79199992D01*
X219489999Y-79097203D01*
X219434814Y-78930666D01*
X219342712Y-78781344D01*
X219218656Y-78657288D01*
X219069334Y-78565186D01*
X218902797Y-78510001D01*
X218902795Y-78510000D01*
X218800010Y-78499500D01*
X217199998Y-78499500D01*
X217199981Y-78499501D01*
X217097203Y-78510000D01*
X217097200Y-78510001D01*
X216930668Y-78565185D01*
X216930663Y-78565187D01*
X216781342Y-78657289D01*
X216657289Y-78781342D01*
X216565187Y-78930663D01*
X216565186Y-78930666D01*
X216510001Y-79097203D01*
X216510001Y-79097204D01*
X216510000Y-79097204D01*
X216499500Y-79199983D01*
X196470991Y-79199983D01*
X196543865Y-79099681D01*
X196631082Y-78928509D01*
X196690447Y-78745801D01*
X196720500Y-78556055D01*
X196720500Y-78363945D01*
X196690447Y-78174199D01*
X196631082Y-77991491D01*
X196543865Y-77820319D01*
X196430945Y-77664898D01*
X196295102Y-77529055D01*
X196139681Y-77416135D01*
X195968506Y-77328916D01*
X195785802Y-77269553D01*
X195690928Y-77254526D01*
X195596055Y-77239500D01*
X195403945Y-77239500D01*
X195340696Y-77249517D01*
X195214197Y-77269553D01*
X195031493Y-77328916D01*
X194860318Y-77416135D01*
X194771645Y-77480560D01*
X194704898Y-77529055D01*
X194704896Y-77529057D01*
X194704895Y-77529057D01*
X194569057Y-77664895D01*
X194569057Y-77664896D01*
X194569055Y-77664898D01*
X194520560Y-77731645D01*
X194456135Y-77820318D01*
X194368916Y-77991493D01*
X194309553Y-78174197D01*
X194309553Y-78174199D01*
X194279500Y-78363945D01*
X185720500Y-78363945D01*
X185690447Y-78174199D01*
X185631082Y-77991491D01*
X185543865Y-77820319D01*
X185430945Y-77664898D01*
X185295102Y-77529055D01*
X185139681Y-77416135D01*
X184968506Y-77328916D01*
X184785802Y-77269553D01*
X184690928Y-77254526D01*
X184596055Y-77239500D01*
X184403945Y-77239500D01*
X184340696Y-77249517D01*
X184214197Y-77269553D01*
X184031493Y-77328916D01*
X183860318Y-77416135D01*
X183771645Y-77480560D01*
X183704898Y-77529055D01*
X183704896Y-77529057D01*
X183704895Y-77529057D01*
X183569057Y-77664895D01*
X183569057Y-77664896D01*
X183569055Y-77664898D01*
X183520560Y-77731645D01*
X183456135Y-77820318D01*
X183368916Y-77991493D01*
X183309553Y-78174197D01*
X183309553Y-78174199D01*
X183279500Y-78363945D01*
X155000500Y-78363945D01*
X155000500Y-75897648D01*
X160199500Y-75897648D01*
X160199500Y-76102351D01*
X160231522Y-76304534D01*
X160294781Y-76499223D01*
X160387715Y-76681613D01*
X160508028Y-76847213D01*
X160652786Y-76991971D01*
X160807749Y-77104556D01*
X160818390Y-77112287D01*
X160934607Y-77171503D01*
X161000776Y-77205218D01*
X161000778Y-77205218D01*
X161000781Y-77205220D01*
X161105137Y-77239127D01*
X161195465Y-77268477D01*
X161202259Y-77269553D01*
X161397648Y-77300500D01*
X161397649Y-77300500D01*
X161602351Y-77300500D01*
X161602352Y-77300500D01*
X161804534Y-77268477D01*
X161999219Y-77205220D01*
X162181610Y-77112287D01*
X162274590Y-77044732D01*
X162347213Y-76991971D01*
X162347215Y-76991968D01*
X162347219Y-76991966D01*
X162491966Y-76847219D01*
X162491968Y-76847215D01*
X162491971Y-76847213D01*
X162595133Y-76705220D01*
X162612287Y-76681610D01*
X162705220Y-76499219D01*
X162768477Y-76304534D01*
X162800500Y-76102352D01*
X162800500Y-75897648D01*
X162768477Y-75695466D01*
X162705220Y-75500781D01*
X162705218Y-75500778D01*
X162705218Y-75500776D01*
X162660163Y-75412352D01*
X162612287Y-75318390D01*
X162599289Y-75300500D01*
X162491971Y-75152786D01*
X162347213Y-75008028D01*
X162181613Y-74887715D01*
X162181612Y-74887714D01*
X162181610Y-74887713D01*
X162124653Y-74858691D01*
X161999223Y-74794781D01*
X161804534Y-74731522D01*
X161629995Y-74703878D01*
X161602352Y-74699500D01*
X161397648Y-74699500D01*
X161373329Y-74703351D01*
X161195465Y-74731522D01*
X161000776Y-74794781D01*
X160818386Y-74887715D01*
X160652786Y-75008028D01*
X160508028Y-75152786D01*
X160387715Y-75318386D01*
X160294781Y-75500776D01*
X160231522Y-75695465D01*
X160199500Y-75897648D01*
X155000500Y-75897648D01*
X155000500Y-72837648D01*
X164384500Y-72837648D01*
X164384500Y-73042351D01*
X164416522Y-73244534D01*
X164479781Y-73439223D01*
X164572715Y-73621613D01*
X164693028Y-73787213D01*
X164837786Y-73931971D01*
X164992749Y-74044556D01*
X165003390Y-74052287D01*
X165101646Y-74102351D01*
X165185776Y-74145218D01*
X165185778Y-74145218D01*
X165185781Y-74145220D01*
X165290137Y-74179127D01*
X165380465Y-74208477D01*
X165481557Y-74224488D01*
X165582648Y-74240500D01*
X165582649Y-74240500D01*
X165787351Y-74240500D01*
X165787352Y-74240500D01*
X165989534Y-74208477D01*
X166184219Y-74145220D01*
X166366610Y-74052287D01*
X166469560Y-73977490D01*
X166532213Y-73931971D01*
X166532215Y-73931968D01*
X166532219Y-73931966D01*
X166676966Y-73787219D01*
X166676968Y-73787215D01*
X166676971Y-73787213D01*
X166743628Y-73695466D01*
X166797287Y-73621610D01*
X166890220Y-73439219D01*
X166953477Y-73244534D01*
X166985500Y-73042352D01*
X166985500Y-72837648D01*
X166970777Y-72744689D01*
X166953477Y-72635465D01*
X166924127Y-72545137D01*
X166890220Y-72440781D01*
X166890218Y-72440778D01*
X166890218Y-72440776D01*
X166856503Y-72374607D01*
X166797287Y-72258390D01*
X166741504Y-72181610D01*
X166676971Y-72092786D01*
X166532213Y-71948028D01*
X166366613Y-71827715D01*
X166366612Y-71827714D01*
X166366610Y-71827713D01*
X166269110Y-71778034D01*
X166184223Y-71734781D01*
X165989534Y-71671522D01*
X165814995Y-71643878D01*
X165787352Y-71639500D01*
X165582648Y-71639500D01*
X165558329Y-71643351D01*
X165380465Y-71671522D01*
X165185776Y-71734781D01*
X165003386Y-71827715D01*
X164837786Y-71948028D01*
X164693028Y-72092786D01*
X164572715Y-72258386D01*
X164479781Y-72440776D01*
X164416522Y-72635465D01*
X164384500Y-72837648D01*
X155000500Y-72837648D01*
X155000500Y-67587648D01*
X167384500Y-67587648D01*
X167384500Y-67792351D01*
X167416522Y-67994534D01*
X167479781Y-68189223D01*
X167572715Y-68371613D01*
X167693028Y-68537213D01*
X167837786Y-68681971D01*
X167992749Y-68794556D01*
X168003390Y-68802287D01*
X168094840Y-68848883D01*
X168096080Y-68849515D01*
X168146876Y-68897490D01*
X168163671Y-68965311D01*
X168141134Y-69031446D01*
X168096080Y-69070485D01*
X168003386Y-69117715D01*
X167837786Y-69238028D01*
X167693028Y-69382786D01*
X167572715Y-69548386D01*
X167479781Y-69730776D01*
X167416522Y-69925465D01*
X167384500Y-70127648D01*
X167384500Y-70332351D01*
X167416522Y-70534534D01*
X167479781Y-70729223D01*
X167572715Y-70911613D01*
X167693028Y-71077213D01*
X167837786Y-71221971D01*
X167992749Y-71334556D01*
X168003390Y-71342287D01*
X168094840Y-71388883D01*
X168096080Y-71389515D01*
X168146876Y-71437490D01*
X168163671Y-71505311D01*
X168141134Y-71571446D01*
X168096080Y-71610485D01*
X168003386Y-71657715D01*
X167837786Y-71778028D01*
X167693028Y-71922786D01*
X167572715Y-72088386D01*
X167479781Y-72270776D01*
X167416522Y-72465465D01*
X167384500Y-72667648D01*
X167384500Y-72872351D01*
X167416522Y-73074534D01*
X167479781Y-73269223D01*
X167532062Y-73371828D01*
X167566401Y-73439223D01*
X167572715Y-73451613D01*
X167693028Y-73617213D01*
X167837786Y-73761971D01*
X167992749Y-73874556D01*
X168003390Y-73882287D01*
X168094840Y-73928883D01*
X168096080Y-73929515D01*
X168146876Y-73977490D01*
X168163671Y-74045311D01*
X168141134Y-74111446D01*
X168096080Y-74150485D01*
X168003386Y-74197715D01*
X167837786Y-74318028D01*
X167693028Y-74462786D01*
X167572715Y-74628386D01*
X167479781Y-74810776D01*
X167416522Y-75005465D01*
X167384500Y-75207648D01*
X167384500Y-75412351D01*
X167416522Y-75614534D01*
X167479781Y-75809223D01*
X167572715Y-75991613D01*
X167693028Y-76157213D01*
X167837786Y-76301971D01*
X167992749Y-76414556D01*
X168003390Y-76422287D01*
X168119607Y-76481503D01*
X168185776Y-76515218D01*
X168185778Y-76515218D01*
X168185781Y-76515220D01*
X168276856Y-76544812D01*
X168380465Y-76578477D01*
X168481557Y-76594488D01*
X168582648Y-76610500D01*
X168582649Y-76610500D01*
X168787351Y-76610500D01*
X168787352Y-76610500D01*
X168989534Y-76578477D01*
X169184219Y-76515220D01*
X169366610Y-76422287D01*
X169495482Y-76328657D01*
X169532213Y-76301971D01*
X169532215Y-76301968D01*
X169532219Y-76301966D01*
X169676966Y-76157219D01*
X169676968Y-76157215D01*
X169676971Y-76157213D01*
X169781892Y-76012799D01*
X169797287Y-75991610D01*
X169890220Y-75809219D01*
X169953477Y-75614534D01*
X169985500Y-75412352D01*
X169985500Y-75207648D01*
X169953477Y-75005466D01*
X169890220Y-74810781D01*
X169890218Y-74810778D01*
X169890218Y-74810776D01*
X169865940Y-74763129D01*
X169838860Y-74709983D01*
X175004500Y-74709983D01*
X175004500Y-75910001D01*
X175004501Y-75910018D01*
X175015000Y-76012796D01*
X175015001Y-76012799D01*
X175070185Y-76179331D01*
X175070187Y-76179336D01*
X175105069Y-76235888D01*
X175162288Y-76328656D01*
X175286344Y-76452712D01*
X175435666Y-76544814D01*
X175602203Y-76599999D01*
X175704991Y-76610500D01*
X176905008Y-76610499D01*
X177007797Y-76599999D01*
X177174334Y-76544814D01*
X177323656Y-76452712D01*
X177447712Y-76328656D01*
X177539814Y-76179334D01*
X177594999Y-76012797D01*
X177605500Y-75910009D01*
X177605499Y-74709992D01*
X177594999Y-74607203D01*
X177539814Y-74440666D01*
X177447712Y-74291344D01*
X177323656Y-74167288D01*
X177174334Y-74075186D01*
X177007797Y-74020001D01*
X177007795Y-74020000D01*
X176905010Y-74009500D01*
X175704998Y-74009500D01*
X175704981Y-74009501D01*
X175602203Y-74020000D01*
X175602200Y-74020001D01*
X175435668Y-74075185D01*
X175435663Y-74075187D01*
X175286342Y-74167289D01*
X175162289Y-74291342D01*
X175070187Y-74440663D01*
X175070186Y-74440666D01*
X175015001Y-74607203D01*
X175015001Y-74607204D01*
X175015000Y-74607204D01*
X175004500Y-74709983D01*
X169838860Y-74709983D01*
X169833519Y-74699500D01*
X169797287Y-74628390D01*
X169797285Y-74628387D01*
X169797284Y-74628385D01*
X169676971Y-74462786D01*
X169532213Y-74318028D01*
X169366614Y-74197715D01*
X169360006Y-74194348D01*
X169273917Y-74150483D01*
X169223123Y-74102511D01*
X169206328Y-74034690D01*
X169228865Y-73968555D01*
X169273917Y-73929516D01*
X169366610Y-73882287D01*
X169387770Y-73866913D01*
X169532213Y-73761971D01*
X169532215Y-73761968D01*
X169532219Y-73761966D01*
X169676966Y-73617219D01*
X169676968Y-73617215D01*
X169676971Y-73617213D01*
X169761566Y-73500776D01*
X169797287Y-73451610D01*
X169890220Y-73269219D01*
X169953477Y-73074534D01*
X169985500Y-72872352D01*
X169985500Y-72667648D01*
X169953477Y-72465466D01*
X169945456Y-72440781D01*
X169890218Y-72270776D01*
X169856503Y-72204607D01*
X169797287Y-72088390D01*
X169789556Y-72077749D01*
X169676971Y-71922786D01*
X169532213Y-71778028D01*
X169366614Y-71657715D01*
X169330865Y-71639500D01*
X169273917Y-71610483D01*
X169223123Y-71562511D01*
X169206328Y-71494690D01*
X169228865Y-71428555D01*
X169273917Y-71389516D01*
X169366610Y-71342287D01*
X169387770Y-71326913D01*
X169532213Y-71221971D01*
X169532215Y-71221968D01*
X169532219Y-71221966D01*
X169676966Y-71077219D01*
X169676968Y-71077215D01*
X169676971Y-71077213D01*
X169738905Y-70991966D01*
X169797287Y-70911610D01*
X169890220Y-70729219D01*
X169953477Y-70534534D01*
X169985500Y-70332352D01*
X169985500Y-70127648D01*
X175004500Y-70127648D01*
X175004500Y-70332351D01*
X175036522Y-70534534D01*
X175099781Y-70729223D01*
X175192715Y-70911613D01*
X175313028Y-71077213D01*
X175457786Y-71221971D01*
X175612749Y-71334556D01*
X175623390Y-71342287D01*
X175716080Y-71389515D01*
X175805776Y-71435218D01*
X175805778Y-71435218D01*
X175805781Y-71435220D01*
X175910137Y-71469127D01*
X176000465Y-71498477D01*
X176019697Y-71501523D01*
X176202648Y-71530500D01*
X176202649Y-71530500D01*
X176407351Y-71530500D01*
X176407352Y-71530500D01*
X176609534Y-71498477D01*
X176804219Y-71435220D01*
X176877958Y-71397648D01*
X179699500Y-71397648D01*
X179699500Y-71602351D01*
X179731522Y-71804534D01*
X179794781Y-71999223D01*
X179887715Y-72181613D01*
X180008028Y-72347213D01*
X180152786Y-72491971D01*
X180318388Y-72612286D01*
X180371828Y-72639516D01*
X180422623Y-72687490D01*
X180439418Y-72755312D01*
X180416880Y-72821446D01*
X180371828Y-72860484D01*
X180318388Y-72887713D01*
X180152786Y-73008028D01*
X180008028Y-73152786D01*
X179887715Y-73318386D01*
X179794781Y-73500776D01*
X179731522Y-73695465D01*
X179699500Y-73897648D01*
X179699500Y-74102351D01*
X179731522Y-74304534D01*
X179794781Y-74499223D01*
X179849799Y-74607200D01*
X179873026Y-74652786D01*
X179887715Y-74681613D01*
X180008028Y-74847213D01*
X180152786Y-74991971D01*
X180307749Y-75104556D01*
X180318390Y-75112287D01*
X180397864Y-75152781D01*
X180500776Y-75205218D01*
X180500778Y-75205218D01*
X180500781Y-75205220D01*
X180605137Y-75239127D01*
X180695465Y-75268477D01*
X180796557Y-75284488D01*
X180897648Y-75300500D01*
X180897649Y-75300500D01*
X181102351Y-75300500D01*
X181102352Y-75300500D01*
X181304534Y-75268477D01*
X181499219Y-75205220D01*
X181681610Y-75112287D01*
X181774590Y-75044732D01*
X181847213Y-74991971D01*
X181847215Y-74991968D01*
X181847219Y-74991966D01*
X181991966Y-74847219D01*
X181991968Y-74847215D01*
X181991971Y-74847213D01*
X182091667Y-74709991D01*
X182112287Y-74681610D01*
X182139515Y-74628171D01*
X182187490Y-74577376D01*
X182255311Y-74560581D01*
X182321446Y-74583118D01*
X182360484Y-74628171D01*
X182373026Y-74652786D01*
X182387715Y-74681613D01*
X182508028Y-74847213D01*
X182652786Y-74991971D01*
X182807749Y-75104556D01*
X182818390Y-75112287D01*
X182897864Y-75152781D01*
X183000776Y-75205218D01*
X183000778Y-75205218D01*
X183000781Y-75205220D01*
X183105137Y-75239127D01*
X183195465Y-75268477D01*
X183296557Y-75284488D01*
X183397648Y-75300500D01*
X183397649Y-75300500D01*
X183602351Y-75300500D01*
X183602352Y-75300500D01*
X183804534Y-75268477D01*
X183999219Y-75205220D01*
X184181610Y-75112287D01*
X184274590Y-75044732D01*
X184347213Y-74991971D01*
X184347215Y-74991968D01*
X184347219Y-74991966D01*
X184491966Y-74847219D01*
X184491968Y-74847215D01*
X184491971Y-74847213D01*
X184591667Y-74709991D01*
X184612287Y-74681610D01*
X184705220Y-74499219D01*
X184768477Y-74304534D01*
X184800500Y-74102352D01*
X184800500Y-73897648D01*
X194949500Y-73897648D01*
X194949500Y-74102351D01*
X194981522Y-74304534D01*
X195044781Y-74499223D01*
X195099799Y-74607200D01*
X195123026Y-74652786D01*
X195137715Y-74681613D01*
X195258028Y-74847213D01*
X195402786Y-74991971D01*
X195557749Y-75104556D01*
X195568390Y-75112287D01*
X195647864Y-75152781D01*
X195750776Y-75205218D01*
X195750778Y-75205218D01*
X195750781Y-75205220D01*
X195855137Y-75239127D01*
X195945465Y-75268477D01*
X196046557Y-75284488D01*
X196147648Y-75300500D01*
X196147649Y-75300500D01*
X196352351Y-75300500D01*
X196352352Y-75300500D01*
X196554534Y-75268477D01*
X196749219Y-75205220D01*
X196931610Y-75112287D01*
X197024590Y-75044732D01*
X197097213Y-74991971D01*
X197097215Y-74991968D01*
X197097219Y-74991966D01*
X197241966Y-74847219D01*
X197241968Y-74847215D01*
X197241971Y-74847213D01*
X197341667Y-74709991D01*
X197362287Y-74681610D01*
X197389515Y-74628171D01*
X197437490Y-74577376D01*
X197505311Y-74560581D01*
X197571446Y-74583118D01*
X197610484Y-74628171D01*
X197623026Y-74652786D01*
X197637715Y-74681613D01*
X197758028Y-74847213D01*
X197902786Y-74991971D01*
X198057749Y-75104556D01*
X198068390Y-75112287D01*
X198147864Y-75152781D01*
X198250776Y-75205218D01*
X198250778Y-75205218D01*
X198250781Y-75205220D01*
X198355137Y-75239127D01*
X198445465Y-75268477D01*
X198546557Y-75284488D01*
X198647648Y-75300500D01*
X198647649Y-75300500D01*
X198852351Y-75300500D01*
X198852352Y-75300500D01*
X199054534Y-75268477D01*
X199249219Y-75205220D01*
X199431610Y-75112287D01*
X199524590Y-75044732D01*
X199597213Y-74991971D01*
X199597215Y-74991968D01*
X199597219Y-74991966D01*
X199741966Y-74847219D01*
X199741968Y-74847215D01*
X199741971Y-74847213D01*
X199841667Y-74709991D01*
X199862287Y-74681610D01*
X199955220Y-74499219D01*
X200018477Y-74304534D01*
X200050500Y-74102352D01*
X200050500Y-73897648D01*
X200048067Y-73882284D01*
X200018477Y-73695465D01*
X199955218Y-73500776D01*
X199889515Y-73371828D01*
X199862287Y-73318390D01*
X199854556Y-73307749D01*
X199741971Y-73152786D01*
X199597213Y-73008028D01*
X199431613Y-72887715D01*
X199431612Y-72887714D01*
X199431610Y-72887713D01*
X199378171Y-72860484D01*
X199373104Y-72855698D01*
X199366435Y-72853671D01*
X199348032Y-72832018D01*
X199327376Y-72812510D01*
X199325700Y-72805744D01*
X199321186Y-72800433D01*
X199317410Y-72772266D01*
X199310581Y-72744689D01*
X199312829Y-72738091D01*
X199311903Y-72731183D01*
X199323951Y-72705452D01*
X199333118Y-72678554D01*
X199339289Y-72672697D01*
X199341533Y-72667907D01*
X199341867Y-72667648D01*
X202394500Y-72667648D01*
X202394500Y-72872351D01*
X202426522Y-73074534D01*
X202489781Y-73269223D01*
X202542062Y-73371828D01*
X202576401Y-73439223D01*
X202582715Y-73451613D01*
X202703028Y-73617213D01*
X202847786Y-73761971D01*
X203002749Y-73874556D01*
X203013390Y-73882287D01*
X203110900Y-73931971D01*
X203195776Y-73975218D01*
X203195778Y-73975218D01*
X203195781Y-73975220D01*
X203300137Y-74009127D01*
X203390465Y-74038477D01*
X203491557Y-74054488D01*
X203592648Y-74070500D01*
X203592649Y-74070500D01*
X203797351Y-74070500D01*
X203797352Y-74070500D01*
X203999534Y-74038477D01*
X204194219Y-73975220D01*
X204376610Y-73882287D01*
X204507461Y-73787219D01*
X204542213Y-73761971D01*
X204542215Y-73761968D01*
X204542219Y-73761966D01*
X204686966Y-73617219D01*
X204686968Y-73617215D01*
X204686971Y-73617213D01*
X204771566Y-73500776D01*
X204807287Y-73451610D01*
X204900220Y-73269219D01*
X204963477Y-73074534D01*
X204995500Y-72872352D01*
X204995500Y-72667648D01*
X204963477Y-72465466D01*
X204955456Y-72440781D01*
X204900218Y-72270776D01*
X204866503Y-72204607D01*
X204807287Y-72088390D01*
X204799556Y-72077749D01*
X204686971Y-71922786D01*
X204542213Y-71778028D01*
X204376613Y-71657715D01*
X204376612Y-71657714D01*
X204376610Y-71657713D01*
X204319653Y-71628691D01*
X204194223Y-71564781D01*
X203999534Y-71501522D01*
X203824995Y-71473878D01*
X203797352Y-71469500D01*
X203592648Y-71469500D01*
X203568329Y-71473351D01*
X203390465Y-71501522D01*
X203195776Y-71564781D01*
X203013386Y-71657715D01*
X202847786Y-71778028D01*
X202703028Y-71922786D01*
X202582715Y-72088386D01*
X202489781Y-72270776D01*
X202426522Y-72465465D01*
X202394500Y-72667648D01*
X199341867Y-72667648D01*
X199356832Y-72656051D01*
X199368426Y-72645050D01*
X199373178Y-72642059D01*
X199431610Y-72612287D01*
X199597219Y-72491966D01*
X199741966Y-72347219D01*
X199741968Y-72347215D01*
X199741971Y-72347213D01*
X199797505Y-72270776D01*
X199862287Y-72181610D01*
X199955220Y-71999219D01*
X200018477Y-71804534D01*
X200050500Y-71602352D01*
X200050500Y-71397648D01*
X200018477Y-71195466D01*
X199955220Y-71000781D01*
X199955218Y-71000778D01*
X199955218Y-71000776D01*
X199921503Y-70934607D01*
X199862287Y-70818390D01*
X199854556Y-70807749D01*
X199741971Y-70652786D01*
X199597213Y-70508028D01*
X199431613Y-70387715D01*
X199431612Y-70387714D01*
X199431610Y-70387713D01*
X199249219Y-70294780D01*
X199247563Y-70294094D01*
X199247030Y-70293664D01*
X199244878Y-70292568D01*
X199245108Y-70292115D01*
X199193159Y-70250254D01*
X199171093Y-70183960D01*
X199188371Y-70116261D01*
X199207326Y-70091858D01*
X199291966Y-70007219D01*
X199412287Y-69841610D01*
X199505220Y-69659219D01*
X199568477Y-69464534D01*
X199600500Y-69262352D01*
X199600500Y-69057648D01*
X199589865Y-68990500D01*
X199568477Y-68855465D01*
X199520776Y-68708657D01*
X199505220Y-68660781D01*
X199505218Y-68660778D01*
X199505218Y-68660776D01*
X199453530Y-68559334D01*
X199412287Y-68478390D01*
X199404556Y-68467749D01*
X199291971Y-68312786D01*
X199147213Y-68168028D01*
X198981613Y-68047715D01*
X198981612Y-68047714D01*
X198981610Y-68047713D01*
X198924653Y-68018691D01*
X198799223Y-67954781D01*
X198604534Y-67891522D01*
X198429995Y-67863878D01*
X198402352Y-67859500D01*
X198197648Y-67859500D01*
X198173329Y-67863351D01*
X197995465Y-67891522D01*
X197800776Y-67954781D01*
X197618386Y-68047715D01*
X197452786Y-68168028D01*
X197308028Y-68312786D01*
X197187715Y-68478386D01*
X197094781Y-68660776D01*
X197031522Y-68855465D01*
X196999500Y-69057648D01*
X196999500Y-69262351D01*
X197031522Y-69464534D01*
X197094781Y-69659223D01*
X197187715Y-69841613D01*
X197308028Y-70007213D01*
X197452786Y-70151971D01*
X197583209Y-70246727D01*
X197618390Y-70272287D01*
X197800781Y-70365220D01*
X197800784Y-70365221D01*
X197802426Y-70365901D01*
X197802957Y-70366328D01*
X197805122Y-70367432D01*
X197804890Y-70367886D01*
X197856834Y-70409737D01*
X197878906Y-70476029D01*
X197861633Y-70543730D01*
X197842667Y-70568148D01*
X197758027Y-70652788D01*
X197637715Y-70818386D01*
X197544781Y-71000776D01*
X197481522Y-71195465D01*
X197449500Y-71397648D01*
X197449500Y-71602351D01*
X197481522Y-71804534D01*
X197544781Y-71999223D01*
X197637715Y-72181613D01*
X197758028Y-72347213D01*
X197902786Y-72491971D01*
X198068388Y-72612286D01*
X198121828Y-72639516D01*
X198172623Y-72687490D01*
X198189418Y-72755312D01*
X198166880Y-72821446D01*
X198121828Y-72860484D01*
X198068388Y-72887713D01*
X197902786Y-73008028D01*
X197758028Y-73152786D01*
X197637713Y-73318388D01*
X197610484Y-73371828D01*
X197562510Y-73422623D01*
X197494688Y-73439418D01*
X197428554Y-73416880D01*
X197389516Y-73371828D01*
X197362286Y-73318388D01*
X197241971Y-73152786D01*
X197097213Y-73008028D01*
X196931613Y-72887715D01*
X196931612Y-72887714D01*
X196931610Y-72887713D01*
X196864799Y-72853671D01*
X196749223Y-72794781D01*
X196554534Y-72731522D01*
X196379995Y-72703878D01*
X196352352Y-72699500D01*
X196147648Y-72699500D01*
X196123329Y-72703351D01*
X195945465Y-72731522D01*
X195750776Y-72794781D01*
X195568386Y-72887715D01*
X195402786Y-73008028D01*
X195258028Y-73152786D01*
X195137715Y-73318386D01*
X195044781Y-73500776D01*
X194981522Y-73695465D01*
X194949500Y-73897648D01*
X184800500Y-73897648D01*
X184798067Y-73882284D01*
X184768477Y-73695465D01*
X184705218Y-73500776D01*
X184639515Y-73371828D01*
X184612287Y-73318390D01*
X184604556Y-73307749D01*
X184491971Y-73152786D01*
X184347213Y-73008028D01*
X184181613Y-72887715D01*
X184181612Y-72887714D01*
X184181610Y-72887713D01*
X184114799Y-72853671D01*
X183999223Y-72794781D01*
X183804534Y-72731522D01*
X183629995Y-72703878D01*
X183602352Y-72699500D01*
X183397648Y-72699500D01*
X183373329Y-72703351D01*
X183195465Y-72731522D01*
X183000776Y-72794781D01*
X182818386Y-72887715D01*
X182652786Y-73008028D01*
X182508028Y-73152786D01*
X182387713Y-73318388D01*
X182360484Y-73371828D01*
X182312510Y-73422623D01*
X182244688Y-73439418D01*
X182178554Y-73416880D01*
X182139516Y-73371828D01*
X182112286Y-73318388D01*
X181991971Y-73152786D01*
X181847213Y-73008028D01*
X181681613Y-72887715D01*
X181681612Y-72887714D01*
X181681610Y-72887713D01*
X181628171Y-72860484D01*
X181577376Y-72812510D01*
X181560581Y-72744689D01*
X181583118Y-72678554D01*
X181628172Y-72639515D01*
X181681610Y-72612287D01*
X181774590Y-72544732D01*
X181847213Y-72491971D01*
X181847215Y-72491968D01*
X181847219Y-72491966D01*
X181991966Y-72347219D01*
X181991968Y-72347215D01*
X181991971Y-72347213D01*
X182047505Y-72270776D01*
X182112287Y-72181610D01*
X182205220Y-71999219D01*
X182268477Y-71804534D01*
X182300500Y-71602352D01*
X182300500Y-71397648D01*
X182268477Y-71195466D01*
X182205220Y-71000781D01*
X182205218Y-71000778D01*
X182205218Y-71000776D01*
X182171503Y-70934607D01*
X182112287Y-70818390D01*
X182104556Y-70807749D01*
X181991971Y-70652786D01*
X181859405Y-70520220D01*
X181825920Y-70458897D01*
X181830904Y-70389205D01*
X181872776Y-70333272D01*
X181908763Y-70314610D01*
X181999219Y-70285220D01*
X182181610Y-70192287D01*
X182305396Y-70102352D01*
X182347213Y-70071971D01*
X182347215Y-70071968D01*
X182347219Y-70071966D01*
X182491966Y-69927219D01*
X182491968Y-69927215D01*
X182491971Y-69927213D01*
X182605888Y-69770417D01*
X182612287Y-69761610D01*
X182705220Y-69579219D01*
X182768477Y-69384534D01*
X182800500Y-69182352D01*
X182800500Y-68977648D01*
X183699500Y-68977648D01*
X183699500Y-69182351D01*
X183731522Y-69384534D01*
X183794781Y-69579223D01*
X183835542Y-69659219D01*
X183886129Y-69758502D01*
X183887715Y-69761613D01*
X184008028Y-69927213D01*
X184152786Y-70071971D01*
X184262892Y-70151966D01*
X184318390Y-70192287D01*
X184434607Y-70251503D01*
X184500776Y-70285218D01*
X184500778Y-70285218D01*
X184500781Y-70285220D01*
X184591228Y-70314608D01*
X184695465Y-70348477D01*
X184796557Y-70364488D01*
X184897648Y-70380500D01*
X184897649Y-70380500D01*
X185102351Y-70380500D01*
X185102352Y-70380500D01*
X185304534Y-70348477D01*
X185499219Y-70285220D01*
X185681610Y-70192287D01*
X185805396Y-70102352D01*
X185847213Y-70071971D01*
X185847215Y-70071968D01*
X185847219Y-70071966D01*
X185991966Y-69927219D01*
X185991968Y-69927215D01*
X185991971Y-69927213D01*
X186105888Y-69770417D01*
X186112287Y-69761610D01*
X186205220Y-69579219D01*
X186268477Y-69384534D01*
X186300500Y-69182352D01*
X186300500Y-68977648D01*
X187199500Y-68977648D01*
X187199500Y-69182351D01*
X187231522Y-69384534D01*
X187294781Y-69579223D01*
X187335542Y-69659219D01*
X187386129Y-69758502D01*
X187387715Y-69761613D01*
X187508028Y-69927213D01*
X187652786Y-70071971D01*
X187762892Y-70151966D01*
X187818390Y-70192287D01*
X187934607Y-70251503D01*
X188000776Y-70285218D01*
X188000778Y-70285218D01*
X188000781Y-70285220D01*
X188091228Y-70314608D01*
X188195465Y-70348477D01*
X188296557Y-70364488D01*
X188397648Y-70380500D01*
X188397649Y-70380500D01*
X188602351Y-70380500D01*
X188602352Y-70380500D01*
X188804534Y-70348477D01*
X188999219Y-70285220D01*
X189181610Y-70192287D01*
X189305396Y-70102352D01*
X189347213Y-70071971D01*
X189347215Y-70071968D01*
X189347219Y-70071966D01*
X189491966Y-69927219D01*
X189491968Y-69927215D01*
X189491971Y-69927213D01*
X189605888Y-69770417D01*
X189612287Y-69761610D01*
X189705220Y-69579219D01*
X189768477Y-69384534D01*
X189800500Y-69182352D01*
X189800500Y-69057648D01*
X190699500Y-69057648D01*
X190699500Y-69262351D01*
X190731522Y-69464534D01*
X190794781Y-69659223D01*
X190887715Y-69841613D01*
X191008028Y-70007213D01*
X191152786Y-70151971D01*
X191283209Y-70246727D01*
X191318390Y-70272287D01*
X191401450Y-70314608D01*
X191500776Y-70365218D01*
X191500778Y-70365218D01*
X191500781Y-70365220D01*
X191605137Y-70399127D01*
X191695465Y-70428477D01*
X191796557Y-70444488D01*
X191897648Y-70460500D01*
X191897649Y-70460500D01*
X192102351Y-70460500D01*
X192102352Y-70460500D01*
X192304534Y-70428477D01*
X192499219Y-70365220D01*
X192681610Y-70272287D01*
X192774590Y-70204732D01*
X192847213Y-70151971D01*
X192847215Y-70151968D01*
X192847219Y-70151966D01*
X192991966Y-70007219D01*
X192991968Y-70007215D01*
X192991971Y-70007213D01*
X193050093Y-69927213D01*
X193112287Y-69841610D01*
X193205220Y-69659219D01*
X193268477Y-69464534D01*
X193300500Y-69262352D01*
X193300500Y-69057648D01*
X193899500Y-69057648D01*
X193899500Y-69262351D01*
X193931522Y-69464534D01*
X193994781Y-69659223D01*
X194087715Y-69841613D01*
X194208028Y-70007213D01*
X194352786Y-70151971D01*
X194483209Y-70246727D01*
X194518390Y-70272287D01*
X194601450Y-70314608D01*
X194700776Y-70365218D01*
X194700778Y-70365218D01*
X194700781Y-70365220D01*
X194805137Y-70399127D01*
X194895465Y-70428477D01*
X194996557Y-70444488D01*
X195097648Y-70460500D01*
X195097649Y-70460500D01*
X195302351Y-70460500D01*
X195302352Y-70460500D01*
X195504534Y-70428477D01*
X195699219Y-70365220D01*
X195881610Y-70272287D01*
X195974590Y-70204732D01*
X196047213Y-70151971D01*
X196047215Y-70151968D01*
X196047219Y-70151966D01*
X196191966Y-70007219D01*
X196191968Y-70007215D01*
X196191971Y-70007213D01*
X196250093Y-69927213D01*
X196312287Y-69841610D01*
X196405220Y-69659219D01*
X196468477Y-69464534D01*
X196500500Y-69262352D01*
X196500500Y-69057648D01*
X196489865Y-68990500D01*
X196468477Y-68855465D01*
X196420776Y-68708657D01*
X196405220Y-68660781D01*
X196405218Y-68660778D01*
X196405218Y-68660776D01*
X196353530Y-68559334D01*
X196312287Y-68478390D01*
X196304556Y-68467749D01*
X196191971Y-68312786D01*
X196047213Y-68168028D01*
X195881613Y-68047715D01*
X195881612Y-68047714D01*
X195881610Y-68047713D01*
X195824653Y-68018691D01*
X195699223Y-67954781D01*
X195504534Y-67891522D01*
X195329995Y-67863878D01*
X195302352Y-67859500D01*
X195097648Y-67859500D01*
X195073329Y-67863351D01*
X194895465Y-67891522D01*
X194700776Y-67954781D01*
X194518386Y-68047715D01*
X194352786Y-68168028D01*
X194208028Y-68312786D01*
X194087715Y-68478386D01*
X193994781Y-68660776D01*
X193931522Y-68855465D01*
X193899500Y-69057648D01*
X193300500Y-69057648D01*
X193289865Y-68990500D01*
X193268477Y-68855465D01*
X193220776Y-68708657D01*
X193205220Y-68660781D01*
X193205218Y-68660778D01*
X193205218Y-68660776D01*
X193153530Y-68559334D01*
X193112287Y-68478390D01*
X193104556Y-68467749D01*
X192991971Y-68312786D01*
X192847213Y-68168028D01*
X192681613Y-68047715D01*
X192681612Y-68047714D01*
X192681610Y-68047713D01*
X192624653Y-68018691D01*
X192499223Y-67954781D01*
X192304534Y-67891522D01*
X192129995Y-67863878D01*
X192102352Y-67859500D01*
X191897648Y-67859500D01*
X191873329Y-67863351D01*
X191695465Y-67891522D01*
X191500776Y-67954781D01*
X191318386Y-68047715D01*
X191152786Y-68168028D01*
X191008028Y-68312786D01*
X190887715Y-68478386D01*
X190794781Y-68660776D01*
X190731522Y-68855465D01*
X190699500Y-69057648D01*
X189800500Y-69057648D01*
X189800500Y-68977648D01*
X189792132Y-68924814D01*
X189768477Y-68775465D01*
X189738097Y-68681966D01*
X189705220Y-68580781D01*
X189705218Y-68580778D01*
X189705218Y-68580776D01*
X189653047Y-68478386D01*
X189612287Y-68398390D01*
X189550093Y-68312786D01*
X189491971Y-68232786D01*
X189347213Y-68088028D01*
X189181613Y-67967715D01*
X189181612Y-67967714D01*
X189181610Y-67967713D01*
X189124653Y-67938691D01*
X188999223Y-67874781D01*
X188804534Y-67811522D01*
X188629995Y-67783878D01*
X188602352Y-67779500D01*
X188397648Y-67779500D01*
X188373329Y-67783351D01*
X188195465Y-67811522D01*
X188000776Y-67874781D01*
X187818386Y-67967715D01*
X187652786Y-68088028D01*
X187508028Y-68232786D01*
X187387715Y-68398386D01*
X187294781Y-68580776D01*
X187231522Y-68775465D01*
X187199500Y-68977648D01*
X186300500Y-68977648D01*
X186292132Y-68924814D01*
X186268477Y-68775465D01*
X186238097Y-68681966D01*
X186205220Y-68580781D01*
X186205218Y-68580778D01*
X186205218Y-68580776D01*
X186153047Y-68478386D01*
X186112287Y-68398390D01*
X186050093Y-68312786D01*
X185991971Y-68232786D01*
X185847213Y-68088028D01*
X185681613Y-67967715D01*
X185681612Y-67967714D01*
X185681610Y-67967713D01*
X185624653Y-67938691D01*
X185499223Y-67874781D01*
X185304534Y-67811522D01*
X185129995Y-67783878D01*
X185102352Y-67779500D01*
X184897648Y-67779500D01*
X184873329Y-67783351D01*
X184695465Y-67811522D01*
X184500776Y-67874781D01*
X184318386Y-67967715D01*
X184152786Y-68088028D01*
X184008028Y-68232786D01*
X183887715Y-68398386D01*
X183794781Y-68580776D01*
X183731522Y-68775465D01*
X183699500Y-68977648D01*
X182800500Y-68977648D01*
X182792132Y-68924814D01*
X182768477Y-68775465D01*
X182738097Y-68681966D01*
X182705220Y-68580781D01*
X182705218Y-68580778D01*
X182705218Y-68580776D01*
X182653047Y-68478386D01*
X182612287Y-68398390D01*
X182550093Y-68312786D01*
X182491971Y-68232786D01*
X182347213Y-68088028D01*
X182181613Y-67967715D01*
X182181612Y-67967714D01*
X182181610Y-67967713D01*
X182124653Y-67938691D01*
X181999223Y-67874781D01*
X181804534Y-67811522D01*
X181629995Y-67783878D01*
X181602352Y-67779500D01*
X181397648Y-67779500D01*
X181373329Y-67783351D01*
X181195465Y-67811522D01*
X181000776Y-67874781D01*
X180818386Y-67967715D01*
X180652786Y-68088028D01*
X180508028Y-68232786D01*
X180387715Y-68398386D01*
X180294781Y-68580776D01*
X180231522Y-68775465D01*
X180199500Y-68977648D01*
X180199500Y-69182351D01*
X180231522Y-69384534D01*
X180294781Y-69579223D01*
X180335542Y-69659219D01*
X180386129Y-69758502D01*
X180387715Y-69761613D01*
X180508028Y-69927213D01*
X180640594Y-70059779D01*
X180674079Y-70121102D01*
X180669095Y-70190794D01*
X180627223Y-70246727D01*
X180591231Y-70265391D01*
X180500778Y-70294781D01*
X180318386Y-70387715D01*
X180152786Y-70508028D01*
X180008028Y-70652786D01*
X179887715Y-70818386D01*
X179794781Y-71000776D01*
X179731522Y-71195465D01*
X179699500Y-71397648D01*
X176877958Y-71397648D01*
X176986610Y-71342287D01*
X177152219Y-71221966D01*
X177296966Y-71077219D01*
X177296968Y-71077215D01*
X177296971Y-71077213D01*
X177358905Y-70991966D01*
X177417287Y-70911610D01*
X177510220Y-70729219D01*
X177573477Y-70534534D01*
X177605500Y-70332352D01*
X177605500Y-70127648D01*
X177599830Y-70091850D01*
X177573477Y-69925465D01*
X177544127Y-69835137D01*
X177510220Y-69730781D01*
X177510218Y-69730778D01*
X177510218Y-69730776D01*
X177432997Y-69579223D01*
X177417287Y-69548390D01*
X177409556Y-69537749D01*
X177296971Y-69382786D01*
X177152213Y-69238028D01*
X176986613Y-69117715D01*
X176986612Y-69117714D01*
X176986610Y-69117713D01*
X176929653Y-69088691D01*
X176804223Y-69024781D01*
X176609534Y-68961522D01*
X176434995Y-68933878D01*
X176407352Y-68929500D01*
X176202648Y-68929500D01*
X176178329Y-68933351D01*
X176000465Y-68961522D01*
X175805776Y-69024781D01*
X175623386Y-69117715D01*
X175457786Y-69238028D01*
X175313028Y-69382786D01*
X175192715Y-69548386D01*
X175099781Y-69730776D01*
X175036522Y-69925465D01*
X175004500Y-70127648D01*
X169985500Y-70127648D01*
X169979830Y-70091850D01*
X169953477Y-69925465D01*
X169924127Y-69835137D01*
X169890220Y-69730781D01*
X169890218Y-69730778D01*
X169890218Y-69730776D01*
X169812997Y-69579223D01*
X169797287Y-69548390D01*
X169789556Y-69537749D01*
X169676971Y-69382786D01*
X169532213Y-69238028D01*
X169366614Y-69117715D01*
X169360006Y-69114348D01*
X169273917Y-69070483D01*
X169223123Y-69022511D01*
X169206328Y-68954690D01*
X169228865Y-68888555D01*
X169273917Y-68849516D01*
X169366610Y-68802287D01*
X169403528Y-68775465D01*
X169532213Y-68681971D01*
X169532215Y-68681968D01*
X169532219Y-68681966D01*
X169676966Y-68537219D01*
X169676968Y-68537215D01*
X169676971Y-68537213D01*
X169781892Y-68392799D01*
X169797287Y-68371610D01*
X169890220Y-68189219D01*
X169953477Y-67994534D01*
X169985500Y-67792352D01*
X169985500Y-67587648D01*
X169953477Y-67385466D01*
X169890220Y-67190781D01*
X169890218Y-67190778D01*
X169890218Y-67190776D01*
X169865940Y-67143129D01*
X169838861Y-67089983D01*
X202394500Y-67089983D01*
X202394500Y-68290001D01*
X202394501Y-68290018D01*
X202405000Y-68392796D01*
X202405001Y-68392799D01*
X202460185Y-68559331D01*
X202460187Y-68559336D01*
X202495069Y-68615888D01*
X202552288Y-68708656D01*
X202676344Y-68832712D01*
X202825666Y-68924814D01*
X202992203Y-68979999D01*
X203094991Y-68990500D01*
X204295008Y-68990499D01*
X204397797Y-68979999D01*
X204564334Y-68924814D01*
X204713656Y-68832712D01*
X204837712Y-68708656D01*
X204929814Y-68559334D01*
X204984999Y-68392797D01*
X204995500Y-68290009D01*
X204995499Y-67587648D01*
X210014500Y-67587648D01*
X210014500Y-67792351D01*
X210046522Y-67994534D01*
X210109781Y-68189223D01*
X210202715Y-68371613D01*
X210323028Y-68537213D01*
X210467786Y-68681971D01*
X210622749Y-68794556D01*
X210633390Y-68802287D01*
X210724840Y-68848883D01*
X210726080Y-68849515D01*
X210776876Y-68897490D01*
X210793671Y-68965311D01*
X210771134Y-69031446D01*
X210726080Y-69070485D01*
X210633386Y-69117715D01*
X210467786Y-69238028D01*
X210323028Y-69382786D01*
X210202715Y-69548386D01*
X210109781Y-69730776D01*
X210046522Y-69925465D01*
X210014500Y-70127648D01*
X210014500Y-70332351D01*
X210046522Y-70534534D01*
X210109781Y-70729223D01*
X210202715Y-70911613D01*
X210323028Y-71077213D01*
X210467786Y-71221971D01*
X210622749Y-71334556D01*
X210633390Y-71342287D01*
X210724840Y-71388883D01*
X210726080Y-71389515D01*
X210776876Y-71437490D01*
X210793671Y-71505311D01*
X210771134Y-71571446D01*
X210726080Y-71610485D01*
X210633386Y-71657715D01*
X210467786Y-71778028D01*
X210323028Y-71922786D01*
X210202715Y-72088386D01*
X210109781Y-72270776D01*
X210046522Y-72465465D01*
X210014500Y-72667648D01*
X210014500Y-72872351D01*
X210046522Y-73074534D01*
X210109781Y-73269223D01*
X210162062Y-73371828D01*
X210196401Y-73439223D01*
X210202715Y-73451613D01*
X210323028Y-73617213D01*
X210467786Y-73761971D01*
X210622749Y-73874556D01*
X210633390Y-73882287D01*
X210724840Y-73928883D01*
X210726080Y-73929515D01*
X210776876Y-73977490D01*
X210793671Y-74045311D01*
X210771134Y-74111446D01*
X210726080Y-74150485D01*
X210633386Y-74197715D01*
X210467786Y-74318028D01*
X210323028Y-74462786D01*
X210202715Y-74628386D01*
X210109781Y-74810776D01*
X210046522Y-75005465D01*
X210014500Y-75207648D01*
X210014500Y-75412351D01*
X210046522Y-75614534D01*
X210109781Y-75809223D01*
X210202715Y-75991613D01*
X210323028Y-76157213D01*
X210467786Y-76301971D01*
X210622749Y-76414556D01*
X210633390Y-76422287D01*
X210749607Y-76481503D01*
X210815776Y-76515218D01*
X210815778Y-76515218D01*
X210815781Y-76515220D01*
X210906856Y-76544812D01*
X211010465Y-76578477D01*
X211111557Y-76594488D01*
X211212648Y-76610500D01*
X211212649Y-76610500D01*
X211417351Y-76610500D01*
X211417352Y-76610500D01*
X211619534Y-76578477D01*
X211814219Y-76515220D01*
X211996610Y-76422287D01*
X212125482Y-76328657D01*
X212162213Y-76301971D01*
X212162215Y-76301968D01*
X212162219Y-76301966D01*
X212306966Y-76157219D01*
X212306968Y-76157215D01*
X212306971Y-76157213D01*
X212411892Y-76012799D01*
X212427287Y-75991610D01*
X212520220Y-75809219D01*
X212583477Y-75614534D01*
X212615500Y-75412352D01*
X212615500Y-75397648D01*
X216699500Y-75397648D01*
X216699500Y-75602352D01*
X216703878Y-75629995D01*
X216731522Y-75804534D01*
X216794781Y-75999223D01*
X216847328Y-76102351D01*
X216886554Y-76179336D01*
X216887715Y-76181613D01*
X217008028Y-76347213D01*
X217152786Y-76491971D01*
X217301477Y-76599999D01*
X217318390Y-76612287D01*
X217434607Y-76671503D01*
X217500776Y-76705218D01*
X217500778Y-76705218D01*
X217500781Y-76705220D01*
X217605137Y-76739127D01*
X217695465Y-76768477D01*
X217796557Y-76784488D01*
X217897648Y-76800500D01*
X217897649Y-76800500D01*
X218102351Y-76800500D01*
X218102352Y-76800500D01*
X218304534Y-76768477D01*
X218499219Y-76705220D01*
X218681610Y-76612287D01*
X218774590Y-76544732D01*
X218847213Y-76491971D01*
X218847215Y-76491968D01*
X218847219Y-76491966D01*
X218991966Y-76347219D01*
X218991968Y-76347215D01*
X218991971Y-76347213D01*
X219044732Y-76274590D01*
X219112287Y-76181610D01*
X219205220Y-75999219D01*
X219268477Y-75804534D01*
X219300500Y-75602352D01*
X219300500Y-75397648D01*
X219280041Y-75268477D01*
X219268477Y-75195465D01*
X219239127Y-75105137D01*
X219205220Y-75000781D01*
X219205218Y-75000778D01*
X219205218Y-75000776D01*
X219147610Y-74887715D01*
X219112287Y-74818390D01*
X219095134Y-74794781D01*
X218991971Y-74652786D01*
X218847213Y-74508028D01*
X218681613Y-74387715D01*
X218681612Y-74387714D01*
X218681610Y-74387713D01*
X218624653Y-74358691D01*
X218499223Y-74294781D01*
X218304534Y-74231522D01*
X218129995Y-74203878D01*
X218102352Y-74199500D01*
X217897648Y-74199500D01*
X217873329Y-74203351D01*
X217695465Y-74231522D01*
X217500776Y-74294781D01*
X217318386Y-74387715D01*
X217152786Y-74508028D01*
X217008028Y-74652786D01*
X216887715Y-74818386D01*
X216794781Y-75000776D01*
X216731522Y-75195465D01*
X216712054Y-75318386D01*
X216699500Y-75397648D01*
X212615500Y-75397648D01*
X212615500Y-75207648D01*
X212583477Y-75005466D01*
X212520220Y-74810781D01*
X212520218Y-74810778D01*
X212520218Y-74810776D01*
X212468865Y-74709991D01*
X212427287Y-74628390D01*
X212411892Y-74607200D01*
X212306971Y-74462786D01*
X212162213Y-74318028D01*
X211996614Y-74197715D01*
X211990006Y-74194348D01*
X211903917Y-74150483D01*
X211853123Y-74102511D01*
X211836328Y-74034690D01*
X211858865Y-73968555D01*
X211903917Y-73929516D01*
X211996610Y-73882287D01*
X212017770Y-73866913D01*
X212162213Y-73761971D01*
X212162215Y-73761968D01*
X212162219Y-73761966D01*
X212306966Y-73617219D01*
X212306968Y-73617215D01*
X212306971Y-73617213D01*
X212391566Y-73500776D01*
X212427287Y-73451610D01*
X212520220Y-73269219D01*
X212583477Y-73074534D01*
X212615500Y-72872352D01*
X212615500Y-72667648D01*
X212583477Y-72465466D01*
X212575456Y-72440781D01*
X212520218Y-72270776D01*
X212486503Y-72204607D01*
X212427287Y-72088390D01*
X212419556Y-72077749D01*
X212306971Y-71922786D01*
X212162213Y-71778028D01*
X211996614Y-71657715D01*
X211960865Y-71639500D01*
X211903917Y-71610483D01*
X211853123Y-71562511D01*
X211836328Y-71494690D01*
X211858865Y-71428555D01*
X211903917Y-71389516D01*
X211996610Y-71342287D01*
X212017770Y-71326913D01*
X212162213Y-71221971D01*
X212162215Y-71221968D01*
X212162219Y-71221966D01*
X212306966Y-71077219D01*
X212306968Y-71077215D01*
X212306971Y-71077213D01*
X212368905Y-70991966D01*
X212427287Y-70911610D01*
X212520220Y-70729219D01*
X212580253Y-70544455D01*
X212619691Y-70486780D01*
X212684049Y-70459582D01*
X212752896Y-70471497D01*
X212804371Y-70518741D01*
X212808669Y-70526479D01*
X212817829Y-70544456D01*
X212873027Y-70652788D01*
X212887715Y-70681613D01*
X213008028Y-70847213D01*
X213152786Y-70991971D01*
X213307749Y-71104556D01*
X213318390Y-71112287D01*
X213434607Y-71171503D01*
X213500776Y-71205218D01*
X213500778Y-71205218D01*
X213500781Y-71205220D01*
X213605137Y-71239127D01*
X213695465Y-71268477D01*
X213796557Y-71284488D01*
X213897648Y-71300500D01*
X213897649Y-71300500D01*
X214102351Y-71300500D01*
X214102352Y-71300500D01*
X214304534Y-71268477D01*
X214499219Y-71205220D01*
X214681610Y-71112287D01*
X214774590Y-71044732D01*
X214847213Y-70991971D01*
X214847215Y-70991968D01*
X214847219Y-70991966D01*
X214991966Y-70847219D01*
X214991968Y-70847215D01*
X214991971Y-70847213D01*
X215077694Y-70729223D01*
X215112287Y-70681610D01*
X215205220Y-70499219D01*
X215268477Y-70304534D01*
X215300500Y-70102352D01*
X215300500Y-69897648D01*
X215278461Y-69758502D01*
X215268477Y-69695465D01*
X215205218Y-69500776D01*
X215145098Y-69382786D01*
X215112287Y-69318390D01*
X215104556Y-69307749D01*
X214991971Y-69152786D01*
X214847213Y-69008028D01*
X214681613Y-68887715D01*
X214681612Y-68887714D01*
X214681610Y-68887713D01*
X214618320Y-68855465D01*
X214499223Y-68794781D01*
X214304534Y-68731522D01*
X214129995Y-68703878D01*
X214102352Y-68699500D01*
X213897648Y-68699500D01*
X213873329Y-68703351D01*
X213695465Y-68731522D01*
X213500776Y-68794781D01*
X213318386Y-68887715D01*
X213152786Y-69008028D01*
X213008028Y-69152786D01*
X212887715Y-69318386D01*
X212794781Y-69500776D01*
X212734746Y-69685544D01*
X212695308Y-69743219D01*
X212630949Y-69770417D01*
X212562103Y-69758502D01*
X212510627Y-69711258D01*
X212506330Y-69703520D01*
X212483757Y-69659219D01*
X212427287Y-69548390D01*
X212419556Y-69537749D01*
X212306971Y-69382786D01*
X212162213Y-69238028D01*
X211996614Y-69117715D01*
X211990006Y-69114348D01*
X211903917Y-69070483D01*
X211853123Y-69022511D01*
X211836328Y-68954690D01*
X211858865Y-68888555D01*
X211903917Y-68849516D01*
X211996610Y-68802287D01*
X212033528Y-68775465D01*
X212162213Y-68681971D01*
X212162215Y-68681968D01*
X212162219Y-68681966D01*
X212306966Y-68537219D01*
X212306968Y-68537215D01*
X212306971Y-68537213D01*
X212411892Y-68392799D01*
X212427287Y-68371610D01*
X212520220Y-68189219D01*
X212583477Y-67994534D01*
X212615500Y-67792352D01*
X212615500Y-67587648D01*
X212583477Y-67385466D01*
X212520220Y-67190781D01*
X212520218Y-67190778D01*
X212520218Y-67190776D01*
X212468865Y-67089991D01*
X212427287Y-67008390D01*
X212411892Y-66987200D01*
X212306971Y-66842786D01*
X212162213Y-66698028D01*
X211996613Y-66577715D01*
X211996612Y-66577714D01*
X211996610Y-66577713D01*
X211932835Y-66545218D01*
X211814223Y-66484781D01*
X211619534Y-66421522D01*
X211444995Y-66393878D01*
X211417352Y-66389500D01*
X211212648Y-66389500D01*
X211188329Y-66393351D01*
X211010465Y-66421522D01*
X210815776Y-66484781D01*
X210633386Y-66577715D01*
X210467786Y-66698028D01*
X210323028Y-66842786D01*
X210202715Y-67008386D01*
X210109781Y-67190776D01*
X210046522Y-67385465D01*
X210014500Y-67587648D01*
X204995499Y-67587648D01*
X204995499Y-67089992D01*
X204990925Y-67045220D01*
X204984999Y-66987203D01*
X204984998Y-66987200D01*
X204973428Y-66952284D01*
X204929814Y-66820666D01*
X204837712Y-66671344D01*
X204713656Y-66547288D01*
X204564334Y-66455186D01*
X204397797Y-66400001D01*
X204397795Y-66400000D01*
X204295010Y-66389500D01*
X203094998Y-66389500D01*
X203094981Y-66389501D01*
X202992203Y-66400000D01*
X202992200Y-66400001D01*
X202825668Y-66455185D01*
X202825663Y-66455187D01*
X202676342Y-66547289D01*
X202552289Y-66671342D01*
X202460187Y-66820663D01*
X202460185Y-66820668D01*
X202456440Y-66831971D01*
X202405001Y-66987203D01*
X202405001Y-66987204D01*
X202405000Y-66987204D01*
X202394500Y-67089983D01*
X169838861Y-67089983D01*
X169797287Y-67008390D01*
X169797285Y-67008387D01*
X169797284Y-67008385D01*
X169676971Y-66842786D01*
X169532213Y-66698028D01*
X169366613Y-66577715D01*
X169366612Y-66577714D01*
X169366610Y-66577713D01*
X169302835Y-66545218D01*
X169184223Y-66484781D01*
X168989534Y-66421522D01*
X168814995Y-66393878D01*
X168787352Y-66389500D01*
X168582648Y-66389500D01*
X168558329Y-66393351D01*
X168380465Y-66421522D01*
X168185776Y-66484781D01*
X168003386Y-66577715D01*
X167837786Y-66698028D01*
X167693028Y-66842786D01*
X167572715Y-67008386D01*
X167479781Y-67190776D01*
X167416522Y-67385465D01*
X167384500Y-67587648D01*
X155000500Y-67587648D01*
X155000500Y-63067648D01*
X160199500Y-63067648D01*
X160199500Y-63272351D01*
X160231522Y-63474534D01*
X160294781Y-63669223D01*
X160387715Y-63851613D01*
X160508028Y-64017213D01*
X160652786Y-64161971D01*
X160743277Y-64227715D01*
X160818390Y-64282287D01*
X161000781Y-64375220D01*
X161037249Y-64387069D01*
X161094924Y-64426507D01*
X161122122Y-64490866D01*
X161110207Y-64559713D01*
X161062962Y-64611188D01*
X161037250Y-64622930D01*
X161023892Y-64627270D01*
X161000777Y-64634781D01*
X160818386Y-64727715D01*
X160652786Y-64848028D01*
X160508028Y-64992786D01*
X160387715Y-65158386D01*
X160294781Y-65340776D01*
X160231522Y-65535465D01*
X160199500Y-65737648D01*
X160199500Y-65942351D01*
X160231522Y-66144534D01*
X160294781Y-66339223D01*
X160387715Y-66521613D01*
X160508028Y-66687213D01*
X160652786Y-66831971D01*
X160807749Y-66944556D01*
X160818390Y-66952287D01*
X160928488Y-67008385D01*
X161000776Y-67045218D01*
X161000778Y-67045218D01*
X161000781Y-67045220D01*
X161105137Y-67079127D01*
X161195465Y-67108477D01*
X161296557Y-67124488D01*
X161397648Y-67140500D01*
X161397649Y-67140500D01*
X161602351Y-67140500D01*
X161602352Y-67140500D01*
X161804534Y-67108477D01*
X161999219Y-67045220D01*
X162181610Y-66952287D01*
X162274590Y-66884732D01*
X162347213Y-66831971D01*
X162347215Y-66831968D01*
X162347219Y-66831966D01*
X162491966Y-66687219D01*
X162491968Y-66687215D01*
X162491971Y-66687213D01*
X162549175Y-66608477D01*
X162612287Y-66521610D01*
X162705220Y-66339219D01*
X162768477Y-66144534D01*
X162800500Y-65942352D01*
X162800500Y-65737648D01*
X162768477Y-65535466D01*
X162705220Y-65340781D01*
X162705218Y-65340778D01*
X162705218Y-65340776D01*
X162652671Y-65237648D01*
X162612287Y-65158390D01*
X162604556Y-65147749D01*
X162491971Y-64992786D01*
X162347213Y-64848028D01*
X162181613Y-64727715D01*
X162181612Y-64727714D01*
X162181610Y-64727713D01*
X161999219Y-64634780D01*
X161962750Y-64622930D01*
X161905075Y-64583493D01*
X161877877Y-64519135D01*
X161889792Y-64450288D01*
X161937036Y-64398813D01*
X161962749Y-64387069D01*
X161999219Y-64375220D01*
X162181610Y-64282287D01*
X162312026Y-64187535D01*
X162347213Y-64161971D01*
X162347215Y-64161968D01*
X162347219Y-64161966D01*
X162491966Y-64017219D01*
X162491968Y-64017215D01*
X162491971Y-64017213D01*
X162579230Y-63897109D01*
X162612287Y-63851610D01*
X162705220Y-63669219D01*
X162768477Y-63474534D01*
X162800500Y-63272352D01*
X162800500Y-63067648D01*
X162788281Y-62990499D01*
X162768477Y-62865465D01*
X162739127Y-62775137D01*
X162705220Y-62670781D01*
X162705218Y-62670778D01*
X162705218Y-62670776D01*
X162655054Y-62572325D01*
X162612287Y-62488390D01*
X162604556Y-62477749D01*
X162491971Y-62322786D01*
X162347213Y-62178028D01*
X162181613Y-62057715D01*
X162181612Y-62057714D01*
X162181610Y-62057713D01*
X162124653Y-62028691D01*
X161999223Y-61964781D01*
X161804534Y-61901522D01*
X161629995Y-61873878D01*
X161602352Y-61869500D01*
X161397648Y-61869500D01*
X161373329Y-61873351D01*
X161195465Y-61901522D01*
X161000776Y-61964781D01*
X160818386Y-62057715D01*
X160652786Y-62178028D01*
X160508028Y-62322786D01*
X160387715Y-62488386D01*
X160294781Y-62670776D01*
X160231522Y-62865465D01*
X160199500Y-63067648D01*
X155000500Y-63067648D01*
X155000500Y-61089983D01*
X169731849Y-61089983D01*
X169731849Y-62290001D01*
X169731850Y-62290018D01*
X169742349Y-62392796D01*
X169742350Y-62392799D01*
X169774025Y-62488386D01*
X169797535Y-62559334D01*
X169889637Y-62708656D01*
X170013693Y-62832712D01*
X170163015Y-62924814D01*
X170329552Y-62979999D01*
X170432340Y-62990500D01*
X171632357Y-62990499D01*
X171735146Y-62979999D01*
X171901683Y-62924814D01*
X172051005Y-62832712D01*
X172175061Y-62708656D01*
X172215993Y-62642294D01*
X216549500Y-62642294D01*
X216549500Y-62846997D01*
X216581522Y-63049180D01*
X216644781Y-63243869D01*
X216737715Y-63426259D01*
X216858028Y-63591859D01*
X217002786Y-63736617D01*
X217157749Y-63849202D01*
X217168390Y-63856933D01*
X217350781Y-63949866D01*
X217379264Y-63959120D01*
X217436938Y-63998557D01*
X217464137Y-64062916D01*
X217452222Y-64131762D01*
X217404978Y-64183238D01*
X217397241Y-64187535D01*
X217318388Y-64227713D01*
X217152786Y-64348028D01*
X217008028Y-64492786D01*
X216887715Y-64658386D01*
X216794781Y-64840776D01*
X216731522Y-65035465D01*
X216699500Y-65237648D01*
X216699500Y-65442351D01*
X216731522Y-65644534D01*
X216794781Y-65839223D01*
X216887715Y-66021613D01*
X217008028Y-66187213D01*
X217152786Y-66331971D01*
X217307749Y-66444556D01*
X217318390Y-66452287D01*
X217434607Y-66511503D01*
X217500776Y-66545218D01*
X217500778Y-66545218D01*
X217500781Y-66545220D01*
X217600784Y-66577713D01*
X217695465Y-66608477D01*
X217796557Y-66624488D01*
X217897648Y-66640500D01*
X217897649Y-66640500D01*
X218102351Y-66640500D01*
X218102352Y-66640500D01*
X218304534Y-66608477D01*
X218499219Y-66545220D01*
X218681610Y-66452287D01*
X218837231Y-66339223D01*
X218847213Y-66331971D01*
X218847215Y-66331968D01*
X218847219Y-66331966D01*
X218991966Y-66187219D01*
X218991968Y-66187215D01*
X218991971Y-66187213D01*
X219044732Y-66114590D01*
X219112287Y-66021610D01*
X219205220Y-65839219D01*
X219268477Y-65644534D01*
X219300500Y-65442352D01*
X219300500Y-65237648D01*
X219268477Y-65035466D01*
X219254609Y-64992786D01*
X219239127Y-64945137D01*
X219205220Y-64840781D01*
X219205218Y-64840778D01*
X219205218Y-64840776D01*
X219147610Y-64727715D01*
X219112287Y-64658390D01*
X219095134Y-64634781D01*
X218991971Y-64492786D01*
X218847213Y-64348028D01*
X218681613Y-64227715D01*
X218681612Y-64227714D01*
X218681610Y-64227713D01*
X218623176Y-64197939D01*
X218499219Y-64134779D01*
X218470734Y-64125524D01*
X218413059Y-64086086D01*
X218385862Y-64021727D01*
X218397778Y-63952881D01*
X218445023Y-63901406D01*
X218452760Y-63897109D01*
X218531610Y-63856933D01*
X218581144Y-63820944D01*
X218697213Y-63736617D01*
X218697215Y-63736614D01*
X218697219Y-63736612D01*
X218841966Y-63591865D01*
X218841968Y-63591861D01*
X218841971Y-63591859D01*
X218927211Y-63474534D01*
X218962287Y-63426256D01*
X219055220Y-63243865D01*
X219118477Y-63049180D01*
X219150500Y-62846998D01*
X219150500Y-62642294D01*
X219118477Y-62440112D01*
X219103103Y-62392797D01*
X219069708Y-62290016D01*
X219055220Y-62245427D01*
X219055218Y-62245424D01*
X219055218Y-62245422D01*
X219020878Y-62178028D01*
X218962287Y-62063036D01*
X218954556Y-62052395D01*
X218841971Y-61897432D01*
X218697213Y-61752674D01*
X218531613Y-61632361D01*
X218531612Y-61632360D01*
X218531610Y-61632359D01*
X218474653Y-61603337D01*
X218349223Y-61539427D01*
X218154534Y-61476168D01*
X217979995Y-61448524D01*
X217952352Y-61444146D01*
X217747648Y-61444146D01*
X217723329Y-61447997D01*
X217545465Y-61476168D01*
X217350776Y-61539427D01*
X217168386Y-61632361D01*
X217002786Y-61752674D01*
X216858028Y-61897432D01*
X216737715Y-62063032D01*
X216644781Y-62245422D01*
X216581522Y-62440111D01*
X216549500Y-62642294D01*
X172215993Y-62642294D01*
X172267163Y-62559334D01*
X172322348Y-62392797D01*
X172332849Y-62290009D01*
X172332848Y-61089992D01*
X172322348Y-60987203D01*
X172267163Y-60820666D01*
X172175061Y-60671344D01*
X172051005Y-60547288D01*
X171901683Y-60455186D01*
X171735146Y-60400001D01*
X171735144Y-60400000D01*
X171632359Y-60389500D01*
X170432347Y-60389500D01*
X170432330Y-60389501D01*
X170329552Y-60400000D01*
X170329549Y-60400001D01*
X170163017Y-60455185D01*
X170163012Y-60455187D01*
X170013691Y-60547289D01*
X169889638Y-60671342D01*
X169797536Y-60820663D01*
X169797535Y-60820666D01*
X169742350Y-60987203D01*
X169742350Y-60987204D01*
X169742349Y-60987204D01*
X169731849Y-61089983D01*
X155000500Y-61089983D01*
X155000500Y-58817648D01*
X180199500Y-58817648D01*
X180199500Y-59022352D01*
X180203878Y-59049995D01*
X180231522Y-59224534D01*
X180294781Y-59419223D01*
X180387715Y-59601613D01*
X180508028Y-59767213D01*
X180652786Y-59911971D01*
X180762892Y-59991966D01*
X180818390Y-60032287D01*
X180934607Y-60091503D01*
X181000776Y-60125218D01*
X181000778Y-60125218D01*
X181000781Y-60125220D01*
X181072833Y-60148631D01*
X181195465Y-60188477D01*
X181296557Y-60204488D01*
X181397648Y-60220500D01*
X181397649Y-60220500D01*
X181602351Y-60220500D01*
X181602352Y-60220500D01*
X181804534Y-60188477D01*
X181999219Y-60125220D01*
X182181610Y-60032287D01*
X182274590Y-59964732D01*
X182347213Y-59911971D01*
X182347215Y-59911968D01*
X182347219Y-59911966D01*
X182491966Y-59767219D01*
X182491968Y-59767215D01*
X182491971Y-59767213D01*
X182584004Y-59640538D01*
X182612287Y-59601610D01*
X182705220Y-59419219D01*
X182768477Y-59224534D01*
X182800500Y-59022352D01*
X182800500Y-58817648D01*
X183699500Y-58817648D01*
X183699500Y-59022352D01*
X183703878Y-59049995D01*
X183731522Y-59224534D01*
X183794781Y-59419223D01*
X183887715Y-59601613D01*
X184008028Y-59767213D01*
X184152786Y-59911971D01*
X184262892Y-59991966D01*
X184318390Y-60032287D01*
X184434607Y-60091503D01*
X184500776Y-60125218D01*
X184500778Y-60125218D01*
X184500781Y-60125220D01*
X184572833Y-60148631D01*
X184695465Y-60188477D01*
X184796557Y-60204488D01*
X184897648Y-60220500D01*
X184897649Y-60220500D01*
X185102351Y-60220500D01*
X185102352Y-60220500D01*
X185304534Y-60188477D01*
X185499219Y-60125220D01*
X185681610Y-60032287D01*
X185774590Y-59964732D01*
X185847213Y-59911971D01*
X185847215Y-59911968D01*
X185847219Y-59911966D01*
X185991966Y-59767219D01*
X185991968Y-59767215D01*
X185991971Y-59767213D01*
X186084004Y-59640538D01*
X186112287Y-59601610D01*
X186205220Y-59419219D01*
X186268477Y-59224534D01*
X186300500Y-59022352D01*
X186300500Y-58817648D01*
X186268477Y-58615466D01*
X186205220Y-58420781D01*
X186205218Y-58420778D01*
X186205218Y-58420776D01*
X186153047Y-58318386D01*
X186112287Y-58238390D01*
X186050093Y-58152786D01*
X185991971Y-58072786D01*
X185847213Y-57928028D01*
X185681613Y-57807715D01*
X185681612Y-57807714D01*
X185681610Y-57807713D01*
X185624653Y-57778691D01*
X185499223Y-57714781D01*
X185304534Y-57651522D01*
X185129995Y-57623878D01*
X185102352Y-57619500D01*
X184897648Y-57619500D01*
X184873329Y-57623351D01*
X184695465Y-57651522D01*
X184500776Y-57714781D01*
X184318386Y-57807715D01*
X184152786Y-57928028D01*
X184008028Y-58072786D01*
X183887715Y-58238386D01*
X183794781Y-58420776D01*
X183731522Y-58615465D01*
X183699500Y-58817648D01*
X182800500Y-58817648D01*
X182768477Y-58615466D01*
X182705220Y-58420781D01*
X182705218Y-58420778D01*
X182705218Y-58420776D01*
X182653047Y-58318386D01*
X182612287Y-58238390D01*
X182550093Y-58152786D01*
X182491971Y-58072786D01*
X182347213Y-57928028D01*
X182181613Y-57807715D01*
X182181612Y-57807714D01*
X182181610Y-57807713D01*
X182124653Y-57778691D01*
X181999223Y-57714781D01*
X181804534Y-57651522D01*
X181629995Y-57623878D01*
X181602352Y-57619500D01*
X181397648Y-57619500D01*
X181373329Y-57623351D01*
X181195465Y-57651522D01*
X181000776Y-57714781D01*
X180818386Y-57807715D01*
X180652786Y-57928028D01*
X180508028Y-58072786D01*
X180387715Y-58238386D01*
X180294781Y-58420776D01*
X180231522Y-58615465D01*
X180199500Y-58817648D01*
X155000500Y-58817648D01*
X155000500Y-56397648D01*
X185449500Y-56397648D01*
X185449500Y-56602351D01*
X185481522Y-56804534D01*
X185544781Y-56999223D01*
X185637715Y-57181613D01*
X185758028Y-57347213D01*
X185902786Y-57491971D01*
X186057749Y-57604556D01*
X186068390Y-57612287D01*
X186184607Y-57671503D01*
X186250776Y-57705218D01*
X186250778Y-57705218D01*
X186250781Y-57705220D01*
X186355137Y-57739127D01*
X186445465Y-57768477D01*
X186472267Y-57772722D01*
X186647648Y-57800500D01*
X186647649Y-57800500D01*
X186852351Y-57800500D01*
X186852352Y-57800500D01*
X187054534Y-57768477D01*
X187249219Y-57705220D01*
X187431610Y-57612287D01*
X187524590Y-57544732D01*
X187597213Y-57491971D01*
X187597215Y-57491968D01*
X187597219Y-57491966D01*
X187741966Y-57347219D01*
X187741968Y-57347215D01*
X187741971Y-57347213D01*
X187794732Y-57274590D01*
X187862287Y-57181610D01*
X187889515Y-57128171D01*
X187937490Y-57077376D01*
X188005311Y-57060581D01*
X188071446Y-57083118D01*
X188110485Y-57128172D01*
X188137715Y-57181613D01*
X188258028Y-57347213D01*
X188402786Y-57491971D01*
X188557749Y-57604556D01*
X188568390Y-57612287D01*
X188684607Y-57671503D01*
X188750776Y-57705218D01*
X188750778Y-57705218D01*
X188750781Y-57705220D01*
X188855137Y-57739127D01*
X188945465Y-57768477D01*
X188972267Y-57772722D01*
X189147648Y-57800500D01*
X189147649Y-57800500D01*
X189352351Y-57800500D01*
X189352352Y-57800500D01*
X189554534Y-57768477D01*
X189749219Y-57705220D01*
X189931610Y-57612287D01*
X190024590Y-57544732D01*
X190097213Y-57491971D01*
X190097215Y-57491968D01*
X190097219Y-57491966D01*
X190241966Y-57347219D01*
X190274681Y-57302189D01*
X190330010Y-57259524D01*
X190399623Y-57253543D01*
X190461419Y-57286148D01*
X190475319Y-57302190D01*
X190508030Y-57347215D01*
X190652786Y-57491971D01*
X190807749Y-57604556D01*
X190818390Y-57612287D01*
X190934607Y-57671503D01*
X191000776Y-57705218D01*
X191000778Y-57705218D01*
X191000781Y-57705220D01*
X191105137Y-57739127D01*
X191195465Y-57768477D01*
X191222267Y-57772722D01*
X191397648Y-57800500D01*
X191397649Y-57800500D01*
X191602351Y-57800500D01*
X191602352Y-57800500D01*
X191804534Y-57768477D01*
X191999219Y-57705220D01*
X192181610Y-57612287D01*
X192274590Y-57544732D01*
X192347213Y-57491971D01*
X192347215Y-57491968D01*
X192347219Y-57491966D01*
X192491966Y-57347219D01*
X192491968Y-57347215D01*
X192491971Y-57347213D01*
X192544732Y-57274590D01*
X192612287Y-57181610D01*
X192639515Y-57128171D01*
X192687490Y-57077376D01*
X192755311Y-57060581D01*
X192821446Y-57083118D01*
X192860485Y-57128172D01*
X192887715Y-57181613D01*
X193008028Y-57347213D01*
X193152786Y-57491971D01*
X193307749Y-57604556D01*
X193318390Y-57612287D01*
X193434607Y-57671503D01*
X193500776Y-57705218D01*
X193500778Y-57705218D01*
X193500781Y-57705220D01*
X193605137Y-57739127D01*
X193695465Y-57768477D01*
X193722267Y-57772722D01*
X193897648Y-57800500D01*
X193897649Y-57800500D01*
X194102351Y-57800500D01*
X194102352Y-57800500D01*
X194277730Y-57772722D01*
X194347022Y-57781676D01*
X194400474Y-57826672D01*
X194421114Y-57893424D01*
X194402389Y-57960738D01*
X194370015Y-57995511D01*
X194352787Y-58008028D01*
X194352782Y-58008032D01*
X194208028Y-58152786D01*
X194087715Y-58318386D01*
X193994781Y-58500776D01*
X193931522Y-58695465D01*
X193899500Y-58897648D01*
X193899500Y-59102351D01*
X193931522Y-59304534D01*
X193994781Y-59499223D01*
X194087715Y-59681613D01*
X194208028Y-59847213D01*
X194352786Y-59991971D01*
X194507749Y-60104556D01*
X194518390Y-60112287D01*
X194634607Y-60171503D01*
X194700776Y-60205218D01*
X194700778Y-60205218D01*
X194700781Y-60205220D01*
X194805137Y-60239127D01*
X194895465Y-60268477D01*
X194996557Y-60284488D01*
X195097648Y-60300500D01*
X195097649Y-60300500D01*
X195302351Y-60300500D01*
X195302352Y-60300500D01*
X195504534Y-60268477D01*
X195699219Y-60205220D01*
X195881610Y-60112287D01*
X195974590Y-60044732D01*
X196047213Y-59991971D01*
X196047215Y-59991968D01*
X196047219Y-59991966D01*
X196191966Y-59847219D01*
X196191968Y-59847215D01*
X196191971Y-59847213D01*
X196289069Y-59713567D01*
X196312287Y-59681610D01*
X196405220Y-59499219D01*
X196468477Y-59304534D01*
X196500500Y-59102352D01*
X196500500Y-58897648D01*
X196999500Y-58897648D01*
X196999500Y-59102351D01*
X197031522Y-59304534D01*
X197094781Y-59499223D01*
X197187715Y-59681613D01*
X197308028Y-59847213D01*
X197452786Y-59991971D01*
X197607749Y-60104556D01*
X197618390Y-60112287D01*
X197734607Y-60171503D01*
X197800776Y-60205218D01*
X197800778Y-60205218D01*
X197800781Y-60205220D01*
X197905137Y-60239127D01*
X197995465Y-60268477D01*
X198096557Y-60284488D01*
X198197648Y-60300500D01*
X198197649Y-60300500D01*
X198402351Y-60300500D01*
X198402352Y-60300500D01*
X198604534Y-60268477D01*
X198799219Y-60205220D01*
X198981610Y-60112287D01*
X199074590Y-60044732D01*
X199147213Y-59991971D01*
X199147215Y-59991968D01*
X199147219Y-59991966D01*
X199291966Y-59847219D01*
X199291968Y-59847215D01*
X199291971Y-59847213D01*
X199398932Y-59699992D01*
X199398939Y-59699983D01*
X203631823Y-59699983D01*
X203631823Y-61300001D01*
X203631824Y-61300018D01*
X203642323Y-61402796D01*
X203642324Y-61402799D01*
X203667082Y-61477512D01*
X203697509Y-61569334D01*
X203789611Y-61718656D01*
X203913667Y-61842712D01*
X204062989Y-61934814D01*
X204229526Y-61989999D01*
X204332314Y-62000500D01*
X205932331Y-62000499D01*
X206035120Y-61989999D01*
X206201657Y-61934814D01*
X206350979Y-61842712D01*
X206475035Y-61718656D01*
X206567137Y-61569334D01*
X206622322Y-61402797D01*
X206632823Y-61300009D01*
X206632822Y-60381902D01*
X208631823Y-60381902D01*
X208631823Y-60618097D01*
X208668769Y-60851368D01*
X208741756Y-61075996D01*
X208848980Y-61286433D01*
X208987806Y-61477510D01*
X209154813Y-61644517D01*
X209345890Y-61783343D01*
X209445314Y-61834002D01*
X209556326Y-61890566D01*
X209556328Y-61890566D01*
X209556331Y-61890568D01*
X209676735Y-61929689D01*
X209780954Y-61963553D01*
X210014226Y-62000500D01*
X210014231Y-62000500D01*
X210250420Y-62000500D01*
X210483691Y-61963553D01*
X210708315Y-61890568D01*
X210918756Y-61783343D01*
X211109833Y-61644517D01*
X211276840Y-61477510D01*
X211415666Y-61286433D01*
X211522891Y-61075992D01*
X211595876Y-60851368D01*
X211624389Y-60671344D01*
X211632823Y-60618097D01*
X211632823Y-60381902D01*
X211595876Y-60148631D01*
X211558072Y-60032284D01*
X211522891Y-59924008D01*
X211522889Y-59924005D01*
X211522889Y-59924003D01*
X211415665Y-59713566D01*
X211276840Y-59522490D01*
X211109833Y-59355483D01*
X210918756Y-59216657D01*
X210708319Y-59109433D01*
X210483691Y-59036446D01*
X210250420Y-58999500D01*
X210250415Y-58999500D01*
X210014231Y-58999500D01*
X210014226Y-58999500D01*
X209780954Y-59036446D01*
X209556326Y-59109433D01*
X209345889Y-59216657D01*
X209256859Y-59281342D01*
X209154813Y-59355483D01*
X209154811Y-59355485D01*
X209154810Y-59355485D01*
X208987808Y-59522487D01*
X208987808Y-59522488D01*
X208987806Y-59522490D01*
X208933526Y-59597200D01*
X208848980Y-59713566D01*
X208741756Y-59924003D01*
X208668769Y-60148631D01*
X208631823Y-60381902D01*
X206632822Y-60381902D01*
X206632822Y-59699992D01*
X206622322Y-59597203D01*
X206567137Y-59430666D01*
X206475035Y-59281344D01*
X206350979Y-59157288D01*
X206201657Y-59065186D01*
X206035120Y-59010001D01*
X206035118Y-59010000D01*
X205932333Y-58999500D01*
X204332321Y-58999500D01*
X204332304Y-58999501D01*
X204229526Y-59010000D01*
X204229523Y-59010001D01*
X204062991Y-59065185D01*
X204062986Y-59065187D01*
X203913665Y-59157289D01*
X203789612Y-59281342D01*
X203697510Y-59430663D01*
X203697509Y-59430666D01*
X203642324Y-59597203D01*
X203642324Y-59597204D01*
X203642323Y-59597204D01*
X203631823Y-59699983D01*
X199398939Y-59699983D01*
X199412287Y-59681610D01*
X199420639Y-59665217D01*
X199433215Y-59640538D01*
X199505218Y-59499223D01*
X199505218Y-59499222D01*
X199505220Y-59499219D01*
X199568477Y-59304534D01*
X199600500Y-59102352D01*
X199600500Y-58897648D01*
X199568477Y-58695466D01*
X199505220Y-58500781D01*
X199505218Y-58500778D01*
X199505218Y-58500776D01*
X199464455Y-58420776D01*
X199412287Y-58318390D01*
X199404556Y-58307749D01*
X199291971Y-58152786D01*
X199147213Y-58008028D01*
X198981613Y-57887715D01*
X198981612Y-57887714D01*
X198981610Y-57887713D01*
X198924653Y-57858691D01*
X198799223Y-57794781D01*
X198604534Y-57731522D01*
X198429995Y-57703878D01*
X198402352Y-57699500D01*
X198197648Y-57699500D01*
X198173329Y-57703351D01*
X197995465Y-57731522D01*
X197800776Y-57794781D01*
X197618386Y-57887715D01*
X197452786Y-58008028D01*
X197308028Y-58152786D01*
X197187715Y-58318386D01*
X197094781Y-58500776D01*
X197031522Y-58695465D01*
X196999500Y-58897648D01*
X196500500Y-58897648D01*
X196468477Y-58695466D01*
X196405220Y-58500781D01*
X196405218Y-58500778D01*
X196405218Y-58500776D01*
X196364455Y-58420776D01*
X196312287Y-58318390D01*
X196304556Y-58307749D01*
X196191971Y-58152786D01*
X196047213Y-58008028D01*
X195881613Y-57887715D01*
X195881612Y-57887714D01*
X195881610Y-57887713D01*
X195824653Y-57858691D01*
X195699223Y-57794781D01*
X195504534Y-57731522D01*
X195329995Y-57703878D01*
X195302352Y-57699500D01*
X195097648Y-57699500D01*
X195061547Y-57705218D01*
X194922270Y-57727277D01*
X194852976Y-57718322D01*
X194799524Y-57673326D01*
X194778885Y-57606574D01*
X194797610Y-57539261D01*
X194829989Y-57504484D01*
X194847219Y-57491966D01*
X194991966Y-57347219D01*
X194991968Y-57347215D01*
X194991971Y-57347213D01*
X195044732Y-57274590D01*
X195112287Y-57181610D01*
X195205220Y-56999219D01*
X195268477Y-56804534D01*
X195300500Y-56602352D01*
X195300500Y-56397648D01*
X195268477Y-56195466D01*
X195205220Y-56000781D01*
X195205218Y-56000778D01*
X195205218Y-56000776D01*
X195139515Y-55871828D01*
X195112287Y-55818390D01*
X195055679Y-55740475D01*
X194991971Y-55652786D01*
X194847213Y-55508028D01*
X194681613Y-55387715D01*
X194681612Y-55387714D01*
X194681610Y-55387713D01*
X194624653Y-55358691D01*
X194499223Y-55294781D01*
X194304534Y-55231522D01*
X194129995Y-55203878D01*
X194102352Y-55199500D01*
X193897648Y-55199500D01*
X193873329Y-55203351D01*
X193695465Y-55231522D01*
X193500776Y-55294781D01*
X193318386Y-55387715D01*
X193152786Y-55508028D01*
X193008028Y-55652786D01*
X192887713Y-55818388D01*
X192860484Y-55871828D01*
X192812510Y-55922623D01*
X192744688Y-55939418D01*
X192678554Y-55916880D01*
X192639516Y-55871828D01*
X192612286Y-55818388D01*
X192491971Y-55652786D01*
X192347213Y-55508028D01*
X192181613Y-55387715D01*
X192181612Y-55387714D01*
X192181610Y-55387713D01*
X192124653Y-55358691D01*
X191999223Y-55294781D01*
X191804534Y-55231522D01*
X191629995Y-55203878D01*
X191602352Y-55199500D01*
X191397648Y-55199500D01*
X191373329Y-55203351D01*
X191195465Y-55231522D01*
X191000776Y-55294781D01*
X190818386Y-55387715D01*
X190652786Y-55508028D01*
X190508032Y-55652782D01*
X190475318Y-55697810D01*
X190419988Y-55740475D01*
X190350374Y-55746454D01*
X190288579Y-55713848D01*
X190274682Y-55697810D01*
X190241967Y-55652782D01*
X190097213Y-55508028D01*
X189931613Y-55387715D01*
X189931612Y-55387714D01*
X189931610Y-55387713D01*
X189874653Y-55358691D01*
X189749223Y-55294781D01*
X189554534Y-55231522D01*
X189379995Y-55203878D01*
X189352352Y-55199500D01*
X189147648Y-55199500D01*
X189123329Y-55203351D01*
X188945465Y-55231522D01*
X188750776Y-55294781D01*
X188568386Y-55387715D01*
X188402786Y-55508028D01*
X188258028Y-55652786D01*
X188137713Y-55818388D01*
X188110484Y-55871828D01*
X188062510Y-55922623D01*
X187994688Y-55939418D01*
X187928554Y-55916880D01*
X187889516Y-55871828D01*
X187862286Y-55818388D01*
X187741971Y-55652786D01*
X187597213Y-55508028D01*
X187431613Y-55387715D01*
X187431612Y-55387714D01*
X187431610Y-55387713D01*
X187374653Y-55358691D01*
X187249223Y-55294781D01*
X187054534Y-55231522D01*
X186879995Y-55203878D01*
X186852352Y-55199500D01*
X186647648Y-55199500D01*
X186623329Y-55203351D01*
X186445465Y-55231522D01*
X186250776Y-55294781D01*
X186068386Y-55387715D01*
X185902786Y-55508028D01*
X185758028Y-55652786D01*
X185637715Y-55818386D01*
X185544781Y-56000776D01*
X185481522Y-56195465D01*
X185449500Y-56397648D01*
X155000500Y-56397648D01*
X155000500Y-53504066D01*
X155000765Y-53495956D01*
X155007466Y-53393713D01*
X188649500Y-53393713D01*
X188649500Y-53606286D01*
X188682753Y-53816239D01*
X188748444Y-54018414D01*
X188844951Y-54207820D01*
X188969890Y-54379786D01*
X189120213Y-54530109D01*
X189292179Y-54655048D01*
X189292181Y-54655049D01*
X189292184Y-54655051D01*
X189481588Y-54751557D01*
X189683757Y-54817246D01*
X189893713Y-54850500D01*
X189893714Y-54850500D01*
X190106286Y-54850500D01*
X190106287Y-54850500D01*
X190316243Y-54817246D01*
X190518412Y-54751557D01*
X190707816Y-54655051D01*
X190879792Y-54530104D01*
X190993329Y-54416566D01*
X191054648Y-54383084D01*
X191124340Y-54388068D01*
X191180274Y-54429939D01*
X191197189Y-54460917D01*
X191246202Y-54592328D01*
X191246206Y-54592335D01*
X191332452Y-54707544D01*
X191332455Y-54707547D01*
X191447664Y-54793793D01*
X191447671Y-54793797D01*
X191582517Y-54844091D01*
X191582516Y-54844091D01*
X191589444Y-54844835D01*
X191642127Y-54850500D01*
X193437872Y-54850499D01*
X193497483Y-54844091D01*
X193632331Y-54793796D01*
X193747546Y-54707546D01*
X193833796Y-54592331D01*
X193884091Y-54457483D01*
X193890500Y-54397873D01*
X193890499Y-52602128D01*
X193884091Y-52542517D01*
X193882810Y-52539083D01*
X193833797Y-52407671D01*
X193833793Y-52407664D01*
X193747547Y-52292455D01*
X193747544Y-52292452D01*
X193632335Y-52206206D01*
X193632328Y-52206202D01*
X193497482Y-52155908D01*
X193497483Y-52155908D01*
X193437883Y-52149501D01*
X193437881Y-52149500D01*
X193437873Y-52149500D01*
X193437864Y-52149500D01*
X191642129Y-52149500D01*
X191642123Y-52149501D01*
X191582516Y-52155908D01*
X191447671Y-52206202D01*
X191447664Y-52206206D01*
X191332455Y-52292452D01*
X191332452Y-52292455D01*
X191246206Y-52407664D01*
X191246203Y-52407669D01*
X191197189Y-52539083D01*
X191155317Y-52595016D01*
X191089853Y-52619433D01*
X191021580Y-52604581D01*
X190993326Y-52583430D01*
X190879786Y-52469890D01*
X190707820Y-52344951D01*
X190518414Y-52248444D01*
X190518413Y-52248443D01*
X190518412Y-52248443D01*
X190316243Y-52182754D01*
X190316241Y-52182753D01*
X190316240Y-52182753D01*
X190154957Y-52157208D01*
X190106287Y-52149500D01*
X189893713Y-52149500D01*
X189845042Y-52157208D01*
X189683760Y-52182753D01*
X189481585Y-52248444D01*
X189292179Y-52344951D01*
X189120213Y-52469890D01*
X188969890Y-52620213D01*
X188844951Y-52792179D01*
X188748444Y-52981585D01*
X188682753Y-53183760D01*
X188649500Y-53393713D01*
X155007466Y-53393713D01*
X155008317Y-53380731D01*
X155008317Y-53380730D01*
X155017075Y-53247104D01*
X155019190Y-53231048D01*
X155067045Y-52990462D01*
X155071243Y-52974797D01*
X155110281Y-52859794D01*
X155150093Y-52742512D01*
X155156291Y-52727547D01*
X155264790Y-52507533D01*
X155272893Y-52493498D01*
X155409182Y-52289527D01*
X155419039Y-52276681D01*
X155580786Y-52092244D01*
X155592244Y-52080786D01*
X155776681Y-51919039D01*
X155789527Y-51909182D01*
X155993498Y-51772893D01*
X156007533Y-51764790D01*
X156227547Y-51656291D01*
X156242512Y-51650093D01*
X156406762Y-51594337D01*
X156474797Y-51571243D01*
X156490464Y-51567045D01*
X156731048Y-51519190D01*
X156747102Y-51517075D01*
X156995957Y-51500765D01*
X157004067Y-51500500D01*
X157065892Y-51500500D01*
X222934108Y-51500500D01*
X222995933Y-51500500D01*
X223004043Y-51500765D01*
G37*
%TD.AperFunction*%
%TD*%
M02*
