%TF.GenerationSoftware,KiCad,Pcbnew,9.0.7*%
%TF.CreationDate,2026-05-09T02:55:23-07:00*%
%TF.ProjectId,Speaker,53706561-6b65-4722-9e6b-696361645f70,rev?*%
%TF.SameCoordinates,Original*%
%TF.FileFunction,Copper,L1,Top*%
%TF.FilePolarity,Positive*%
%FSLAX46Y46*%
G04 Gerber Fmt 4.6, Leading zero omitted, Abs format (unit mm)*
G04 Created by KiCad (PCBNEW 9.0.7) date 2026-05-09 02:55:23*
%MOMM*%
%LPD*%
G01*
G04 APERTURE LIST*
G04 Aperture macros list*
%AMRoundRect*
0 Rectangle with rounded corners*
0 $1 Rounding radius*
0 $2 $3 $4 $5 $6 $7 $8 $9 X,Y pos of 4 corners*
0 Add a 4 corners polygon primitive as box body*
4,1,4,$2,$3,$4,$5,$6,$7,$8,$9,$2,$3,0*
0 Add four circle primitives for the rounded corners*
1,1,$1+$1,$2,$3*
1,1,$1+$1,$4,$5*
1,1,$1+$1,$6,$7*
1,1,$1+$1,$8,$9*
0 Add four rect primitives between the rounded corners*
20,1,$1+$1,$2,$3,$4,$5,0*
20,1,$1+$1,$4,$5,$6,$7,0*
20,1,$1+$1,$6,$7,$8,$9,0*
20,1,$1+$1,$8,$9,$2,$3,0*%
%AMFreePoly0*
4,1,6,0.500000,-0.750000,-0.650000,-0.750000,-0.150000,0.000000,-0.650000,0.750000,0.500000,0.750000,0.500000,-0.750000,0.500000,-0.750000,$1*%
%AMFreePoly1*
4,1,6,1.000000,0.000000,0.500000,-0.750000,-0.500000,-0.750000,-0.500000,0.750000,0.500000,0.750000,1.000000,0.000000,1.000000,0.000000,$1*%
G04 Aperture macros list end*
%TA.AperFunction,ComponentPad*%
%ADD10C,1.700000*%
%TD*%
%TA.AperFunction,ComponentPad*%
%ADD11R,1.700000X1.700000*%
%TD*%
%TA.AperFunction,ComponentPad*%
%ADD12C,1.800000*%
%TD*%
%TA.AperFunction,ComponentPad*%
%ADD13R,1.800000X1.800000*%
%TD*%
%TA.AperFunction,ComponentPad*%
%ADD14C,1.600000*%
%TD*%
%TA.AperFunction,SMDPad,CuDef*%
%ADD15FreePoly0,270.000000*%
%TD*%
%TA.AperFunction,SMDPad,CuDef*%
%ADD16FreePoly1,270.000000*%
%TD*%
%TA.AperFunction,ComponentPad*%
%ADD17C,1.440000*%
%TD*%
%TA.AperFunction,ComponentPad*%
%ADD18C,3.800000*%
%TD*%
%TA.AperFunction,ComponentPad*%
%ADD19RoundRect,0.250000X0.750000X0.750000X-0.750000X0.750000X-0.750000X-0.750000X0.750000X-0.750000X0*%
%TD*%
%TA.AperFunction,ComponentPad*%
%ADD20C,2.000000*%
%TD*%
%TA.AperFunction,ComponentPad*%
%ADD21RoundRect,0.250000X-0.750000X-0.750000X0.750000X-0.750000X0.750000X0.750000X-0.750000X0.750000X0*%
%TD*%
%TA.AperFunction,ComponentPad*%
%ADD22R,1.905000X2.000000*%
%TD*%
%TA.AperFunction,ComponentPad*%
%ADD23O,1.905000X2.000000*%
%TD*%
%TA.AperFunction,ComponentPad*%
%ADD24RoundRect,0.250000X0.550000X0.550000X-0.550000X0.550000X-0.550000X-0.550000X0.550000X-0.550000X0*%
%TD*%
%TA.AperFunction,ComponentPad*%
%ADD25RoundRect,0.250000X-0.750000X0.750000X-0.750000X-0.750000X0.750000X-0.750000X0.750000X0.750000X0*%
%TD*%
%TA.AperFunction,ComponentPad*%
%ADD26RoundRect,0.250000X-0.550000X-0.550000X0.550000X-0.550000X0.550000X0.550000X-0.550000X0.550000X0*%
%TD*%
%TA.AperFunction,Conductor*%
%ADD27C,0.300000*%
%TD*%
%TA.AperFunction,Conductor*%
%ADD28C,0.200000*%
%TD*%
G04 APERTURE END LIST*
D10*
%TO.P,J5,2,Pin_2*%
%TO.N,GND*%
X218000000Y-96500000D03*
D11*
%TO.P,J5,1,Pin_1*%
%TO.N,/OUTPUT_R*%
X218000000Y-93960000D03*
%TD*%
D10*
%TO.P,SW1,2,B*%
%TO.N,Net-(D1-A)*%
X206000000Y-93710000D03*
D11*
%TO.P,SW1,1,A*%
%TO.N,/V_IN*%
X206000000Y-96250000D03*
%TD*%
D12*
%TO.P,D1,2,A*%
%TO.N,Net-(D1-A)*%
X197315000Y-95000000D03*
D13*
%TO.P,D1,1,K*%
%TO.N,Net-(D1-K)*%
X199855000Y-95000000D03*
%TD*%
D14*
%TO.P,R9,2*%
%TO.N,Net-(D1-K)*%
X192240000Y-93500000D03*
%TO.P,R9,1*%
%TO.N,Net-(U3-IN)*%
X182080000Y-93500000D03*
%TD*%
%TO.P,R10,2*%
%TO.N,Net-(D1-A)*%
X192240000Y-96500000D03*
%TO.P,R10,1*%
%TO.N,Net-(U3-IN)*%
X182080000Y-96500000D03*
%TD*%
D10*
%TO.P,J1,2,Pin_2*%
%TO.N,GND*%
X212318355Y-96234760D03*
D11*
%TO.P,J1,1,Pin_1*%
%TO.N,/V_IN*%
X209778355Y-96234760D03*
%TD*%
D15*
%TO.P,9V=CLOSE,2,B*%
%TO.N,Net-(D1-A)*%
X206000000Y-90000000D03*
D16*
%TO.P,9V=CLOSE,1,A*%
%TO.N,+9V*%
X206000000Y-88550000D03*
%TD*%
D14*
%TO.P,C8,1*%
%TO.N,Net-(C8-Pad1)*%
X196250000Y-74000000D03*
%TO.P,C8,2*%
%TO.N,Net-(C4-Pad1)*%
X198750000Y-74000000D03*
%TD*%
%TO.P,C18,1*%
%TO.N,Net-(U3-IN)*%
X203300000Y-90000000D03*
%TO.P,C18,2*%
%TO.N,GND*%
X203300000Y-87500000D03*
%TD*%
%TO.P,R3,1*%
%TO.N,Net-(C3-Pad1)*%
X181500000Y-69080000D03*
%TO.P,R3,2*%
%TO.N,Net-(C1-Pad1)*%
X181500000Y-58920000D03*
%TD*%
D17*
%TO.P,RV1,1,1*%
%TO.N,Net-(C7-Pad1)*%
X184500000Y-78460000D03*
%TO.P,RV1,2,2*%
%TO.N,Net-(U1-+)*%
X184500000Y-81000000D03*
%TO.P,RV1,3,3*%
%TO.N,GND*%
X184500000Y-83540000D03*
%TD*%
D18*
%TO.P,REF\u002A\u002A,1*%
%TO.N,GND*%
X223000000Y-96500000D03*
%TD*%
D19*
%TO.P,C9,1*%
%TO.N,Net-(C9-Pad1)*%
X175185000Y-82690000D03*
D20*
%TO.P,C9,2*%
%TO.N,Net-(C9-Pad2)*%
X170185000Y-82690000D03*
%TD*%
D14*
%TO.P,C11,1*%
%TO.N,Net-(U1-BYPASS)*%
X165685000Y-72940000D03*
%TO.P,C11,2*%
%TO.N,GND*%
X165685000Y-75440000D03*
%TD*%
%TO.P,C20,1*%
%TO.N,Net-(U3-IN)*%
X200150000Y-90000000D03*
%TO.P,C20,2*%
%TO.N,GND*%
X200150000Y-87500000D03*
%TD*%
%TO.P,C13,1*%
%TO.N,GND*%
X161500000Y-60670000D03*
%TO.P,C13,2*%
%TO.N,Net-(C13-Pad2)*%
X161500000Y-63170000D03*
%TD*%
D21*
%TO.P,C10,1*%
%TO.N,Net-(C10-Pad1)*%
X205132323Y-60500000D03*
D20*
%TO.P,C10,2*%
%TO.N,Net-(C10-Pad2)*%
X210132323Y-60500000D03*
%TD*%
D18*
%TO.P,REF\u002A\u002A,1*%
%TO.N,GND*%
X223000000Y-53500000D03*
%TD*%
D14*
%TO.P,R8,1*%
%TO.N,GND*%
X192000000Y-59000000D03*
%TO.P,R8,2*%
%TO.N,Net-(R2-Pad1)*%
X192000000Y-69160000D03*
%TD*%
%TO.P,R7,1*%
%TO.N,Net-(R1-Pad2)*%
X185000000Y-69080000D03*
%TO.P,R7,2*%
%TO.N,Net-(C1-Pad1)*%
X185000000Y-58920000D03*
%TD*%
%TO.P,R4,1*%
%TO.N,Net-(C4-Pad1)*%
X198300000Y-69160000D03*
%TO.P,R4,2*%
%TO.N,Net-(C2-Pad1)*%
X198300000Y-59000000D03*
%TD*%
%TO.P,C12,1*%
%TO.N,Net-(U2-BYPASS)*%
X214000000Y-70000000D03*
%TO.P,C12,2*%
%TO.N,GND*%
X214000000Y-67500000D03*
%TD*%
D11*
%TO.P,J4,1,Pin_1*%
%TO.N,/OUTPUT_L*%
X161525000Y-93960000D03*
D10*
%TO.P,J4,2,Pin_2*%
%TO.N,GND*%
X161525000Y-96500000D03*
%TD*%
D22*
%TO.P,U3,1,IN*%
%TO.N,Net-(U3-IN)*%
X192540000Y-88000000D03*
D23*
%TO.P,U3,2,GND*%
%TO.N,GND*%
X190000000Y-88000000D03*
%TO.P,U3,3,OUT*%
%TO.N,+9V*%
X187460000Y-88000000D03*
%TD*%
D14*
%TO.P,C19,1*%
%TO.N,Net-(U3-IN)*%
X197000000Y-90000000D03*
%TO.P,C19,2*%
%TO.N,GND*%
X197000000Y-87500000D03*
%TD*%
%TO.P,R6,1*%
%TO.N,Net-(C14-Pad2)*%
X218000000Y-65340000D03*
%TO.P,R6,2*%
%TO.N,Net-(C16-Pad1)*%
X218000000Y-75500000D03*
%TD*%
D17*
%TO.P,RV2,1,1*%
%TO.N,Net-(C8-Pad1)*%
X195500000Y-78460000D03*
%TO.P,RV2,2,2*%
%TO.N,Net-(U2-+)*%
X195500000Y-81000000D03*
%TO.P,RV2,3,3*%
%TO.N,GND*%
X195500000Y-83540000D03*
%TD*%
D24*
%TO.P,C6,1*%
%TO.N,+9V*%
X209152651Y-81500000D03*
D14*
%TO.P,C6,2*%
%TO.N,GND*%
X206652651Y-81500000D03*
%TD*%
%TO.P,C4,1*%
%TO.N,Net-(C4-Pad1)*%
X198750000Y-71500000D03*
%TO.P,C4,2*%
%TO.N,GND*%
X196250000Y-71500000D03*
%TD*%
%TO.P,R5,1*%
%TO.N,Net-(C13-Pad2)*%
X161500000Y-65840000D03*
%TO.P,R5,2*%
%TO.N,Net-(C15-Pad1)*%
X161500000Y-76000000D03*
%TD*%
%TO.P,C14,1*%
%TO.N,GND*%
X217850000Y-60244646D03*
%TO.P,C14,2*%
%TO.N,Net-(C14-Pad2)*%
X217850000Y-62744646D03*
%TD*%
%TO.P,C1,1*%
%TO.N,Net-(C1-Pad1)*%
X186750000Y-56500000D03*
%TO.P,C1,2*%
%TO.N,/INPUT_L*%
X189250000Y-56500000D03*
%TD*%
D18*
%TO.P,REF\u002A\u002A,1*%
%TO.N,GND*%
X157000000Y-96500000D03*
%TD*%
D14*
%TO.P,R1,1*%
%TO.N,GND*%
X188500000Y-58920000D03*
%TO.P,R1,2*%
%TO.N,Net-(R1-Pad2)*%
X188500000Y-69080000D03*
%TD*%
%TO.P,R2,1*%
%TO.N,Net-(R2-Pad1)*%
X195200000Y-69160000D03*
%TO.P,R2,2*%
%TO.N,Net-(C2-Pad1)*%
X195200000Y-59000000D03*
%TD*%
%TO.P,C7,1*%
%TO.N,Net-(C7-Pad1)*%
X183500000Y-74000000D03*
%TO.P,C7,2*%
%TO.N,Net-(C3-Pad1)*%
X181000000Y-74000000D03*
%TD*%
D11*
%TO.P,J3,1,Pin_1*%
%TO.N,/INPUT_R*%
X192540000Y-53500000D03*
D10*
%TO.P,J3,2,Pin_2*%
%TO.N,/INPUT_L*%
X190000000Y-53500000D03*
%TO.P,J3,3,Pin_3*%
%TO.N,GND*%
X187460000Y-53500000D03*
%TD*%
D25*
%TO.P,C16,1*%
%TO.N,Net-(C16-Pad1)*%
X218000000Y-80000000D03*
D20*
%TO.P,C16,2*%
%TO.N,/OUTPUT_R*%
X218000000Y-85000000D03*
%TD*%
D26*
%TO.P,C5,1*%
%TO.N,+9V*%
X171032349Y-61690000D03*
D14*
%TO.P,C5,2*%
%TO.N,GND*%
X173532349Y-61690000D03*
%TD*%
%TO.P,C2,1*%
%TO.N,Net-(C2-Pad1)*%
X194000000Y-56500000D03*
%TO.P,C2,2*%
%TO.N,/INPUT_R*%
X191500000Y-56500000D03*
%TD*%
%TO.P,C17,1*%
%TO.N,+9V*%
X183000000Y-88000000D03*
%TO.P,C17,2*%
%TO.N,GND*%
X183000000Y-90500000D03*
%TD*%
D24*
%TO.P,U1,1,GAIN*%
%TO.N,Net-(C9-Pad1)*%
X176305000Y-75310000D03*
D14*
%TO.P,U1,2,-*%
%TO.N,GND*%
X176305000Y-72770000D03*
%TO.P,U1,3,+*%
%TO.N,Net-(U1-+)*%
X176305000Y-70230000D03*
%TO.P,U1,4,GND*%
%TO.N,GND*%
X176305000Y-67690000D03*
%TO.P,U1,5*%
%TO.N,Net-(C15-Pad1)*%
X168685000Y-67690000D03*
%TO.P,U1,6,V+*%
%TO.N,+9V*%
X168685000Y-70230000D03*
%TO.P,U1,7,BYPASS*%
%TO.N,Net-(U1-BYPASS)*%
X168685000Y-72770000D03*
%TO.P,U1,8,GAIN*%
%TO.N,Net-(C9-Pad2)*%
X168685000Y-75310000D03*
%TD*%
D25*
%TO.P,C15,1*%
%TO.N,Net-(C15-Pad1)*%
X161500000Y-80000000D03*
D20*
%TO.P,C15,2*%
%TO.N,/OUTPUT_L*%
X161500000Y-85000000D03*
%TD*%
D14*
%TO.P,C3,1*%
%TO.N,Net-(C3-Pad1)*%
X181000000Y-71500000D03*
%TO.P,C3,2*%
%TO.N,GND*%
X183500000Y-71500000D03*
%TD*%
D18*
%TO.P,REF\u002A\u002A,1*%
%TO.N,GND*%
X157000000Y-53500000D03*
%TD*%
D26*
%TO.P,U2,1,GAIN*%
%TO.N,Net-(C10-Pad1)*%
X203695000Y-67690000D03*
D14*
%TO.P,U2,2,-*%
%TO.N,GND*%
X203695000Y-70230000D03*
%TO.P,U2,3,+*%
%TO.N,Net-(U2-+)*%
X203695000Y-72770000D03*
%TO.P,U2,4,GND*%
%TO.N,GND*%
X203695000Y-75310000D03*
%TO.P,U2,5*%
%TO.N,Net-(C16-Pad1)*%
X211315000Y-75310000D03*
%TO.P,U2,6,V+*%
%TO.N,+9V*%
X211315000Y-72770000D03*
%TO.P,U2,7,BYPASS*%
%TO.N,Net-(U2-BYPASS)*%
X211315000Y-70230000D03*
%TO.P,U2,8,GAIN*%
%TO.N,Net-(C10-Pad2)*%
X211315000Y-67690000D03*
%TD*%
D27*
%TO.N,Net-(U3-IN)*%
X187040000Y-93500000D02*
X192540000Y-88000000D01*
X182080000Y-93500000D02*
X187040000Y-93500000D01*
%TO.N,/V_IN*%
X206000000Y-96250000D02*
X209710000Y-96250000D01*
%TO.N,Net-(D1-A)*%
X206000000Y-93710000D02*
X206000000Y-90000000D01*
X203367500Y-96342500D02*
X206000000Y-93710000D01*
X198657500Y-96342500D02*
X203367500Y-96342500D01*
X198657500Y-96342500D02*
X197315000Y-95000000D01*
%TO.N,Net-(D1-K)*%
X191660000Y-93500000D02*
X198355000Y-93500000D01*
X198355000Y-93500000D02*
X199855000Y-95000000D01*
%TO.N,Net-(D1-A)*%
X192160000Y-96500000D02*
X195815000Y-96500000D01*
X195815000Y-96500000D02*
X197315000Y-95000000D01*
%TO.N,Net-(U3-IN)*%
X182000000Y-96500000D02*
X182000000Y-93580000D01*
X182000000Y-93580000D02*
X182080000Y-93500000D01*
%TO.N,+9V*%
X204303651Y-86853651D02*
X204303651Y-86349000D01*
X206000000Y-88550000D02*
X204303651Y-86853651D01*
X175500000Y-88000000D02*
X187460000Y-88000000D01*
X172500000Y-85000000D02*
X175500000Y-88000000D01*
X172500000Y-74045000D02*
X172500000Y-85000000D01*
X168685000Y-70230000D02*
X172500000Y-74045000D01*
D28*
%TO.N,Net-(U1-+)*%
X178500000Y-75000000D02*
X184500000Y-81000000D01*
X178500000Y-72425000D02*
X178500000Y-75000000D01*
X176305000Y-70230000D02*
X178500000Y-72425000D01*
%TO.N,Net-(C15-Pad1)*%
X161500000Y-74875000D02*
X168685000Y-67690000D01*
X161500000Y-76000000D02*
X161500000Y-74875000D01*
X161500000Y-80000000D02*
X161500000Y-76000000D01*
%TO.N,/OUTPUT_L*%
X161525000Y-85025000D02*
X161500000Y-85000000D01*
X161525000Y-93960000D02*
X161525000Y-85025000D01*
%TO.N,/OUTPUT_R*%
X218000000Y-85000000D02*
X218000000Y-93960000D01*
%TO.N,Net-(C16-Pad1)*%
X218000000Y-75500000D02*
X218000000Y-80000000D01*
X217810000Y-75310000D02*
X218000000Y-75500000D01*
X211315000Y-75310000D02*
X217810000Y-75310000D01*
%TO.N,Net-(U2-BYPASS)*%
X213770000Y-70230000D02*
X214000000Y-70000000D01*
X211315000Y-70230000D02*
X213770000Y-70230000D01*
%TO.N,Net-(C14-Pad2)*%
X218000000Y-62894646D02*
X217850000Y-62744646D01*
X218000000Y-65340000D02*
X218000000Y-62894646D01*
%TO.N,Net-(C10-Pad2)*%
X210132323Y-66507323D02*
X210132323Y-60500000D01*
X211315000Y-67690000D02*
X210132323Y-66507323D01*
%TO.N,Net-(C10-Pad1)*%
X205132323Y-66252677D02*
X203695000Y-67690000D01*
X205132323Y-60500000D02*
X205132323Y-66252677D01*
%TO.N,Net-(C1-Pad1)*%
X185000000Y-58920000D02*
X181500000Y-58920000D01*
X185000000Y-58250000D02*
X185000000Y-58920000D01*
X186750000Y-56500000D02*
X185000000Y-58250000D01*
%TO.N,/INPUT_L*%
X190000000Y-53500000D02*
X190000000Y-55750000D01*
X190000000Y-55750000D02*
X189250000Y-56500000D01*
%TO.N,/INPUT_R*%
X192540000Y-55460000D02*
X191500000Y-56500000D01*
X192540000Y-53500000D02*
X192540000Y-55460000D01*
%TO.N,Net-(C2-Pad1)*%
X194000000Y-56500000D02*
X194000000Y-57800000D01*
X194000000Y-57800000D02*
X195200000Y-59000000D01*
X198300000Y-59000000D02*
X195200000Y-59000000D01*
%TO.N,Net-(U2-+)*%
X203695000Y-72805000D02*
X203695000Y-72770000D01*
X195500000Y-81000000D02*
X203695000Y-72805000D01*
%TO.N,Net-(C7-Pad1)*%
X184500000Y-75000000D02*
X184500000Y-78460000D01*
X183500000Y-74000000D02*
X184500000Y-75000000D01*
%TO.N,Net-(C8-Pad1)*%
X195500000Y-74750000D02*
X195500000Y-78460000D01*
X196250000Y-74000000D02*
X195500000Y-74750000D01*
%TO.N,Net-(C4-Pad1)*%
X198750000Y-71500000D02*
X198750000Y-74000000D01*
X198300000Y-71050000D02*
X198750000Y-71500000D01*
X198300000Y-69160000D02*
X198300000Y-71050000D01*
%TO.N,Net-(R2-Pad1)*%
X192000000Y-69160000D02*
X195200000Y-69160000D01*
%TO.N,Net-(R1-Pad2)*%
X188500000Y-69080000D02*
X185000000Y-69080000D01*
%TO.N,Net-(C3-Pad1)*%
X181000000Y-71500000D02*
X181000000Y-74000000D01*
X181500000Y-71000000D02*
X181000000Y-71500000D01*
X181500000Y-69080000D02*
X181500000Y-71000000D01*
%TO.N,Net-(C9-Pad2)*%
X170185000Y-76810000D02*
X170185000Y-82690000D01*
X168685000Y-75310000D02*
X170185000Y-76810000D01*
%TO.N,Net-(C9-Pad1)*%
X175185000Y-76430000D02*
X176305000Y-75310000D01*
X175185000Y-82690000D02*
X175185000Y-76430000D01*
D27*
%TO.N,+9V*%
X171032349Y-67882651D02*
X168685000Y-70230000D01*
X209152651Y-81500000D02*
X209152651Y-74932349D01*
X171032349Y-61690000D02*
X171032349Y-67882651D01*
X204303651Y-86349000D02*
X209152651Y-81500000D01*
X209152651Y-74932349D02*
X211315000Y-72770000D01*
X189111000Y-86349000D02*
X204303651Y-86349000D01*
X187460000Y-88000000D02*
X189111000Y-86349000D01*
%TO.N,Net-(U1-BYPASS)*%
X165855000Y-72770000D02*
X165685000Y-72940000D01*
X168685000Y-72770000D02*
X165855000Y-72770000D01*
%TO.N,Net-(C13-Pad2)*%
X161500000Y-65840000D02*
X161500000Y-63170000D01*
%TO.N,Net-(U3-IN)*%
X197000000Y-90000000D02*
X203300000Y-90000000D01*
X195000000Y-90000000D02*
X197000000Y-90000000D01*
X192540000Y-88000000D02*
X193000000Y-88000000D01*
X193000000Y-88000000D02*
X195000000Y-90000000D01*
X196540000Y-90460000D02*
X197000000Y-90000000D01*
%TD*%
%TA.AperFunction,Conductor*%
%TO.N,GND*%
G36*
X203644153Y-87019185D02*
G01*
X203689908Y-87071989D01*
X203691675Y-87076047D01*
X203727185Y-87161776D01*
X203798377Y-87268324D01*
X203798378Y-87268325D01*
X204708181Y-88178127D01*
X204741666Y-88239450D01*
X204744500Y-88265808D01*
X204744500Y-89050015D01*
X204748507Y-89113523D01*
X204761339Y-89160107D01*
X204764530Y-89210683D01*
X204744500Y-89349999D01*
X204744500Y-89455064D01*
X204724815Y-89522103D01*
X204672011Y-89567858D01*
X204602853Y-89577802D01*
X204539297Y-89548777D01*
X204507715Y-89504977D01*
X204507432Y-89505122D01*
X204506498Y-89503290D01*
X204505936Y-89502510D01*
X204505219Y-89500779D01*
X204450837Y-89394049D01*
X204412287Y-89318390D01*
X204376889Y-89269668D01*
X204291971Y-89152786D01*
X204147213Y-89008028D01*
X203981613Y-88887715D01*
X203981612Y-88887714D01*
X203981610Y-88887713D01*
X203924653Y-88858691D01*
X203799223Y-88794781D01*
X203604534Y-88731522D01*
X203415705Y-88701615D01*
X203402352Y-88699500D01*
X203197648Y-88699500D01*
X203184295Y-88701615D01*
X202995465Y-88731522D01*
X202800776Y-88794781D01*
X202618386Y-88887715D01*
X202452786Y-89008028D01*
X202308034Y-89152780D01*
X202265966Y-89210683D01*
X202202246Y-89298386D01*
X202146918Y-89341051D01*
X202101929Y-89349500D01*
X201348071Y-89349500D01*
X201281032Y-89329815D01*
X201247754Y-89298386D01*
X201141966Y-89152781D01*
X200997219Y-89008034D01*
X200997213Y-89008028D01*
X200831613Y-88887715D01*
X200831612Y-88887714D01*
X200831610Y-88887713D01*
X200774653Y-88858691D01*
X200649223Y-88794781D01*
X200454534Y-88731522D01*
X200265705Y-88701615D01*
X200252352Y-88699500D01*
X200047648Y-88699500D01*
X200034295Y-88701615D01*
X199845465Y-88731522D01*
X199650776Y-88794781D01*
X199468386Y-88887715D01*
X199302786Y-89008028D01*
X199158034Y-89152780D01*
X199115966Y-89210683D01*
X199052246Y-89298386D01*
X198996918Y-89341051D01*
X198951929Y-89349500D01*
X198198071Y-89349500D01*
X198131032Y-89329815D01*
X198097754Y-89298386D01*
X197991966Y-89152781D01*
X197847219Y-89008034D01*
X197847213Y-89008028D01*
X197681613Y-88887715D01*
X197681612Y-88887714D01*
X197681610Y-88887713D01*
X197624653Y-88858691D01*
X197499223Y-88794781D01*
X197304534Y-88731522D01*
X197115705Y-88701615D01*
X197102352Y-88699500D01*
X196897648Y-88699500D01*
X196884295Y-88701615D01*
X196695465Y-88731522D01*
X196500776Y-88794781D01*
X196318386Y-88887715D01*
X196152786Y-89008028D01*
X196008034Y-89152780D01*
X195965966Y-89210683D01*
X195902246Y-89298386D01*
X195846918Y-89341051D01*
X195801929Y-89349500D01*
X195320807Y-89349500D01*
X195253768Y-89329815D01*
X195233126Y-89313181D01*
X194029318Y-88109372D01*
X193995833Y-88048049D01*
X193992999Y-88021691D01*
X193992999Y-87123500D01*
X194012684Y-87056461D01*
X194065488Y-87010706D01*
X194116999Y-86999500D01*
X203577114Y-86999500D01*
X203644153Y-87019185D01*
G37*
%TD.AperFunction*%
%TA.AperFunction,Conductor*%
G36*
X223004043Y-51500765D02*
G01*
X223252895Y-51517075D01*
X223268953Y-51519190D01*
X223476105Y-51560395D01*
X223509535Y-51567045D01*
X223525202Y-51571243D01*
X223694947Y-51628863D01*
X223757481Y-51650091D01*
X223772458Y-51656294D01*
X223981799Y-51759529D01*
X223992460Y-51764787D01*
X224006508Y-51772897D01*
X224210464Y-51909177D01*
X224223328Y-51919048D01*
X224407749Y-52080781D01*
X224419218Y-52092250D01*
X224498587Y-52182753D01*
X224556196Y-52248444D01*
X224580951Y-52276671D01*
X224590825Y-52289539D01*
X224727102Y-52493492D01*
X224735212Y-52507539D01*
X224843702Y-52727534D01*
X224849909Y-52742520D01*
X224928756Y-52974797D01*
X224932954Y-52990464D01*
X224980807Y-53231035D01*
X224982925Y-53247116D01*
X224999235Y-53495956D01*
X224999500Y-53504066D01*
X224999500Y-96495933D01*
X224999235Y-96504043D01*
X224982925Y-96752883D01*
X224980807Y-96768964D01*
X224932954Y-97009535D01*
X224928756Y-97025202D01*
X224849909Y-97257479D01*
X224843702Y-97272465D01*
X224735212Y-97492460D01*
X224727102Y-97506507D01*
X224590825Y-97710460D01*
X224580951Y-97723328D01*
X224419218Y-97907749D01*
X224407749Y-97919218D01*
X224223328Y-98080951D01*
X224210460Y-98090825D01*
X224006507Y-98227102D01*
X223992460Y-98235212D01*
X223772465Y-98343702D01*
X223757479Y-98349909D01*
X223525202Y-98428756D01*
X223509535Y-98432954D01*
X223268964Y-98480807D01*
X223252883Y-98482925D01*
X223004043Y-98499235D01*
X222995933Y-98499500D01*
X157004067Y-98499500D01*
X156995957Y-98499235D01*
X156747116Y-98482925D01*
X156731035Y-98480807D01*
X156490464Y-98432954D01*
X156474797Y-98428756D01*
X156242520Y-98349909D01*
X156227534Y-98343702D01*
X156007539Y-98235212D01*
X155993492Y-98227102D01*
X155789539Y-98090825D01*
X155776671Y-98080951D01*
X155592250Y-97919218D01*
X155580781Y-97907749D01*
X155419048Y-97723328D01*
X155409174Y-97710460D01*
X155405671Y-97705218D01*
X155272897Y-97506507D01*
X155264787Y-97492460D01*
X155193159Y-97347213D01*
X155156294Y-97272458D01*
X155150090Y-97257479D01*
X155071243Y-97025202D01*
X155067045Y-97009535D01*
X155059186Y-96970026D01*
X155019190Y-96768953D01*
X155017075Y-96752895D01*
X155000765Y-96504043D01*
X155000500Y-96495933D01*
X155000500Y-84881902D01*
X159999500Y-84881902D01*
X159999500Y-85118097D01*
X160036446Y-85351368D01*
X160109433Y-85575996D01*
X160209573Y-85772530D01*
X160216657Y-85786433D01*
X160355483Y-85977510D01*
X160522490Y-86144517D01*
X160713567Y-86283343D01*
X160856795Y-86356321D01*
X160907591Y-86404295D01*
X160924500Y-86466806D01*
X160924500Y-92485500D01*
X160904815Y-92552539D01*
X160852011Y-92598294D01*
X160800501Y-92609500D01*
X160627130Y-92609500D01*
X160627123Y-92609501D01*
X160567516Y-92615908D01*
X160432671Y-92666202D01*
X160432664Y-92666206D01*
X160317455Y-92752452D01*
X160317452Y-92752455D01*
X160231206Y-92867664D01*
X160231202Y-92867671D01*
X160180908Y-93002517D01*
X160174501Y-93062116D01*
X160174501Y-93062123D01*
X160174500Y-93062135D01*
X160174500Y-94857870D01*
X160174501Y-94857876D01*
X160180908Y-94917483D01*
X160231202Y-95052328D01*
X160231206Y-95052335D01*
X160317452Y-95167544D01*
X160317455Y-95167547D01*
X160432664Y-95253793D01*
X160432671Y-95253797D01*
X160567517Y-95304091D01*
X160567516Y-95304091D01*
X160574444Y-95304835D01*
X160627127Y-95310500D01*
X162422872Y-95310499D01*
X162482483Y-95304091D01*
X162617331Y-95253796D01*
X162732546Y-95167546D01*
X162818796Y-95052331D01*
X162869091Y-94917483D01*
X162875500Y-94857873D01*
X162875499Y-93062128D01*
X162869091Y-93002517D01*
X162866185Y-92994726D01*
X162818797Y-92867671D01*
X162818793Y-92867664D01*
X162732547Y-92752455D01*
X162732544Y-92752452D01*
X162617335Y-92666206D01*
X162617328Y-92666202D01*
X162482482Y-92615908D01*
X162482483Y-92615908D01*
X162422883Y-92609501D01*
X162422881Y-92609500D01*
X162422873Y-92609500D01*
X162422865Y-92609500D01*
X162249500Y-92609500D01*
X162182461Y-92589815D01*
X162136706Y-92537011D01*
X162125500Y-92485500D01*
X162125500Y-86441329D01*
X162145185Y-86374290D01*
X162193205Y-86330844D01*
X162286433Y-86283343D01*
X162477510Y-86144517D01*
X162644517Y-85977510D01*
X162783343Y-85786433D01*
X162890568Y-85575992D01*
X162963553Y-85351368D01*
X162989152Y-85189744D01*
X163000500Y-85118097D01*
X163000500Y-84881902D01*
X162963553Y-84648631D01*
X162890566Y-84424003D01*
X162783342Y-84213566D01*
X162644517Y-84022490D01*
X162477510Y-83855483D01*
X162286433Y-83716657D01*
X162075996Y-83609433D01*
X161851368Y-83536446D01*
X161618097Y-83499500D01*
X161618092Y-83499500D01*
X161381908Y-83499500D01*
X161381903Y-83499500D01*
X161148631Y-83536446D01*
X160924003Y-83609433D01*
X160713566Y-83716657D01*
X160604550Y-83795862D01*
X160522490Y-83855483D01*
X160522488Y-83855485D01*
X160522487Y-83855485D01*
X160355485Y-84022487D01*
X160355485Y-84022488D01*
X160355483Y-84022490D01*
X160313288Y-84080566D01*
X160216657Y-84213566D01*
X160109433Y-84424003D01*
X160036446Y-84648631D01*
X159999500Y-84881902D01*
X155000500Y-84881902D01*
X155000500Y-79199983D01*
X159999500Y-79199983D01*
X159999500Y-80800001D01*
X159999501Y-80800018D01*
X160010000Y-80902796D01*
X160010001Y-80902799D01*
X160065185Y-81069331D01*
X160065187Y-81069336D01*
X160094593Y-81117011D01*
X160157288Y-81218656D01*
X160281344Y-81342712D01*
X160430666Y-81434814D01*
X160597203Y-81489999D01*
X160699991Y-81500500D01*
X162300008Y-81500499D01*
X162402797Y-81489999D01*
X162569334Y-81434814D01*
X162718656Y-81342712D01*
X162842712Y-81218656D01*
X162934814Y-81069334D01*
X162989999Y-80902797D01*
X163000500Y-80800009D01*
X163000499Y-79199992D01*
X162989999Y-79097203D01*
X162934814Y-78930666D01*
X162842712Y-78781344D01*
X162718656Y-78657288D01*
X162569334Y-78565186D01*
X162402797Y-78510001D01*
X162402795Y-78510000D01*
X162300016Y-78499500D01*
X162300009Y-78499500D01*
X162224500Y-78499500D01*
X162157461Y-78479815D01*
X162111706Y-78427011D01*
X162100500Y-78375500D01*
X162100500Y-77229601D01*
X162120185Y-77162562D01*
X162168206Y-77119116D01*
X162181610Y-77112287D01*
X162347219Y-76991966D01*
X162491966Y-76847219D01*
X162491968Y-76847215D01*
X162491971Y-76847213D01*
X162576443Y-76730945D01*
X162612287Y-76681610D01*
X162705220Y-76499219D01*
X162768477Y-76304534D01*
X162800500Y-76102352D01*
X162800500Y-75897648D01*
X162777881Y-75754842D01*
X162768477Y-75695465D01*
X162722741Y-75554706D01*
X162705220Y-75500781D01*
X162705218Y-75500778D01*
X162705218Y-75500776D01*
X162660163Y-75412352D01*
X162612287Y-75318390D01*
X162599289Y-75300500D01*
X162491971Y-75152786D01*
X162369390Y-75030205D01*
X162335905Y-74968882D01*
X162340889Y-74899190D01*
X162369388Y-74854845D01*
X164184716Y-73039518D01*
X164246035Y-73006036D01*
X164315727Y-73011020D01*
X164371660Y-73052892D01*
X164394866Y-73107803D01*
X164416523Y-73244535D01*
X164479781Y-73439223D01*
X164572715Y-73621613D01*
X164693028Y-73787213D01*
X164837786Y-73931971D01*
X164992749Y-74044556D01*
X165003390Y-74052287D01*
X165101646Y-74102351D01*
X165185776Y-74145218D01*
X165185778Y-74145218D01*
X165185781Y-74145220D01*
X165290137Y-74179127D01*
X165380465Y-74208477D01*
X165481557Y-74224488D01*
X165582648Y-74240500D01*
X165582649Y-74240500D01*
X165787351Y-74240500D01*
X165787352Y-74240500D01*
X165989534Y-74208477D01*
X166184219Y-74145220D01*
X166366610Y-74052287D01*
X166469560Y-73977490D01*
X166532213Y-73931971D01*
X166532215Y-73931968D01*
X166532219Y-73931966D01*
X166676966Y-73787219D01*
X166676968Y-73787215D01*
X166676971Y-73787213D01*
X166797284Y-73621614D01*
X166797285Y-73621613D01*
X166797287Y-73621610D01*
X166865260Y-73488204D01*
X166913234Y-73437409D01*
X166975745Y-73420500D01*
X167486929Y-73420500D01*
X167553968Y-73440185D01*
X167587245Y-73471613D01*
X167599301Y-73488205D01*
X167693034Y-73617219D01*
X167837786Y-73761971D01*
X167992749Y-73874556D01*
X168003390Y-73882287D01*
X168094840Y-73928883D01*
X168096080Y-73929515D01*
X168146876Y-73977490D01*
X168163671Y-74045311D01*
X168141134Y-74111446D01*
X168096080Y-74150485D01*
X168003386Y-74197715D01*
X167837786Y-74318028D01*
X167693028Y-74462786D01*
X167572715Y-74628386D01*
X167479781Y-74810776D01*
X167416522Y-75005465D01*
X167384500Y-75207648D01*
X167384500Y-75412351D01*
X167416522Y-75614534D01*
X167479781Y-75809223D01*
X167524837Y-75897648D01*
X167568320Y-75982989D01*
X167572715Y-75991613D01*
X167693028Y-76157213D01*
X167837786Y-76301971D01*
X167992749Y-76414556D01*
X168003390Y-76422287D01*
X168119607Y-76481503D01*
X168185776Y-76515218D01*
X168185778Y-76515218D01*
X168185781Y-76515220D01*
X168276856Y-76544812D01*
X168380465Y-76578477D01*
X168481557Y-76594488D01*
X168582648Y-76610500D01*
X168582649Y-76610500D01*
X168787351Y-76610500D01*
X168787352Y-76610500D01*
X168989534Y-76578477D01*
X169003842Y-76573827D01*
X169073682Y-76571831D01*
X169129842Y-76604077D01*
X169548181Y-77022416D01*
X169581666Y-77083739D01*
X169584500Y-77110097D01*
X169584500Y-81235931D01*
X169564815Y-81302970D01*
X169516796Y-81346415D01*
X169398568Y-81406655D01*
X169309533Y-81471344D01*
X169207490Y-81545483D01*
X169207488Y-81545485D01*
X169207487Y-81545485D01*
X169040485Y-81712487D01*
X169040485Y-81712488D01*
X169040483Y-81712490D01*
X168986203Y-81787200D01*
X168901657Y-81903566D01*
X168794433Y-82114003D01*
X168721446Y-82338631D01*
X168684500Y-82571902D01*
X168684500Y-82808097D01*
X168721446Y-83041368D01*
X168794433Y-83265996D01*
X168901657Y-83476433D01*
X169040483Y-83667510D01*
X169207490Y-83834517D01*
X169398567Y-83973343D01*
X169495018Y-84022487D01*
X169609003Y-84080566D01*
X169609005Y-84080566D01*
X169609008Y-84080568D01*
X169729412Y-84119689D01*
X169833631Y-84153553D01*
X170066903Y-84190500D01*
X170066908Y-84190500D01*
X170303097Y-84190500D01*
X170536368Y-84153553D01*
X170760992Y-84080568D01*
X170971433Y-83973343D01*
X171162510Y-83834517D01*
X171329517Y-83667510D01*
X171468343Y-83476433D01*
X171575568Y-83265992D01*
X171607569Y-83167502D01*
X171647007Y-83109827D01*
X171711365Y-83082629D01*
X171780212Y-83094544D01*
X171831687Y-83141788D01*
X171849500Y-83205821D01*
X171849500Y-85064069D01*
X171849500Y-85064071D01*
X171849499Y-85064071D01*
X171874497Y-85189738D01*
X171874499Y-85189744D01*
X171923535Y-85308127D01*
X171994723Y-85414669D01*
X171994726Y-85414673D01*
X175085328Y-88505275D01*
X175188228Y-88574030D01*
X175190085Y-88575270D01*
X175191873Y-88576465D01*
X175310256Y-88625501D01*
X175310260Y-88625501D01*
X175310261Y-88625502D01*
X175435928Y-88650500D01*
X175435931Y-88650500D01*
X175564069Y-88650500D01*
X181801929Y-88650500D01*
X181868968Y-88670185D01*
X181902245Y-88701613D01*
X181914301Y-88718205D01*
X182008034Y-88847219D01*
X182152786Y-88991971D01*
X182307749Y-89104556D01*
X182318390Y-89112287D01*
X182412242Y-89160107D01*
X182500776Y-89205218D01*
X182500778Y-89205218D01*
X182500781Y-89205220D01*
X182605137Y-89239127D01*
X182695465Y-89268477D01*
X182796557Y-89284488D01*
X182897648Y-89300500D01*
X182897649Y-89300500D01*
X183102351Y-89300500D01*
X183102352Y-89300500D01*
X183304534Y-89268477D01*
X183499219Y-89205220D01*
X183681610Y-89112287D01*
X183774590Y-89044732D01*
X183847213Y-88991971D01*
X183847215Y-88991968D01*
X183847219Y-88991966D01*
X183991966Y-88847219D01*
X184097753Y-88701613D01*
X184153082Y-88658949D01*
X184198071Y-88650500D01*
X186060516Y-88650500D01*
X186127555Y-88670185D01*
X186171001Y-88718205D01*
X186177787Y-88731523D01*
X186217283Y-88809038D01*
X186351714Y-88994066D01*
X186513434Y-89155786D01*
X186698462Y-89290217D01*
X186814812Y-89349500D01*
X186902244Y-89394049D01*
X187119751Y-89464721D01*
X187119752Y-89464721D01*
X187119755Y-89464722D01*
X187345646Y-89500500D01*
X187345647Y-89500500D01*
X187574353Y-89500500D01*
X187574354Y-89500500D01*
X187800245Y-89464722D01*
X187800248Y-89464721D01*
X187800249Y-89464721D01*
X188017755Y-89394049D01*
X188017755Y-89394048D01*
X188017758Y-89394048D01*
X188221538Y-89290217D01*
X188406566Y-89155786D01*
X188568286Y-88994066D01*
X188702717Y-88809038D01*
X188806548Y-88605258D01*
X188877222Y-88387745D01*
X188913000Y-88161854D01*
X188913000Y-87838146D01*
X188877222Y-87612255D01*
X188873842Y-87601855D01*
X188871844Y-87532017D01*
X188904089Y-87475855D01*
X189344127Y-87035819D01*
X189405450Y-87002334D01*
X189431808Y-86999500D01*
X190963000Y-86999500D01*
X191030039Y-87019185D01*
X191075794Y-87071989D01*
X191087000Y-87123500D01*
X191087000Y-88481691D01*
X191067315Y-88548730D01*
X191050681Y-88569372D01*
X186806873Y-92813181D01*
X186745550Y-92846666D01*
X186719192Y-92849500D01*
X183278071Y-92849500D01*
X183211032Y-92829815D01*
X183177754Y-92798386D01*
X183071966Y-92652781D01*
X182927219Y-92508034D01*
X182927213Y-92508028D01*
X182761613Y-92387715D01*
X182761612Y-92387714D01*
X182761610Y-92387713D01*
X182704653Y-92358691D01*
X182579223Y-92294781D01*
X182384534Y-92231522D01*
X182209995Y-92203878D01*
X182182352Y-92199500D01*
X181977648Y-92199500D01*
X181953329Y-92203351D01*
X181775465Y-92231522D01*
X181580776Y-92294781D01*
X181398386Y-92387715D01*
X181232786Y-92508028D01*
X181088028Y-92652786D01*
X180967715Y-92818386D01*
X180874781Y-93000776D01*
X180811522Y-93195465D01*
X180780116Y-93393757D01*
X180779500Y-93397648D01*
X180779500Y-93602352D01*
X180783878Y-93629995D01*
X180811522Y-93804534D01*
X180874781Y-93999223D01*
X180967715Y-94181613D01*
X181088028Y-94347213D01*
X181232784Y-94491969D01*
X181298385Y-94539630D01*
X181341051Y-94594959D01*
X181349500Y-94639948D01*
X181349500Y-95360051D01*
X181329815Y-95427090D01*
X181298385Y-95460369D01*
X181232787Y-95508028D01*
X181232782Y-95508032D01*
X181088028Y-95652786D01*
X180967715Y-95818386D01*
X180874781Y-96000776D01*
X180811522Y-96195465D01*
X180779500Y-96397648D01*
X180779500Y-96602351D01*
X180811522Y-96804534D01*
X180874781Y-96999223D01*
X180938691Y-97124653D01*
X180942759Y-97132636D01*
X180967715Y-97181613D01*
X181088028Y-97347213D01*
X181232786Y-97491971D01*
X181361187Y-97585258D01*
X181398390Y-97612287D01*
X181514607Y-97671503D01*
X181580776Y-97705218D01*
X181580778Y-97705218D01*
X181580781Y-97705220D01*
X181636512Y-97723328D01*
X181775465Y-97768477D01*
X181876557Y-97784488D01*
X181977648Y-97800500D01*
X181977649Y-97800500D01*
X182182351Y-97800500D01*
X182182352Y-97800500D01*
X182384534Y-97768477D01*
X182579219Y-97705220D01*
X182761610Y-97612287D01*
X182855885Y-97543793D01*
X182927213Y-97491971D01*
X182927215Y-97491968D01*
X182927219Y-97491966D01*
X183071966Y-97347219D01*
X183071968Y-97347215D01*
X183071971Y-97347213D01*
X183124732Y-97274590D01*
X183192287Y-97181610D01*
X183285220Y-96999219D01*
X183348477Y-96804534D01*
X183380500Y-96602352D01*
X183380500Y-96397648D01*
X183361836Y-96279807D01*
X183348477Y-96195465D01*
X183285218Y-96000776D01*
X183206694Y-95846666D01*
X183192287Y-95818390D01*
X183177753Y-95798385D01*
X183071971Y-95652786D01*
X182927213Y-95508028D01*
X182761613Y-95387714D01*
X182718203Y-95365595D01*
X182667408Y-95317619D01*
X182650500Y-95255111D01*
X182650500Y-94744887D01*
X182670185Y-94677848D01*
X182718205Y-94634402D01*
X182761610Y-94612287D01*
X182927219Y-94491966D01*
X183071966Y-94347219D01*
X183177753Y-94201613D01*
X183233082Y-94158949D01*
X183278071Y-94150500D01*
X187104071Y-94150500D01*
X187188615Y-94133682D01*
X187229744Y-94125501D01*
X187348127Y-94076465D01*
X187350836Y-94074654D01*
X187351772Y-94074030D01*
X187416089Y-94031055D01*
X187454669Y-94005277D01*
X191923127Y-89536817D01*
X191984450Y-89503333D01*
X192010808Y-89500499D01*
X193529192Y-89500499D01*
X193596231Y-89520184D01*
X193616873Y-89536818D01*
X194494724Y-90414669D01*
X194554247Y-90474192D01*
X194585332Y-90505277D01*
X194691866Y-90576461D01*
X194691872Y-90576464D01*
X194691873Y-90576465D01*
X194810256Y-90625501D01*
X194810260Y-90625501D01*
X194810261Y-90625502D01*
X194935928Y-90650500D01*
X194935931Y-90650500D01*
X195801929Y-90650500D01*
X195805642Y-90651590D01*
X195809415Y-90650726D01*
X195838904Y-90661357D01*
X195868968Y-90670185D01*
X195872556Y-90673489D01*
X195875144Y-90674422D01*
X195892724Y-90692059D01*
X195900373Y-90699103D01*
X195901332Y-90700355D01*
X196008034Y-90847219D01*
X196032719Y-90871904D01*
X196033943Y-90873502D01*
X196034723Y-90874669D01*
X196085303Y-90925249D01*
X196125761Y-90965707D01*
X196133886Y-90973071D01*
X196152786Y-90991971D01*
X196247833Y-91061025D01*
X196318390Y-91112287D01*
X196434607Y-91171503D01*
X196500776Y-91205218D01*
X196500778Y-91205218D01*
X196500781Y-91205220D01*
X196605137Y-91239127D01*
X196695465Y-91268477D01*
X196796557Y-91284488D01*
X196897648Y-91300500D01*
X196897649Y-91300500D01*
X197102351Y-91300500D01*
X197102352Y-91300500D01*
X197304534Y-91268477D01*
X197499219Y-91205220D01*
X197681610Y-91112287D01*
X197815144Y-91015270D01*
X197847213Y-90991971D01*
X197847215Y-90991968D01*
X197847219Y-90991966D01*
X197991966Y-90847219D01*
X198097753Y-90701613D01*
X198153082Y-90658949D01*
X198198071Y-90650500D01*
X198951929Y-90650500D01*
X199018968Y-90670185D01*
X199052245Y-90701613D01*
X199146272Y-90831030D01*
X199158034Y-90847219D01*
X199302786Y-90991971D01*
X199397833Y-91061025D01*
X199468390Y-91112287D01*
X199584607Y-91171503D01*
X199650776Y-91205218D01*
X199650778Y-91205218D01*
X199650781Y-91205220D01*
X199755137Y-91239127D01*
X199845465Y-91268477D01*
X199946557Y-91284488D01*
X200047648Y-91300500D01*
X200047649Y-91300500D01*
X200252351Y-91300500D01*
X200252352Y-91300500D01*
X200454534Y-91268477D01*
X200649219Y-91205220D01*
X200831610Y-91112287D01*
X200965144Y-91015270D01*
X200997213Y-90991971D01*
X200997215Y-90991968D01*
X200997219Y-90991966D01*
X201141966Y-90847219D01*
X201247753Y-90701613D01*
X201303082Y-90658949D01*
X201348071Y-90650500D01*
X202101929Y-90650500D01*
X202168968Y-90670185D01*
X202202245Y-90701613D01*
X202296272Y-90831030D01*
X202308034Y-90847219D01*
X202452786Y-90991971D01*
X202547833Y-91061025D01*
X202618390Y-91112287D01*
X202734607Y-91171503D01*
X202800776Y-91205218D01*
X202800778Y-91205218D01*
X202800781Y-91205220D01*
X202905137Y-91239127D01*
X202995465Y-91268477D01*
X203096557Y-91284488D01*
X203197648Y-91300500D01*
X203197649Y-91300500D01*
X203402351Y-91300500D01*
X203402352Y-91300500D01*
X203604534Y-91268477D01*
X203799219Y-91205220D01*
X203981610Y-91112287D01*
X204115144Y-91015270D01*
X204147213Y-90991971D01*
X204147215Y-90991968D01*
X204147219Y-90991966D01*
X204291966Y-90847219D01*
X204291968Y-90847215D01*
X204291971Y-90847213D01*
X204345678Y-90773290D01*
X204412287Y-90681610D01*
X204505220Y-90499219D01*
X204505221Y-90499217D01*
X204507081Y-90494726D01*
X204508229Y-90495201D01*
X204544402Y-90442275D01*
X204608754Y-90415062D01*
X204677603Y-90426960D01*
X204729090Y-90474192D01*
X204746602Y-90529402D01*
X204749644Y-90571940D01*
X204775193Y-90658949D01*
X204787721Y-90701615D01*
X204790182Y-90709994D01*
X204867967Y-90831030D01*
X204867971Y-90831034D01*
X204976700Y-90925249D01*
X204976706Y-90925254D01*
X205017174Y-90943735D01*
X205107580Y-90985023D01*
X205107583Y-90985023D01*
X205107584Y-90985024D01*
X205243147Y-91004514D01*
X205306702Y-91033538D01*
X205344477Y-91092316D01*
X205349500Y-91127252D01*
X205349500Y-92450382D01*
X205329815Y-92517421D01*
X205295408Y-92551099D01*
X205296125Y-92552085D01*
X205120213Y-92679890D01*
X204969890Y-92830213D01*
X204844951Y-93002179D01*
X204748444Y-93191585D01*
X204682753Y-93393760D01*
X204649500Y-93603713D01*
X204649500Y-93816286D01*
X204683516Y-94031055D01*
X204681879Y-94031314D01*
X204678734Y-94093895D01*
X204649342Y-94140711D01*
X203134373Y-95655681D01*
X203073050Y-95689166D01*
X203046692Y-95692000D01*
X201379500Y-95692000D01*
X201312461Y-95672315D01*
X201266706Y-95619511D01*
X201255500Y-95568000D01*
X201255499Y-94052129D01*
X201255498Y-94052123D01*
X201253261Y-94031314D01*
X201249091Y-93992517D01*
X201198796Y-93857669D01*
X201198795Y-93857668D01*
X201198793Y-93857664D01*
X201112547Y-93742455D01*
X201112544Y-93742452D01*
X200997335Y-93656206D01*
X200997328Y-93656202D01*
X200862482Y-93605908D01*
X200862483Y-93605908D01*
X200802883Y-93599501D01*
X200802881Y-93599500D01*
X200802873Y-93599500D01*
X200802865Y-93599500D01*
X199425808Y-93599500D01*
X199358769Y-93579815D01*
X199338127Y-93563181D01*
X198769674Y-92994727D01*
X198769673Y-92994726D01*
X198769669Y-92994723D01*
X198663127Y-92923535D01*
X198544744Y-92874499D01*
X198544738Y-92874497D01*
X198419071Y-92849500D01*
X198419069Y-92849500D01*
X193438071Y-92849500D01*
X193371032Y-92829815D01*
X193337754Y-92798386D01*
X193231966Y-92652781D01*
X193087219Y-92508034D01*
X193087213Y-92508028D01*
X192921613Y-92387715D01*
X192921612Y-92387714D01*
X192921610Y-92387713D01*
X192864653Y-92358691D01*
X192739223Y-92294781D01*
X192544534Y-92231522D01*
X192369995Y-92203878D01*
X192342352Y-92199500D01*
X192137648Y-92199500D01*
X192113329Y-92203351D01*
X191935465Y-92231522D01*
X191740776Y-92294781D01*
X191558386Y-92387715D01*
X191392786Y-92508028D01*
X191248028Y-92652786D01*
X191127715Y-92818386D01*
X191034781Y-93000776D01*
X190971522Y-93195465D01*
X190940116Y-93393757D01*
X190939500Y-93397648D01*
X190939500Y-93602352D01*
X190943878Y-93629995D01*
X190971522Y-93804534D01*
X191034781Y-93999223D01*
X191127715Y-94181613D01*
X191248028Y-94347213D01*
X191392786Y-94491971D01*
X191509499Y-94576766D01*
X191558390Y-94612287D01*
X191669499Y-94668900D01*
X191740776Y-94705218D01*
X191740778Y-94705218D01*
X191740781Y-94705220D01*
X191821909Y-94731580D01*
X191935465Y-94768477D01*
X192036557Y-94784488D01*
X192137648Y-94800500D01*
X192137649Y-94800500D01*
X192342351Y-94800500D01*
X192342352Y-94800500D01*
X192544534Y-94768477D01*
X192739219Y-94705220D01*
X192921610Y-94612287D01*
X193021615Y-94539630D01*
X193087213Y-94491971D01*
X193087215Y-94491968D01*
X193087219Y-94491966D01*
X193231966Y-94347219D01*
X193337753Y-94201613D01*
X193393082Y-94158949D01*
X193438071Y-94150500D01*
X195973674Y-94150500D01*
X196040713Y-94170185D01*
X196086468Y-94222989D01*
X196096412Y-94292147D01*
X196084158Y-94330796D01*
X196017106Y-94462388D01*
X196017103Y-94462396D01*
X195948985Y-94672047D01*
X195933712Y-94768477D01*
X195914500Y-94889778D01*
X195914500Y-95110222D01*
X195922014Y-95157664D01*
X195948985Y-95327952D01*
X195954470Y-95344833D01*
X195956465Y-95414674D01*
X195924220Y-95470832D01*
X195581873Y-95813181D01*
X195520550Y-95846666D01*
X195494192Y-95849500D01*
X193438071Y-95849500D01*
X193371032Y-95829815D01*
X193337754Y-95798386D01*
X193231966Y-95652781D01*
X193087219Y-95508034D01*
X193087213Y-95508028D01*
X192921613Y-95387715D01*
X192921612Y-95387714D01*
X192921610Y-95387713D01*
X192851761Y-95352123D01*
X192739223Y-95294781D01*
X192544534Y-95231522D01*
X192369995Y-95203878D01*
X192342352Y-95199500D01*
X192137648Y-95199500D01*
X192113329Y-95203351D01*
X191935465Y-95231522D01*
X191740776Y-95294781D01*
X191558386Y-95387715D01*
X191392786Y-95508028D01*
X191248028Y-95652786D01*
X191127715Y-95818386D01*
X191034781Y-96000776D01*
X190971522Y-96195465D01*
X190939500Y-96397648D01*
X190939500Y-96602351D01*
X190971522Y-96804534D01*
X191034781Y-96999223D01*
X191098691Y-97124653D01*
X191102759Y-97132636D01*
X191127715Y-97181613D01*
X191248028Y-97347213D01*
X191392786Y-97491971D01*
X191521187Y-97585258D01*
X191558390Y-97612287D01*
X191674607Y-97671503D01*
X191740776Y-97705218D01*
X191740778Y-97705218D01*
X191740781Y-97705220D01*
X191796512Y-97723328D01*
X191935465Y-97768477D01*
X192036557Y-97784488D01*
X192137648Y-97800500D01*
X192137649Y-97800500D01*
X192342351Y-97800500D01*
X192342352Y-97800500D01*
X192544534Y-97768477D01*
X192739219Y-97705220D01*
X192921610Y-97612287D01*
X193015885Y-97543793D01*
X193087213Y-97491971D01*
X193087215Y-97491968D01*
X193087219Y-97491966D01*
X193231966Y-97347219D01*
X193337753Y-97201613D01*
X193393082Y-97158949D01*
X193438071Y-97150500D01*
X195879071Y-97150500D01*
X195968935Y-97132624D01*
X196004744Y-97125501D01*
X196123127Y-97076465D01*
X196125836Y-97074654D01*
X196126772Y-97074030D01*
X196161991Y-97050497D01*
X196229669Y-97005277D01*
X196844167Y-96390777D01*
X196905488Y-96357294D01*
X196970164Y-96360529D01*
X196976741Y-96362665D01*
X196987049Y-96366015D01*
X197204778Y-96400500D01*
X197204779Y-96400500D01*
X197425221Y-96400500D01*
X197425222Y-96400500D01*
X197642951Y-96366015D01*
X197659829Y-96360531D01*
X197729670Y-96358532D01*
X197785833Y-96390779D01*
X198242825Y-96847772D01*
X198242826Y-96847773D01*
X198242829Y-96847775D01*
X198242831Y-96847777D01*
X198349373Y-96918965D01*
X198467756Y-96968001D01*
X198467760Y-96968001D01*
X198467761Y-96968002D01*
X198593428Y-96993000D01*
X198593431Y-96993000D01*
X203431571Y-96993000D01*
X203532168Y-96972989D01*
X203557244Y-96968001D01*
X203675627Y-96918965D01*
X203782169Y-96847777D01*
X204437819Y-96192125D01*
X204499142Y-96158641D01*
X204568833Y-96163625D01*
X204624767Y-96205496D01*
X204649184Y-96270961D01*
X204649500Y-96279807D01*
X204649500Y-97147870D01*
X204649501Y-97147876D01*
X204655908Y-97207483D01*
X204706202Y-97342328D01*
X204706206Y-97342335D01*
X204792452Y-97457544D01*
X204792455Y-97457547D01*
X204907664Y-97543793D01*
X204907671Y-97543797D01*
X205042517Y-97594091D01*
X205042516Y-97594091D01*
X205049444Y-97594835D01*
X205102127Y-97600500D01*
X206897872Y-97600499D01*
X206957483Y-97594091D01*
X207092331Y-97543796D01*
X207207546Y-97457546D01*
X207293796Y-97342331D01*
X207344091Y-97207483D01*
X207350500Y-97147873D01*
X207350500Y-97024500D01*
X207370185Y-96957461D01*
X207422989Y-96911706D01*
X207474500Y-96900500D01*
X208303856Y-96900500D01*
X208370895Y-96920185D01*
X208416650Y-96972989D01*
X208427856Y-97024500D01*
X208427856Y-97132636D01*
X208434263Y-97192243D01*
X208484557Y-97327088D01*
X208484561Y-97327095D01*
X208570807Y-97442304D01*
X208570810Y-97442307D01*
X208686019Y-97528553D01*
X208686026Y-97528557D01*
X208820872Y-97578851D01*
X208820871Y-97578851D01*
X208827799Y-97579595D01*
X208880482Y-97585260D01*
X210676227Y-97585259D01*
X210735838Y-97578851D01*
X210870686Y-97528556D01*
X210985901Y-97442306D01*
X211072151Y-97327091D01*
X211122446Y-97192243D01*
X211128855Y-97132633D01*
X211128854Y-95336888D01*
X211122446Y-95277277D01*
X211113688Y-95253796D01*
X211072152Y-95142431D01*
X211072148Y-95142424D01*
X210985902Y-95027215D01*
X210985899Y-95027212D01*
X210870690Y-94940966D01*
X210870683Y-94940962D01*
X210735837Y-94890668D01*
X210735838Y-94890668D01*
X210676238Y-94884261D01*
X210676236Y-94884260D01*
X210676228Y-94884260D01*
X210676219Y-94884260D01*
X208880484Y-94884260D01*
X208880478Y-94884261D01*
X208820871Y-94890668D01*
X208686026Y-94940962D01*
X208686019Y-94940966D01*
X208570810Y-95027212D01*
X208570807Y-95027215D01*
X208484561Y-95142424D01*
X208484557Y-95142431D01*
X208434263Y-95277277D01*
X208428477Y-95331099D01*
X208427856Y-95336883D01*
X208427855Y-95336895D01*
X208427855Y-95475500D01*
X208408170Y-95542539D01*
X208355366Y-95588294D01*
X208303855Y-95599500D01*
X207474499Y-95599500D01*
X207407460Y-95579815D01*
X207361705Y-95527011D01*
X207350499Y-95475500D01*
X207350499Y-95352129D01*
X207350498Y-95352123D01*
X207349714Y-95344833D01*
X207344091Y-95292517D01*
X207338406Y-95277276D01*
X207293797Y-95157671D01*
X207293793Y-95157664D01*
X207207547Y-95042455D01*
X207207544Y-95042452D01*
X207092335Y-94956206D01*
X207092328Y-94956202D01*
X206960917Y-94907189D01*
X206904983Y-94865318D01*
X206880566Y-94799853D01*
X206895418Y-94731580D01*
X206916563Y-94703332D01*
X207030104Y-94589792D01*
X207155051Y-94417816D01*
X207251557Y-94228412D01*
X207317246Y-94026243D01*
X207350500Y-93816287D01*
X207350500Y-93603713D01*
X207317246Y-93393757D01*
X207251557Y-93191588D01*
X207155051Y-93002184D01*
X207155049Y-93002181D01*
X207155048Y-93002179D01*
X207030109Y-92830213D01*
X206879786Y-92679890D01*
X206703875Y-92552085D01*
X206704851Y-92550740D01*
X206662834Y-92504295D01*
X206650500Y-92450382D01*
X206650500Y-91128064D01*
X206670185Y-91061025D01*
X206722989Y-91015270D01*
X206765652Y-91004380D01*
X206821940Y-91000355D01*
X206959992Y-90959819D01*
X207081032Y-90882031D01*
X207175254Y-90773294D01*
X207220407Y-90674422D01*
X207235023Y-90642419D01*
X207235024Y-90642414D01*
X207255500Y-90500000D01*
X207255500Y-89350000D01*
X207255499Y-89349997D01*
X207255499Y-89349978D01*
X207249076Y-89269668D01*
X207249075Y-89269665D01*
X207249075Y-89269662D01*
X207240212Y-89241254D01*
X207235848Y-89186682D01*
X207239669Y-89160107D01*
X207255500Y-89050000D01*
X207255500Y-88050000D01*
X207250355Y-87978060D01*
X207209819Y-87840008D01*
X207132031Y-87718968D01*
X207023294Y-87624746D01*
X207023290Y-87624744D01*
X206892419Y-87564976D01*
X206892414Y-87564975D01*
X206750000Y-87544500D01*
X205965808Y-87544500D01*
X205898769Y-87524815D01*
X205878127Y-87508181D01*
X205058952Y-86689006D01*
X205025467Y-86627683D01*
X205030451Y-86557991D01*
X205058952Y-86513644D01*
X206690694Y-84881902D01*
X216499500Y-84881902D01*
X216499500Y-85118097D01*
X216536446Y-85351368D01*
X216609433Y-85575996D01*
X216709573Y-85772530D01*
X216716657Y-85786433D01*
X216855483Y-85977510D01*
X217022490Y-86144517D01*
X217165797Y-86248636D01*
X217213568Y-86283344D01*
X217288177Y-86321358D01*
X217331794Y-86343582D01*
X217382590Y-86391556D01*
X217399500Y-86454067D01*
X217399500Y-92485500D01*
X217379815Y-92552539D01*
X217327011Y-92598294D01*
X217275501Y-92609500D01*
X217102130Y-92609500D01*
X217102123Y-92609501D01*
X217042516Y-92615908D01*
X216907671Y-92666202D01*
X216907664Y-92666206D01*
X216792455Y-92752452D01*
X216792452Y-92752455D01*
X216706206Y-92867664D01*
X216706202Y-92867671D01*
X216655908Y-93002517D01*
X216649501Y-93062116D01*
X216649501Y-93062123D01*
X216649500Y-93062135D01*
X216649500Y-94857870D01*
X216649501Y-94857876D01*
X216655908Y-94917483D01*
X216706202Y-95052328D01*
X216706206Y-95052335D01*
X216792452Y-95167544D01*
X216792455Y-95167547D01*
X216907664Y-95253793D01*
X216907671Y-95253797D01*
X217042517Y-95304091D01*
X217042516Y-95304091D01*
X217049444Y-95304835D01*
X217102127Y-95310500D01*
X218897872Y-95310499D01*
X218957483Y-95304091D01*
X219092331Y-95253796D01*
X219207546Y-95167546D01*
X219293796Y-95052331D01*
X219344091Y-94917483D01*
X219350500Y-94857873D01*
X219350499Y-93062128D01*
X219344091Y-93002517D01*
X219341185Y-92994726D01*
X219293797Y-92867671D01*
X219293793Y-92867664D01*
X219207547Y-92752455D01*
X219207544Y-92752452D01*
X219092335Y-92666206D01*
X219092328Y-92666202D01*
X218957482Y-92615908D01*
X218957483Y-92615908D01*
X218897883Y-92609501D01*
X218897881Y-92609500D01*
X218897873Y-92609500D01*
X218897865Y-92609500D01*
X218724500Y-92609500D01*
X218657461Y-92589815D01*
X218611706Y-92537011D01*
X218600500Y-92485500D01*
X218600500Y-86454067D01*
X218620185Y-86387028D01*
X218668205Y-86343582D01*
X218786433Y-86283343D01*
X218977510Y-86144517D01*
X219144517Y-85977510D01*
X219283343Y-85786433D01*
X219390568Y-85575992D01*
X219463553Y-85351368D01*
X219489152Y-85189744D01*
X219500500Y-85118097D01*
X219500500Y-84881902D01*
X219463553Y-84648631D01*
X219390566Y-84424003D01*
X219283342Y-84213566D01*
X219144517Y-84022490D01*
X218977510Y-83855483D01*
X218786433Y-83716657D01*
X218575996Y-83609433D01*
X218351368Y-83536446D01*
X218118097Y-83499500D01*
X218118092Y-83499500D01*
X217881908Y-83499500D01*
X217881903Y-83499500D01*
X217648631Y-83536446D01*
X217424003Y-83609433D01*
X217213566Y-83716657D01*
X217104550Y-83795862D01*
X217022490Y-83855483D01*
X217022488Y-83855485D01*
X217022487Y-83855485D01*
X216855485Y-84022487D01*
X216855485Y-84022488D01*
X216855483Y-84022490D01*
X216813288Y-84080566D01*
X216716657Y-84213566D01*
X216609433Y-84424003D01*
X216536446Y-84648631D01*
X216499500Y-84881902D01*
X206690694Y-84881902D01*
X208735778Y-82836818D01*
X208797101Y-82803333D01*
X208823459Y-82800499D01*
X209752653Y-82800499D01*
X209752659Y-82800499D01*
X209855448Y-82789999D01*
X210021985Y-82734814D01*
X210171307Y-82642712D01*
X210295363Y-82518656D01*
X210387465Y-82369334D01*
X210442650Y-82202797D01*
X210453151Y-82100009D01*
X210453150Y-80899992D01*
X210442650Y-80797203D01*
X210387465Y-80630666D01*
X210295363Y-80481344D01*
X210171307Y-80357288D01*
X210021985Y-80265186D01*
X209888146Y-80220836D01*
X209830702Y-80181063D01*
X209803879Y-80116547D01*
X209803151Y-80103130D01*
X209803151Y-75648419D01*
X209822836Y-75581380D01*
X209875640Y-75535625D01*
X209944798Y-75525681D01*
X210008354Y-75554706D01*
X210045082Y-75610100D01*
X210109781Y-75809223D01*
X210154837Y-75897648D01*
X210198320Y-75982989D01*
X210202715Y-75991613D01*
X210323028Y-76157213D01*
X210467786Y-76301971D01*
X210622749Y-76414556D01*
X210633390Y-76422287D01*
X210749607Y-76481503D01*
X210815776Y-76515218D01*
X210815778Y-76515218D01*
X210815781Y-76515220D01*
X210906856Y-76544812D01*
X211010465Y-76578477D01*
X211111557Y-76594488D01*
X211212648Y-76610500D01*
X211212649Y-76610500D01*
X211417351Y-76610500D01*
X211417352Y-76610500D01*
X211619534Y-76578477D01*
X211814219Y-76515220D01*
X211996610Y-76422287D01*
X212125482Y-76328657D01*
X212162213Y-76301971D01*
X212162215Y-76301968D01*
X212162219Y-76301966D01*
X212306966Y-76157219D01*
X212306968Y-76157215D01*
X212306971Y-76157213D01*
X212427284Y-75991614D01*
X212427285Y-75991613D01*
X212427287Y-75991610D01*
X212434117Y-75978204D01*
X212482091Y-75927409D01*
X212544602Y-75910500D01*
X216675862Y-75910500D01*
X216742901Y-75930185D01*
X216788656Y-75982989D01*
X216793791Y-75996174D01*
X216794781Y-75999222D01*
X216794782Y-75999223D01*
X216886554Y-76179336D01*
X216887715Y-76181613D01*
X217008028Y-76347213D01*
X217008034Y-76347219D01*
X217152781Y-76491966D01*
X217318390Y-76612287D01*
X217331793Y-76619116D01*
X217382589Y-76667088D01*
X217399500Y-76729601D01*
X217399500Y-78375500D01*
X217379815Y-78442539D01*
X217327011Y-78488294D01*
X217275502Y-78499500D01*
X217199999Y-78499500D01*
X217199980Y-78499501D01*
X217097203Y-78510000D01*
X217097200Y-78510001D01*
X216930668Y-78565185D01*
X216930663Y-78565187D01*
X216781342Y-78657289D01*
X216657289Y-78781342D01*
X216565187Y-78930663D01*
X216565186Y-78930666D01*
X216510001Y-79097203D01*
X216510001Y-79097204D01*
X216510000Y-79097204D01*
X216499500Y-79199983D01*
X216499500Y-80800001D01*
X216499501Y-80800018D01*
X216510000Y-80902796D01*
X216510001Y-80902799D01*
X216565185Y-81069331D01*
X216565187Y-81069336D01*
X216594593Y-81117011D01*
X216657288Y-81218656D01*
X216781344Y-81342712D01*
X216930666Y-81434814D01*
X217097203Y-81489999D01*
X217199991Y-81500500D01*
X218800008Y-81500499D01*
X218902797Y-81489999D01*
X219069334Y-81434814D01*
X219218656Y-81342712D01*
X219342712Y-81218656D01*
X219434814Y-81069334D01*
X219489999Y-80902797D01*
X219500500Y-80800009D01*
X219500499Y-79199992D01*
X219489999Y-79097203D01*
X219434814Y-78930666D01*
X219342712Y-78781344D01*
X219218656Y-78657288D01*
X219069334Y-78565186D01*
X218902797Y-78510001D01*
X218902795Y-78510000D01*
X218800016Y-78499500D01*
X218800009Y-78499500D01*
X218724500Y-78499500D01*
X218657461Y-78479815D01*
X218611706Y-78427011D01*
X218600500Y-78375500D01*
X218600500Y-76729601D01*
X218620185Y-76662562D01*
X218668206Y-76619116D01*
X218681610Y-76612287D01*
X218847219Y-76491966D01*
X218991966Y-76347219D01*
X218991968Y-76347215D01*
X218991971Y-76347213D01*
X219044732Y-76274590D01*
X219112287Y-76181610D01*
X219205220Y-75999219D01*
X219268477Y-75804534D01*
X219300500Y-75602352D01*
X219300500Y-75397648D01*
X219276914Y-75248735D01*
X219268477Y-75195465D01*
X219214780Y-75030205D01*
X219205220Y-75000781D01*
X219205218Y-75000778D01*
X219205218Y-75000776D01*
X219164538Y-74920939D01*
X219112287Y-74818390D01*
X219099677Y-74801034D01*
X218991971Y-74652786D01*
X218847213Y-74508028D01*
X218681613Y-74387715D01*
X218681612Y-74387714D01*
X218681610Y-74387713D01*
X218624653Y-74358691D01*
X218499223Y-74294781D01*
X218304534Y-74231522D01*
X218129995Y-74203878D01*
X218102352Y-74199500D01*
X217897648Y-74199500D01*
X217873329Y-74203351D01*
X217695465Y-74231522D01*
X217500776Y-74294781D01*
X217318386Y-74387715D01*
X217152786Y-74508028D01*
X217008035Y-74652779D01*
X217008028Y-74652787D01*
X217003961Y-74658386D01*
X216948631Y-74701052D01*
X216903644Y-74709500D01*
X212544602Y-74709500D01*
X212477563Y-74689815D01*
X212434117Y-74641795D01*
X212427287Y-74628390D01*
X212427285Y-74628387D01*
X212427284Y-74628385D01*
X212306971Y-74462786D01*
X212162213Y-74318028D01*
X211996614Y-74197715D01*
X211990006Y-74194348D01*
X211903917Y-74150483D01*
X211853123Y-74102511D01*
X211836328Y-74034690D01*
X211858865Y-73968555D01*
X211903917Y-73929516D01*
X211996610Y-73882287D01*
X212033817Y-73855255D01*
X212162213Y-73761971D01*
X212162215Y-73761968D01*
X212162219Y-73761966D01*
X212306966Y-73617219D01*
X212306968Y-73617215D01*
X212306971Y-73617213D01*
X212400699Y-73488205D01*
X212427287Y-73451610D01*
X212520220Y-73269219D01*
X212583477Y-73074534D01*
X212615500Y-72872352D01*
X212615500Y-72667648D01*
X212589590Y-72504061D01*
X212583477Y-72465465D01*
X212520218Y-72270776D01*
X212480699Y-72193216D01*
X212427287Y-72088390D01*
X212403961Y-72056284D01*
X212306971Y-71922786D01*
X212162213Y-71778028D01*
X211996614Y-71657715D01*
X211960865Y-71639500D01*
X211903917Y-71610483D01*
X211853123Y-71562511D01*
X211836328Y-71494690D01*
X211858865Y-71428555D01*
X211903917Y-71389516D01*
X211996610Y-71342287D01*
X212017770Y-71326913D01*
X212162213Y-71221971D01*
X212162215Y-71221968D01*
X212162219Y-71221966D01*
X212306966Y-71077219D01*
X212306968Y-71077215D01*
X212306971Y-71077213D01*
X212427284Y-70911614D01*
X212427285Y-70911613D01*
X212427287Y-70911610D01*
X212434117Y-70898204D01*
X212482091Y-70847409D01*
X212544602Y-70830500D01*
X212939953Y-70830500D01*
X213006992Y-70850185D01*
X213027634Y-70866819D01*
X213152786Y-70991971D01*
X213307749Y-71104556D01*
X213318390Y-71112287D01*
X213434607Y-71171503D01*
X213500776Y-71205218D01*
X213500778Y-71205218D01*
X213500781Y-71205220D01*
X213605137Y-71239127D01*
X213695465Y-71268477D01*
X213796557Y-71284488D01*
X213897648Y-71300500D01*
X213897649Y-71300500D01*
X214102351Y-71300500D01*
X214102352Y-71300500D01*
X214304534Y-71268477D01*
X214499219Y-71205220D01*
X214681610Y-71112287D01*
X214774590Y-71044732D01*
X214847213Y-70991971D01*
X214847215Y-70991968D01*
X214847219Y-70991966D01*
X214991966Y-70847219D01*
X214991968Y-70847215D01*
X214991971Y-70847213D01*
X215077697Y-70729219D01*
X215112287Y-70681610D01*
X215205220Y-70499219D01*
X215268477Y-70304534D01*
X215300500Y-70102352D01*
X215300500Y-69897648D01*
X215276830Y-69748205D01*
X215268477Y-69695465D01*
X215237944Y-69601494D01*
X215205220Y-69500781D01*
X215205218Y-69500778D01*
X215205218Y-69500776D01*
X215145098Y-69382786D01*
X215112287Y-69318390D01*
X215104556Y-69307749D01*
X214991971Y-69152786D01*
X214847213Y-69008028D01*
X214681613Y-68887715D01*
X214681612Y-68887714D01*
X214681610Y-68887713D01*
X214618320Y-68855465D01*
X214499223Y-68794781D01*
X214304534Y-68731522D01*
X214129995Y-68703878D01*
X214102352Y-68699500D01*
X213897648Y-68699500D01*
X213873329Y-68703351D01*
X213695465Y-68731522D01*
X213500776Y-68794781D01*
X213318386Y-68887715D01*
X213152786Y-69008028D01*
X213008028Y-69152786D01*
X212887715Y-69318386D01*
X212794779Y-69500780D01*
X212794778Y-69500783D01*
X212780796Y-69543818D01*
X212766846Y-69564219D01*
X212756578Y-69586703D01*
X212747469Y-69592556D01*
X212741358Y-69601494D01*
X212718591Y-69611115D01*
X212697800Y-69624477D01*
X212681391Y-69626836D01*
X212677000Y-69628692D01*
X212662865Y-69629500D01*
X212544602Y-69629500D01*
X212477563Y-69609815D01*
X212434117Y-69561795D01*
X212427284Y-69548385D01*
X212306971Y-69382786D01*
X212162213Y-69238028D01*
X211996614Y-69117715D01*
X211990006Y-69114348D01*
X211903917Y-69070483D01*
X211853123Y-69022511D01*
X211836328Y-68954690D01*
X211858865Y-68888555D01*
X211903917Y-68849516D01*
X211996610Y-68802287D01*
X212033528Y-68775465D01*
X212162213Y-68681971D01*
X212162215Y-68681968D01*
X212162219Y-68681966D01*
X212306966Y-68537219D01*
X212306968Y-68537215D01*
X212306971Y-68537213D01*
X212407833Y-68398386D01*
X212427287Y-68371610D01*
X212520220Y-68189219D01*
X212583477Y-67994534D01*
X212615500Y-67792352D01*
X212615500Y-67587648D01*
X212583477Y-67385466D01*
X212520220Y-67190781D01*
X212520218Y-67190778D01*
X212520218Y-67190776D01*
X212468865Y-67089991D01*
X212427287Y-67008390D01*
X212411894Y-66987203D01*
X212306971Y-66842786D01*
X212162213Y-66698028D01*
X211996613Y-66577715D01*
X211996612Y-66577714D01*
X211996610Y-66577713D01*
X211932835Y-66545218D01*
X211814223Y-66484781D01*
X211619534Y-66421522D01*
X211444995Y-66393878D01*
X211417352Y-66389500D01*
X211212648Y-66389500D01*
X211174599Y-66395526D01*
X211010468Y-66421522D01*
X211001717Y-66424365D01*
X210996154Y-66426173D01*
X210980941Y-66426607D01*
X210966684Y-66431925D01*
X210946729Y-66427584D01*
X210926313Y-66428167D01*
X210912226Y-66420078D01*
X210898411Y-66417073D01*
X210870157Y-66395922D01*
X210769142Y-66294907D01*
X210735657Y-66233584D01*
X210732823Y-66207226D01*
X210732823Y-62642294D01*
X216549500Y-62642294D01*
X216549500Y-62846997D01*
X216581522Y-63049180D01*
X216644781Y-63243869D01*
X216737715Y-63426259D01*
X216858028Y-63591859D01*
X217002786Y-63736617D01*
X217168385Y-63856930D01*
X217168387Y-63856931D01*
X217168390Y-63856933D01*
X217331795Y-63940192D01*
X217342859Y-63950641D01*
X217356703Y-63956964D01*
X217367744Y-63974144D01*
X217382591Y-63988167D01*
X217386832Y-64003846D01*
X217394477Y-64015742D01*
X217399500Y-64050677D01*
X217399500Y-64110397D01*
X217379815Y-64177436D01*
X217331800Y-64220879D01*
X217318389Y-64227712D01*
X217152786Y-64348028D01*
X217008028Y-64492786D01*
X216887715Y-64658386D01*
X216794781Y-64840776D01*
X216731522Y-65035465D01*
X216699500Y-65237648D01*
X216699500Y-65442351D01*
X216731522Y-65644534D01*
X216794781Y-65839223D01*
X216847328Y-65942351D01*
X216878710Y-66003941D01*
X216887715Y-66021613D01*
X217008028Y-66187213D01*
X217152786Y-66331971D01*
X217290364Y-66431925D01*
X217318390Y-66452287D01*
X217434607Y-66511503D01*
X217500776Y-66545218D01*
X217500778Y-66545218D01*
X217500781Y-66545220D01*
X217600784Y-66577713D01*
X217695465Y-66608477D01*
X217776969Y-66621386D01*
X217897648Y-66640500D01*
X217897649Y-66640500D01*
X218102351Y-66640500D01*
X218102352Y-66640500D01*
X218304534Y-66608477D01*
X218499219Y-66545220D01*
X218681610Y-66452287D01*
X218837231Y-66339223D01*
X218847213Y-66331971D01*
X218847215Y-66331968D01*
X218847219Y-66331966D01*
X218991966Y-66187219D01*
X218991968Y-66187215D01*
X218991971Y-66187213D01*
X219044732Y-66114590D01*
X219112287Y-66021610D01*
X219205220Y-65839219D01*
X219268477Y-65644534D01*
X219300500Y-65442352D01*
X219300500Y-65237648D01*
X219268477Y-65035466D01*
X219254609Y-64992786D01*
X219239127Y-64945137D01*
X219205220Y-64840781D01*
X219205218Y-64840778D01*
X219205218Y-64840776D01*
X219155014Y-64742246D01*
X219112287Y-64658390D01*
X219100327Y-64641928D01*
X218991971Y-64492786D01*
X218847213Y-64348028D01*
X218681610Y-64227712D01*
X218668200Y-64220879D01*
X218657138Y-64210431D01*
X218643297Y-64204110D01*
X218632255Y-64186928D01*
X218617406Y-64172903D01*
X218613165Y-64157223D01*
X218605523Y-64145332D01*
X218600500Y-64110397D01*
X218600500Y-63870062D01*
X218620185Y-63803023D01*
X218651613Y-63769745D01*
X218697219Y-63736612D01*
X218841966Y-63591865D01*
X218841968Y-63591861D01*
X218841971Y-63591859D01*
X218927211Y-63474534D01*
X218962287Y-63426256D01*
X219055220Y-63243865D01*
X219118477Y-63049180D01*
X219150500Y-62846998D01*
X219150500Y-62642294D01*
X219118477Y-62440112D01*
X219103103Y-62392797D01*
X219069708Y-62290016D01*
X219055220Y-62245427D01*
X219055218Y-62245424D01*
X219055218Y-62245422D01*
X218993604Y-62124499D01*
X218962287Y-62063036D01*
X218931153Y-62020183D01*
X218841971Y-61897432D01*
X218697213Y-61752674D01*
X218531613Y-61632361D01*
X218531612Y-61632360D01*
X218531610Y-61632359D01*
X218474653Y-61603337D01*
X218349223Y-61539427D01*
X218154534Y-61476168D01*
X217979995Y-61448524D01*
X217952352Y-61444146D01*
X217747648Y-61444146D01*
X217723329Y-61447997D01*
X217545465Y-61476168D01*
X217350776Y-61539427D01*
X217168386Y-61632361D01*
X217002786Y-61752674D01*
X216858028Y-61897432D01*
X216737715Y-62063032D01*
X216644781Y-62245422D01*
X216581522Y-62440111D01*
X216549500Y-62642294D01*
X210732823Y-62642294D01*
X210732823Y-61954067D01*
X210752508Y-61887028D01*
X210800528Y-61843582D01*
X210918756Y-61783343D01*
X211109833Y-61644517D01*
X211276840Y-61477510D01*
X211415666Y-61286433D01*
X211522891Y-61075992D01*
X211595876Y-60851368D01*
X211624389Y-60671344D01*
X211632823Y-60618097D01*
X211632823Y-60381902D01*
X211595876Y-60148631D01*
X211558072Y-60032284D01*
X211522891Y-59924008D01*
X211522889Y-59924005D01*
X211522889Y-59924003D01*
X211415665Y-59713566D01*
X211276840Y-59522490D01*
X211109833Y-59355483D01*
X210918756Y-59216657D01*
X210708319Y-59109433D01*
X210483691Y-59036446D01*
X210250420Y-58999500D01*
X210250415Y-58999500D01*
X210014231Y-58999500D01*
X210014226Y-58999500D01*
X209780954Y-59036446D01*
X209556326Y-59109433D01*
X209345889Y-59216657D01*
X209256859Y-59281342D01*
X209154813Y-59355483D01*
X209154811Y-59355485D01*
X209154810Y-59355485D01*
X208987808Y-59522487D01*
X208987808Y-59522488D01*
X208987806Y-59522490D01*
X208976967Y-59537409D01*
X208848980Y-59713566D01*
X208741756Y-59924003D01*
X208668769Y-60148631D01*
X208631823Y-60381902D01*
X208631823Y-60618097D01*
X208668769Y-60851368D01*
X208741756Y-61075996D01*
X208848980Y-61286433D01*
X208987806Y-61477510D01*
X209154813Y-61644517D01*
X209256858Y-61718657D01*
X209345891Y-61783344D01*
X209420500Y-61821358D01*
X209464117Y-61843582D01*
X209514913Y-61891556D01*
X209531823Y-61954067D01*
X209531823Y-66420653D01*
X209531822Y-66420671D01*
X209531822Y-66428266D01*
X209531822Y-66586380D01*
X209572746Y-66739108D01*
X209573533Y-66740471D01*
X209573542Y-66740504D01*
X209573550Y-66740500D01*
X209651800Y-66876035D01*
X209651804Y-66876040D01*
X209770672Y-66994908D01*
X209770678Y-66994913D01*
X210020922Y-67245157D01*
X210054407Y-67306480D01*
X210051173Y-67371155D01*
X210046522Y-67385468D01*
X210014500Y-67587648D01*
X210014500Y-67792351D01*
X210046522Y-67994534D01*
X210076901Y-68088028D01*
X210109780Y-68189219D01*
X210164862Y-68297324D01*
X210202715Y-68371613D01*
X210323028Y-68537213D01*
X210467786Y-68681971D01*
X210622749Y-68794556D01*
X210633390Y-68802287D01*
X210724840Y-68848883D01*
X210726080Y-68849515D01*
X210776876Y-68897490D01*
X210793671Y-68965311D01*
X210771134Y-69031446D01*
X210726080Y-69070485D01*
X210633386Y-69117715D01*
X210467786Y-69238028D01*
X210323028Y-69382786D01*
X210202715Y-69548386D01*
X210109781Y-69730776D01*
X210046522Y-69925465D01*
X210014500Y-70127648D01*
X210014500Y-70332351D01*
X210046522Y-70534534D01*
X210109781Y-70729223D01*
X210202715Y-70911613D01*
X210323028Y-71077213D01*
X210467786Y-71221971D01*
X210622749Y-71334556D01*
X210633390Y-71342287D01*
X210724840Y-71388883D01*
X210726080Y-71389515D01*
X210776876Y-71437490D01*
X210793671Y-71505311D01*
X210771134Y-71571446D01*
X210726080Y-71610485D01*
X210633386Y-71657715D01*
X210467786Y-71778028D01*
X210323028Y-71922786D01*
X210202715Y-72088386D01*
X210109781Y-72270776D01*
X210046522Y-72465465D01*
X210014500Y-72667648D01*
X210014500Y-72872351D01*
X210042654Y-73050111D01*
X210033699Y-73119405D01*
X210007862Y-73157190D01*
X208647376Y-74517677D01*
X208647375Y-74517678D01*
X208587558Y-74607203D01*
X208587557Y-74607205D01*
X208576184Y-74624224D01*
X208527150Y-74742604D01*
X208527148Y-74742610D01*
X208502151Y-74868277D01*
X208502151Y-80103130D01*
X208482466Y-80170169D01*
X208429662Y-80215924D01*
X208417156Y-80220836D01*
X208283317Y-80265186D01*
X208283314Y-80265187D01*
X208133993Y-80357289D01*
X208009940Y-80481342D01*
X207917838Y-80630663D01*
X207917836Y-80630668D01*
X207890158Y-80714197D01*
X207862652Y-80797203D01*
X207862652Y-80797204D01*
X207862651Y-80797204D01*
X207852151Y-80899983D01*
X207852151Y-81829191D01*
X207832466Y-81896230D01*
X207815832Y-81916872D01*
X204070524Y-85662181D01*
X204009201Y-85695666D01*
X203982843Y-85698500D01*
X189046929Y-85698500D01*
X188921261Y-85723497D01*
X188921251Y-85723500D01*
X188872220Y-85743810D01*
X188802881Y-85772530D01*
X188802863Y-85772540D01*
X188696332Y-85843721D01*
X188696325Y-85843727D01*
X188008348Y-86531704D01*
X187947025Y-86565189D01*
X187882350Y-86561954D01*
X187800247Y-86535278D01*
X187800248Y-86535278D01*
X187630826Y-86508444D01*
X187574354Y-86499500D01*
X187345646Y-86499500D01*
X187270349Y-86511426D01*
X187119753Y-86535278D01*
X187119750Y-86535278D01*
X186902244Y-86605950D01*
X186698461Y-86709783D01*
X186592896Y-86786480D01*
X186513434Y-86844214D01*
X186513432Y-86844216D01*
X186513431Y-86844216D01*
X186351716Y-87005931D01*
X186351716Y-87005932D01*
X186351714Y-87005934D01*
X186324497Y-87043395D01*
X186217283Y-87190961D01*
X186171001Y-87281795D01*
X186123026Y-87332591D01*
X186060516Y-87349500D01*
X184198071Y-87349500D01*
X184131032Y-87329815D01*
X184097754Y-87298386D01*
X183991966Y-87152781D01*
X183847219Y-87008034D01*
X183847213Y-87008028D01*
X183681613Y-86887715D01*
X183681612Y-86887714D01*
X183681610Y-86887713D01*
X183624653Y-86858691D01*
X183499223Y-86794781D01*
X183304534Y-86731522D01*
X183129995Y-86703878D01*
X183102352Y-86699500D01*
X182897648Y-86699500D01*
X182873329Y-86703351D01*
X182695465Y-86731522D01*
X182500776Y-86794781D01*
X182318386Y-86887715D01*
X182152786Y-87008028D01*
X182008034Y-87152780D01*
X181980294Y-87190962D01*
X181902246Y-87298386D01*
X181846918Y-87341051D01*
X181801929Y-87349500D01*
X175820808Y-87349500D01*
X175753769Y-87329815D01*
X175733127Y-87313181D01*
X173186819Y-84766873D01*
X173153334Y-84705550D01*
X173150500Y-84679192D01*
X173150500Y-81889983D01*
X173684500Y-81889983D01*
X173684500Y-83490001D01*
X173684501Y-83490018D01*
X173695000Y-83592796D01*
X173695001Y-83592799D01*
X173719759Y-83667512D01*
X173750186Y-83759334D01*
X173842288Y-83908656D01*
X173966344Y-84032712D01*
X174115666Y-84124814D01*
X174282203Y-84179999D01*
X174384991Y-84190500D01*
X175985008Y-84190499D01*
X176087797Y-84179999D01*
X176254334Y-84124814D01*
X176403656Y-84032712D01*
X176527712Y-83908656D01*
X176619814Y-83759334D01*
X176674999Y-83592797D01*
X176685500Y-83490009D01*
X176685499Y-81889992D01*
X176674999Y-81787203D01*
X176619814Y-81620666D01*
X176527712Y-81471344D01*
X176403656Y-81347288D01*
X176254334Y-81255186D01*
X176087797Y-81200001D01*
X176087795Y-81200000D01*
X175985016Y-81189500D01*
X175985009Y-81189500D01*
X175909500Y-81189500D01*
X175842461Y-81169815D01*
X175796706Y-81117011D01*
X175785500Y-81065500D01*
X175785500Y-76734499D01*
X175805185Y-76667460D01*
X175857989Y-76621705D01*
X175909500Y-76610499D01*
X176905002Y-76610499D01*
X176905008Y-76610499D01*
X177007797Y-76599999D01*
X177174334Y-76544814D01*
X177323656Y-76452712D01*
X177447712Y-76328656D01*
X177539814Y-76179334D01*
X177594999Y-76012797D01*
X177605500Y-75910009D01*
X177605499Y-74709992D01*
X177604468Y-74699903D01*
X177594999Y-74607203D01*
X177594998Y-74607200D01*
X177565333Y-74517677D01*
X177539814Y-74440666D01*
X177447712Y-74291344D01*
X177323656Y-74167288D01*
X177174334Y-74075186D01*
X177007797Y-74020001D01*
X177007795Y-74020000D01*
X176905010Y-74009500D01*
X175704998Y-74009500D01*
X175704981Y-74009501D01*
X175602203Y-74020000D01*
X175602200Y-74020001D01*
X175435668Y-74075185D01*
X175435663Y-74075187D01*
X175286342Y-74167289D01*
X175162289Y-74291342D01*
X175070187Y-74440663D01*
X175070185Y-74440668D01*
X175015001Y-74607203D01*
X175004500Y-74709983D01*
X175004500Y-75709902D01*
X174984815Y-75776941D01*
X174968181Y-75797583D01*
X174704481Y-76061282D01*
X174704479Y-76061285D01*
X174654361Y-76148094D01*
X174654359Y-76148096D01*
X174625425Y-76198209D01*
X174625424Y-76198210D01*
X174625423Y-76198215D01*
X174584499Y-76350943D01*
X174584499Y-76350945D01*
X174584499Y-76519046D01*
X174584500Y-76519059D01*
X174584500Y-81065500D01*
X174564815Y-81132539D01*
X174512011Y-81178294D01*
X174460502Y-81189500D01*
X174384999Y-81189500D01*
X174384980Y-81189501D01*
X174282203Y-81200000D01*
X174282200Y-81200001D01*
X174115668Y-81255185D01*
X174115663Y-81255187D01*
X173966342Y-81347289D01*
X173842289Y-81471342D01*
X173750187Y-81620663D01*
X173750186Y-81620666D01*
X173695001Y-81787203D01*
X173695001Y-81787204D01*
X173695000Y-81787204D01*
X173684500Y-81889983D01*
X173150500Y-81889983D01*
X173150500Y-73980928D01*
X173125502Y-73855261D01*
X173125501Y-73855260D01*
X173125501Y-73855256D01*
X173076465Y-73736873D01*
X173048798Y-73695466D01*
X173048798Y-73695465D01*
X173005275Y-73630328D01*
X173005272Y-73630325D01*
X169992137Y-70617191D01*
X169958652Y-70555868D01*
X169957345Y-70510112D01*
X169970275Y-70428477D01*
X169985500Y-70332352D01*
X169985500Y-70127648D01*
X175004500Y-70127648D01*
X175004500Y-70332351D01*
X175036522Y-70534534D01*
X175099781Y-70729223D01*
X175192715Y-70911613D01*
X175313028Y-71077213D01*
X175457786Y-71221971D01*
X175612749Y-71334556D01*
X175623390Y-71342287D01*
X175716080Y-71389515D01*
X175805776Y-71435218D01*
X175805778Y-71435218D01*
X175805781Y-71435220D01*
X175910137Y-71469127D01*
X176000465Y-71498477D01*
X176019697Y-71501523D01*
X176202648Y-71530500D01*
X176202649Y-71530500D01*
X176407351Y-71530500D01*
X176407352Y-71530500D01*
X176609534Y-71498477D01*
X176623842Y-71493827D01*
X176693682Y-71491831D01*
X176749842Y-71524077D01*
X177863181Y-72637416D01*
X177896666Y-72698739D01*
X177899500Y-72725097D01*
X177899500Y-74913330D01*
X177899499Y-74913348D01*
X177899499Y-75079054D01*
X177899498Y-75079054D01*
X177940423Y-75231785D01*
X177969358Y-75281900D01*
X177969359Y-75281904D01*
X177969360Y-75281904D01*
X178019479Y-75368714D01*
X178019481Y-75368717D01*
X178138349Y-75487585D01*
X178138355Y-75487590D01*
X183272453Y-80621688D01*
X183305938Y-80683011D01*
X183307245Y-80728766D01*
X183279500Y-80903944D01*
X183279500Y-81096054D01*
X183309553Y-81285802D01*
X183368916Y-81468506D01*
X183385218Y-81500500D01*
X183456135Y-81639681D01*
X183569055Y-81795102D01*
X183704898Y-81930945D01*
X183860319Y-82043865D01*
X183970521Y-82100016D01*
X184031493Y-82131083D01*
X184122845Y-82160764D01*
X184214199Y-82190447D01*
X184403945Y-82220500D01*
X184403946Y-82220500D01*
X184596054Y-82220500D01*
X184596055Y-82220500D01*
X184785801Y-82190447D01*
X184968509Y-82131082D01*
X185139681Y-82043865D01*
X185295102Y-81930945D01*
X185430945Y-81795102D01*
X185543865Y-81639681D01*
X185631082Y-81468509D01*
X185690447Y-81285801D01*
X185720500Y-81096055D01*
X185720500Y-80903945D01*
X185690447Y-80714199D01*
X185631082Y-80531491D01*
X185543865Y-80360319D01*
X185430945Y-80204898D01*
X185295102Y-80069055D01*
X185139681Y-79956135D01*
X184968504Y-79868915D01*
X184903919Y-79847931D01*
X184846243Y-79808494D01*
X184819044Y-79744136D01*
X184830958Y-79675289D01*
X184878202Y-79623813D01*
X184903919Y-79612069D01*
X184968504Y-79591084D01*
X184968506Y-79591082D01*
X184968509Y-79591082D01*
X185139681Y-79503865D01*
X185295102Y-79390945D01*
X185430945Y-79255102D01*
X185543865Y-79099681D01*
X185631082Y-78928509D01*
X185690447Y-78745801D01*
X185720500Y-78556055D01*
X185720500Y-78363945D01*
X194279500Y-78363945D01*
X194279500Y-78556055D01*
X194290222Y-78623752D01*
X194309553Y-78745802D01*
X194368916Y-78928506D01*
X194370017Y-78930666D01*
X194456135Y-79099681D01*
X194569055Y-79255102D01*
X194704898Y-79390945D01*
X194860319Y-79503865D01*
X195031491Y-79591082D01*
X195031493Y-79591083D01*
X195096081Y-79612069D01*
X195153756Y-79651506D01*
X195180955Y-79715865D01*
X195169041Y-79784711D01*
X195121797Y-79836187D01*
X195096081Y-79847931D01*
X195031493Y-79868916D01*
X194860318Y-79956135D01*
X194771645Y-80020560D01*
X194704898Y-80069055D01*
X194704896Y-80069057D01*
X194704895Y-80069057D01*
X194569057Y-80204895D01*
X194569057Y-80204896D01*
X194569055Y-80204898D01*
X194520560Y-80271645D01*
X194456135Y-80360318D01*
X194368916Y-80531493D01*
X194309553Y-80714197D01*
X194279500Y-80903945D01*
X194279500Y-81096054D01*
X194309553Y-81285802D01*
X194368916Y-81468506D01*
X194385218Y-81500500D01*
X194456135Y-81639681D01*
X194569055Y-81795102D01*
X194704898Y-81930945D01*
X194860319Y-82043865D01*
X194970521Y-82100016D01*
X195031493Y-82131083D01*
X195122845Y-82160764D01*
X195214199Y-82190447D01*
X195403945Y-82220500D01*
X195403946Y-82220500D01*
X195596054Y-82220500D01*
X195596055Y-82220500D01*
X195785801Y-82190447D01*
X195968509Y-82131082D01*
X196139681Y-82043865D01*
X196295102Y-81930945D01*
X196430945Y-81795102D01*
X196543865Y-81639681D01*
X196631082Y-81468509D01*
X196690447Y-81285801D01*
X196720500Y-81096055D01*
X196720500Y-80903945D01*
X196692754Y-80728765D01*
X196701709Y-80659473D01*
X196727543Y-80621690D01*
X203277086Y-74072147D01*
X203338407Y-74038664D01*
X203385423Y-74039168D01*
X203385654Y-74037715D01*
X203489101Y-74054099D01*
X203592648Y-74070500D01*
X203592649Y-74070500D01*
X203797351Y-74070500D01*
X203797352Y-74070500D01*
X203999534Y-74038477D01*
X204194219Y-73975220D01*
X204376610Y-73882287D01*
X204507461Y-73787219D01*
X204542213Y-73761971D01*
X204542215Y-73761968D01*
X204542219Y-73761966D01*
X204686966Y-73617219D01*
X204686968Y-73617215D01*
X204686971Y-73617213D01*
X204780699Y-73488205D01*
X204807287Y-73451610D01*
X204900220Y-73269219D01*
X204963477Y-73074534D01*
X204995500Y-72872352D01*
X204995500Y-72667648D01*
X204969590Y-72504061D01*
X204963477Y-72465465D01*
X204900218Y-72270776D01*
X204860699Y-72193216D01*
X204807287Y-72088390D01*
X204783961Y-72056284D01*
X204686971Y-71922786D01*
X204542213Y-71778028D01*
X204376613Y-71657715D01*
X204376612Y-71657714D01*
X204376610Y-71657713D01*
X204302469Y-71619936D01*
X204194223Y-71564781D01*
X203999534Y-71501522D01*
X203802693Y-71470346D01*
X203797352Y-71469500D01*
X203592648Y-71469500D01*
X203587307Y-71470346D01*
X203390465Y-71501522D01*
X203195776Y-71564781D01*
X203013386Y-71657715D01*
X202847786Y-71778028D01*
X202703028Y-71922786D01*
X202582715Y-72088386D01*
X202489781Y-72270776D01*
X202426522Y-72465465D01*
X202394500Y-72667648D01*
X202394500Y-72872351D01*
X202426523Y-73074535D01*
X202439755Y-73115259D01*
X202441750Y-73185100D01*
X202409505Y-73241258D01*
X196919931Y-78730832D01*
X196858608Y-78764317D01*
X196788916Y-78759333D01*
X196732983Y-78717461D01*
X196708566Y-78651997D01*
X196709777Y-78623755D01*
X196720500Y-78556055D01*
X196720500Y-78363945D01*
X196690447Y-78174199D01*
X196631082Y-77991491D01*
X196543865Y-77820319D01*
X196430945Y-77664898D01*
X196295102Y-77529055D01*
X196259690Y-77503327D01*
X196151614Y-77424804D01*
X196108949Y-77369473D01*
X196100500Y-77324486D01*
X196100500Y-75424500D01*
X196120185Y-75357461D01*
X196172989Y-75311706D01*
X196224500Y-75300500D01*
X196352351Y-75300500D01*
X196352352Y-75300500D01*
X196554534Y-75268477D01*
X196749219Y-75205220D01*
X196931610Y-75112287D01*
X197044587Y-75030205D01*
X197097213Y-74991971D01*
X197097215Y-74991968D01*
X197097219Y-74991966D01*
X197241966Y-74847219D01*
X197241968Y-74847215D01*
X197241971Y-74847213D01*
X197317972Y-74742605D01*
X197362287Y-74681610D01*
X197389515Y-74628171D01*
X197437490Y-74577376D01*
X197505311Y-74560581D01*
X197571446Y-74583118D01*
X197610484Y-74628171D01*
X197623026Y-74652786D01*
X197637715Y-74681613D01*
X197758028Y-74847213D01*
X197902786Y-74991971D01*
X198057749Y-75104556D01*
X198068390Y-75112287D01*
X198147864Y-75152781D01*
X198250776Y-75205218D01*
X198250778Y-75205218D01*
X198250781Y-75205220D01*
X198332540Y-75231785D01*
X198445465Y-75268477D01*
X198530214Y-75281900D01*
X198647648Y-75300500D01*
X198647649Y-75300500D01*
X198852351Y-75300500D01*
X198852352Y-75300500D01*
X199054534Y-75268477D01*
X199249219Y-75205220D01*
X199431610Y-75112287D01*
X199544587Y-75030205D01*
X199597213Y-74991971D01*
X199597215Y-74991968D01*
X199597219Y-74991966D01*
X199741966Y-74847219D01*
X199741968Y-74847215D01*
X199741971Y-74847213D01*
X199817972Y-74742605D01*
X199862287Y-74681610D01*
X199955220Y-74499219D01*
X200018477Y-74304534D01*
X200050500Y-74102352D01*
X200050500Y-73897648D01*
X200043786Y-73855255D01*
X200018477Y-73695465D01*
X199955218Y-73500776D01*
X199889515Y-73371828D01*
X199862287Y-73318390D01*
X199854556Y-73307749D01*
X199741971Y-73152786D01*
X199597213Y-73008028D01*
X199431610Y-72887712D01*
X199418200Y-72880879D01*
X199407138Y-72870431D01*
X199393297Y-72864110D01*
X199382255Y-72846928D01*
X199367406Y-72832903D01*
X199363165Y-72817223D01*
X199355523Y-72805332D01*
X199350500Y-72770397D01*
X199350500Y-72729601D01*
X199370185Y-72662562D01*
X199418206Y-72619116D01*
X199431610Y-72612287D01*
X199597219Y-72491966D01*
X199741966Y-72347219D01*
X199741968Y-72347215D01*
X199741971Y-72347213D01*
X199797505Y-72270776D01*
X199862287Y-72181610D01*
X199955220Y-71999219D01*
X200018477Y-71804534D01*
X200050500Y-71602352D01*
X200050500Y-71397648D01*
X200018477Y-71195466D01*
X199955220Y-71000781D01*
X199955218Y-71000778D01*
X199955218Y-71000776D01*
X199909787Y-70911614D01*
X199862287Y-70818390D01*
X199850500Y-70802166D01*
X199741971Y-70652786D01*
X199597213Y-70508028D01*
X199431613Y-70387715D01*
X199431612Y-70387714D01*
X199431610Y-70387713D01*
X199249219Y-70294780D01*
X199247563Y-70294094D01*
X199247030Y-70293664D01*
X199244878Y-70292568D01*
X199245108Y-70292115D01*
X199193159Y-70250254D01*
X199171093Y-70183960D01*
X199188371Y-70116261D01*
X199207326Y-70091858D01*
X199291966Y-70007219D01*
X199412287Y-69841610D01*
X199505220Y-69659219D01*
X199568477Y-69464534D01*
X199600500Y-69262352D01*
X199600500Y-69057648D01*
X199589865Y-68990500D01*
X199568477Y-68855465D01*
X199520776Y-68708657D01*
X199505220Y-68660781D01*
X199505218Y-68660778D01*
X199505218Y-68660776D01*
X199464455Y-68580776D01*
X199412287Y-68478390D01*
X199398792Y-68459815D01*
X199291971Y-68312786D01*
X199147213Y-68168028D01*
X198981613Y-68047715D01*
X198981612Y-68047714D01*
X198981610Y-68047713D01*
X198924653Y-68018691D01*
X198799223Y-67954781D01*
X198604534Y-67891522D01*
X198429995Y-67863878D01*
X198402352Y-67859500D01*
X198197648Y-67859500D01*
X198173329Y-67863351D01*
X197995465Y-67891522D01*
X197800776Y-67954781D01*
X197618386Y-68047715D01*
X197452786Y-68168028D01*
X197308028Y-68312786D01*
X197187715Y-68478386D01*
X197094781Y-68660776D01*
X197031522Y-68855465D01*
X196999500Y-69057648D01*
X196999500Y-69262351D01*
X197031522Y-69464534D01*
X197094781Y-69659223D01*
X197187715Y-69841613D01*
X197308028Y-70007213D01*
X197308034Y-70007219D01*
X197452781Y-70151966D01*
X197618390Y-70272287D01*
X197631793Y-70279116D01*
X197682589Y-70327088D01*
X197699500Y-70389601D01*
X197699500Y-70693056D01*
X197679815Y-70760095D01*
X197675819Y-70765940D01*
X197637713Y-70818389D01*
X197637712Y-70818391D01*
X197544781Y-71000776D01*
X197481522Y-71195465D01*
X197449500Y-71397648D01*
X197449500Y-71602351D01*
X197481522Y-71804534D01*
X197544781Y-71999223D01*
X197637715Y-72181613D01*
X197758028Y-72347213D01*
X197758034Y-72347219D01*
X197902781Y-72491966D01*
X198068390Y-72612287D01*
X198081793Y-72619116D01*
X198092856Y-72629564D01*
X198106703Y-72635888D01*
X198117744Y-72653068D01*
X198132589Y-72667088D01*
X198136830Y-72682768D01*
X198144477Y-72694666D01*
X198149500Y-72729601D01*
X198149500Y-72770397D01*
X198129815Y-72837436D01*
X198081800Y-72880879D01*
X198068389Y-72887712D01*
X197902786Y-73008028D01*
X197758028Y-73152786D01*
X197637713Y-73318388D01*
X197610484Y-73371828D01*
X197562510Y-73422623D01*
X197494688Y-73439418D01*
X197428554Y-73416880D01*
X197389516Y-73371828D01*
X197362286Y-73318388D01*
X197241971Y-73152786D01*
X197097213Y-73008028D01*
X196931613Y-72887715D01*
X196931612Y-72887714D01*
X196931610Y-72887713D01*
X196851565Y-72846928D01*
X196749223Y-72794781D01*
X196554534Y-72731522D01*
X196379995Y-72703878D01*
X196352352Y-72699500D01*
X196147648Y-72699500D01*
X196123329Y-72703351D01*
X195945465Y-72731522D01*
X195750776Y-72794781D01*
X195568386Y-72887715D01*
X195402786Y-73008028D01*
X195258028Y-73152786D01*
X195137715Y-73318386D01*
X195044781Y-73500776D01*
X194981522Y-73695465D01*
X194951933Y-73882284D01*
X194949500Y-73897648D01*
X194949500Y-74102352D01*
X194956289Y-74145218D01*
X194979433Y-74291342D01*
X194981523Y-74304534D01*
X194985909Y-74318034D01*
X194994089Y-74343207D01*
X194996084Y-74413048D01*
X194983545Y-74443525D01*
X194940424Y-74518211D01*
X194940423Y-74518215D01*
X194899499Y-74670943D01*
X194899499Y-74670945D01*
X194899499Y-74839046D01*
X194899500Y-74839059D01*
X194899500Y-77324486D01*
X194879815Y-77391525D01*
X194848386Y-77424804D01*
X194704896Y-77529056D01*
X194569057Y-77664895D01*
X194569057Y-77664896D01*
X194569055Y-77664898D01*
X194520560Y-77731645D01*
X194456135Y-77820318D01*
X194368916Y-77991493D01*
X194309553Y-78174197D01*
X194309553Y-78174199D01*
X194279500Y-78363945D01*
X185720500Y-78363945D01*
X185690447Y-78174199D01*
X185631082Y-77991491D01*
X185543865Y-77820319D01*
X185430945Y-77664898D01*
X185295102Y-77529055D01*
X185259690Y-77503327D01*
X185151614Y-77424804D01*
X185108949Y-77369473D01*
X185100500Y-77324486D01*
X185100500Y-75089060D01*
X185100501Y-75089047D01*
X185100501Y-74920944D01*
X185089375Y-74879423D01*
X185059577Y-74768216D01*
X185059573Y-74768209D01*
X184980524Y-74631290D01*
X184980518Y-74631282D01*
X184794077Y-74444841D01*
X184760592Y-74383518D01*
X184763827Y-74318842D01*
X184768477Y-74304534D01*
X184800500Y-74102352D01*
X184800500Y-73897648D01*
X184793786Y-73855255D01*
X184768477Y-73695465D01*
X184705218Y-73500776D01*
X184639515Y-73371828D01*
X184612287Y-73318390D01*
X184604556Y-73307749D01*
X184491971Y-73152786D01*
X184347213Y-73008028D01*
X184181613Y-72887715D01*
X184181612Y-72887714D01*
X184181610Y-72887713D01*
X184101565Y-72846928D01*
X183999223Y-72794781D01*
X183804534Y-72731522D01*
X183629995Y-72703878D01*
X183602352Y-72699500D01*
X183397648Y-72699500D01*
X183373329Y-72703351D01*
X183195465Y-72731522D01*
X183000776Y-72794781D01*
X182818386Y-72887715D01*
X182652786Y-73008028D01*
X182508028Y-73152786D01*
X182387713Y-73318388D01*
X182360484Y-73371828D01*
X182312510Y-73422623D01*
X182244688Y-73439418D01*
X182178554Y-73416880D01*
X182139516Y-73371828D01*
X182112286Y-73318388D01*
X181991971Y-73152786D01*
X181847213Y-73008028D01*
X181681610Y-72887712D01*
X181668200Y-72880879D01*
X181657138Y-72870431D01*
X181643297Y-72864110D01*
X181632255Y-72846928D01*
X181617406Y-72832903D01*
X181613165Y-72817223D01*
X181605523Y-72805332D01*
X181600500Y-72770397D01*
X181600500Y-72729601D01*
X181620185Y-72662562D01*
X181668206Y-72619116D01*
X181681610Y-72612287D01*
X181847219Y-72491966D01*
X181991966Y-72347219D01*
X181991968Y-72347215D01*
X181991971Y-72347213D01*
X182047505Y-72270776D01*
X182112287Y-72181610D01*
X182205220Y-71999219D01*
X182268477Y-71804534D01*
X182300500Y-71602352D01*
X182300500Y-71397648D01*
X182268477Y-71195466D01*
X182205220Y-71000781D01*
X182205218Y-71000778D01*
X182205218Y-71000776D01*
X182114015Y-70821782D01*
X182100500Y-70765487D01*
X182100500Y-70309601D01*
X182120185Y-70242562D01*
X182168206Y-70199116D01*
X182181610Y-70192287D01*
X182347219Y-70071966D01*
X182491966Y-69927219D01*
X182491968Y-69927215D01*
X182491971Y-69927213D01*
X182563903Y-69828205D01*
X182612287Y-69761610D01*
X182705220Y-69579219D01*
X182768477Y-69384534D01*
X182800500Y-69182352D01*
X182800500Y-68977648D01*
X183699500Y-68977648D01*
X183699500Y-69182351D01*
X183731522Y-69384534D01*
X183794781Y-69579223D01*
X183820399Y-69629500D01*
X183887147Y-69760500D01*
X183887715Y-69761613D01*
X184008028Y-69927213D01*
X184152786Y-70071971D01*
X184245178Y-70139096D01*
X184318390Y-70192287D01*
X184434607Y-70251503D01*
X184500776Y-70285218D01*
X184500778Y-70285218D01*
X184500781Y-70285220D01*
X184575818Y-70309601D01*
X184695465Y-70348477D01*
X184796557Y-70364488D01*
X184897648Y-70380500D01*
X184897649Y-70380500D01*
X185102351Y-70380500D01*
X185102352Y-70380500D01*
X185304534Y-70348477D01*
X185499219Y-70285220D01*
X185681610Y-70192287D01*
X185805396Y-70102352D01*
X185847213Y-70071971D01*
X185847215Y-70071968D01*
X185847219Y-70071966D01*
X185991966Y-69927219D01*
X185991968Y-69927215D01*
X185991971Y-69927213D01*
X186112284Y-69761614D01*
X186112285Y-69761613D01*
X186112287Y-69761610D01*
X186119117Y-69748204D01*
X186167091Y-69697409D01*
X186229602Y-69680500D01*
X187270398Y-69680500D01*
X187337437Y-69700185D01*
X187380883Y-69748205D01*
X187387715Y-69761614D01*
X187508028Y-69927213D01*
X187652786Y-70071971D01*
X187745178Y-70139096D01*
X187818390Y-70192287D01*
X187934607Y-70251503D01*
X188000776Y-70285218D01*
X188000778Y-70285218D01*
X188000781Y-70285220D01*
X188075818Y-70309601D01*
X188195465Y-70348477D01*
X188296557Y-70364488D01*
X188397648Y-70380500D01*
X188397649Y-70380500D01*
X188602351Y-70380500D01*
X188602352Y-70380500D01*
X188804534Y-70348477D01*
X188999219Y-70285220D01*
X189181610Y-70192287D01*
X189305396Y-70102352D01*
X189347213Y-70071971D01*
X189347215Y-70071968D01*
X189347219Y-70071966D01*
X189491966Y-69927219D01*
X189491968Y-69927215D01*
X189491971Y-69927213D01*
X189563903Y-69828205D01*
X189612287Y-69761610D01*
X189705220Y-69579219D01*
X189768477Y-69384534D01*
X189800500Y-69182352D01*
X189800500Y-69057648D01*
X190699500Y-69057648D01*
X190699500Y-69262351D01*
X190731522Y-69464534D01*
X190794781Y-69659223D01*
X190887715Y-69841613D01*
X191008028Y-70007213D01*
X191152786Y-70151971D01*
X191283209Y-70246727D01*
X191318390Y-70272287D01*
X191391623Y-70309601D01*
X191500776Y-70365218D01*
X191500778Y-70365218D01*
X191500781Y-70365220D01*
X191575818Y-70389601D01*
X191695465Y-70428477D01*
X191796557Y-70444488D01*
X191897648Y-70460500D01*
X191897649Y-70460500D01*
X192102351Y-70460500D01*
X192102352Y-70460500D01*
X192304534Y-70428477D01*
X192499219Y-70365220D01*
X192681610Y-70272287D01*
X192774590Y-70204732D01*
X192847213Y-70151971D01*
X192847215Y-70151968D01*
X192847219Y-70151966D01*
X192991966Y-70007219D01*
X192991968Y-70007215D01*
X192991971Y-70007213D01*
X193112284Y-69841614D01*
X193112285Y-69841613D01*
X193112287Y-69841610D01*
X193119117Y-69828204D01*
X193167091Y-69777409D01*
X193229602Y-69760500D01*
X193970398Y-69760500D01*
X194037437Y-69780185D01*
X194080883Y-69828205D01*
X194087715Y-69841614D01*
X194208028Y-70007213D01*
X194352786Y-70151971D01*
X194483209Y-70246727D01*
X194518390Y-70272287D01*
X194591623Y-70309601D01*
X194700776Y-70365218D01*
X194700778Y-70365218D01*
X194700781Y-70365220D01*
X194775818Y-70389601D01*
X194895465Y-70428477D01*
X194996557Y-70444488D01*
X195097648Y-70460500D01*
X195097649Y-70460500D01*
X195302351Y-70460500D01*
X195302352Y-70460500D01*
X195504534Y-70428477D01*
X195699219Y-70365220D01*
X195881610Y-70272287D01*
X195974590Y-70204732D01*
X196047213Y-70151971D01*
X196047215Y-70151968D01*
X196047219Y-70151966D01*
X196191966Y-70007219D01*
X196191968Y-70007215D01*
X196191971Y-70007213D01*
X196250093Y-69927213D01*
X196312287Y-69841610D01*
X196405220Y-69659219D01*
X196468477Y-69464534D01*
X196500500Y-69262352D01*
X196500500Y-69057648D01*
X196489865Y-68990500D01*
X196468477Y-68855465D01*
X196420776Y-68708657D01*
X196405220Y-68660781D01*
X196405218Y-68660778D01*
X196405218Y-68660776D01*
X196364455Y-68580776D01*
X196312287Y-68478390D01*
X196298792Y-68459815D01*
X196191971Y-68312786D01*
X196047213Y-68168028D01*
X195881613Y-68047715D01*
X195881612Y-68047714D01*
X195881610Y-68047713D01*
X195824653Y-68018691D01*
X195699223Y-67954781D01*
X195504534Y-67891522D01*
X195329995Y-67863878D01*
X195302352Y-67859500D01*
X195097648Y-67859500D01*
X195073329Y-67863351D01*
X194895465Y-67891522D01*
X194700776Y-67954781D01*
X194518386Y-68047715D01*
X194352786Y-68168028D01*
X194208028Y-68312786D01*
X194087715Y-68478385D01*
X194080883Y-68491795D01*
X194032909Y-68542591D01*
X193970398Y-68559500D01*
X193229602Y-68559500D01*
X193162563Y-68539815D01*
X193119117Y-68491795D01*
X193112287Y-68478390D01*
X193112285Y-68478387D01*
X193112284Y-68478385D01*
X192991971Y-68312786D01*
X192847213Y-68168028D01*
X192681613Y-68047715D01*
X192681612Y-68047714D01*
X192681610Y-68047713D01*
X192624653Y-68018691D01*
X192499223Y-67954781D01*
X192304534Y-67891522D01*
X192129995Y-67863878D01*
X192102352Y-67859500D01*
X191897648Y-67859500D01*
X191873329Y-67863351D01*
X191695465Y-67891522D01*
X191500776Y-67954781D01*
X191318386Y-68047715D01*
X191152786Y-68168028D01*
X191008028Y-68312786D01*
X190887715Y-68478386D01*
X190794781Y-68660776D01*
X190731522Y-68855465D01*
X190699500Y-69057648D01*
X189800500Y-69057648D01*
X189800500Y-68977648D01*
X189792132Y-68924814D01*
X189768477Y-68775465D01*
X189738097Y-68681966D01*
X189705220Y-68580781D01*
X189705218Y-68580778D01*
X189705218Y-68580776D01*
X189659879Y-68491795D01*
X189612287Y-68398390D01*
X189550093Y-68312786D01*
X189491971Y-68232786D01*
X189347213Y-68088028D01*
X189181613Y-67967715D01*
X189181612Y-67967714D01*
X189181610Y-67967713D01*
X189124653Y-67938691D01*
X188999223Y-67874781D01*
X188804534Y-67811522D01*
X188629995Y-67783878D01*
X188602352Y-67779500D01*
X188397648Y-67779500D01*
X188373329Y-67783351D01*
X188195465Y-67811522D01*
X188000776Y-67874781D01*
X187818386Y-67967715D01*
X187652786Y-68088028D01*
X187508028Y-68232786D01*
X187387715Y-68398385D01*
X187380883Y-68411795D01*
X187332909Y-68462591D01*
X187270398Y-68479500D01*
X186229602Y-68479500D01*
X186162563Y-68459815D01*
X186119117Y-68411795D01*
X186112284Y-68398385D01*
X185991971Y-68232786D01*
X185847213Y-68088028D01*
X185681613Y-67967715D01*
X185681612Y-67967714D01*
X185681610Y-67967713D01*
X185624653Y-67938691D01*
X185499223Y-67874781D01*
X185304534Y-67811522D01*
X185129995Y-67783878D01*
X185102352Y-67779500D01*
X184897648Y-67779500D01*
X184873329Y-67783351D01*
X184695465Y-67811522D01*
X184500776Y-67874781D01*
X184318386Y-67967715D01*
X184152786Y-68088028D01*
X184008028Y-68232786D01*
X183887715Y-68398386D01*
X183794781Y-68580776D01*
X183731522Y-68775465D01*
X183699500Y-68977648D01*
X182800500Y-68977648D01*
X182792132Y-68924814D01*
X182768477Y-68775465D01*
X182738097Y-68681966D01*
X182705220Y-68580781D01*
X182705218Y-68580778D01*
X182705218Y-68580776D01*
X182659879Y-68491795D01*
X182612287Y-68398390D01*
X182550093Y-68312786D01*
X182491971Y-68232786D01*
X182347213Y-68088028D01*
X182181613Y-67967715D01*
X182181612Y-67967714D01*
X182181610Y-67967713D01*
X182124653Y-67938691D01*
X181999223Y-67874781D01*
X181804534Y-67811522D01*
X181629995Y-67783878D01*
X181602352Y-67779500D01*
X181397648Y-67779500D01*
X181373329Y-67783351D01*
X181195465Y-67811522D01*
X181000776Y-67874781D01*
X180818386Y-67967715D01*
X180652786Y-68088028D01*
X180508028Y-68232786D01*
X180387715Y-68398386D01*
X180294781Y-68580776D01*
X180231522Y-68775465D01*
X180199500Y-68977648D01*
X180199500Y-69182351D01*
X180231522Y-69384534D01*
X180294781Y-69579223D01*
X180320399Y-69629500D01*
X180387147Y-69760500D01*
X180387715Y-69761613D01*
X180508028Y-69927213D01*
X180640594Y-70059779D01*
X180674079Y-70121102D01*
X180669095Y-70190794D01*
X180627223Y-70246727D01*
X180591231Y-70265391D01*
X180500778Y-70294781D01*
X180318386Y-70387715D01*
X180152786Y-70508028D01*
X180008028Y-70652786D01*
X179887715Y-70818386D01*
X179794781Y-71000776D01*
X179731522Y-71195465D01*
X179699500Y-71397648D01*
X179699500Y-71602351D01*
X179731522Y-71804534D01*
X179794781Y-71999223D01*
X179887715Y-72181613D01*
X180008028Y-72347213D01*
X180008034Y-72347219D01*
X180152781Y-72491966D01*
X180318390Y-72612287D01*
X180331793Y-72619116D01*
X180342856Y-72629564D01*
X180356703Y-72635888D01*
X180367744Y-72653068D01*
X180382589Y-72667088D01*
X180386830Y-72682768D01*
X180394477Y-72694666D01*
X180399500Y-72729601D01*
X180399500Y-72770397D01*
X180379815Y-72837436D01*
X180331800Y-72880879D01*
X180318389Y-72887712D01*
X180152786Y-73008028D01*
X180008028Y-73152786D01*
X179887715Y-73318386D01*
X179794781Y-73500776D01*
X179731522Y-73695465D01*
X179699500Y-73897648D01*
X179699500Y-74102351D01*
X179731522Y-74304534D01*
X179794781Y-74499223D01*
X179842612Y-74593094D01*
X179873026Y-74652786D01*
X179887715Y-74681613D01*
X180008028Y-74847213D01*
X180152786Y-74991971D01*
X180307749Y-75104556D01*
X180318390Y-75112287D01*
X180397864Y-75152781D01*
X180500776Y-75205218D01*
X180500778Y-75205218D01*
X180500781Y-75205220D01*
X180582540Y-75231785D01*
X180695465Y-75268477D01*
X180780214Y-75281900D01*
X180897648Y-75300500D01*
X180897649Y-75300500D01*
X181102351Y-75300500D01*
X181102352Y-75300500D01*
X181304534Y-75268477D01*
X181499219Y-75205220D01*
X181681610Y-75112287D01*
X181794587Y-75030205D01*
X181847213Y-74991971D01*
X181847215Y-74991968D01*
X181847219Y-74991966D01*
X181991966Y-74847219D01*
X181991968Y-74847215D01*
X181991971Y-74847213D01*
X182067972Y-74742605D01*
X182112287Y-74681610D01*
X182139515Y-74628171D01*
X182187490Y-74577376D01*
X182255311Y-74560581D01*
X182321446Y-74583118D01*
X182360484Y-74628171D01*
X182373026Y-74652786D01*
X182387715Y-74681613D01*
X182508028Y-74847213D01*
X182652786Y-74991971D01*
X182807749Y-75104556D01*
X182818390Y-75112287D01*
X182897864Y-75152781D01*
X183000776Y-75205218D01*
X183000778Y-75205218D01*
X183000781Y-75205220D01*
X183082540Y-75231785D01*
X183195465Y-75268477D01*
X183280214Y-75281900D01*
X183397648Y-75300500D01*
X183397649Y-75300500D01*
X183602351Y-75300500D01*
X183602352Y-75300500D01*
X183756102Y-75276148D01*
X183825395Y-75285103D01*
X183878847Y-75330099D01*
X183899487Y-75396850D01*
X183899500Y-75398621D01*
X183899500Y-77324486D01*
X183879815Y-77391525D01*
X183848386Y-77424804D01*
X183704896Y-77529056D01*
X183569057Y-77664895D01*
X183569057Y-77664896D01*
X183569055Y-77664898D01*
X183520560Y-77731645D01*
X183456135Y-77820318D01*
X183368916Y-77991493D01*
X183309553Y-78174197D01*
X183309553Y-78174199D01*
X183279500Y-78363945D01*
X183279500Y-78556055D01*
X183290223Y-78623755D01*
X183281267Y-78693049D01*
X183236270Y-78746500D01*
X183169519Y-78767139D01*
X183102205Y-78748414D01*
X183080068Y-78730833D01*
X179136819Y-74787584D01*
X179103334Y-74726261D01*
X179100500Y-74699903D01*
X179100500Y-72514060D01*
X179100501Y-72514047D01*
X179100501Y-72345944D01*
X179080361Y-72270781D01*
X179059577Y-72193216D01*
X179052876Y-72181610D01*
X178980524Y-72056290D01*
X178980518Y-72056282D01*
X178313751Y-71389515D01*
X177599076Y-70674841D01*
X177565592Y-70613519D01*
X177568828Y-70548841D01*
X177573477Y-70534534D01*
X177605500Y-70332352D01*
X177605500Y-70127648D01*
X177599830Y-70091850D01*
X177573477Y-69925465D01*
X177510218Y-69730776D01*
X177473757Y-69659219D01*
X177417287Y-69548390D01*
X177382699Y-69500783D01*
X177296971Y-69382786D01*
X177152213Y-69238028D01*
X176986613Y-69117715D01*
X176986612Y-69117714D01*
X176986610Y-69117713D01*
X176929653Y-69088691D01*
X176804223Y-69024781D01*
X176609534Y-68961522D01*
X176412693Y-68930346D01*
X176407352Y-68929500D01*
X176202648Y-68929500D01*
X176197307Y-68930346D01*
X176000465Y-68961522D01*
X175805776Y-69024781D01*
X175623386Y-69117715D01*
X175457786Y-69238028D01*
X175313028Y-69382786D01*
X175192715Y-69548386D01*
X175099781Y-69730776D01*
X175036522Y-69925465D01*
X175004500Y-70127648D01*
X169985500Y-70127648D01*
X169957269Y-69949405D01*
X169961879Y-69914801D01*
X169966300Y-69880593D01*
X169966469Y-69880344D01*
X169966496Y-69880147D01*
X169967057Y-69879485D01*
X169992134Y-69842810D01*
X171537626Y-68297320D01*
X171608814Y-68190778D01*
X171609460Y-68189219D01*
X171657850Y-68072395D01*
X171682849Y-67946720D01*
X171682849Y-67089983D01*
X202394500Y-67089983D01*
X202394500Y-68290001D01*
X202394501Y-68290018D01*
X202405000Y-68392796D01*
X202405001Y-68392799D01*
X202460185Y-68559331D01*
X202460187Y-68559336D01*
X202495069Y-68615888D01*
X202552288Y-68708656D01*
X202676344Y-68832712D01*
X202825666Y-68924814D01*
X202992203Y-68979999D01*
X203094991Y-68990500D01*
X204295008Y-68990499D01*
X204397797Y-68979999D01*
X204564334Y-68924814D01*
X204713656Y-68832712D01*
X204837712Y-68708656D01*
X204929814Y-68559334D01*
X204984999Y-68392797D01*
X204995500Y-68290009D01*
X204995499Y-67290097D01*
X205015183Y-67223059D01*
X205031818Y-67202417D01*
X205281951Y-66952284D01*
X205612843Y-66621393D01*
X205691900Y-66484461D01*
X205732824Y-66331734D01*
X205732824Y-66173619D01*
X205732824Y-66166024D01*
X205732823Y-66166006D01*
X205732823Y-62124499D01*
X205752508Y-62057460D01*
X205805312Y-62011705D01*
X205856823Y-62000499D01*
X205932325Y-62000499D01*
X205932331Y-62000499D01*
X206035120Y-61989999D01*
X206201657Y-61934814D01*
X206350979Y-61842712D01*
X206475035Y-61718656D01*
X206567137Y-61569334D01*
X206622322Y-61402797D01*
X206632823Y-61300009D01*
X206632822Y-59699992D01*
X206622322Y-59597203D01*
X206567137Y-59430666D01*
X206475035Y-59281344D01*
X206350979Y-59157288D01*
X206201657Y-59065186D01*
X206035120Y-59010001D01*
X206035118Y-59010000D01*
X205932333Y-58999500D01*
X204332321Y-58999500D01*
X204332304Y-58999501D01*
X204229526Y-59010000D01*
X204229523Y-59010001D01*
X204062991Y-59065185D01*
X204062986Y-59065187D01*
X203913665Y-59157289D01*
X203789612Y-59281342D01*
X203697510Y-59430663D01*
X203697509Y-59430666D01*
X203642324Y-59597203D01*
X203642324Y-59597204D01*
X203642323Y-59597204D01*
X203631823Y-59699983D01*
X203631823Y-61300001D01*
X203631824Y-61300018D01*
X203642323Y-61402796D01*
X203642324Y-61402799D01*
X203667082Y-61477512D01*
X203697509Y-61569334D01*
X203789611Y-61718656D01*
X203913667Y-61842712D01*
X204062989Y-61934814D01*
X204229526Y-61989999D01*
X204332314Y-62000500D01*
X204407823Y-62000499D01*
X204474861Y-62020183D01*
X204520617Y-62072986D01*
X204531823Y-62124499D01*
X204531823Y-65952579D01*
X204512138Y-66019618D01*
X204495504Y-66040260D01*
X204182582Y-66353181D01*
X204121259Y-66386666D01*
X204094901Y-66389500D01*
X203094998Y-66389500D01*
X203094980Y-66389501D01*
X202992203Y-66400000D01*
X202992200Y-66400001D01*
X202825668Y-66455185D01*
X202825663Y-66455187D01*
X202676342Y-66547289D01*
X202552289Y-66671342D01*
X202460187Y-66820663D01*
X202460185Y-66820668D01*
X202456440Y-66831971D01*
X202405001Y-66987203D01*
X202405001Y-66987204D01*
X202405000Y-66987204D01*
X202394500Y-67089983D01*
X171682849Y-67089983D01*
X171682849Y-63086869D01*
X171702534Y-63019830D01*
X171755338Y-62974075D01*
X171767835Y-62969166D01*
X171901683Y-62924814D01*
X172051005Y-62832712D01*
X172175061Y-62708656D01*
X172267163Y-62559334D01*
X172322348Y-62392797D01*
X172332849Y-62290009D01*
X172332848Y-61089992D01*
X172322348Y-60987203D01*
X172267163Y-60820666D01*
X172175061Y-60671344D01*
X172051005Y-60547288D01*
X171901683Y-60455186D01*
X171735146Y-60400001D01*
X171735144Y-60400000D01*
X171632359Y-60389500D01*
X170432347Y-60389500D01*
X170432330Y-60389501D01*
X170329552Y-60400000D01*
X170329549Y-60400001D01*
X170163017Y-60455185D01*
X170163012Y-60455187D01*
X170013691Y-60547289D01*
X169889638Y-60671342D01*
X169797536Y-60820663D01*
X169797535Y-60820666D01*
X169742350Y-60987203D01*
X169742350Y-60987204D01*
X169742349Y-60987204D01*
X169731849Y-61089983D01*
X169731849Y-62290001D01*
X169731850Y-62290018D01*
X169742349Y-62392796D01*
X169742350Y-62392799D01*
X169774025Y-62488386D01*
X169797535Y-62559334D01*
X169889637Y-62708656D01*
X170013693Y-62832712D01*
X170163015Y-62924814D01*
X170296854Y-62969164D01*
X170354298Y-63008936D01*
X170381121Y-63073451D01*
X170381849Y-63086869D01*
X170381849Y-67561842D01*
X170373204Y-67591282D01*
X170366681Y-67621269D01*
X170362926Y-67626284D01*
X170362164Y-67628881D01*
X170345530Y-67649523D01*
X170197181Y-67797872D01*
X170135858Y-67831357D01*
X170066166Y-67826373D01*
X170010233Y-67784501D01*
X169985816Y-67719037D01*
X169985500Y-67710191D01*
X169985500Y-67587648D01*
X169953477Y-67385465D01*
X169907888Y-67245157D01*
X169890220Y-67190781D01*
X169890218Y-67190778D01*
X169890218Y-67190776D01*
X169838865Y-67089991D01*
X169797287Y-67008390D01*
X169781894Y-66987203D01*
X169676971Y-66842786D01*
X169532213Y-66698028D01*
X169366613Y-66577715D01*
X169366612Y-66577714D01*
X169366610Y-66577713D01*
X169302835Y-66545218D01*
X169184223Y-66484781D01*
X168989534Y-66421522D01*
X168814995Y-66393878D01*
X168787352Y-66389500D01*
X168582648Y-66389500D01*
X168558329Y-66393351D01*
X168380465Y-66421522D01*
X168185776Y-66484781D01*
X168003386Y-66577715D01*
X167837786Y-66698028D01*
X167693028Y-66842786D01*
X167572715Y-67008386D01*
X167479781Y-67190776D01*
X167416522Y-67385465D01*
X167384500Y-67587648D01*
X167384500Y-67792351D01*
X167416522Y-67994534D01*
X167421173Y-68008848D01*
X167423165Y-68078690D01*
X167390921Y-68134842D01*
X161131286Y-74394478D01*
X161019481Y-74506282D01*
X161019479Y-74506285D01*
X160994420Y-74549689D01*
X160975121Y-74583118D01*
X160969361Y-74593094D01*
X160969359Y-74593096D01*
X160940425Y-74643209D01*
X160940424Y-74643210D01*
X160898135Y-74801034D01*
X160861769Y-74860694D01*
X160834658Y-74879423D01*
X160818388Y-74887713D01*
X160652786Y-75008028D01*
X160508028Y-75152786D01*
X160387715Y-75318386D01*
X160294781Y-75500776D01*
X160231522Y-75695465D01*
X160199500Y-75897648D01*
X160199500Y-76102351D01*
X160231522Y-76304534D01*
X160294781Y-76499223D01*
X160352391Y-76612287D01*
X160386248Y-76678735D01*
X160387715Y-76681613D01*
X160508028Y-76847213D01*
X160508034Y-76847219D01*
X160652781Y-76991966D01*
X160818390Y-77112287D01*
X160831793Y-77119116D01*
X160882589Y-77167088D01*
X160899500Y-77229601D01*
X160899500Y-78375500D01*
X160879815Y-78442539D01*
X160827011Y-78488294D01*
X160775502Y-78499500D01*
X160699999Y-78499500D01*
X160699980Y-78499501D01*
X160597203Y-78510000D01*
X160597200Y-78510001D01*
X160430668Y-78565185D01*
X160430663Y-78565187D01*
X160281342Y-78657289D01*
X160157289Y-78781342D01*
X160065187Y-78930663D01*
X160065186Y-78930666D01*
X160010001Y-79097203D01*
X160010001Y-79097204D01*
X160010000Y-79097204D01*
X159999500Y-79199983D01*
X155000500Y-79199983D01*
X155000500Y-63067648D01*
X160199500Y-63067648D01*
X160199500Y-63272351D01*
X160231522Y-63474534D01*
X160294781Y-63669223D01*
X160329121Y-63736617D01*
X160364922Y-63806881D01*
X160387715Y-63851613D01*
X160508028Y-64017213D01*
X160652784Y-64161969D01*
X160710788Y-64204110D01*
X160798385Y-64267753D01*
X160841051Y-64323081D01*
X160849500Y-64368070D01*
X160849500Y-64641928D01*
X160829815Y-64708967D01*
X160798385Y-64742246D01*
X160652787Y-64848028D01*
X160652782Y-64848032D01*
X160508028Y-64992786D01*
X160387715Y-65158386D01*
X160294781Y-65340776D01*
X160231522Y-65535465D01*
X160199500Y-65737648D01*
X160199500Y-65942351D01*
X160231522Y-66144534D01*
X160294781Y-66339223D01*
X160387715Y-66521613D01*
X160508028Y-66687213D01*
X160652786Y-66831971D01*
X160807749Y-66944556D01*
X160818390Y-66952287D01*
X160928490Y-67008386D01*
X161000776Y-67045218D01*
X161000778Y-67045218D01*
X161000781Y-67045220D01*
X161105137Y-67079127D01*
X161195465Y-67108477D01*
X161296557Y-67124488D01*
X161397648Y-67140500D01*
X161397649Y-67140500D01*
X161602351Y-67140500D01*
X161602352Y-67140500D01*
X161804534Y-67108477D01*
X161999219Y-67045220D01*
X162181610Y-66952287D01*
X162286563Y-66876035D01*
X162347213Y-66831971D01*
X162347215Y-66831968D01*
X162347219Y-66831966D01*
X162491966Y-66687219D01*
X162491968Y-66687215D01*
X162491971Y-66687213D01*
X162565231Y-66586377D01*
X162612287Y-66521610D01*
X162705220Y-66339219D01*
X162768477Y-66144534D01*
X162800500Y-65942352D01*
X162800500Y-65737648D01*
X162768477Y-65535466D01*
X162705220Y-65340781D01*
X162705218Y-65340778D01*
X162705218Y-65340776D01*
X162652671Y-65237648D01*
X162612287Y-65158390D01*
X162604556Y-65147749D01*
X162491971Y-64992786D01*
X162347217Y-64848032D01*
X162347212Y-64848028D01*
X162201615Y-64742246D01*
X162158949Y-64686916D01*
X162150500Y-64641928D01*
X162150500Y-64368070D01*
X162170185Y-64301031D01*
X162201613Y-64267753D01*
X162347219Y-64161966D01*
X162491966Y-64017219D01*
X162491968Y-64017215D01*
X162491971Y-64017213D01*
X162547929Y-63940192D01*
X162612287Y-63851610D01*
X162705220Y-63669219D01*
X162768477Y-63474534D01*
X162800500Y-63272352D01*
X162800500Y-63067648D01*
X162768477Y-62865466D01*
X162762476Y-62846998D01*
X162739127Y-62775137D01*
X162705220Y-62670781D01*
X162705218Y-62670778D01*
X162705218Y-62670776D01*
X162671503Y-62604607D01*
X162612287Y-62488390D01*
X162604556Y-62477749D01*
X162491971Y-62322786D01*
X162347213Y-62178028D01*
X162181613Y-62057715D01*
X162181612Y-62057714D01*
X162181610Y-62057713D01*
X162124653Y-62028691D01*
X161999223Y-61964781D01*
X161804534Y-61901522D01*
X161629995Y-61873878D01*
X161602352Y-61869500D01*
X161397648Y-61869500D01*
X161373329Y-61873351D01*
X161195465Y-61901522D01*
X161000776Y-61964781D01*
X160818386Y-62057715D01*
X160652786Y-62178028D01*
X160508028Y-62322786D01*
X160387715Y-62488386D01*
X160294781Y-62670776D01*
X160231522Y-62865465D01*
X160199500Y-63067648D01*
X155000500Y-63067648D01*
X155000500Y-58817648D01*
X180199500Y-58817648D01*
X180199500Y-59022352D01*
X180203878Y-59049995D01*
X180231522Y-59224534D01*
X180294781Y-59419223D01*
X180335542Y-59499219D01*
X180387147Y-59600500D01*
X180387715Y-59601613D01*
X180508028Y-59767213D01*
X180652786Y-59911971D01*
X180762892Y-59991966D01*
X180818390Y-60032287D01*
X180934607Y-60091503D01*
X181000776Y-60125218D01*
X181000778Y-60125218D01*
X181000781Y-60125220D01*
X181072833Y-60148631D01*
X181195465Y-60188477D01*
X181296557Y-60204488D01*
X181397648Y-60220500D01*
X181397649Y-60220500D01*
X181602351Y-60220500D01*
X181602352Y-60220500D01*
X181804534Y-60188477D01*
X181999219Y-60125220D01*
X182181610Y-60032287D01*
X182274590Y-59964732D01*
X182347213Y-59911971D01*
X182347215Y-59911968D01*
X182347219Y-59911966D01*
X182491966Y-59767219D01*
X182491968Y-59767215D01*
X182491971Y-59767213D01*
X182612284Y-59601614D01*
X182612285Y-59601613D01*
X182612287Y-59601610D01*
X182619117Y-59588204D01*
X182667091Y-59537409D01*
X182729602Y-59520500D01*
X183770398Y-59520500D01*
X183837437Y-59540185D01*
X183880883Y-59588205D01*
X183887715Y-59601614D01*
X184008028Y-59767213D01*
X184152786Y-59911971D01*
X184262892Y-59991966D01*
X184318390Y-60032287D01*
X184434607Y-60091503D01*
X184500776Y-60125218D01*
X184500778Y-60125218D01*
X184500781Y-60125220D01*
X184572833Y-60148631D01*
X184695465Y-60188477D01*
X184796557Y-60204488D01*
X184897648Y-60220500D01*
X184897649Y-60220500D01*
X185102351Y-60220500D01*
X185102352Y-60220500D01*
X185304534Y-60188477D01*
X185499219Y-60125220D01*
X185681610Y-60032287D01*
X185774590Y-59964732D01*
X185847213Y-59911971D01*
X185847215Y-59911968D01*
X185847219Y-59911966D01*
X185991966Y-59767219D01*
X185991968Y-59767215D01*
X185991971Y-59767213D01*
X186063903Y-59668205D01*
X186112287Y-59601610D01*
X186205220Y-59419219D01*
X186268477Y-59224534D01*
X186300500Y-59022352D01*
X186300500Y-58817648D01*
X186268477Y-58615466D01*
X186248881Y-58555157D01*
X186239127Y-58525137D01*
X186205220Y-58420781D01*
X186205218Y-58420778D01*
X186205218Y-58420776D01*
X186112284Y-58238385D01*
X186068728Y-58178436D01*
X186045247Y-58112630D01*
X186061072Y-58044576D01*
X186081360Y-58017874D01*
X186305158Y-57794075D01*
X186366480Y-57760592D01*
X186431154Y-57763826D01*
X186445466Y-57768477D01*
X186647648Y-57800500D01*
X186647649Y-57800500D01*
X186852351Y-57800500D01*
X186852352Y-57800500D01*
X187054534Y-57768477D01*
X187249219Y-57705220D01*
X187431610Y-57612287D01*
X187524590Y-57544732D01*
X187597213Y-57491971D01*
X187597215Y-57491968D01*
X187597219Y-57491966D01*
X187741966Y-57347219D01*
X187741968Y-57347215D01*
X187741971Y-57347213D01*
X187794732Y-57274590D01*
X187862287Y-57181610D01*
X187889515Y-57128171D01*
X187937490Y-57077376D01*
X188005311Y-57060581D01*
X188071446Y-57083118D01*
X188110485Y-57128172D01*
X188137715Y-57181613D01*
X188258028Y-57347213D01*
X188402786Y-57491971D01*
X188557749Y-57604556D01*
X188568390Y-57612287D01*
X188649499Y-57653614D01*
X188750776Y-57705218D01*
X188750778Y-57705218D01*
X188750781Y-57705220D01*
X188855137Y-57739127D01*
X188945465Y-57768477D01*
X189046557Y-57784488D01*
X189147648Y-57800500D01*
X189147649Y-57800500D01*
X189352351Y-57800500D01*
X189352352Y-57800500D01*
X189554534Y-57768477D01*
X189749219Y-57705220D01*
X189931610Y-57612287D01*
X190024590Y-57544732D01*
X190097213Y-57491971D01*
X190097215Y-57491968D01*
X190097219Y-57491966D01*
X190241966Y-57347219D01*
X190274681Y-57302189D01*
X190330010Y-57259524D01*
X190399623Y-57253543D01*
X190461419Y-57286148D01*
X190475319Y-57302190D01*
X190508030Y-57347215D01*
X190652786Y-57491971D01*
X190807749Y-57604556D01*
X190818390Y-57612287D01*
X190899499Y-57653614D01*
X191000776Y-57705218D01*
X191000778Y-57705218D01*
X191000781Y-57705220D01*
X191105137Y-57739127D01*
X191195465Y-57768477D01*
X191296557Y-57784488D01*
X191397648Y-57800500D01*
X191397649Y-57800500D01*
X191602351Y-57800500D01*
X191602352Y-57800500D01*
X191804534Y-57768477D01*
X191999219Y-57705220D01*
X192181610Y-57612287D01*
X192274590Y-57544732D01*
X192347213Y-57491971D01*
X192347215Y-57491968D01*
X192347219Y-57491966D01*
X192491966Y-57347219D01*
X192491968Y-57347215D01*
X192491971Y-57347213D01*
X192544732Y-57274590D01*
X192612287Y-57181610D01*
X192639515Y-57128171D01*
X192687490Y-57077376D01*
X192755311Y-57060581D01*
X192821446Y-57083118D01*
X192860485Y-57128172D01*
X192887715Y-57181613D01*
X193008028Y-57347213D01*
X193008034Y-57347219D01*
X193152781Y-57491966D01*
X193318390Y-57612287D01*
X193331791Y-57619115D01*
X193382587Y-57667085D01*
X193399499Y-57729600D01*
X193399499Y-57879054D01*
X193399498Y-57879054D01*
X193440423Y-58031786D01*
X193440424Y-58031787D01*
X193453310Y-58054106D01*
X193519481Y-58168717D01*
X193638349Y-58287585D01*
X193638355Y-58287590D01*
X193905922Y-58555157D01*
X193939407Y-58616480D01*
X193936173Y-58681155D01*
X193931522Y-58695468D01*
X193899500Y-58897648D01*
X193899500Y-59102351D01*
X193931522Y-59304534D01*
X193994781Y-59499223D01*
X194087715Y-59681613D01*
X194208028Y-59847213D01*
X194352786Y-59991971D01*
X194507749Y-60104556D01*
X194518390Y-60112287D01*
X194634607Y-60171503D01*
X194700776Y-60205218D01*
X194700778Y-60205218D01*
X194700781Y-60205220D01*
X194805137Y-60239127D01*
X194895465Y-60268477D01*
X194996557Y-60284488D01*
X195097648Y-60300500D01*
X195097649Y-60300500D01*
X195302351Y-60300500D01*
X195302352Y-60300500D01*
X195504534Y-60268477D01*
X195699219Y-60205220D01*
X195881610Y-60112287D01*
X195974590Y-60044732D01*
X196047213Y-59991971D01*
X196047215Y-59991968D01*
X196047219Y-59991966D01*
X196191966Y-59847219D01*
X196191968Y-59847215D01*
X196191971Y-59847213D01*
X196312284Y-59681614D01*
X196312285Y-59681613D01*
X196312287Y-59681610D01*
X196319117Y-59668204D01*
X196367091Y-59617409D01*
X196429602Y-59600500D01*
X197070398Y-59600500D01*
X197137437Y-59620185D01*
X197180883Y-59668205D01*
X197187715Y-59681614D01*
X197308028Y-59847213D01*
X197452786Y-59991971D01*
X197607749Y-60104556D01*
X197618390Y-60112287D01*
X197734607Y-60171503D01*
X197800776Y-60205218D01*
X197800778Y-60205218D01*
X197800781Y-60205220D01*
X197905137Y-60239127D01*
X197995465Y-60268477D01*
X198096557Y-60284488D01*
X198197648Y-60300500D01*
X198197649Y-60300500D01*
X198402351Y-60300500D01*
X198402352Y-60300500D01*
X198604534Y-60268477D01*
X198799219Y-60205220D01*
X198981610Y-60112287D01*
X199074590Y-60044732D01*
X199147213Y-59991971D01*
X199147215Y-59991968D01*
X199147219Y-59991966D01*
X199291966Y-59847219D01*
X199291968Y-59847215D01*
X199291971Y-59847213D01*
X199389069Y-59713567D01*
X199412287Y-59681610D01*
X199505220Y-59499219D01*
X199568477Y-59304534D01*
X199600500Y-59102352D01*
X199600500Y-58897648D01*
X199568477Y-58695466D01*
X199505220Y-58500781D01*
X199505218Y-58500778D01*
X199505218Y-58500776D01*
X199464455Y-58420776D01*
X199412287Y-58318390D01*
X199384773Y-58280520D01*
X199291971Y-58152786D01*
X199147213Y-58008028D01*
X198981613Y-57887715D01*
X198981612Y-57887714D01*
X198981610Y-57887713D01*
X198924653Y-57858691D01*
X198799223Y-57794781D01*
X198604534Y-57731522D01*
X198429995Y-57703878D01*
X198402352Y-57699500D01*
X198197648Y-57699500D01*
X198173329Y-57703351D01*
X197995465Y-57731522D01*
X197800776Y-57794781D01*
X197618386Y-57887715D01*
X197452786Y-58008028D01*
X197308028Y-58152786D01*
X197187715Y-58318385D01*
X197180883Y-58331795D01*
X197132909Y-58382591D01*
X197070398Y-58399500D01*
X196429602Y-58399500D01*
X196362563Y-58379815D01*
X196319117Y-58331795D01*
X196312287Y-58318390D01*
X196312285Y-58318387D01*
X196312284Y-58318385D01*
X196191971Y-58152786D01*
X196047213Y-58008028D01*
X195881613Y-57887715D01*
X195881612Y-57887714D01*
X195881610Y-57887713D01*
X195824653Y-57858691D01*
X195699223Y-57794781D01*
X195504534Y-57731522D01*
X195329995Y-57703878D01*
X195302352Y-57699500D01*
X195097648Y-57699500D01*
X195061547Y-57705218D01*
X194922270Y-57727277D01*
X194852976Y-57718322D01*
X194799524Y-57673326D01*
X194778885Y-57606574D01*
X194797610Y-57539261D01*
X194829989Y-57504484D01*
X194847219Y-57491966D01*
X194991966Y-57347219D01*
X194991968Y-57347215D01*
X194991971Y-57347213D01*
X195044732Y-57274590D01*
X195112287Y-57181610D01*
X195205220Y-56999219D01*
X195268477Y-56804534D01*
X195300500Y-56602352D01*
X195300500Y-56397648D01*
X195268477Y-56195466D01*
X195205220Y-56000781D01*
X195205218Y-56000778D01*
X195205218Y-56000776D01*
X195139515Y-55871828D01*
X195112287Y-55818390D01*
X195104556Y-55807749D01*
X194991971Y-55652786D01*
X194847213Y-55508028D01*
X194681613Y-55387715D01*
X194681612Y-55387714D01*
X194681610Y-55387713D01*
X194624653Y-55358691D01*
X194499223Y-55294781D01*
X194304534Y-55231522D01*
X194129995Y-55203878D01*
X194102352Y-55199500D01*
X193897648Y-55199500D01*
X193873329Y-55203351D01*
X193695465Y-55231522D01*
X193543759Y-55280815D01*
X193500781Y-55294780D01*
X193500778Y-55294781D01*
X193500776Y-55294782D01*
X193320795Y-55386487D01*
X193252125Y-55399383D01*
X193187385Y-55373107D01*
X193147128Y-55316000D01*
X193140500Y-55276002D01*
X193140500Y-54974499D01*
X193160185Y-54907460D01*
X193212989Y-54861705D01*
X193264500Y-54850499D01*
X193437871Y-54850499D01*
X193437872Y-54850499D01*
X193497483Y-54844091D01*
X193632331Y-54793796D01*
X193747546Y-54707546D01*
X193833796Y-54592331D01*
X193884091Y-54457483D01*
X193890500Y-54397873D01*
X193890499Y-52602128D01*
X193884091Y-52542517D01*
X193882810Y-52539083D01*
X193833797Y-52407671D01*
X193833793Y-52407664D01*
X193747547Y-52292455D01*
X193747544Y-52292452D01*
X193632335Y-52206206D01*
X193632328Y-52206202D01*
X193497482Y-52155908D01*
X193497483Y-52155908D01*
X193437883Y-52149501D01*
X193437881Y-52149500D01*
X193437873Y-52149500D01*
X193437864Y-52149500D01*
X191642129Y-52149500D01*
X191642123Y-52149501D01*
X191582516Y-52155908D01*
X191447671Y-52206202D01*
X191447664Y-52206206D01*
X191332455Y-52292452D01*
X191332452Y-52292455D01*
X191246206Y-52407664D01*
X191246203Y-52407669D01*
X191197189Y-52539083D01*
X191155317Y-52595016D01*
X191089853Y-52619433D01*
X191021580Y-52604581D01*
X190993326Y-52583430D01*
X190879786Y-52469890D01*
X190707820Y-52344951D01*
X190518414Y-52248444D01*
X190518413Y-52248443D01*
X190518412Y-52248443D01*
X190316243Y-52182754D01*
X190316241Y-52182753D01*
X190316240Y-52182753D01*
X190154957Y-52157208D01*
X190106287Y-52149500D01*
X189893713Y-52149500D01*
X189845042Y-52157208D01*
X189683760Y-52182753D01*
X189481585Y-52248444D01*
X189292179Y-52344951D01*
X189120213Y-52469890D01*
X188969890Y-52620213D01*
X188844951Y-52792179D01*
X188748444Y-52981585D01*
X188682753Y-53183760D01*
X188649500Y-53393713D01*
X188649500Y-53606286D01*
X188682753Y-53816239D01*
X188748444Y-54018414D01*
X188844951Y-54207820D01*
X188969890Y-54379786D01*
X189120213Y-54530109D01*
X189292184Y-54655051D01*
X189292184Y-54655052D01*
X189331793Y-54675233D01*
X189382590Y-54723206D01*
X189399500Y-54785718D01*
X189399500Y-55075500D01*
X189379815Y-55142539D01*
X189327011Y-55188294D01*
X189275500Y-55199500D01*
X189147648Y-55199500D01*
X189123329Y-55203351D01*
X188945465Y-55231522D01*
X188750776Y-55294781D01*
X188568386Y-55387715D01*
X188402786Y-55508028D01*
X188258028Y-55652786D01*
X188137713Y-55818388D01*
X188110484Y-55871828D01*
X188062510Y-55922623D01*
X187994688Y-55939418D01*
X187928554Y-55916880D01*
X187889516Y-55871828D01*
X187862286Y-55818388D01*
X187741971Y-55652786D01*
X187597213Y-55508028D01*
X187431613Y-55387715D01*
X187431612Y-55387714D01*
X187431610Y-55387713D01*
X187374653Y-55358691D01*
X187249223Y-55294781D01*
X187054534Y-55231522D01*
X186879995Y-55203878D01*
X186852352Y-55199500D01*
X186647648Y-55199500D01*
X186623329Y-55203351D01*
X186445465Y-55231522D01*
X186250776Y-55294781D01*
X186068386Y-55387715D01*
X185902786Y-55508028D01*
X185758028Y-55652786D01*
X185637715Y-55818386D01*
X185544781Y-56000776D01*
X185481522Y-56195465D01*
X185449500Y-56397648D01*
X185449500Y-56602351D01*
X185481523Y-56804535D01*
X185486172Y-56818845D01*
X185488165Y-56888687D01*
X185455921Y-56944841D01*
X184787850Y-57612913D01*
X184726527Y-57646398D01*
X184719569Y-57647705D01*
X184695468Y-57651522D01*
X184500778Y-57714781D01*
X184318386Y-57807715D01*
X184152786Y-57928028D01*
X184008028Y-58072786D01*
X183887715Y-58238385D01*
X183880883Y-58251795D01*
X183832909Y-58302591D01*
X183770398Y-58319500D01*
X182729602Y-58319500D01*
X182662563Y-58299815D01*
X182619117Y-58251795D01*
X182612284Y-58238385D01*
X182491971Y-58072786D01*
X182347213Y-57928028D01*
X182181613Y-57807715D01*
X182181612Y-57807714D01*
X182181610Y-57807713D01*
X182095479Y-57763827D01*
X181999223Y-57714781D01*
X181804534Y-57651522D01*
X181629995Y-57623878D01*
X181602352Y-57619500D01*
X181397648Y-57619500D01*
X181373329Y-57623351D01*
X181195465Y-57651522D01*
X181000776Y-57714781D01*
X180818386Y-57807715D01*
X180652786Y-57928028D01*
X180508028Y-58072786D01*
X180387715Y-58238386D01*
X180294781Y-58420776D01*
X180231522Y-58615465D01*
X180199500Y-58817648D01*
X155000500Y-58817648D01*
X155000500Y-53504066D01*
X155000765Y-53495956D01*
X155007466Y-53393713D01*
X155017075Y-53247102D01*
X155019190Y-53231048D01*
X155067045Y-52990462D01*
X155071243Y-52974797D01*
X155110281Y-52859794D01*
X155150093Y-52742512D01*
X155156291Y-52727547D01*
X155264790Y-52507533D01*
X155272893Y-52493498D01*
X155409182Y-52289527D01*
X155419039Y-52276681D01*
X155580786Y-52092244D01*
X155592244Y-52080786D01*
X155776681Y-51919039D01*
X155789527Y-51909182D01*
X155993498Y-51772893D01*
X156007533Y-51764790D01*
X156227547Y-51656291D01*
X156242512Y-51650093D01*
X156406762Y-51594337D01*
X156474797Y-51571243D01*
X156490464Y-51567045D01*
X156731048Y-51519190D01*
X156747102Y-51517075D01*
X156995957Y-51500765D01*
X157004067Y-51500500D01*
X157065892Y-51500500D01*
X222934108Y-51500500D01*
X222995933Y-51500500D01*
X223004043Y-51500765D01*
G37*
%TD.AperFunction*%
%TD*%
M02*
