%TF.GenerationSoftware,KiCad,Pcbnew,9.0.7*%
%TF.CreationDate,2026-05-09T02:55:24-07:00*%
%TF.ProjectId,Speaker,53706561-6b65-4722-9e6b-696361645f70,rev?*%
%TF.SameCoordinates,Original*%
%TF.FileFunction,Legend,Top*%
%TF.FilePolarity,Positive*%
%FSLAX46Y46*%
G04 Gerber Fmt 4.6, Leading zero omitted, Abs format (unit mm)*
G04 Created by KiCad (PCBNEW 9.0.7) date 2026-05-09 02:55:24*
%MOMM*%
%LPD*%
G01*
G04 APERTURE LIST*
%ADD10C,0.100000*%
%ADD11C,0.160000*%
%ADD12C,0.150000*%
%ADD13C,0.120000*%
%ADD14C,0.000000*%
G04 APERTURE END LIST*
D10*
X219803884Y-96991466D02*
X220565789Y-96991466D01*
X219803884Y-93491466D02*
X220565789Y-93491466D01*
X220184836Y-93872419D02*
X220184836Y-93110514D01*
X209175312Y-93396895D02*
X208718169Y-93396895D01*
X208946741Y-93396895D02*
X208946741Y-92596895D01*
X208946741Y-92596895D02*
X208870550Y-92711180D01*
X208870550Y-92711180D02*
X208794360Y-92787371D01*
X208794360Y-92787371D02*
X208718169Y-92825466D01*
X209937217Y-93396895D02*
X209480074Y-93396895D01*
X209708646Y-93396895D02*
X209708646Y-92596895D01*
X209708646Y-92596895D02*
X209632455Y-92711180D01*
X209632455Y-92711180D02*
X209556265Y-92787371D01*
X209556265Y-92787371D02*
X209480074Y-92825466D01*
X210165789Y-92596895D02*
X210432456Y-93396895D01*
X210432456Y-93396895D02*
X210699122Y-92596895D01*
X210965789Y-93092133D02*
X211575313Y-93092133D01*
X211880074Y-92596895D02*
X212375312Y-92596895D01*
X212375312Y-92596895D02*
X212108646Y-92901657D01*
X212108646Y-92901657D02*
X212222931Y-92901657D01*
X212222931Y-92901657D02*
X212299122Y-92939752D01*
X212299122Y-92939752D02*
X212337217Y-92977847D01*
X212337217Y-92977847D02*
X212375312Y-93054038D01*
X212375312Y-93054038D02*
X212375312Y-93244514D01*
X212375312Y-93244514D02*
X212337217Y-93320704D01*
X212337217Y-93320704D02*
X212299122Y-93358800D01*
X212299122Y-93358800D02*
X212222931Y-93396895D01*
X212222931Y-93396895D02*
X211994360Y-93396895D01*
X211994360Y-93396895D02*
X211918169Y-93358800D01*
X211918169Y-93358800D02*
X211880074Y-93320704D01*
X213099122Y-92596895D02*
X212718170Y-92596895D01*
X212718170Y-92596895D02*
X212680074Y-92977847D01*
X212680074Y-92977847D02*
X212718170Y-92939752D01*
X212718170Y-92939752D02*
X212794360Y-92901657D01*
X212794360Y-92901657D02*
X212984836Y-92901657D01*
X212984836Y-92901657D02*
X213061027Y-92939752D01*
X213061027Y-92939752D02*
X213099122Y-92977847D01*
X213099122Y-92977847D02*
X213137217Y-93054038D01*
X213137217Y-93054038D02*
X213137217Y-93244514D01*
X213137217Y-93244514D02*
X213099122Y-93320704D01*
X213099122Y-93320704D02*
X213061027Y-93358800D01*
X213061027Y-93358800D02*
X212984836Y-93396895D01*
X212984836Y-93396895D02*
X212794360Y-93396895D01*
X212794360Y-93396895D02*
X212718170Y-93358800D01*
X212718170Y-93358800D02*
X212680074Y-93320704D01*
X213365789Y-92596895D02*
X213632456Y-93396895D01*
X213632456Y-93396895D02*
X213899122Y-92596895D01*
X208803884Y-93991466D02*
X209565789Y-93991466D01*
X209184836Y-94372419D02*
X209184836Y-93610514D01*
X211803884Y-93991466D02*
X212565789Y-93991466D01*
X165303884Y-93348609D02*
X165637217Y-93348609D01*
X165780074Y-93872419D02*
X165303884Y-93872419D01*
X165303884Y-93872419D02*
X165303884Y-92872419D01*
X165303884Y-92872419D02*
X165780074Y-92872419D01*
X166780074Y-93777180D02*
X166732455Y-93824800D01*
X166732455Y-93824800D02*
X166589598Y-93872419D01*
X166589598Y-93872419D02*
X166494360Y-93872419D01*
X166494360Y-93872419D02*
X166351503Y-93824800D01*
X166351503Y-93824800D02*
X166256265Y-93729561D01*
X166256265Y-93729561D02*
X166208646Y-93634323D01*
X166208646Y-93634323D02*
X166161027Y-93443847D01*
X166161027Y-93443847D02*
X166161027Y-93300990D01*
X166161027Y-93300990D02*
X166208646Y-93110514D01*
X166208646Y-93110514D02*
X166256265Y-93015276D01*
X166256265Y-93015276D02*
X166351503Y-92920038D01*
X166351503Y-92920038D02*
X166494360Y-92872419D01*
X166494360Y-92872419D02*
X166589598Y-92872419D01*
X166589598Y-92872419D02*
X166732455Y-92920038D01*
X166732455Y-92920038D02*
X166780074Y-92967657D01*
X167208646Y-93348609D02*
X167541979Y-93348609D01*
X167684836Y-93872419D02*
X167208646Y-93872419D01*
X167208646Y-93872419D02*
X167208646Y-92872419D01*
X167208646Y-92872419D02*
X167684836Y-92872419D01*
X168589598Y-92872419D02*
X168113408Y-92872419D01*
X168113408Y-92872419D02*
X168065789Y-93348609D01*
X168065789Y-93348609D02*
X168113408Y-93300990D01*
X168113408Y-93300990D02*
X168208646Y-93253371D01*
X168208646Y-93253371D02*
X168446741Y-93253371D01*
X168446741Y-93253371D02*
X168541979Y-93300990D01*
X168541979Y-93300990D02*
X168589598Y-93348609D01*
X168589598Y-93348609D02*
X168637217Y-93443847D01*
X168637217Y-93443847D02*
X168637217Y-93681942D01*
X168637217Y-93681942D02*
X168589598Y-93777180D01*
X168589598Y-93777180D02*
X168541979Y-93824800D01*
X168541979Y-93824800D02*
X168446741Y-93872419D01*
X168446741Y-93872419D02*
X168208646Y-93872419D01*
X168208646Y-93872419D02*
X168113408Y-93824800D01*
X168113408Y-93824800D02*
X168065789Y-93777180D01*
X165161027Y-90872419D02*
X165732455Y-90872419D01*
X165446741Y-91872419D02*
X165446741Y-90872419D01*
X166208646Y-91872419D02*
X166113408Y-91824800D01*
X166113408Y-91824800D02*
X166065789Y-91777180D01*
X166065789Y-91777180D02*
X166018170Y-91681942D01*
X166018170Y-91681942D02*
X166018170Y-91396228D01*
X166018170Y-91396228D02*
X166065789Y-91300990D01*
X166065789Y-91300990D02*
X166113408Y-91253371D01*
X166113408Y-91253371D02*
X166208646Y-91205752D01*
X166208646Y-91205752D02*
X166351503Y-91205752D01*
X166351503Y-91205752D02*
X166446741Y-91253371D01*
X166446741Y-91253371D02*
X166494360Y-91300990D01*
X166494360Y-91300990D02*
X166541979Y-91396228D01*
X166541979Y-91396228D02*
X166541979Y-91681942D01*
X166541979Y-91681942D02*
X166494360Y-91777180D01*
X166494360Y-91777180D02*
X166446741Y-91824800D01*
X166446741Y-91824800D02*
X166351503Y-91872419D01*
X166351503Y-91872419D02*
X166208646Y-91872419D01*
X166970551Y-91205752D02*
X166970551Y-91872419D01*
X166970551Y-91300990D02*
X167018170Y-91253371D01*
X167018170Y-91253371D02*
X167113408Y-91205752D01*
X167113408Y-91205752D02*
X167256265Y-91205752D01*
X167256265Y-91205752D02*
X167351503Y-91253371D01*
X167351503Y-91253371D02*
X167399122Y-91348609D01*
X167399122Y-91348609D02*
X167399122Y-91872419D01*
X167780075Y-91205752D02*
X168018170Y-91872419D01*
X168256265Y-91205752D02*
X168018170Y-91872419D01*
X168018170Y-91872419D02*
X167922932Y-92110514D01*
X167922932Y-92110514D02*
X167875313Y-92158133D01*
X167875313Y-92158133D02*
X167780075Y-92205752D01*
X169399123Y-91872419D02*
X169399123Y-90872419D01*
X169399123Y-90872419D02*
X169970551Y-91872419D01*
X169970551Y-91872419D02*
X169970551Y-90872419D01*
X170875313Y-91205752D02*
X170875313Y-92015276D01*
X170875313Y-92015276D02*
X170827694Y-92110514D01*
X170827694Y-92110514D02*
X170780075Y-92158133D01*
X170780075Y-92158133D02*
X170684837Y-92205752D01*
X170684837Y-92205752D02*
X170541980Y-92205752D01*
X170541980Y-92205752D02*
X170446742Y-92158133D01*
X170875313Y-91824800D02*
X170780075Y-91872419D01*
X170780075Y-91872419D02*
X170589599Y-91872419D01*
X170589599Y-91872419D02*
X170494361Y-91824800D01*
X170494361Y-91824800D02*
X170446742Y-91777180D01*
X170446742Y-91777180D02*
X170399123Y-91681942D01*
X170399123Y-91681942D02*
X170399123Y-91396228D01*
X170399123Y-91396228D02*
X170446742Y-91300990D01*
X170446742Y-91300990D02*
X170494361Y-91253371D01*
X170494361Y-91253371D02*
X170589599Y-91205752D01*
X170589599Y-91205752D02*
X170780075Y-91205752D01*
X170780075Y-91205752D02*
X170875313Y-91253371D01*
X171780075Y-91205752D02*
X171780075Y-91872419D01*
X171351504Y-91205752D02*
X171351504Y-91729561D01*
X171351504Y-91729561D02*
X171399123Y-91824800D01*
X171399123Y-91824800D02*
X171494361Y-91872419D01*
X171494361Y-91872419D02*
X171637218Y-91872419D01*
X171637218Y-91872419D02*
X171732456Y-91824800D01*
X171732456Y-91824800D02*
X171780075Y-91777180D01*
X172161028Y-91205752D02*
X172399123Y-91872419D01*
X172637218Y-91205752D02*
X172399123Y-91872419D01*
X172399123Y-91872419D02*
X172303885Y-92110514D01*
X172303885Y-92110514D02*
X172256266Y-92158133D01*
X172256266Y-92158133D02*
X172161028Y-92205752D01*
X173399123Y-91824800D02*
X173303885Y-91872419D01*
X173303885Y-91872419D02*
X173113409Y-91872419D01*
X173113409Y-91872419D02*
X173018171Y-91824800D01*
X173018171Y-91824800D02*
X172970552Y-91729561D01*
X172970552Y-91729561D02*
X172970552Y-91348609D01*
X172970552Y-91348609D02*
X173018171Y-91253371D01*
X173018171Y-91253371D02*
X173113409Y-91205752D01*
X173113409Y-91205752D02*
X173303885Y-91205752D01*
X173303885Y-91205752D02*
X173399123Y-91253371D01*
X173399123Y-91253371D02*
X173446742Y-91348609D01*
X173446742Y-91348609D02*
X173446742Y-91443847D01*
X173446742Y-91443847D02*
X172970552Y-91539085D01*
X173875314Y-91205752D02*
X173875314Y-91872419D01*
X173875314Y-91300990D02*
X173922933Y-91253371D01*
X173922933Y-91253371D02*
X174018171Y-91205752D01*
X174018171Y-91205752D02*
X174161028Y-91205752D01*
X174161028Y-91205752D02*
X174256266Y-91253371D01*
X174256266Y-91253371D02*
X174303885Y-91348609D01*
X174303885Y-91348609D02*
X174303885Y-91872419D01*
X179500000Y-76000000D02*
X189500000Y-76000000D01*
X189500000Y-86000000D01*
X179500000Y-86000000D01*
X179500000Y-76000000D01*
X190500000Y-76000000D02*
X200500000Y-76000000D01*
X200500000Y-86000000D01*
X190500000Y-86000000D01*
X190500000Y-76000000D01*
X163803884Y-93991466D02*
X164565789Y-93991466D01*
X164184836Y-94372419D02*
X164184836Y-93610514D01*
X163803884Y-96991466D02*
X164565789Y-96991466D01*
D11*
X179714786Y-53131870D02*
X179638596Y-53093775D01*
X179638596Y-53093775D02*
X179524310Y-53093775D01*
X179524310Y-53093775D02*
X179410024Y-53131870D01*
X179410024Y-53131870D02*
X179333834Y-53208060D01*
X179333834Y-53208060D02*
X179295739Y-53284251D01*
X179295739Y-53284251D02*
X179257643Y-53436632D01*
X179257643Y-53436632D02*
X179257643Y-53550918D01*
X179257643Y-53550918D02*
X179295739Y-53703299D01*
X179295739Y-53703299D02*
X179333834Y-53779489D01*
X179333834Y-53779489D02*
X179410024Y-53855680D01*
X179410024Y-53855680D02*
X179524310Y-53893775D01*
X179524310Y-53893775D02*
X179600501Y-53893775D01*
X179600501Y-53893775D02*
X179714786Y-53855680D01*
X179714786Y-53855680D02*
X179752882Y-53817584D01*
X179752882Y-53817584D02*
X179752882Y-53550918D01*
X179752882Y-53550918D02*
X179600501Y-53550918D01*
X180095739Y-53893775D02*
X180095739Y-53093775D01*
X180095739Y-53093775D02*
X180552882Y-53893775D01*
X180552882Y-53893775D02*
X180552882Y-53093775D01*
X180933834Y-53893775D02*
X180933834Y-53093775D01*
X180933834Y-53093775D02*
X181124310Y-53093775D01*
X181124310Y-53093775D02*
X181238596Y-53131870D01*
X181238596Y-53131870D02*
X181314786Y-53208060D01*
X181314786Y-53208060D02*
X181352881Y-53284251D01*
X181352881Y-53284251D02*
X181390977Y-53436632D01*
X181390977Y-53436632D02*
X181390977Y-53550918D01*
X181390977Y-53550918D02*
X181352881Y-53703299D01*
X181352881Y-53703299D02*
X181314786Y-53779489D01*
X181314786Y-53779489D02*
X181238596Y-53855680D01*
X181238596Y-53855680D02*
X181124310Y-53893775D01*
X181124310Y-53893775D02*
X180933834Y-53893775D01*
X182724310Y-53893775D02*
X182343358Y-53893775D01*
X182343358Y-53893775D02*
X182343358Y-53093775D01*
X184057644Y-53893775D02*
X183790977Y-53512822D01*
X183600501Y-53893775D02*
X183600501Y-53093775D01*
X183600501Y-53093775D02*
X183905263Y-53093775D01*
X183905263Y-53093775D02*
X183981453Y-53131870D01*
X183981453Y-53131870D02*
X184019548Y-53169965D01*
X184019548Y-53169965D02*
X184057644Y-53246156D01*
X184057644Y-53246156D02*
X184057644Y-53360441D01*
X184057644Y-53360441D02*
X184019548Y-53436632D01*
X184019548Y-53436632D02*
X183981453Y-53474727D01*
X183981453Y-53474727D02*
X183905263Y-53512822D01*
X183905263Y-53512822D02*
X183600501Y-53512822D01*
D12*
X217666666Y-90644819D02*
X217666666Y-91359104D01*
X217666666Y-91359104D02*
X217619047Y-91501961D01*
X217619047Y-91501961D02*
X217523809Y-91597200D01*
X217523809Y-91597200D02*
X217380952Y-91644819D01*
X217380952Y-91644819D02*
X217285714Y-91644819D01*
X218619047Y-90644819D02*
X218142857Y-90644819D01*
X218142857Y-90644819D02*
X218095238Y-91121009D01*
X218095238Y-91121009D02*
X218142857Y-91073390D01*
X218142857Y-91073390D02*
X218238095Y-91025771D01*
X218238095Y-91025771D02*
X218476190Y-91025771D01*
X218476190Y-91025771D02*
X218571428Y-91073390D01*
X218571428Y-91073390D02*
X218619047Y-91121009D01*
X218619047Y-91121009D02*
X218666666Y-91216247D01*
X218666666Y-91216247D02*
X218666666Y-91454342D01*
X218666666Y-91454342D02*
X218619047Y-91549580D01*
X218619047Y-91549580D02*
X218571428Y-91597200D01*
X218571428Y-91597200D02*
X218476190Y-91644819D01*
X218476190Y-91644819D02*
X218238095Y-91644819D01*
X218238095Y-91644819D02*
X218142857Y-91597200D01*
X218142857Y-91597200D02*
X218095238Y-91549580D01*
X203407200Y-94833332D02*
X203454819Y-94690475D01*
X203454819Y-94690475D02*
X203454819Y-94452380D01*
X203454819Y-94452380D02*
X203407200Y-94357142D01*
X203407200Y-94357142D02*
X203359580Y-94309523D01*
X203359580Y-94309523D02*
X203264342Y-94261904D01*
X203264342Y-94261904D02*
X203169104Y-94261904D01*
X203169104Y-94261904D02*
X203073866Y-94309523D01*
X203073866Y-94309523D02*
X203026247Y-94357142D01*
X203026247Y-94357142D02*
X202978628Y-94452380D01*
X202978628Y-94452380D02*
X202931009Y-94642856D01*
X202931009Y-94642856D02*
X202883390Y-94738094D01*
X202883390Y-94738094D02*
X202835771Y-94785713D01*
X202835771Y-94785713D02*
X202740533Y-94833332D01*
X202740533Y-94833332D02*
X202645295Y-94833332D01*
X202645295Y-94833332D02*
X202550057Y-94785713D01*
X202550057Y-94785713D02*
X202502438Y-94738094D01*
X202502438Y-94738094D02*
X202454819Y-94642856D01*
X202454819Y-94642856D02*
X202454819Y-94404761D01*
X202454819Y-94404761D02*
X202502438Y-94261904D01*
X202454819Y-93928570D02*
X203454819Y-93690475D01*
X203454819Y-93690475D02*
X202740533Y-93499999D01*
X202740533Y-93499999D02*
X203454819Y-93309523D01*
X203454819Y-93309523D02*
X202454819Y-93071428D01*
X203454819Y-92166666D02*
X203454819Y-92738094D01*
X203454819Y-92452380D02*
X202454819Y-92452380D01*
X202454819Y-92452380D02*
X202597676Y-92547618D01*
X202597676Y-92547618D02*
X202692914Y-92642856D01*
X202692914Y-92642856D02*
X202740533Y-92738094D01*
X194954819Y-95738094D02*
X193954819Y-95738094D01*
X193954819Y-95738094D02*
X193954819Y-95499999D01*
X193954819Y-95499999D02*
X194002438Y-95357142D01*
X194002438Y-95357142D02*
X194097676Y-95261904D01*
X194097676Y-95261904D02*
X194192914Y-95214285D01*
X194192914Y-95214285D02*
X194383390Y-95166666D01*
X194383390Y-95166666D02*
X194526247Y-95166666D01*
X194526247Y-95166666D02*
X194716723Y-95214285D01*
X194716723Y-95214285D02*
X194811961Y-95261904D01*
X194811961Y-95261904D02*
X194907200Y-95357142D01*
X194907200Y-95357142D02*
X194954819Y-95499999D01*
X194954819Y-95499999D02*
X194954819Y-95738094D01*
X194954819Y-94214285D02*
X194954819Y-94785713D01*
X194954819Y-94499999D02*
X193954819Y-94499999D01*
X193954819Y-94499999D02*
X194097676Y-94595237D01*
X194097676Y-94595237D02*
X194192914Y-94690475D01*
X194192914Y-94690475D02*
X194240533Y-94785713D01*
X207904762Y-89454819D02*
X208095238Y-89454819D01*
X208095238Y-89454819D02*
X208190476Y-89407200D01*
X208190476Y-89407200D02*
X208238095Y-89359580D01*
X208238095Y-89359580D02*
X208333333Y-89216723D01*
X208333333Y-89216723D02*
X208380952Y-89026247D01*
X208380952Y-89026247D02*
X208380952Y-88645295D01*
X208380952Y-88645295D02*
X208333333Y-88550057D01*
X208333333Y-88550057D02*
X208285714Y-88502438D01*
X208285714Y-88502438D02*
X208190476Y-88454819D01*
X208190476Y-88454819D02*
X208000000Y-88454819D01*
X208000000Y-88454819D02*
X207904762Y-88502438D01*
X207904762Y-88502438D02*
X207857143Y-88550057D01*
X207857143Y-88550057D02*
X207809524Y-88645295D01*
X207809524Y-88645295D02*
X207809524Y-88883390D01*
X207809524Y-88883390D02*
X207857143Y-88978628D01*
X207857143Y-88978628D02*
X207904762Y-89026247D01*
X207904762Y-89026247D02*
X208000000Y-89073866D01*
X208000000Y-89073866D02*
X208190476Y-89073866D01*
X208190476Y-89073866D02*
X208285714Y-89026247D01*
X208285714Y-89026247D02*
X208333333Y-88978628D01*
X208333333Y-88978628D02*
X208380952Y-88883390D01*
X208666667Y-88454819D02*
X209000000Y-89454819D01*
X209000000Y-89454819D02*
X209333333Y-88454819D01*
X209666667Y-88931009D02*
X210428572Y-88931009D01*
X210428572Y-89216723D02*
X209666667Y-89216723D01*
X211476190Y-89359580D02*
X211428571Y-89407200D01*
X211428571Y-89407200D02*
X211285714Y-89454819D01*
X211285714Y-89454819D02*
X211190476Y-89454819D01*
X211190476Y-89454819D02*
X211047619Y-89407200D01*
X211047619Y-89407200D02*
X210952381Y-89311961D01*
X210952381Y-89311961D02*
X210904762Y-89216723D01*
X210904762Y-89216723D02*
X210857143Y-89026247D01*
X210857143Y-89026247D02*
X210857143Y-88883390D01*
X210857143Y-88883390D02*
X210904762Y-88692914D01*
X210904762Y-88692914D02*
X210952381Y-88597676D01*
X210952381Y-88597676D02*
X211047619Y-88502438D01*
X211047619Y-88502438D02*
X211190476Y-88454819D01*
X211190476Y-88454819D02*
X211285714Y-88454819D01*
X211285714Y-88454819D02*
X211428571Y-88502438D01*
X211428571Y-88502438D02*
X211476190Y-88550057D01*
X212380952Y-89454819D02*
X211904762Y-89454819D01*
X211904762Y-89454819D02*
X211904762Y-88454819D01*
X212904762Y-88454819D02*
X213095238Y-88454819D01*
X213095238Y-88454819D02*
X213190476Y-88502438D01*
X213190476Y-88502438D02*
X213285714Y-88597676D01*
X213285714Y-88597676D02*
X213333333Y-88788152D01*
X213333333Y-88788152D02*
X213333333Y-89121485D01*
X213333333Y-89121485D02*
X213285714Y-89311961D01*
X213285714Y-89311961D02*
X213190476Y-89407200D01*
X213190476Y-89407200D02*
X213095238Y-89454819D01*
X213095238Y-89454819D02*
X212904762Y-89454819D01*
X212904762Y-89454819D02*
X212809524Y-89407200D01*
X212809524Y-89407200D02*
X212714286Y-89311961D01*
X212714286Y-89311961D02*
X212666667Y-89121485D01*
X212666667Y-89121485D02*
X212666667Y-88788152D01*
X212666667Y-88788152D02*
X212714286Y-88597676D01*
X212714286Y-88597676D02*
X212809524Y-88502438D01*
X212809524Y-88502438D02*
X212904762Y-88454819D01*
X213714286Y-89407200D02*
X213857143Y-89454819D01*
X213857143Y-89454819D02*
X214095238Y-89454819D01*
X214095238Y-89454819D02*
X214190476Y-89407200D01*
X214190476Y-89407200D02*
X214238095Y-89359580D01*
X214238095Y-89359580D02*
X214285714Y-89264342D01*
X214285714Y-89264342D02*
X214285714Y-89169104D01*
X214285714Y-89169104D02*
X214238095Y-89073866D01*
X214238095Y-89073866D02*
X214190476Y-89026247D01*
X214190476Y-89026247D02*
X214095238Y-88978628D01*
X214095238Y-88978628D02*
X213904762Y-88931009D01*
X213904762Y-88931009D02*
X213809524Y-88883390D01*
X213809524Y-88883390D02*
X213761905Y-88835771D01*
X213761905Y-88835771D02*
X213714286Y-88740533D01*
X213714286Y-88740533D02*
X213714286Y-88645295D01*
X213714286Y-88645295D02*
X213761905Y-88550057D01*
X213761905Y-88550057D02*
X213809524Y-88502438D01*
X213809524Y-88502438D02*
X213904762Y-88454819D01*
X213904762Y-88454819D02*
X214142857Y-88454819D01*
X214142857Y-88454819D02*
X214285714Y-88502438D01*
X214714286Y-88931009D02*
X215047619Y-88931009D01*
X215190476Y-89454819D02*
X214714286Y-89454819D01*
X214714286Y-89454819D02*
X214714286Y-88454819D01*
X214714286Y-88454819D02*
X215190476Y-88454819D01*
X193833333Y-74359580D02*
X193785714Y-74407200D01*
X193785714Y-74407200D02*
X193642857Y-74454819D01*
X193642857Y-74454819D02*
X193547619Y-74454819D01*
X193547619Y-74454819D02*
X193404762Y-74407200D01*
X193404762Y-74407200D02*
X193309524Y-74311961D01*
X193309524Y-74311961D02*
X193261905Y-74216723D01*
X193261905Y-74216723D02*
X193214286Y-74026247D01*
X193214286Y-74026247D02*
X193214286Y-73883390D01*
X193214286Y-73883390D02*
X193261905Y-73692914D01*
X193261905Y-73692914D02*
X193309524Y-73597676D01*
X193309524Y-73597676D02*
X193404762Y-73502438D01*
X193404762Y-73502438D02*
X193547619Y-73454819D01*
X193547619Y-73454819D02*
X193642857Y-73454819D01*
X193642857Y-73454819D02*
X193785714Y-73502438D01*
X193785714Y-73502438D02*
X193833333Y-73550057D01*
X194404762Y-73883390D02*
X194309524Y-73835771D01*
X194309524Y-73835771D02*
X194261905Y-73788152D01*
X194261905Y-73788152D02*
X194214286Y-73692914D01*
X194214286Y-73692914D02*
X194214286Y-73645295D01*
X194214286Y-73645295D02*
X194261905Y-73550057D01*
X194261905Y-73550057D02*
X194309524Y-73502438D01*
X194309524Y-73502438D02*
X194404762Y-73454819D01*
X194404762Y-73454819D02*
X194595238Y-73454819D01*
X194595238Y-73454819D02*
X194690476Y-73502438D01*
X194690476Y-73502438D02*
X194738095Y-73550057D01*
X194738095Y-73550057D02*
X194785714Y-73645295D01*
X194785714Y-73645295D02*
X194785714Y-73692914D01*
X194785714Y-73692914D02*
X194738095Y-73788152D01*
X194738095Y-73788152D02*
X194690476Y-73835771D01*
X194690476Y-73835771D02*
X194595238Y-73883390D01*
X194595238Y-73883390D02*
X194404762Y-73883390D01*
X194404762Y-73883390D02*
X194309524Y-73931009D01*
X194309524Y-73931009D02*
X194261905Y-73978628D01*
X194261905Y-73978628D02*
X194214286Y-74073866D01*
X194214286Y-74073866D02*
X194214286Y-74264342D01*
X194214286Y-74264342D02*
X194261905Y-74359580D01*
X194261905Y-74359580D02*
X194309524Y-74407200D01*
X194309524Y-74407200D02*
X194404762Y-74454819D01*
X194404762Y-74454819D02*
X194595238Y-74454819D01*
X194595238Y-74454819D02*
X194690476Y-74407200D01*
X194690476Y-74407200D02*
X194738095Y-74359580D01*
X194738095Y-74359580D02*
X194785714Y-74264342D01*
X194785714Y-74264342D02*
X194785714Y-74073866D01*
X194785714Y-74073866D02*
X194738095Y-73978628D01*
X194738095Y-73978628D02*
X194690476Y-73931009D01*
X194690476Y-73931009D02*
X194595238Y-73883390D01*
X178954819Y-81595238D02*
X178478628Y-81928571D01*
X178954819Y-82166666D02*
X177954819Y-82166666D01*
X177954819Y-82166666D02*
X177954819Y-81785714D01*
X177954819Y-81785714D02*
X178002438Y-81690476D01*
X178002438Y-81690476D02*
X178050057Y-81642857D01*
X178050057Y-81642857D02*
X178145295Y-81595238D01*
X178145295Y-81595238D02*
X178288152Y-81595238D01*
X178288152Y-81595238D02*
X178383390Y-81642857D01*
X178383390Y-81642857D02*
X178431009Y-81690476D01*
X178431009Y-81690476D02*
X178478628Y-81785714D01*
X178478628Y-81785714D02*
X178478628Y-82166666D01*
X177954819Y-81309523D02*
X178954819Y-80976190D01*
X178954819Y-80976190D02*
X177954819Y-80642857D01*
X178954819Y-79785714D02*
X178954819Y-80357142D01*
X178954819Y-80071428D02*
X177954819Y-80071428D01*
X177954819Y-80071428D02*
X178097676Y-80166666D01*
X178097676Y-80166666D02*
X178192914Y-80261904D01*
X178192914Y-80261904D02*
X178240533Y-80357142D01*
X172518333Y-89299580D02*
X172470714Y-89347200D01*
X172470714Y-89347200D02*
X172327857Y-89394819D01*
X172327857Y-89394819D02*
X172232619Y-89394819D01*
X172232619Y-89394819D02*
X172089762Y-89347200D01*
X172089762Y-89347200D02*
X171994524Y-89251961D01*
X171994524Y-89251961D02*
X171946905Y-89156723D01*
X171946905Y-89156723D02*
X171899286Y-88966247D01*
X171899286Y-88966247D02*
X171899286Y-88823390D01*
X171899286Y-88823390D02*
X171946905Y-88632914D01*
X171946905Y-88632914D02*
X171994524Y-88537676D01*
X171994524Y-88537676D02*
X172089762Y-88442438D01*
X172089762Y-88442438D02*
X172232619Y-88394819D01*
X172232619Y-88394819D02*
X172327857Y-88394819D01*
X172327857Y-88394819D02*
X172470714Y-88442438D01*
X172470714Y-88442438D02*
X172518333Y-88490057D01*
X172994524Y-89394819D02*
X173185000Y-89394819D01*
X173185000Y-89394819D02*
X173280238Y-89347200D01*
X173280238Y-89347200D02*
X173327857Y-89299580D01*
X173327857Y-89299580D02*
X173423095Y-89156723D01*
X173423095Y-89156723D02*
X173470714Y-88966247D01*
X173470714Y-88966247D02*
X173470714Y-88585295D01*
X173470714Y-88585295D02*
X173423095Y-88490057D01*
X173423095Y-88490057D02*
X173375476Y-88442438D01*
X173375476Y-88442438D02*
X173280238Y-88394819D01*
X173280238Y-88394819D02*
X173089762Y-88394819D01*
X173089762Y-88394819D02*
X172994524Y-88442438D01*
X172994524Y-88442438D02*
X172946905Y-88490057D01*
X172946905Y-88490057D02*
X172899286Y-88585295D01*
X172899286Y-88585295D02*
X172899286Y-88823390D01*
X172899286Y-88823390D02*
X172946905Y-88918628D01*
X172946905Y-88918628D02*
X172994524Y-88966247D01*
X172994524Y-88966247D02*
X173089762Y-89013866D01*
X173089762Y-89013866D02*
X173280238Y-89013866D01*
X173280238Y-89013866D02*
X173375476Y-88966247D01*
X173375476Y-88966247D02*
X173423095Y-88918628D01*
X173423095Y-88918628D02*
X173470714Y-88823390D01*
X166051754Y-70932239D02*
X166099374Y-70979858D01*
X166099374Y-70979858D02*
X166146993Y-71122715D01*
X166146993Y-71122715D02*
X166146993Y-71217953D01*
X166146993Y-71217953D02*
X166099374Y-71360810D01*
X166099374Y-71360810D02*
X166004135Y-71456048D01*
X166004135Y-71456048D02*
X165908897Y-71503667D01*
X165908897Y-71503667D02*
X165718421Y-71551286D01*
X165718421Y-71551286D02*
X165575564Y-71551286D01*
X165575564Y-71551286D02*
X165385088Y-71503667D01*
X165385088Y-71503667D02*
X165289850Y-71456048D01*
X165289850Y-71456048D02*
X165194612Y-71360810D01*
X165194612Y-71360810D02*
X165146993Y-71217953D01*
X165146993Y-71217953D02*
X165146993Y-71122715D01*
X165146993Y-71122715D02*
X165194612Y-70979858D01*
X165194612Y-70979858D02*
X165242231Y-70932239D01*
X166146993Y-69979858D02*
X166146993Y-70551286D01*
X166146993Y-70265572D02*
X165146993Y-70265572D01*
X165146993Y-70265572D02*
X165289850Y-70360810D01*
X165289850Y-70360810D02*
X165385088Y-70456048D01*
X165385088Y-70456048D02*
X165432707Y-70551286D01*
X166146993Y-69027477D02*
X166146993Y-69598905D01*
X166146993Y-69313191D02*
X165146993Y-69313191D01*
X165146993Y-69313191D02*
X165289850Y-69408429D01*
X165289850Y-69408429D02*
X165385088Y-69503667D01*
X165385088Y-69503667D02*
X165432707Y-69598905D01*
X159859580Y-62642857D02*
X159907200Y-62690476D01*
X159907200Y-62690476D02*
X159954819Y-62833333D01*
X159954819Y-62833333D02*
X159954819Y-62928571D01*
X159954819Y-62928571D02*
X159907200Y-63071428D01*
X159907200Y-63071428D02*
X159811961Y-63166666D01*
X159811961Y-63166666D02*
X159716723Y-63214285D01*
X159716723Y-63214285D02*
X159526247Y-63261904D01*
X159526247Y-63261904D02*
X159383390Y-63261904D01*
X159383390Y-63261904D02*
X159192914Y-63214285D01*
X159192914Y-63214285D02*
X159097676Y-63166666D01*
X159097676Y-63166666D02*
X159002438Y-63071428D01*
X159002438Y-63071428D02*
X158954819Y-62928571D01*
X158954819Y-62928571D02*
X158954819Y-62833333D01*
X158954819Y-62833333D02*
X159002438Y-62690476D01*
X159002438Y-62690476D02*
X159050057Y-62642857D01*
X159954819Y-61690476D02*
X159954819Y-62261904D01*
X159954819Y-61976190D02*
X158954819Y-61976190D01*
X158954819Y-61976190D02*
X159097676Y-62071428D01*
X159097676Y-62071428D02*
X159192914Y-62166666D01*
X159192914Y-62166666D02*
X159240533Y-62261904D01*
X158954819Y-61357142D02*
X158954819Y-60738095D01*
X158954819Y-60738095D02*
X159335771Y-61071428D01*
X159335771Y-61071428D02*
X159335771Y-60928571D01*
X159335771Y-60928571D02*
X159383390Y-60833333D01*
X159383390Y-60833333D02*
X159431009Y-60785714D01*
X159431009Y-60785714D02*
X159526247Y-60738095D01*
X159526247Y-60738095D02*
X159764342Y-60738095D01*
X159764342Y-60738095D02*
X159859580Y-60785714D01*
X159859580Y-60785714D02*
X159907200Y-60833333D01*
X159907200Y-60833333D02*
X159954819Y-60928571D01*
X159954819Y-60928571D02*
X159954819Y-61214285D01*
X159954819Y-61214285D02*
X159907200Y-61309523D01*
X159907200Y-61309523D02*
X159859580Y-61357142D01*
X206989465Y-54609580D02*
X206941846Y-54657200D01*
X206941846Y-54657200D02*
X206798989Y-54704819D01*
X206798989Y-54704819D02*
X206703751Y-54704819D01*
X206703751Y-54704819D02*
X206560894Y-54657200D01*
X206560894Y-54657200D02*
X206465656Y-54561961D01*
X206465656Y-54561961D02*
X206418037Y-54466723D01*
X206418037Y-54466723D02*
X206370418Y-54276247D01*
X206370418Y-54276247D02*
X206370418Y-54133390D01*
X206370418Y-54133390D02*
X206418037Y-53942914D01*
X206418037Y-53942914D02*
X206465656Y-53847676D01*
X206465656Y-53847676D02*
X206560894Y-53752438D01*
X206560894Y-53752438D02*
X206703751Y-53704819D01*
X206703751Y-53704819D02*
X206798989Y-53704819D01*
X206798989Y-53704819D02*
X206941846Y-53752438D01*
X206941846Y-53752438D02*
X206989465Y-53800057D01*
X207941846Y-54704819D02*
X207370418Y-54704819D01*
X207656132Y-54704819D02*
X207656132Y-53704819D01*
X207656132Y-53704819D02*
X207560894Y-53847676D01*
X207560894Y-53847676D02*
X207465656Y-53942914D01*
X207465656Y-53942914D02*
X207370418Y-53990533D01*
X208560894Y-53704819D02*
X208656132Y-53704819D01*
X208656132Y-53704819D02*
X208751370Y-53752438D01*
X208751370Y-53752438D02*
X208798989Y-53800057D01*
X208798989Y-53800057D02*
X208846608Y-53895295D01*
X208846608Y-53895295D02*
X208894227Y-54085771D01*
X208894227Y-54085771D02*
X208894227Y-54323866D01*
X208894227Y-54323866D02*
X208846608Y-54514342D01*
X208846608Y-54514342D02*
X208798989Y-54609580D01*
X208798989Y-54609580D02*
X208751370Y-54657200D01*
X208751370Y-54657200D02*
X208656132Y-54704819D01*
X208656132Y-54704819D02*
X208560894Y-54704819D01*
X208560894Y-54704819D02*
X208465656Y-54657200D01*
X208465656Y-54657200D02*
X208418037Y-54609580D01*
X208418037Y-54609580D02*
X208370418Y-54514342D01*
X208370418Y-54514342D02*
X208322799Y-54323866D01*
X208322799Y-54323866D02*
X208322799Y-54085771D01*
X208322799Y-54085771D02*
X208370418Y-53895295D01*
X208370418Y-53895295D02*
X208418037Y-53800057D01*
X208418037Y-53800057D02*
X208465656Y-53752438D01*
X208465656Y-53752438D02*
X208560894Y-53704819D01*
X214359580Y-65642857D02*
X214407200Y-65690476D01*
X214407200Y-65690476D02*
X214454819Y-65833333D01*
X214454819Y-65833333D02*
X214454819Y-65928571D01*
X214454819Y-65928571D02*
X214407200Y-66071428D01*
X214407200Y-66071428D02*
X214311961Y-66166666D01*
X214311961Y-66166666D02*
X214216723Y-66214285D01*
X214216723Y-66214285D02*
X214026247Y-66261904D01*
X214026247Y-66261904D02*
X213883390Y-66261904D01*
X213883390Y-66261904D02*
X213692914Y-66214285D01*
X213692914Y-66214285D02*
X213597676Y-66166666D01*
X213597676Y-66166666D02*
X213502438Y-66071428D01*
X213502438Y-66071428D02*
X213454819Y-65928571D01*
X213454819Y-65928571D02*
X213454819Y-65833333D01*
X213454819Y-65833333D02*
X213502438Y-65690476D01*
X213502438Y-65690476D02*
X213550057Y-65642857D01*
X214454819Y-64690476D02*
X214454819Y-65261904D01*
X214454819Y-64976190D02*
X213454819Y-64976190D01*
X213454819Y-64976190D02*
X213597676Y-65071428D01*
X213597676Y-65071428D02*
X213692914Y-65166666D01*
X213692914Y-65166666D02*
X213740533Y-65261904D01*
X213550057Y-64309523D02*
X213502438Y-64261904D01*
X213502438Y-64261904D02*
X213454819Y-64166666D01*
X213454819Y-64166666D02*
X213454819Y-63928571D01*
X213454819Y-63928571D02*
X213502438Y-63833333D01*
X213502438Y-63833333D02*
X213550057Y-63785714D01*
X213550057Y-63785714D02*
X213645295Y-63738095D01*
X213645295Y-63738095D02*
X213740533Y-63738095D01*
X213740533Y-63738095D02*
X213883390Y-63785714D01*
X213883390Y-63785714D02*
X214454819Y-64357142D01*
X214454819Y-64357142D02*
X214454819Y-63738095D01*
X161191666Y-90644819D02*
X161191666Y-91359104D01*
X161191666Y-91359104D02*
X161144047Y-91501961D01*
X161144047Y-91501961D02*
X161048809Y-91597200D01*
X161048809Y-91597200D02*
X160905952Y-91644819D01*
X160905952Y-91644819D02*
X160810714Y-91644819D01*
X162096428Y-90978152D02*
X162096428Y-91644819D01*
X161858333Y-90597200D02*
X161620238Y-91311485D01*
X161620238Y-91311485D02*
X162239285Y-91311485D01*
X220824819Y-70586666D02*
X220348628Y-70919999D01*
X220824819Y-71158094D02*
X219824819Y-71158094D01*
X219824819Y-71158094D02*
X219824819Y-70777142D01*
X219824819Y-70777142D02*
X219872438Y-70681904D01*
X219872438Y-70681904D02*
X219920057Y-70634285D01*
X219920057Y-70634285D02*
X220015295Y-70586666D01*
X220015295Y-70586666D02*
X220158152Y-70586666D01*
X220158152Y-70586666D02*
X220253390Y-70634285D01*
X220253390Y-70634285D02*
X220301009Y-70681904D01*
X220301009Y-70681904D02*
X220348628Y-70777142D01*
X220348628Y-70777142D02*
X220348628Y-71158094D01*
X219824819Y-69729523D02*
X219824819Y-69919999D01*
X219824819Y-69919999D02*
X219872438Y-70015237D01*
X219872438Y-70015237D02*
X219920057Y-70062856D01*
X219920057Y-70062856D02*
X220062914Y-70158094D01*
X220062914Y-70158094D02*
X220253390Y-70205713D01*
X220253390Y-70205713D02*
X220634342Y-70205713D01*
X220634342Y-70205713D02*
X220729580Y-70158094D01*
X220729580Y-70158094D02*
X220777200Y-70110475D01*
X220777200Y-70110475D02*
X220824819Y-70015237D01*
X220824819Y-70015237D02*
X220824819Y-69824761D01*
X220824819Y-69824761D02*
X220777200Y-69729523D01*
X220777200Y-69729523D02*
X220729580Y-69681904D01*
X220729580Y-69681904D02*
X220634342Y-69634285D01*
X220634342Y-69634285D02*
X220396247Y-69634285D01*
X220396247Y-69634285D02*
X220301009Y-69681904D01*
X220301009Y-69681904D02*
X220253390Y-69729523D01*
X220253390Y-69729523D02*
X220205771Y-69824761D01*
X220205771Y-69824761D02*
X220205771Y-70015237D01*
X220205771Y-70015237D02*
X220253390Y-70110475D01*
X220253390Y-70110475D02*
X220301009Y-70158094D01*
X220301009Y-70158094D02*
X220396247Y-70205713D01*
X201954819Y-81595238D02*
X201478628Y-81928571D01*
X201954819Y-82166666D02*
X200954819Y-82166666D01*
X200954819Y-82166666D02*
X200954819Y-81785714D01*
X200954819Y-81785714D02*
X201002438Y-81690476D01*
X201002438Y-81690476D02*
X201050057Y-81642857D01*
X201050057Y-81642857D02*
X201145295Y-81595238D01*
X201145295Y-81595238D02*
X201288152Y-81595238D01*
X201288152Y-81595238D02*
X201383390Y-81642857D01*
X201383390Y-81642857D02*
X201431009Y-81690476D01*
X201431009Y-81690476D02*
X201478628Y-81785714D01*
X201478628Y-81785714D02*
X201478628Y-82166666D01*
X200954819Y-81309523D02*
X201954819Y-80976190D01*
X201954819Y-80976190D02*
X200954819Y-80642857D01*
X201050057Y-80357142D02*
X201002438Y-80309523D01*
X201002438Y-80309523D02*
X200954819Y-80214285D01*
X200954819Y-80214285D02*
X200954819Y-79976190D01*
X200954819Y-79976190D02*
X201002438Y-79880952D01*
X201002438Y-79880952D02*
X201050057Y-79833333D01*
X201050057Y-79833333D02*
X201145295Y-79785714D01*
X201145295Y-79785714D02*
X201240533Y-79785714D01*
X201240533Y-79785714D02*
X201383390Y-79833333D01*
X201383390Y-79833333D02*
X201954819Y-80404761D01*
X201954819Y-80404761D02*
X201954819Y-79785714D01*
X207735984Y-87109580D02*
X207688365Y-87157200D01*
X207688365Y-87157200D02*
X207545508Y-87204819D01*
X207545508Y-87204819D02*
X207450270Y-87204819D01*
X207450270Y-87204819D02*
X207307413Y-87157200D01*
X207307413Y-87157200D02*
X207212175Y-87061961D01*
X207212175Y-87061961D02*
X207164556Y-86966723D01*
X207164556Y-86966723D02*
X207116937Y-86776247D01*
X207116937Y-86776247D02*
X207116937Y-86633390D01*
X207116937Y-86633390D02*
X207164556Y-86442914D01*
X207164556Y-86442914D02*
X207212175Y-86347676D01*
X207212175Y-86347676D02*
X207307413Y-86252438D01*
X207307413Y-86252438D02*
X207450270Y-86204819D01*
X207450270Y-86204819D02*
X207545508Y-86204819D01*
X207545508Y-86204819D02*
X207688365Y-86252438D01*
X207688365Y-86252438D02*
X207735984Y-86300057D01*
X208593127Y-86204819D02*
X208402651Y-86204819D01*
X208402651Y-86204819D02*
X208307413Y-86252438D01*
X208307413Y-86252438D02*
X208259794Y-86300057D01*
X208259794Y-86300057D02*
X208164556Y-86442914D01*
X208164556Y-86442914D02*
X208116937Y-86633390D01*
X208116937Y-86633390D02*
X208116937Y-87014342D01*
X208116937Y-87014342D02*
X208164556Y-87109580D01*
X208164556Y-87109580D02*
X208212175Y-87157200D01*
X208212175Y-87157200D02*
X208307413Y-87204819D01*
X208307413Y-87204819D02*
X208497889Y-87204819D01*
X208497889Y-87204819D02*
X208593127Y-87157200D01*
X208593127Y-87157200D02*
X208640746Y-87109580D01*
X208640746Y-87109580D02*
X208688365Y-87014342D01*
X208688365Y-87014342D02*
X208688365Y-86776247D01*
X208688365Y-86776247D02*
X208640746Y-86681009D01*
X208640746Y-86681009D02*
X208593127Y-86633390D01*
X208593127Y-86633390D02*
X208497889Y-86585771D01*
X208497889Y-86585771D02*
X208307413Y-86585771D01*
X208307413Y-86585771D02*
X208212175Y-86633390D01*
X208212175Y-86633390D02*
X208164556Y-86681009D01*
X208164556Y-86681009D02*
X208116937Y-86776247D01*
X193833333Y-71859580D02*
X193785714Y-71907200D01*
X193785714Y-71907200D02*
X193642857Y-71954819D01*
X193642857Y-71954819D02*
X193547619Y-71954819D01*
X193547619Y-71954819D02*
X193404762Y-71907200D01*
X193404762Y-71907200D02*
X193309524Y-71811961D01*
X193309524Y-71811961D02*
X193261905Y-71716723D01*
X193261905Y-71716723D02*
X193214286Y-71526247D01*
X193214286Y-71526247D02*
X193214286Y-71383390D01*
X193214286Y-71383390D02*
X193261905Y-71192914D01*
X193261905Y-71192914D02*
X193309524Y-71097676D01*
X193309524Y-71097676D02*
X193404762Y-71002438D01*
X193404762Y-71002438D02*
X193547619Y-70954819D01*
X193547619Y-70954819D02*
X193642857Y-70954819D01*
X193642857Y-70954819D02*
X193785714Y-71002438D01*
X193785714Y-71002438D02*
X193833333Y-71050057D01*
X194690476Y-71288152D02*
X194690476Y-71954819D01*
X194452381Y-70907200D02*
X194214286Y-71621485D01*
X194214286Y-71621485D02*
X194833333Y-71621485D01*
X159454819Y-71166666D02*
X158978628Y-71499999D01*
X159454819Y-71738094D02*
X158454819Y-71738094D01*
X158454819Y-71738094D02*
X158454819Y-71357142D01*
X158454819Y-71357142D02*
X158502438Y-71261904D01*
X158502438Y-71261904D02*
X158550057Y-71214285D01*
X158550057Y-71214285D02*
X158645295Y-71166666D01*
X158645295Y-71166666D02*
X158788152Y-71166666D01*
X158788152Y-71166666D02*
X158883390Y-71214285D01*
X158883390Y-71214285D02*
X158931009Y-71261904D01*
X158931009Y-71261904D02*
X158978628Y-71357142D01*
X158978628Y-71357142D02*
X158978628Y-71738094D01*
X158454819Y-70261904D02*
X158454819Y-70738094D01*
X158454819Y-70738094D02*
X158931009Y-70785713D01*
X158931009Y-70785713D02*
X158883390Y-70738094D01*
X158883390Y-70738094D02*
X158835771Y-70642856D01*
X158835771Y-70642856D02*
X158835771Y-70404761D01*
X158835771Y-70404761D02*
X158883390Y-70309523D01*
X158883390Y-70309523D02*
X158931009Y-70261904D01*
X158931009Y-70261904D02*
X159026247Y-70214285D01*
X159026247Y-70214285D02*
X159264342Y-70214285D01*
X159264342Y-70214285D02*
X159359580Y-70261904D01*
X159359580Y-70261904D02*
X159407200Y-70309523D01*
X159407200Y-70309523D02*
X159454819Y-70404761D01*
X159454819Y-70404761D02*
X159454819Y-70642856D01*
X159454819Y-70642856D02*
X159407200Y-70738094D01*
X159407200Y-70738094D02*
X159359580Y-70785713D01*
X220259580Y-62137503D02*
X220307200Y-62185122D01*
X220307200Y-62185122D02*
X220354819Y-62327979D01*
X220354819Y-62327979D02*
X220354819Y-62423217D01*
X220354819Y-62423217D02*
X220307200Y-62566074D01*
X220307200Y-62566074D02*
X220211961Y-62661312D01*
X220211961Y-62661312D02*
X220116723Y-62708931D01*
X220116723Y-62708931D02*
X219926247Y-62756550D01*
X219926247Y-62756550D02*
X219783390Y-62756550D01*
X219783390Y-62756550D02*
X219592914Y-62708931D01*
X219592914Y-62708931D02*
X219497676Y-62661312D01*
X219497676Y-62661312D02*
X219402438Y-62566074D01*
X219402438Y-62566074D02*
X219354819Y-62423217D01*
X219354819Y-62423217D02*
X219354819Y-62327979D01*
X219354819Y-62327979D02*
X219402438Y-62185122D01*
X219402438Y-62185122D02*
X219450057Y-62137503D01*
X220354819Y-61185122D02*
X220354819Y-61756550D01*
X220354819Y-61470836D02*
X219354819Y-61470836D01*
X219354819Y-61470836D02*
X219497676Y-61566074D01*
X219497676Y-61566074D02*
X219592914Y-61661312D01*
X219592914Y-61661312D02*
X219640533Y-61756550D01*
X219688152Y-60327979D02*
X220354819Y-60327979D01*
X219307200Y-60566074D02*
X220021485Y-60804169D01*
X220021485Y-60804169D02*
X220021485Y-60185122D01*
X184333333Y-56859580D02*
X184285714Y-56907200D01*
X184285714Y-56907200D02*
X184142857Y-56954819D01*
X184142857Y-56954819D02*
X184047619Y-56954819D01*
X184047619Y-56954819D02*
X183904762Y-56907200D01*
X183904762Y-56907200D02*
X183809524Y-56811961D01*
X183809524Y-56811961D02*
X183761905Y-56716723D01*
X183761905Y-56716723D02*
X183714286Y-56526247D01*
X183714286Y-56526247D02*
X183714286Y-56383390D01*
X183714286Y-56383390D02*
X183761905Y-56192914D01*
X183761905Y-56192914D02*
X183809524Y-56097676D01*
X183809524Y-56097676D02*
X183904762Y-56002438D01*
X183904762Y-56002438D02*
X184047619Y-55954819D01*
X184047619Y-55954819D02*
X184142857Y-55954819D01*
X184142857Y-55954819D02*
X184285714Y-56002438D01*
X184285714Y-56002438D02*
X184333333Y-56050057D01*
X185285714Y-56954819D02*
X184714286Y-56954819D01*
X185000000Y-56954819D02*
X185000000Y-55954819D01*
X185000000Y-55954819D02*
X184904762Y-56097676D01*
X184904762Y-56097676D02*
X184809524Y-56192914D01*
X184809524Y-56192914D02*
X184714286Y-56240533D01*
X185833333Y-74359580D02*
X185785714Y-74407200D01*
X185785714Y-74407200D02*
X185642857Y-74454819D01*
X185642857Y-74454819D02*
X185547619Y-74454819D01*
X185547619Y-74454819D02*
X185404762Y-74407200D01*
X185404762Y-74407200D02*
X185309524Y-74311961D01*
X185309524Y-74311961D02*
X185261905Y-74216723D01*
X185261905Y-74216723D02*
X185214286Y-74026247D01*
X185214286Y-74026247D02*
X185214286Y-73883390D01*
X185214286Y-73883390D02*
X185261905Y-73692914D01*
X185261905Y-73692914D02*
X185309524Y-73597676D01*
X185309524Y-73597676D02*
X185404762Y-73502438D01*
X185404762Y-73502438D02*
X185547619Y-73454819D01*
X185547619Y-73454819D02*
X185642857Y-73454819D01*
X185642857Y-73454819D02*
X185785714Y-73502438D01*
X185785714Y-73502438D02*
X185833333Y-73550057D01*
X186166667Y-73454819D02*
X186833333Y-73454819D01*
X186833333Y-73454819D02*
X186404762Y-74454819D01*
X196166666Y-52954819D02*
X196166666Y-53669104D01*
X196166666Y-53669104D02*
X196119047Y-53811961D01*
X196119047Y-53811961D02*
X196023809Y-53907200D01*
X196023809Y-53907200D02*
X195880952Y-53954819D01*
X195880952Y-53954819D02*
X195785714Y-53954819D01*
X196547619Y-52954819D02*
X197166666Y-52954819D01*
X197166666Y-52954819D02*
X196833333Y-53335771D01*
X196833333Y-53335771D02*
X196976190Y-53335771D01*
X196976190Y-53335771D02*
X197071428Y-53383390D01*
X197071428Y-53383390D02*
X197119047Y-53431009D01*
X197119047Y-53431009D02*
X197166666Y-53526247D01*
X197166666Y-53526247D02*
X197166666Y-53764342D01*
X197166666Y-53764342D02*
X197119047Y-53859580D01*
X197119047Y-53859580D02*
X197071428Y-53907200D01*
X197071428Y-53907200D02*
X196976190Y-53954819D01*
X196976190Y-53954819D02*
X196690476Y-53954819D01*
X196690476Y-53954819D02*
X196595238Y-53907200D01*
X196595238Y-53907200D02*
X196547619Y-53859580D01*
X217357142Y-89359580D02*
X217309523Y-89407200D01*
X217309523Y-89407200D02*
X217166666Y-89454819D01*
X217166666Y-89454819D02*
X217071428Y-89454819D01*
X217071428Y-89454819D02*
X216928571Y-89407200D01*
X216928571Y-89407200D02*
X216833333Y-89311961D01*
X216833333Y-89311961D02*
X216785714Y-89216723D01*
X216785714Y-89216723D02*
X216738095Y-89026247D01*
X216738095Y-89026247D02*
X216738095Y-88883390D01*
X216738095Y-88883390D02*
X216785714Y-88692914D01*
X216785714Y-88692914D02*
X216833333Y-88597676D01*
X216833333Y-88597676D02*
X216928571Y-88502438D01*
X216928571Y-88502438D02*
X217071428Y-88454819D01*
X217071428Y-88454819D02*
X217166666Y-88454819D01*
X217166666Y-88454819D02*
X217309523Y-88502438D01*
X217309523Y-88502438D02*
X217357142Y-88550057D01*
X218309523Y-89454819D02*
X217738095Y-89454819D01*
X218023809Y-89454819D02*
X218023809Y-88454819D01*
X218023809Y-88454819D02*
X217928571Y-88597676D01*
X217928571Y-88597676D02*
X217833333Y-88692914D01*
X217833333Y-88692914D02*
X217738095Y-88740533D01*
X219166666Y-88454819D02*
X218976190Y-88454819D01*
X218976190Y-88454819D02*
X218880952Y-88502438D01*
X218880952Y-88502438D02*
X218833333Y-88550057D01*
X218833333Y-88550057D02*
X218738095Y-88692914D01*
X218738095Y-88692914D02*
X218690476Y-88883390D01*
X218690476Y-88883390D02*
X218690476Y-89264342D01*
X218690476Y-89264342D02*
X218738095Y-89359580D01*
X218738095Y-89359580D02*
X218785714Y-89407200D01*
X218785714Y-89407200D02*
X218880952Y-89454819D01*
X218880952Y-89454819D02*
X219071428Y-89454819D01*
X219071428Y-89454819D02*
X219166666Y-89407200D01*
X219166666Y-89407200D02*
X219214285Y-89359580D01*
X219214285Y-89359580D02*
X219261904Y-89264342D01*
X219261904Y-89264342D02*
X219261904Y-89026247D01*
X219261904Y-89026247D02*
X219214285Y-88931009D01*
X219214285Y-88931009D02*
X219166666Y-88883390D01*
X219166666Y-88883390D02*
X219071428Y-88835771D01*
X219071428Y-88835771D02*
X218880952Y-88835771D01*
X218880952Y-88835771D02*
X218785714Y-88883390D01*
X218785714Y-88883390D02*
X218738095Y-88931009D01*
X218738095Y-88931009D02*
X218690476Y-89026247D01*
X172115682Y-56799580D02*
X172068063Y-56847200D01*
X172068063Y-56847200D02*
X171925206Y-56894819D01*
X171925206Y-56894819D02*
X171829968Y-56894819D01*
X171829968Y-56894819D02*
X171687111Y-56847200D01*
X171687111Y-56847200D02*
X171591873Y-56751961D01*
X171591873Y-56751961D02*
X171544254Y-56656723D01*
X171544254Y-56656723D02*
X171496635Y-56466247D01*
X171496635Y-56466247D02*
X171496635Y-56323390D01*
X171496635Y-56323390D02*
X171544254Y-56132914D01*
X171544254Y-56132914D02*
X171591873Y-56037676D01*
X171591873Y-56037676D02*
X171687111Y-55942438D01*
X171687111Y-55942438D02*
X171829968Y-55894819D01*
X171829968Y-55894819D02*
X171925206Y-55894819D01*
X171925206Y-55894819D02*
X172068063Y-55942438D01*
X172068063Y-55942438D02*
X172115682Y-55990057D01*
X173020444Y-55894819D02*
X172544254Y-55894819D01*
X172544254Y-55894819D02*
X172496635Y-56371009D01*
X172496635Y-56371009D02*
X172544254Y-56323390D01*
X172544254Y-56323390D02*
X172639492Y-56275771D01*
X172639492Y-56275771D02*
X172877587Y-56275771D01*
X172877587Y-56275771D02*
X172972825Y-56323390D01*
X172972825Y-56323390D02*
X173020444Y-56371009D01*
X173020444Y-56371009D02*
X173068063Y-56466247D01*
X173068063Y-56466247D02*
X173068063Y-56704342D01*
X173068063Y-56704342D02*
X173020444Y-56799580D01*
X173020444Y-56799580D02*
X172972825Y-56847200D01*
X172972825Y-56847200D02*
X172877587Y-56894819D01*
X172877587Y-56894819D02*
X172639492Y-56894819D01*
X172639492Y-56894819D02*
X172544254Y-56847200D01*
X172544254Y-56847200D02*
X172496635Y-56799580D01*
X196333333Y-56859580D02*
X196285714Y-56907200D01*
X196285714Y-56907200D02*
X196142857Y-56954819D01*
X196142857Y-56954819D02*
X196047619Y-56954819D01*
X196047619Y-56954819D02*
X195904762Y-56907200D01*
X195904762Y-56907200D02*
X195809524Y-56811961D01*
X195809524Y-56811961D02*
X195761905Y-56716723D01*
X195761905Y-56716723D02*
X195714286Y-56526247D01*
X195714286Y-56526247D02*
X195714286Y-56383390D01*
X195714286Y-56383390D02*
X195761905Y-56192914D01*
X195761905Y-56192914D02*
X195809524Y-56097676D01*
X195809524Y-56097676D02*
X195904762Y-56002438D01*
X195904762Y-56002438D02*
X196047619Y-55954819D01*
X196047619Y-55954819D02*
X196142857Y-55954819D01*
X196142857Y-55954819D02*
X196285714Y-56002438D01*
X196285714Y-56002438D02*
X196333333Y-56050057D01*
X196714286Y-56050057D02*
X196761905Y-56002438D01*
X196761905Y-56002438D02*
X196857143Y-55954819D01*
X196857143Y-55954819D02*
X197095238Y-55954819D01*
X197095238Y-55954819D02*
X197190476Y-56002438D01*
X197190476Y-56002438D02*
X197238095Y-56050057D01*
X197238095Y-56050057D02*
X197285714Y-56145295D01*
X197285714Y-56145295D02*
X197285714Y-56240533D01*
X197285714Y-56240533D02*
X197238095Y-56383390D01*
X197238095Y-56383390D02*
X196666667Y-56954819D01*
X196666667Y-56954819D02*
X197285714Y-56954819D01*
X181359580Y-89892857D02*
X181407200Y-89940476D01*
X181407200Y-89940476D02*
X181454819Y-90083333D01*
X181454819Y-90083333D02*
X181454819Y-90178571D01*
X181454819Y-90178571D02*
X181407200Y-90321428D01*
X181407200Y-90321428D02*
X181311961Y-90416666D01*
X181311961Y-90416666D02*
X181216723Y-90464285D01*
X181216723Y-90464285D02*
X181026247Y-90511904D01*
X181026247Y-90511904D02*
X180883390Y-90511904D01*
X180883390Y-90511904D02*
X180692914Y-90464285D01*
X180692914Y-90464285D02*
X180597676Y-90416666D01*
X180597676Y-90416666D02*
X180502438Y-90321428D01*
X180502438Y-90321428D02*
X180454819Y-90178571D01*
X180454819Y-90178571D02*
X180454819Y-90083333D01*
X180454819Y-90083333D02*
X180502438Y-89940476D01*
X180502438Y-89940476D02*
X180550057Y-89892857D01*
X181454819Y-88940476D02*
X181454819Y-89511904D01*
X181454819Y-89226190D02*
X180454819Y-89226190D01*
X180454819Y-89226190D02*
X180597676Y-89321428D01*
X180597676Y-89321428D02*
X180692914Y-89416666D01*
X180692914Y-89416666D02*
X180740533Y-89511904D01*
X180454819Y-88607142D02*
X180454819Y-87940476D01*
X180454819Y-87940476D02*
X181454819Y-88369047D01*
X171733095Y-70954819D02*
X171733095Y-71764342D01*
X171733095Y-71764342D02*
X171780714Y-71859580D01*
X171780714Y-71859580D02*
X171828333Y-71907200D01*
X171828333Y-71907200D02*
X171923571Y-71954819D01*
X171923571Y-71954819D02*
X172114047Y-71954819D01*
X172114047Y-71954819D02*
X172209285Y-71907200D01*
X172209285Y-71907200D02*
X172256904Y-71859580D01*
X172256904Y-71859580D02*
X172304523Y-71764342D01*
X172304523Y-71764342D02*
X172304523Y-70954819D01*
X173304523Y-71954819D02*
X172733095Y-71954819D01*
X173018809Y-71954819D02*
X173018809Y-70954819D01*
X173018809Y-70954819D02*
X172923571Y-71097676D01*
X172923571Y-71097676D02*
X172828333Y-71192914D01*
X172828333Y-71192914D02*
X172733095Y-71240533D01*
X160857142Y-89359580D02*
X160809523Y-89407200D01*
X160809523Y-89407200D02*
X160666666Y-89454819D01*
X160666666Y-89454819D02*
X160571428Y-89454819D01*
X160571428Y-89454819D02*
X160428571Y-89407200D01*
X160428571Y-89407200D02*
X160333333Y-89311961D01*
X160333333Y-89311961D02*
X160285714Y-89216723D01*
X160285714Y-89216723D02*
X160238095Y-89026247D01*
X160238095Y-89026247D02*
X160238095Y-88883390D01*
X160238095Y-88883390D02*
X160285714Y-88692914D01*
X160285714Y-88692914D02*
X160333333Y-88597676D01*
X160333333Y-88597676D02*
X160428571Y-88502438D01*
X160428571Y-88502438D02*
X160571428Y-88454819D01*
X160571428Y-88454819D02*
X160666666Y-88454819D01*
X160666666Y-88454819D02*
X160809523Y-88502438D01*
X160809523Y-88502438D02*
X160857142Y-88550057D01*
X161809523Y-89454819D02*
X161238095Y-89454819D01*
X161523809Y-89454819D02*
X161523809Y-88454819D01*
X161523809Y-88454819D02*
X161428571Y-88597676D01*
X161428571Y-88597676D02*
X161333333Y-88692914D01*
X161333333Y-88692914D02*
X161238095Y-88740533D01*
X162714285Y-88454819D02*
X162238095Y-88454819D01*
X162238095Y-88454819D02*
X162190476Y-88931009D01*
X162190476Y-88931009D02*
X162238095Y-88883390D01*
X162238095Y-88883390D02*
X162333333Y-88835771D01*
X162333333Y-88835771D02*
X162571428Y-88835771D01*
X162571428Y-88835771D02*
X162666666Y-88883390D01*
X162666666Y-88883390D02*
X162714285Y-88931009D01*
X162714285Y-88931009D02*
X162761904Y-89026247D01*
X162761904Y-89026247D02*
X162761904Y-89264342D01*
X162761904Y-89264342D02*
X162714285Y-89359580D01*
X162714285Y-89359580D02*
X162666666Y-89407200D01*
X162666666Y-89407200D02*
X162571428Y-89454819D01*
X162571428Y-89454819D02*
X162333333Y-89454819D01*
X162333333Y-89454819D02*
X162238095Y-89407200D01*
X162238095Y-89407200D02*
X162190476Y-89359580D01*
X185833333Y-71859580D02*
X185785714Y-71907200D01*
X185785714Y-71907200D02*
X185642857Y-71954819D01*
X185642857Y-71954819D02*
X185547619Y-71954819D01*
X185547619Y-71954819D02*
X185404762Y-71907200D01*
X185404762Y-71907200D02*
X185309524Y-71811961D01*
X185309524Y-71811961D02*
X185261905Y-71716723D01*
X185261905Y-71716723D02*
X185214286Y-71526247D01*
X185214286Y-71526247D02*
X185214286Y-71383390D01*
X185214286Y-71383390D02*
X185261905Y-71192914D01*
X185261905Y-71192914D02*
X185309524Y-71097676D01*
X185309524Y-71097676D02*
X185404762Y-71002438D01*
X185404762Y-71002438D02*
X185547619Y-70954819D01*
X185547619Y-70954819D02*
X185642857Y-70954819D01*
X185642857Y-70954819D02*
X185785714Y-71002438D01*
X185785714Y-71002438D02*
X185833333Y-71050057D01*
X186166667Y-70954819D02*
X186785714Y-70954819D01*
X186785714Y-70954819D02*
X186452381Y-71335771D01*
X186452381Y-71335771D02*
X186595238Y-71335771D01*
X186595238Y-71335771D02*
X186690476Y-71383390D01*
X186690476Y-71383390D02*
X186738095Y-71431009D01*
X186738095Y-71431009D02*
X186785714Y-71526247D01*
X186785714Y-71526247D02*
X186785714Y-71764342D01*
X186785714Y-71764342D02*
X186738095Y-71859580D01*
X186738095Y-71859580D02*
X186690476Y-71907200D01*
X186690476Y-71907200D02*
X186595238Y-71954819D01*
X186595238Y-71954819D02*
X186309524Y-71954819D01*
X186309524Y-71954819D02*
X186214286Y-71907200D01*
X186214286Y-71907200D02*
X186166667Y-71859580D01*
X206743095Y-70954819D02*
X206743095Y-71764342D01*
X206743095Y-71764342D02*
X206790714Y-71859580D01*
X206790714Y-71859580D02*
X206838333Y-71907200D01*
X206838333Y-71907200D02*
X206933571Y-71954819D01*
X206933571Y-71954819D02*
X207124047Y-71954819D01*
X207124047Y-71954819D02*
X207219285Y-71907200D01*
X207219285Y-71907200D02*
X207266904Y-71859580D01*
X207266904Y-71859580D02*
X207314523Y-71764342D01*
X207314523Y-71764342D02*
X207314523Y-70954819D01*
X207743095Y-71050057D02*
X207790714Y-71002438D01*
X207790714Y-71002438D02*
X207885952Y-70954819D01*
X207885952Y-70954819D02*
X208124047Y-70954819D01*
X208124047Y-70954819D02*
X208219285Y-71002438D01*
X208219285Y-71002438D02*
X208266904Y-71050057D01*
X208266904Y-71050057D02*
X208314523Y-71145295D01*
X208314523Y-71145295D02*
X208314523Y-71240533D01*
X208314523Y-71240533D02*
X208266904Y-71383390D01*
X208266904Y-71383390D02*
X207695476Y-71954819D01*
X207695476Y-71954819D02*
X208314523Y-71954819D01*
D13*
%TO.C,J5*%
X219330000Y-95230000D02*
X219330000Y-97830000D01*
X219330000Y-92630000D02*
X219330000Y-93960000D01*
X218000000Y-92630000D02*
X219330000Y-92630000D01*
X216670000Y-97830000D02*
X219330000Y-97830000D01*
X216670000Y-95230000D02*
X219330000Y-95230000D01*
X216670000Y-95230000D02*
X216670000Y-97830000D01*
%TO.C,SW1*%
X207330000Y-92380000D02*
X204670000Y-92380000D01*
X207330000Y-94980000D02*
X207330000Y-92380000D01*
X207330000Y-94980000D02*
X204670000Y-94980000D01*
X204670000Y-94980000D02*
X204670000Y-92380000D01*
X206000000Y-97580000D02*
X204670000Y-97580000D01*
X204670000Y-97580000D02*
X204670000Y-96250000D01*
%TO.C,D1*%
X201085000Y-95000000D02*
G75*
G02*
X196085000Y-95000000I-2500000J0D01*
G01*
X196085000Y-95000000D02*
G75*
G02*
X201085000Y-95000000I2500000J0D01*
G01*
X195595000Y-95000000D02*
G75*
G02*
X201145000Y-93455170I2990000J0D01*
G01*
X201145000Y-96544830D02*
G75*
G02*
X195595000Y-95000000I-2560000J1544830D01*
G01*
X201145000Y-96545000D02*
X201145000Y-93455000D01*
%TO.C,R9*%
X183890000Y-92130000D02*
X190430000Y-92130000D01*
X190430000Y-94870000D01*
X183890000Y-94870000D01*
X183890000Y-92130000D01*
X191200000Y-93500000D02*
X190430000Y-93500000D01*
X183120000Y-93500000D02*
X183890000Y-93500000D01*
%TO.C,R10*%
X183890000Y-95130000D02*
X190430000Y-95130000D01*
X190430000Y-97870000D01*
X183890000Y-97870000D01*
X183890000Y-95130000D01*
X191200000Y-96500000D02*
X190430000Y-96500000D01*
X183120000Y-96500000D02*
X183890000Y-96500000D01*
%TO.C,J1*%
X208448355Y-94904760D02*
X209778355Y-94904760D01*
X208448355Y-96234760D02*
X208448355Y-94904760D01*
X211048355Y-94904760D02*
X213648355Y-94904760D01*
X211048355Y-97564760D02*
X211048355Y-94904760D01*
X211048355Y-97564760D02*
X213648355Y-97564760D01*
X213648355Y-97564760D02*
X213648355Y-94904760D01*
%TO.C,9V=CLOSE*%
X205000000Y-90675000D02*
X205000000Y-87875000D01*
X207000000Y-90675000D02*
X205000000Y-90675000D01*
X205000000Y-87875000D02*
X207000000Y-87875000D01*
X207000000Y-87875000D02*
X207000000Y-90675000D01*
D14*
%TO.C,G\u002A\u002A\u002A*%
G36*
X177562452Y-91778013D02*
G01*
X177628938Y-91778444D01*
X177686123Y-91779286D01*
X177730768Y-91780556D01*
X177759632Y-91782275D01*
X177766720Y-91783221D01*
X177808321Y-91790698D01*
X177851743Y-91797270D01*
X177859046Y-91798217D01*
X178062539Y-91831190D01*
X178265868Y-91878907D01*
X178462841Y-91939722D01*
X178623303Y-92001612D01*
X178734464Y-92049996D01*
X178827911Y-92092940D01*
X178905447Y-92131339D01*
X178968869Y-92166090D01*
X179019981Y-92198089D01*
X179025438Y-92201832D01*
X179049902Y-92217704D01*
X179069180Y-92228444D01*
X179069547Y-92228609D01*
X179092050Y-92241029D01*
X179126750Y-92262949D01*
X179169497Y-92291472D01*
X179216140Y-92323701D01*
X179262528Y-92356740D01*
X179304510Y-92387690D01*
X179337936Y-92413656D01*
X179353286Y-92426649D01*
X179379776Y-92450184D01*
X179412838Y-92479067D01*
X179433538Y-92496930D01*
X179467469Y-92526110D01*
X179495723Y-92550706D01*
X179521781Y-92573888D01*
X179549119Y-92598826D01*
X179581218Y-92628689D01*
X179621555Y-92666647D01*
X179668141Y-92710694D01*
X179747016Y-92788513D01*
X179821965Y-92868511D01*
X179889533Y-92946750D01*
X179946265Y-93019291D01*
X179975450Y-93061147D01*
X179999361Y-93096183D01*
X180026083Y-93133391D01*
X180033420Y-93143215D01*
X180087868Y-93219039D01*
X180137231Y-93296756D01*
X180185157Y-93382464D01*
X180231442Y-93474289D01*
X180256045Y-93525223D01*
X180277275Y-93569466D01*
X180293612Y-93603825D01*
X180303536Y-93625109D01*
X180305847Y-93630493D01*
X180310535Y-93641120D01*
X180322524Y-93666618D01*
X180340116Y-93703420D01*
X180361614Y-93747955D01*
X180366838Y-93758724D01*
X180390139Y-93807948D01*
X180410734Y-93853748D01*
X180426542Y-93891337D01*
X180435480Y-93915929D01*
X180435979Y-93917730D01*
X180445767Y-93954549D01*
X180455316Y-93989540D01*
X180479611Y-94081665D01*
X180498864Y-94166683D01*
X180513508Y-94248661D01*
X180523976Y-94331672D01*
X180530703Y-94419784D01*
X180534120Y-94517069D01*
X180534662Y-94627596D01*
X180533416Y-94723021D01*
X180531601Y-94810901D01*
X180529505Y-94882501D01*
X180526692Y-94942060D01*
X180522726Y-94993813D01*
X180517170Y-95041998D01*
X180509587Y-95090852D01*
X180499541Y-95144612D01*
X180486594Y-95207515D01*
X180480557Y-95235945D01*
X180469228Y-95284774D01*
X180455170Y-95339591D01*
X180444007Y-95379564D01*
X180436707Y-95404542D01*
X180425933Y-95441631D01*
X180413894Y-95483226D01*
X180412724Y-95487278D01*
X180369476Y-95629213D01*
X180324450Y-95760315D01*
X180274294Y-95890206D01*
X180260947Y-95922685D01*
X180239708Y-95970089D01*
X180213454Y-96023240D01*
X180185400Y-96076100D01*
X180158758Y-96122627D01*
X180136743Y-96156785D01*
X180135378Y-96158665D01*
X180117910Y-96185028D01*
X180107222Y-96206109D01*
X180105654Y-96212522D01*
X180099399Y-96224822D01*
X180095395Y-96225888D01*
X180085434Y-96233618D01*
X180085137Y-96236042D01*
X180078334Y-96256295D01*
X180059350Y-96288569D01*
X180030319Y-96330189D01*
X179993375Y-96378481D01*
X179950655Y-96430768D01*
X179904292Y-96484375D01*
X179856422Y-96536629D01*
X179809178Y-96584853D01*
X179798521Y-96595194D01*
X179752475Y-96638740D01*
X179707401Y-96680210D01*
X179665923Y-96717302D01*
X179630668Y-96747719D01*
X179604261Y-96769162D01*
X179589330Y-96779332D01*
X179587600Y-96779846D01*
X179576991Y-96785754D01*
X179562972Y-96796743D01*
X179550037Y-96815458D01*
X179550833Y-96832635D01*
X179564676Y-96841268D01*
X179567326Y-96841397D01*
X179582049Y-96848008D01*
X179584215Y-96851757D01*
X179595968Y-96862083D01*
X179608151Y-96866234D01*
X179633707Y-96873184D01*
X179655133Y-96880615D01*
X179683423Y-96889160D01*
X179717633Y-96896508D01*
X179721813Y-96897196D01*
X179791095Y-96907954D01*
X179844796Y-96915942D01*
X179887565Y-96921814D01*
X179924049Y-96926221D01*
X179943379Y-96928283D01*
X179999230Y-96939153D01*
X180056123Y-96958957D01*
X180107190Y-96984720D01*
X180145563Y-97013470D01*
X180149486Y-97017515D01*
X180178716Y-97056524D01*
X180196755Y-97100559D01*
X180205713Y-97155665D01*
X180207249Y-97182811D01*
X180206023Y-97234029D01*
X180197700Y-97284360D01*
X180180897Y-97338901D01*
X180154229Y-97402747D01*
X180138391Y-97436389D01*
X180101347Y-97497798D01*
X180050566Y-97560876D01*
X179991487Y-97620043D01*
X179929552Y-97669719D01*
X179883358Y-97697981D01*
X179851407Y-97715341D01*
X179826967Y-97730321D01*
X179816009Y-97739014D01*
X179809071Y-97743413D01*
X179808315Y-97740835D01*
X179801350Y-97740612D01*
X179784470Y-97751089D01*
X179781306Y-97753518D01*
X179760263Y-97766208D01*
X179745082Y-97768744D01*
X179744254Y-97768336D01*
X179730680Y-97769542D01*
X179726741Y-97773865D01*
X179709523Y-97784528D01*
X179672275Y-97793601D01*
X179628116Y-97799663D01*
X179606108Y-97803877D01*
X179597341Y-97807022D01*
X179580020Y-97810371D01*
X179564519Y-97810293D01*
X179546568Y-97812669D01*
X179541437Y-97818610D01*
X179535059Y-97821255D01*
X179524080Y-97814645D01*
X179513209Y-97807815D01*
X179513299Y-97811563D01*
X179508075Y-97818362D01*
X179482565Y-97822327D01*
X179453716Y-97823405D01*
X179418801Y-97822505D01*
X179392761Y-97819324D01*
X179381825Y-97814972D01*
X179367827Y-97807226D01*
X179358744Y-97806416D01*
X179348605Y-97808348D01*
X179356678Y-97814277D01*
X179361914Y-97816816D01*
X179372434Y-97822785D01*
X179365210Y-97823218D01*
X179351655Y-97821040D01*
X179319364Y-97814653D01*
X179297077Y-97808975D01*
X179290104Y-97805695D01*
X179280260Y-97801977D01*
X179252099Y-97796264D01*
X179218295Y-97790630D01*
X179188078Y-97785066D01*
X179165084Y-97779429D01*
X179161873Y-97778343D01*
X179139248Y-97772260D01*
X179122847Y-97769423D01*
X179107011Y-97769601D01*
X179108631Y-97777662D01*
X179109568Y-97778828D01*
X179118067Y-97804352D01*
X179110693Y-97838364D01*
X179088259Y-97877412D01*
X179085431Y-97881184D01*
X179061451Y-97906316D01*
X179027365Y-97930440D01*
X178978936Y-97956420D01*
X178962329Y-97964371D01*
X178911922Y-97987491D01*
X178872983Y-98003710D01*
X178838775Y-98015584D01*
X178802559Y-98025673D01*
X178797697Y-98026900D01*
X178745656Y-98038991D01*
X178698868Y-98047270D01*
X178650464Y-98052542D01*
X178593575Y-98055612D01*
X178541235Y-98056953D01*
X178479115Y-98057320D01*
X178415009Y-98056381D01*
X178356315Y-98054321D01*
X178310433Y-98051323D01*
X178308982Y-98051188D01*
X178244592Y-98042885D01*
X178170091Y-98029784D01*
X178091906Y-98013318D01*
X178016464Y-97994919D01*
X177950189Y-97976018D01*
X177910339Y-97962364D01*
X177886365Y-97955106D01*
X177876722Y-97952924D01*
X177855593Y-97946733D01*
X177826584Y-97935974D01*
X177820300Y-97933400D01*
X177796398Y-97924137D01*
X177782803Y-97920268D01*
X177781656Y-97920554D01*
X177773930Y-97917930D01*
X177756010Y-97907262D01*
X177727994Y-97893906D01*
X177694966Y-97884211D01*
X177693754Y-97883980D01*
X177663508Y-97873835D01*
X177639859Y-97858421D01*
X177638526Y-97857028D01*
X177622403Y-97843799D01*
X177612299Y-97841935D01*
X177599866Y-97839395D01*
X177586192Y-97828870D01*
X177570147Y-97815069D01*
X177561873Y-97810824D01*
X177549144Y-97804188D01*
X177523657Y-97785491D01*
X177487763Y-97756552D01*
X177447918Y-97722745D01*
X177405393Y-97685958D01*
X177373193Y-97718850D01*
X177333384Y-97755573D01*
X177286962Y-97792319D01*
X177239214Y-97825417D01*
X177195429Y-97851199D01*
X177161469Y-97865824D01*
X177127182Y-97877686D01*
X177082104Y-97895604D01*
X177033755Y-97916376D01*
X176989653Y-97936802D01*
X176964133Y-97949835D01*
X176939441Y-97958277D01*
X176927946Y-97959572D01*
X176904955Y-97965234D01*
X176889338Y-97973500D01*
X176863714Y-97986802D01*
X176827110Y-98000988D01*
X176788636Y-98012780D01*
X176766518Y-98017681D01*
X176743929Y-98021874D01*
X176711844Y-98028221D01*
X176699838Y-98030672D01*
X176633466Y-98043801D01*
X176569332Y-98055498D01*
X176510832Y-98065238D01*
X176461364Y-98072495D01*
X176424323Y-98076741D01*
X176403107Y-98077451D01*
X176400646Y-98077006D01*
X176382777Y-98077552D01*
X176376953Y-98082256D01*
X176365066Y-98085831D01*
X176337423Y-98088652D01*
X176298778Y-98090647D01*
X176253880Y-98091742D01*
X176207481Y-98091862D01*
X176164332Y-98090936D01*
X176129185Y-98088889D01*
X176109975Y-98086386D01*
X176063993Y-98076074D01*
X176016554Y-98063837D01*
X175973716Y-98051387D01*
X175941533Y-98040438D01*
X175930452Y-98035616D01*
X175882430Y-98001485D01*
X175835357Y-97950665D01*
X175806799Y-97910137D01*
X175787468Y-97880985D01*
X175775062Y-97867101D01*
X175766359Y-97865922D01*
X175759714Y-97872653D01*
X175738545Y-97885682D01*
X175699075Y-97892974D01*
X175692655Y-97893478D01*
X175579693Y-97899845D01*
X175481582Y-97902178D01*
X175393057Y-97900468D01*
X175308852Y-97894706D01*
X175289297Y-97892781D01*
X175224380Y-97884971D01*
X175156475Y-97874939D01*
X175089070Y-97863395D01*
X175025654Y-97851050D01*
X174969714Y-97838612D01*
X174924739Y-97826793D01*
X174894216Y-97816301D01*
X174883371Y-97810176D01*
X174864850Y-97798087D01*
X174855068Y-97795436D01*
X174843755Y-97787492D01*
X174843053Y-97783468D01*
X174838922Y-97776584D01*
X174836279Y-97778273D01*
X174826214Y-97776285D01*
X174815060Y-97764424D01*
X174801305Y-97750518D01*
X174792604Y-97748751D01*
X174781926Y-97745044D01*
X174765527Y-97731138D01*
X174749732Y-97713444D01*
X174740863Y-97698373D01*
X174740468Y-97695899D01*
X174734087Y-97684401D01*
X174718460Y-97665511D01*
X174715792Y-97662637D01*
X174674106Y-97606142D01*
X174639865Y-97535608D01*
X174614907Y-97456731D01*
X174601073Y-97375208D01*
X174599725Y-97303160D01*
X174612064Y-97222323D01*
X174637047Y-97155469D01*
X174673833Y-97103594D01*
X174721583Y-97067691D01*
X174779457Y-97048756D01*
X174816872Y-97045937D01*
X174898236Y-97044252D01*
X174988581Y-97038903D01*
X175080260Y-97030569D01*
X175165624Y-97019926D01*
X175227746Y-97009525D01*
X175268073Y-97001730D01*
X175301700Y-96995413D01*
X175322656Y-96991689D01*
X175325201Y-96991296D01*
X175365854Y-96981504D01*
X175416634Y-96963272D01*
X175470447Y-96939312D01*
X175496995Y-96925640D01*
X175538316Y-96902014D01*
X175561528Y-96885628D01*
X175567420Y-96875732D01*
X175556781Y-96871575D01*
X175554058Y-96871410D01*
X175513780Y-96864884D01*
X175470288Y-96850300D01*
X175430169Y-96830653D01*
X175400009Y-96808941D01*
X175389715Y-96796650D01*
X175375870Y-96782179D01*
X175353057Y-96765217D01*
X175350847Y-96763812D01*
X175319437Y-96743016D01*
X175282829Y-96717116D01*
X175246286Y-96690032D01*
X175215077Y-96665688D01*
X175194466Y-96648006D01*
X175191871Y-96645394D01*
X175175682Y-96630268D01*
X175149623Y-96608056D01*
X175126380Y-96589199D01*
X175099968Y-96565326D01*
X175065541Y-96530070D01*
X175027646Y-96488267D01*
X174992393Y-96446672D01*
X174958666Y-96404459D01*
X174922994Y-96358300D01*
X174887607Y-96311265D01*
X174854740Y-96266422D01*
X174826624Y-96226843D01*
X174805492Y-96195595D01*
X174793576Y-96175750D01*
X174791760Y-96170833D01*
X174786781Y-96160034D01*
X174773488Y-96136148D01*
X174754346Y-96103544D01*
X174745597Y-96089028D01*
X174724807Y-96054175D01*
X174708878Y-96026307D01*
X174700273Y-96009787D01*
X174699434Y-96007332D01*
X174694596Y-95996281D01*
X174681913Y-95972757D01*
X174664189Y-95941951D01*
X174642337Y-95902409D01*
X174622176Y-95861740D01*
X174611038Y-95836066D01*
X174599296Y-95807973D01*
X174589739Y-95788871D01*
X174586737Y-95784774D01*
X174578112Y-95772362D01*
X174563343Y-95745909D01*
X174544729Y-95710074D01*
X174524567Y-95669516D01*
X174505156Y-95628894D01*
X174488793Y-95592866D01*
X174477778Y-95566092D01*
X174475405Y-95559087D01*
X174464930Y-95526267D01*
X174451776Y-95488094D01*
X174447766Y-95477019D01*
X174436669Y-95444935D01*
X174428553Y-95418047D01*
X174426767Y-95410600D01*
X174421593Y-95390270D01*
X174412265Y-95358149D01*
X174403111Y-95328532D01*
X174385857Y-95270443D01*
X174366929Y-95200439D01*
X174347633Y-95123987D01*
X174329273Y-95046552D01*
X174313154Y-94973599D01*
X174300581Y-94910593D01*
X174294093Y-94871986D01*
X174289077Y-94842611D01*
X174284262Y-94822337D01*
X174282695Y-94818422D01*
X174281261Y-94806182D01*
X174280159Y-94777090D01*
X174279381Y-94734810D01*
X174278922Y-94683004D01*
X174278775Y-94625335D01*
X174278931Y-94565466D01*
X174279385Y-94507060D01*
X174279471Y-94500871D01*
X174315303Y-94500871D01*
X174315991Y-94577127D01*
X174317852Y-94654760D01*
X174320802Y-94728997D01*
X174324755Y-94795067D01*
X174329624Y-94848199D01*
X174330638Y-94856381D01*
X174336906Y-94901139D01*
X174343678Y-94941119D01*
X174352107Y-94981518D01*
X174363349Y-95027529D01*
X174378557Y-95084348D01*
X174392189Y-95133360D01*
X174404882Y-95179933D01*
X174415748Y-95222253D01*
X174423306Y-95254427D01*
X174425686Y-95266720D01*
X174431098Y-95289582D01*
X174442024Y-95327129D01*
X174456932Y-95374778D01*
X174474289Y-95427946D01*
X174492562Y-95482051D01*
X174510219Y-95532508D01*
X174525725Y-95574736D01*
X174537549Y-95604150D01*
X174541004Y-95611495D01*
X174551247Y-95633756D01*
X174555178Y-95647300D01*
X174555147Y-95647594D01*
X174560872Y-95659072D01*
X174562633Y-95660525D01*
X174569911Y-95671419D01*
X174584506Y-95697485D01*
X174604685Y-95735481D01*
X174628714Y-95782167D01*
X174645533Y-95815549D01*
X174676002Y-95875439D01*
X174708264Y-95936987D01*
X174740443Y-95996790D01*
X174770660Y-96051448D01*
X174797040Y-96097559D01*
X174817705Y-96131722D01*
X174829613Y-96149125D01*
X174839161Y-96162435D01*
X174856398Y-96187554D01*
X174877689Y-96219182D01*
X174878858Y-96220934D01*
X174917028Y-96275418D01*
X174962013Y-96335236D01*
X175010755Y-96396712D01*
X175060192Y-96456169D01*
X175107266Y-96509932D01*
X175148916Y-96554324D01*
X175182084Y-96585670D01*
X175183229Y-96586632D01*
X175235373Y-96628274D01*
X175294674Y-96672524D01*
X175357060Y-96716624D01*
X175418458Y-96757817D01*
X175474796Y-96793343D01*
X175522001Y-96820446D01*
X175546061Y-96832330D01*
X175575444Y-96847515D01*
X175597864Y-96862926D01*
X175602716Y-96867690D01*
X175609219Y-96880265D01*
X175603797Y-96893703D01*
X175585392Y-96912775D01*
X175534290Y-96950184D01*
X175466453Y-96984062D01*
X175385518Y-97013305D01*
X175295124Y-97036808D01*
X175198906Y-97053465D01*
X175100504Y-97062172D01*
X175092570Y-97062495D01*
X175045438Y-97064309D01*
X175006852Y-97065932D01*
X174980804Y-97067185D01*
X174971284Y-97067891D01*
X174961812Y-97068516D01*
X174936537Y-97069398D01*
X174900168Y-97070383D01*
X174884086Y-97070759D01*
X174805037Y-97079399D01*
X174740884Y-97101303D01*
X174692057Y-97136263D01*
X174660966Y-97179927D01*
X174648230Y-97208765D01*
X174636272Y-97240810D01*
X174627096Y-97269938D01*
X174622708Y-97290025D01*
X174623231Y-97295217D01*
X174626687Y-97307082D01*
X174630645Y-97332434D01*
X174632543Y-97349037D01*
X174644422Y-97429925D01*
X174663606Y-97496621D01*
X174692709Y-97554906D01*
X174734346Y-97610561D01*
X174766418Y-97645083D01*
X174807840Y-97683871D01*
X174850791Y-97716493D01*
X174898618Y-97744518D01*
X174954664Y-97769517D01*
X175022278Y-97793060D01*
X175104804Y-97816715D01*
X175165254Y-97832208D01*
X175203021Y-97838729D01*
X175258230Y-97844226D01*
X175327821Y-97848462D01*
X175408736Y-97851199D01*
X175411458Y-97851259D01*
X175483768Y-97852433D01*
X175539568Y-97852275D01*
X175582832Y-97850571D01*
X175617537Y-97847109D01*
X175647658Y-97841676D01*
X175663731Y-97837766D01*
X175724096Y-97820349D01*
X175766752Y-97803956D01*
X175794360Y-97787162D01*
X175809582Y-97768544D01*
X175813492Y-97757643D01*
X175822597Y-97730701D01*
X175831923Y-97713368D01*
X175844345Y-97694426D01*
X175860140Y-97667472D01*
X175863126Y-97662076D01*
X175897910Y-97610287D01*
X175946447Y-97554263D01*
X176003995Y-97498653D01*
X176065813Y-97448108D01*
X176116393Y-97413685D01*
X176139881Y-97401570D01*
X176149589Y-97401200D01*
X176146586Y-97410157D01*
X176131938Y-97426025D01*
X176106712Y-97446387D01*
X176099802Y-97451262D01*
X176032165Y-97506258D01*
X175966683Y-97574981D01*
X175909216Y-97650980D01*
X175888754Y-97683728D01*
X175864421Y-97728821D01*
X175849932Y-97766140D01*
X175842387Y-97803992D01*
X175840631Y-97821551D01*
X175835473Y-97885806D01*
X175885527Y-97939546D01*
X175919198Y-97972741D01*
X175951967Y-97996918D01*
X175989291Y-98014738D01*
X176036632Y-98028861D01*
X176093348Y-98040805D01*
X176135021Y-98048005D01*
X176171937Y-98052352D01*
X176209033Y-98053838D01*
X176251248Y-98052456D01*
X176303520Y-98048200D01*
X176370789Y-98041061D01*
X176376696Y-98040396D01*
X176422015Y-98035168D01*
X176460834Y-98030486D01*
X176487843Y-98027003D01*
X176496305Y-98025735D01*
X176516287Y-98022472D01*
X176547281Y-98017753D01*
X176562985Y-98015443D01*
X176634541Y-98003245D01*
X176709185Y-97987450D01*
X176778683Y-97969938D01*
X176827913Y-97954985D01*
X176912169Y-97924053D01*
X176997792Y-97888559D01*
X177080770Y-97850462D01*
X177157091Y-97811723D01*
X177222742Y-97774302D01*
X177273712Y-97740157D01*
X177283729Y-97732330D01*
X177334857Y-97691770D01*
X177372917Y-97664055D01*
X177399757Y-97647945D01*
X177417225Y-97642198D01*
X177417931Y-97642158D01*
X177433795Y-97648297D01*
X177457806Y-97664665D01*
X177474353Y-97678488D01*
X177554853Y-97740991D01*
X177652985Y-97800431D01*
X177765952Y-97855642D01*
X177890959Y-97905457D01*
X178025208Y-97948711D01*
X178165903Y-97984236D01*
X178245936Y-98000225D01*
X178293526Y-98006181D01*
X178356104Y-98010198D01*
X178428448Y-98012311D01*
X178505338Y-98012552D01*
X178581552Y-98010954D01*
X178651870Y-98007549D01*
X178711069Y-98002371D01*
X178746405Y-97997075D01*
X178844256Y-97973963D01*
X178925561Y-97946883D01*
X178989658Y-97916311D01*
X179035882Y-97882720D01*
X179063571Y-97846587D01*
X179072060Y-97808386D01*
X179061997Y-97771131D01*
X179036543Y-97727829D01*
X179004017Y-97682765D01*
X178969863Y-97642924D01*
X178942010Y-97617138D01*
X178916703Y-97597104D01*
X178896884Y-97580170D01*
X178893476Y-97576942D01*
X178878788Y-97566923D01*
X178851220Y-97551380D01*
X178816583Y-97533254D01*
X178780688Y-97515485D01*
X178749345Y-97501014D01*
X178728365Y-97492781D01*
X178725888Y-97492134D01*
X178711871Y-97487587D01*
X178684348Y-97477586D01*
X178648911Y-97464169D01*
X178643820Y-97462206D01*
X178604347Y-97446995D01*
X178568787Y-97433381D01*
X178544591Y-97424214D01*
X178543930Y-97423967D01*
X178524256Y-97412594D01*
X178522957Y-97403359D01*
X178538950Y-97400881D01*
X178548939Y-97402580D01*
X178664258Y-97434972D01*
X178774078Y-97477245D01*
X178874934Y-97527602D01*
X178963363Y-97584249D01*
X179035899Y-97645389D01*
X179054159Y-97664468D01*
X179095193Y-97709854D01*
X179237276Y-97737990D01*
X179361596Y-97758213D01*
X179472463Y-97766340D01*
X179573215Y-97762068D01*
X179667187Y-97745096D01*
X179757717Y-97715120D01*
X179823545Y-97684855D01*
X179911459Y-97633610D01*
X179987412Y-97576508D01*
X180048853Y-97515834D01*
X180093232Y-97453875D01*
X180103564Y-97433825D01*
X180121837Y-97394427D01*
X180140757Y-97353618D01*
X180146652Y-97340897D01*
X180157967Y-97307706D01*
X180167715Y-97263706D01*
X180173629Y-97219859D01*
X180174874Y-97161697D01*
X180166187Y-97115990D01*
X180145807Y-97076369D01*
X180127498Y-97053169D01*
X180096928Y-97028626D01*
X180052085Y-97005210D01*
X179999181Y-96985221D01*
X179944426Y-96970959D01*
X179894032Y-96964722D01*
X179888329Y-96964621D01*
X179855231Y-96961872D01*
X179826568Y-96955373D01*
X179825311Y-96954912D01*
X179800493Y-96948424D01*
X179765281Y-96942550D01*
X179744816Y-96940219D01*
X179689804Y-96930635D01*
X179635596Y-96913292D01*
X179585902Y-96890289D01*
X179544431Y-96863723D01*
X179514893Y-96835693D01*
X179500998Y-96808299D01*
X179500403Y-96801944D01*
X179509998Y-96775455D01*
X179536844Y-96748261D01*
X179569679Y-96727630D01*
X179590103Y-96716102D01*
X179610805Y-96701919D01*
X179634513Y-96682715D01*
X179663958Y-96656125D01*
X179701869Y-96619781D01*
X179750976Y-96571318D01*
X179757613Y-96564713D01*
X179803275Y-96517487D01*
X179850091Y-96466075D01*
X179892910Y-96416311D01*
X179926582Y-96374028D01*
X179929930Y-96369507D01*
X179957972Y-96331410D01*
X179982725Y-96298138D01*
X180000913Y-96274073D01*
X180007890Y-96265169D01*
X180024037Y-96242253D01*
X180034724Y-96224135D01*
X180045849Y-96205105D01*
X180064944Y-96174224D01*
X180088709Y-96136787D01*
X180100721Y-96118174D01*
X180187296Y-95970859D01*
X180256952Y-95820469D01*
X180312130Y-95661331D01*
X180336867Y-95569346D01*
X180341629Y-95553624D01*
X180351511Y-95523342D01*
X180364919Y-95483327D01*
X180375803Y-95451373D01*
X180418413Y-95313993D01*
X180449439Y-95184900D01*
X180468305Y-95066807D01*
X180474116Y-94987540D01*
X180475778Y-94948940D01*
X180478077Y-94918607D01*
X180480568Y-94902130D01*
X180481031Y-94901019D01*
X180484525Y-94884603D01*
X180486724Y-94851169D01*
X180487729Y-94804166D01*
X180487642Y-94747044D01*
X180486563Y-94683254D01*
X180484595Y-94616247D01*
X180481838Y-94549472D01*
X180478395Y-94486379D01*
X180474365Y-94430420D01*
X180469851Y-94385044D01*
X180464957Y-94353716D01*
X180458790Y-94322558D01*
X180451206Y-94280248D01*
X180443842Y-94235923D01*
X180443814Y-94235743D01*
X180436808Y-94195866D01*
X180427415Y-94150705D01*
X180414782Y-94096589D01*
X180398053Y-94029845D01*
X180378181Y-93953635D01*
X180372717Y-93936180D01*
X180363741Y-93913437D01*
X180349760Y-93882028D01*
X180329279Y-93838573D01*
X180305574Y-93789499D01*
X180258347Y-93692574D01*
X180218941Y-93612249D01*
X180186367Y-93546595D01*
X180159643Y-93493681D01*
X180137781Y-93451577D01*
X180119796Y-93418351D01*
X180104703Y-93392073D01*
X180093066Y-93373217D01*
X180043221Y-93295534D01*
X180002704Y-93232620D01*
X179969846Y-93181925D01*
X179942978Y-93140900D01*
X179920430Y-93106994D01*
X179900533Y-93077656D01*
X179882967Y-93052270D01*
X179858894Y-93017617D01*
X179838531Y-92988004D01*
X179825422Y-92968593D01*
X179823545Y-92965706D01*
X179810560Y-92948199D01*
X179790317Y-92923670D01*
X179782511Y-92914686D01*
X179761582Y-92889740D01*
X179745914Y-92868911D01*
X179742734Y-92863899D01*
X179731947Y-92847285D01*
X179715653Y-92826737D01*
X179691842Y-92800059D01*
X179658502Y-92765053D01*
X179613621Y-92719524D01*
X179577342Y-92683280D01*
X179477338Y-92585893D01*
X179385213Y-92501291D01*
X179297123Y-92426695D01*
X179209224Y-92359326D01*
X179117674Y-92296407D01*
X179018629Y-92235158D01*
X178908244Y-92172801D01*
X178782678Y-92106557D01*
X178772051Y-92101103D01*
X178641958Y-92040435D01*
X178496280Y-91983178D01*
X178339872Y-91930978D01*
X178177589Y-91885479D01*
X178043699Y-91854357D01*
X177999327Y-91845029D01*
X177960877Y-91836939D01*
X177933932Y-91831261D01*
X177926165Y-91829619D01*
X177909777Y-91827371D01*
X177876644Y-91823755D01*
X177830462Y-91819140D01*
X177774931Y-91813897D01*
X177720995Y-91809035D01*
X177629079Y-91802922D01*
X177527829Y-91799655D01*
X177420885Y-91799079D01*
X177311889Y-91801039D01*
X177204479Y-91805382D01*
X177102298Y-91811951D01*
X177008984Y-91820593D01*
X176928178Y-91831152D01*
X176863522Y-91843473D01*
X176853715Y-91845909D01*
X176823239Y-91853037D01*
X176783240Y-91861385D01*
X176756259Y-91866566D01*
X176700201Y-91878198D01*
X176632943Y-91894181D01*
X176560943Y-91912795D01*
X176490658Y-91932319D01*
X176428544Y-91951029D01*
X176386954Y-91965024D01*
X176350738Y-91978060D01*
X176321762Y-91988229D01*
X176305691Y-91993547D01*
X176304886Y-91993768D01*
X176286906Y-92000358D01*
X176251807Y-92015166D01*
X176200997Y-92037588D01*
X176170699Y-92051214D01*
X176135563Y-92066493D01*
X176094175Y-92083675D01*
X176075417Y-92091190D01*
X176042565Y-92105225D01*
X175995478Y-92126789D01*
X175938124Y-92153936D01*
X175874468Y-92184721D01*
X175808475Y-92217198D01*
X175744110Y-92249423D01*
X175685339Y-92279450D01*
X175636128Y-92305334D01*
X175612439Y-92318291D01*
X175564995Y-92346084D01*
X175511713Y-92379182D01*
X175463381Y-92410869D01*
X175459167Y-92413748D01*
X175418742Y-92441509D01*
X175379166Y-92468700D01*
X175347511Y-92490462D01*
X175341194Y-92494808D01*
X175308816Y-92519364D01*
X175265912Y-92555133D01*
X175216277Y-92598636D01*
X175163705Y-92646393D01*
X175111990Y-92694923D01*
X175064926Y-92740748D01*
X175026306Y-92780386D01*
X175008937Y-92799556D01*
X174982103Y-92830341D01*
X174960467Y-92854914D01*
X174947487Y-92869357D01*
X174945554Y-92871365D01*
X174937166Y-92880595D01*
X174917958Y-92902376D01*
X174890532Y-92933739D01*
X174857488Y-92971717D01*
X174846651Y-92984208D01*
X174785376Y-93057632D01*
X174732491Y-93127760D01*
X174684631Y-93199790D01*
X174638426Y-93278923D01*
X174590509Y-93370356D01*
X174570893Y-93409935D01*
X174509218Y-93545063D01*
X174460932Y-93672165D01*
X174424082Y-93796839D01*
X174402783Y-93892084D01*
X174393337Y-93939031D01*
X174384685Y-93979393D01*
X174377890Y-94008367D01*
X174374425Y-94020315D01*
X174367187Y-94043669D01*
X174364475Y-94056220D01*
X174360251Y-94078148D01*
X174353612Y-94110574D01*
X174349929Y-94128029D01*
X174342410Y-94166520D01*
X174336291Y-94203380D01*
X174334687Y-94215226D01*
X174331288Y-94243577D01*
X174326469Y-94283724D01*
X174321260Y-94327090D01*
X174321142Y-94328069D01*
X174317793Y-94371571D01*
X174315875Y-94430762D01*
X174315303Y-94500871D01*
X174279471Y-94500871D01*
X174280129Y-94453779D01*
X174281156Y-94409286D01*
X174282460Y-94377244D01*
X174283561Y-94363974D01*
X174286980Y-94336558D01*
X174291373Y-94298690D01*
X174294365Y-94271648D01*
X174300039Y-94226844D01*
X174307156Y-94180607D01*
X174311095Y-94158804D01*
X174317901Y-94123229D01*
X174323567Y-94092040D01*
X174325287Y-94081866D01*
X174330693Y-94052894D01*
X174334555Y-94035703D01*
X174339161Y-94016862D01*
X174347114Y-93983853D01*
X174357020Y-93942470D01*
X174361697Y-93922859D01*
X174390803Y-93811118D01*
X174424554Y-93699414D01*
X174461614Y-93591260D01*
X174500646Y-93490166D01*
X174540312Y-93399645D01*
X174579276Y-93323208D01*
X174607834Y-93276344D01*
X174628495Y-93242714D01*
X174646420Y-93208659D01*
X174650569Y-93199405D01*
X174665049Y-93171713D01*
X174680725Y-93151200D01*
X174682457Y-93149653D01*
X174696251Y-93133812D01*
X174699434Y-93125063D01*
X174705487Y-93111985D01*
X174721167Y-93088916D01*
X174737885Y-93067333D01*
X174761703Y-93037976D01*
X174782312Y-93012390D01*
X174791742Y-93000551D01*
X174876549Y-92899161D01*
X174974010Y-92793343D01*
X175079286Y-92687822D01*
X175187533Y-92587320D01*
X175293912Y-92496561D01*
X175365808Y-92440509D01*
X175390408Y-92421828D01*
X175408911Y-92407139D01*
X175411891Y-92404604D01*
X175433054Y-92389051D01*
X175468803Y-92366130D01*
X175515525Y-92337943D01*
X175569606Y-92306592D01*
X175627431Y-92274180D01*
X175685387Y-92242807D01*
X175730411Y-92219363D01*
X175766699Y-92200693D01*
X175797113Y-92184715D01*
X175815933Y-92174441D01*
X175817608Y-92173454D01*
X175834070Y-92164836D01*
X175863344Y-92150682D01*
X175899517Y-92133841D01*
X175904805Y-92131427D01*
X175948591Y-92111359D01*
X175993163Y-92090725D01*
X176027357Y-92074706D01*
X176057932Y-92061258D01*
X176081904Y-92052541D01*
X176090641Y-92050687D01*
X176108168Y-92046358D01*
X176132225Y-92036115D01*
X176156192Y-92024860D01*
X176187328Y-92011193D01*
X176219114Y-91997851D01*
X176245033Y-91987572D01*
X176258391Y-91983120D01*
X176271501Y-91978683D01*
X176279240Y-91975440D01*
X176295268Y-91969488D01*
X176325515Y-91959103D01*
X176364638Y-91946036D01*
X176407294Y-91932039D01*
X176448139Y-91918861D01*
X176481831Y-91908255D01*
X176503026Y-91901971D01*
X176504927Y-91901477D01*
X176522935Y-91896686D01*
X176552956Y-91888405D01*
X176576736Y-91881738D01*
X176616556Y-91871590D01*
X176670885Y-91859232D01*
X176734420Y-91845720D01*
X176801858Y-91832112D01*
X176867896Y-91819463D01*
X176927234Y-91808831D01*
X176974567Y-91801272D01*
X176992204Y-91798959D01*
X177031470Y-91794250D01*
X177067162Y-91789615D01*
X177084531Y-91787123D01*
X177108785Y-91784937D01*
X177149657Y-91783012D01*
X177203909Y-91781368D01*
X177268300Y-91780024D01*
X177339589Y-91778998D01*
X177414537Y-91778309D01*
X177489905Y-91777974D01*
X177562452Y-91778013D01*
G37*
G36*
X177510258Y-97862116D02*
G01*
X177505128Y-97867246D01*
X177499999Y-97862116D01*
X177505128Y-97856987D01*
X177510258Y-97862116D01*
G37*
G36*
X177541033Y-97862116D02*
G01*
X177535904Y-97867246D01*
X177530775Y-97862116D01*
X177535904Y-97856987D01*
X177541033Y-97862116D01*
G37*
G36*
X177397414Y-97851858D02*
G01*
X177392285Y-97856987D01*
X177387156Y-97851858D01*
X177392285Y-97846729D01*
X177397414Y-97851858D01*
G37*
G36*
X177417931Y-97851858D02*
G01*
X177412802Y-97856987D01*
X177407673Y-97851858D01*
X177412802Y-97846729D01*
X177417931Y-97851858D01*
G37*
G36*
X179695314Y-97841599D02*
G01*
X179690185Y-97846729D01*
X179685056Y-97841599D01*
X179690185Y-97836470D01*
X179695314Y-97841599D01*
G37*
G36*
X179192649Y-97831341D02*
G01*
X179187519Y-97836470D01*
X179182390Y-97831341D01*
X179187519Y-97826212D01*
X179192649Y-97831341D01*
G37*
G36*
X179213166Y-97831341D02*
G01*
X179208036Y-97836470D01*
X179202907Y-97831341D01*
X179208036Y-97826212D01*
X179213166Y-97831341D01*
G37*
G36*
X179715831Y-97831341D02*
G01*
X179710702Y-97836470D01*
X179705573Y-97831341D01*
X179710702Y-97826212D01*
X179715831Y-97831341D01*
G37*
G36*
X179736348Y-97831341D02*
G01*
X179731219Y-97836470D01*
X179726090Y-97831341D01*
X179731219Y-97826212D01*
X179736348Y-97831341D01*
G37*
G36*
X179777382Y-97831341D02*
G01*
X179772253Y-97836470D01*
X179767124Y-97831341D01*
X179772253Y-97826212D01*
X179777382Y-97831341D01*
G37*
G36*
X179797899Y-97831341D02*
G01*
X179792770Y-97836470D01*
X179787641Y-97831341D01*
X179792770Y-97826212D01*
X179797899Y-97831341D01*
G37*
G36*
X179818416Y-97831341D02*
G01*
X179813287Y-97836470D01*
X179808158Y-97831341D01*
X179813287Y-97826212D01*
X179818416Y-97831341D01*
G37*
G36*
X179845973Y-97822580D02*
G01*
X179844062Y-97826212D01*
X179834397Y-97836008D01*
X179832593Y-97836470D01*
X179831893Y-97829844D01*
X179833804Y-97826212D01*
X179843469Y-97816415D01*
X179845273Y-97815953D01*
X179845973Y-97822580D01*
G37*
G36*
X179869708Y-97831341D02*
G01*
X179864579Y-97836470D01*
X179859450Y-97831341D01*
X179864579Y-97826212D01*
X179869708Y-97831341D01*
G37*
G36*
X179910742Y-97831341D02*
G01*
X179905613Y-97836470D01*
X179900484Y-97831341D01*
X179905613Y-97826212D01*
X179910742Y-97831341D01*
G37*
G36*
X179613246Y-97810824D02*
G01*
X179608117Y-97815953D01*
X179602988Y-97810824D01*
X179608117Y-97805695D01*
X179613246Y-97810824D01*
G37*
G36*
X179890225Y-97780048D02*
G01*
X179885096Y-97785178D01*
X179879967Y-97780048D01*
X179885096Y-97774919D01*
X179890225Y-97780048D01*
G37*
G36*
X179921001Y-97780048D02*
G01*
X179915872Y-97785178D01*
X179910742Y-97780048D01*
X179915872Y-97774919D01*
X179921001Y-97780048D01*
G37*
G36*
X177229066Y-94302787D02*
G01*
X177250094Y-94315059D01*
X177266696Y-94329664D01*
X177272751Y-94341930D01*
X177271424Y-94344636D01*
X177258847Y-94345313D01*
X177251573Y-94340209D01*
X177227081Y-94328961D01*
X177196526Y-94333226D01*
X177183539Y-94339739D01*
X177169567Y-94358073D01*
X177172191Y-94381371D01*
X177190070Y-94404637D01*
X177203556Y-94414256D01*
X177222454Y-94429986D01*
X177226679Y-94443275D01*
X177215957Y-94449600D01*
X177205655Y-94448879D01*
X177187584Y-94454146D01*
X177178813Y-94463134D01*
X177173611Y-94484682D01*
X177185501Y-94501391D01*
X177211157Y-94510455D01*
X177235271Y-94510774D01*
X177264128Y-94511047D01*
X177274299Y-94519084D01*
X177274313Y-94519539D01*
X177271264Y-94531423D01*
X177258552Y-94539550D01*
X177231333Y-94547249D01*
X177204105Y-94547257D01*
X177177391Y-94531068D01*
X177176980Y-94530715D01*
X177158874Y-94509224D01*
X177151144Y-94488342D01*
X177151152Y-94487076D01*
X177152444Y-94439048D01*
X177150924Y-94405007D01*
X177146295Y-94378573D01*
X177145995Y-94377410D01*
X177144549Y-94353830D01*
X177156742Y-94332422D01*
X177165053Y-94323553D01*
X177187545Y-94305944D01*
X177207802Y-94297626D01*
X177209731Y-94297522D01*
X177229066Y-94302787D01*
G37*
G36*
X176501155Y-93923248D02*
G01*
X176507935Y-93928153D01*
X176530206Y-93957380D01*
X176536805Y-93993221D01*
X176527502Y-94028782D01*
X176511959Y-94049302D01*
X176478923Y-94068439D01*
X176442201Y-94071630D01*
X176408516Y-94059144D01*
X176392828Y-94044578D01*
X176375023Y-94013710D01*
X176375279Y-93985706D01*
X176393959Y-93955579D01*
X176399777Y-93949034D01*
X176434785Y-93920224D01*
X176468336Y-93911675D01*
X176501155Y-93923248D01*
G37*
G36*
X178100002Y-93914902D02*
G01*
X178125939Y-93934456D01*
X178138020Y-93963799D01*
X178134347Y-93998884D01*
X178118341Y-94028974D01*
X178089325Y-94052803D01*
X178052924Y-94058113D01*
X178025597Y-94050942D01*
X178002499Y-94031673D01*
X177988391Y-94001463D01*
X177987160Y-93969243D01*
X177988229Y-93965103D01*
X178006012Y-93931474D01*
X178035649Y-93913492D01*
X178062112Y-93909186D01*
X178100002Y-93914902D01*
G37*
D13*
%TO.C,C8*%
X196735000Y-73080000D02*
X198265000Y-73080000D01*
X198265000Y-74920000D02*
X196735000Y-74920000D01*
%TO.C,C18*%
X202380000Y-89515000D02*
X202380000Y-87985000D01*
X204220000Y-87985000D02*
X204220000Y-89515000D01*
%TO.C,R3*%
X181500000Y-59960000D02*
X181500000Y-60730000D01*
X181500000Y-68040000D02*
X181500000Y-67270000D01*
X180130000Y-67270000D02*
X182870000Y-67270000D01*
X182870000Y-60730000D01*
X180130000Y-60730000D01*
X180130000Y-67270000D01*
%TO.C,RV1*%
X181975000Y-76125000D02*
X187025000Y-76125000D01*
X181975000Y-85875000D02*
X181975000Y-76125000D01*
X187025000Y-76125000D02*
X187025000Y-85875000D01*
X187025000Y-85875000D02*
X181975000Y-85875000D01*
%TO.C,C9*%
X167605000Y-83289000D02*
X167605000Y-82091000D01*
X167645000Y-83552000D02*
X167645000Y-81828000D01*
X167685000Y-83752000D02*
X167685000Y-81628000D01*
X167725000Y-83920000D02*
X167725000Y-81460000D01*
X167765000Y-84067000D02*
X167765000Y-81313000D01*
X167805000Y-84199000D02*
X167805000Y-81181000D01*
X167845000Y-84320000D02*
X167845000Y-81060000D01*
X167885000Y-84432000D02*
X167885000Y-80948000D01*
X167925000Y-84536000D02*
X167925000Y-80844000D01*
X167965000Y-84634000D02*
X167965000Y-80746000D01*
X168005000Y-84727000D02*
X168005000Y-80653000D01*
X168045000Y-84814000D02*
X168045000Y-80566000D01*
X168085000Y-84898000D02*
X168085000Y-80482000D01*
X168125000Y-84978000D02*
X168125000Y-80402000D01*
X168165000Y-85055000D02*
X168165000Y-80325000D01*
X168205000Y-85129000D02*
X168205000Y-80251000D01*
X168245000Y-85200000D02*
X168245000Y-80180000D01*
X168285000Y-85268000D02*
X168285000Y-80112000D01*
X168325000Y-85334000D02*
X168325000Y-80046000D01*
X168365000Y-85398000D02*
X168365000Y-79982000D01*
X168405000Y-85460000D02*
X168405000Y-79920000D01*
X168445000Y-85520000D02*
X168445000Y-79860000D01*
X168485000Y-85578000D02*
X168485000Y-79802000D01*
X168525000Y-85635000D02*
X168525000Y-79745000D01*
X168565000Y-85690000D02*
X168565000Y-79690000D01*
X168605000Y-85743000D02*
X168605000Y-79637000D01*
X168645000Y-85795000D02*
X168645000Y-79585000D01*
X168685000Y-85846000D02*
X168685000Y-79534000D01*
X168725000Y-85895000D02*
X168725000Y-79485000D01*
X168765000Y-85944000D02*
X168765000Y-79436000D01*
X168805000Y-85991000D02*
X168805000Y-79389000D01*
X168845000Y-86037000D02*
X168845000Y-79343000D01*
X168885000Y-86081000D02*
X168885000Y-79299000D01*
X168925000Y-86125000D02*
X168925000Y-79255000D01*
X168965000Y-81450000D02*
X168965000Y-79212000D01*
X168965000Y-86168000D02*
X168965000Y-83930000D01*
X169005000Y-81450000D02*
X169005000Y-79170000D01*
X169005000Y-86210000D02*
X169005000Y-83930000D01*
X169045000Y-81450000D02*
X169045000Y-79129000D01*
X169045000Y-86251000D02*
X169045000Y-83930000D01*
X169085000Y-81450000D02*
X169085000Y-79089000D01*
X169085000Y-86291000D02*
X169085000Y-83930000D01*
X169125000Y-81450000D02*
X169125000Y-79050000D01*
X169125000Y-86330000D02*
X169125000Y-83930000D01*
X169165000Y-81450000D02*
X169165000Y-79012000D01*
X169165000Y-86368000D02*
X169165000Y-83930000D01*
X169205000Y-81450000D02*
X169205000Y-78974000D01*
X169205000Y-86406000D02*
X169205000Y-83930000D01*
X169245000Y-81450000D02*
X169245000Y-78938000D01*
X169245000Y-86442000D02*
X169245000Y-83930000D01*
X169285000Y-81450000D02*
X169285000Y-78902000D01*
X169285000Y-86478000D02*
X169285000Y-83930000D01*
X169325000Y-81450000D02*
X169325000Y-78867000D01*
X169325000Y-86513000D02*
X169325000Y-83930000D01*
X169365000Y-81450000D02*
X169365000Y-78832000D01*
X169365000Y-86548000D02*
X169365000Y-83930000D01*
X169405000Y-81450000D02*
X169405000Y-78799000D01*
X169405000Y-86581000D02*
X169405000Y-83930000D01*
X169445000Y-81450000D02*
X169445000Y-78766000D01*
X169445000Y-86614000D02*
X169445000Y-83930000D01*
X169485000Y-81450000D02*
X169485000Y-78733000D01*
X169485000Y-86647000D02*
X169485000Y-83930000D01*
X169525000Y-81450000D02*
X169525000Y-78702000D01*
X169525000Y-86678000D02*
X169525000Y-83930000D01*
X169565000Y-81450000D02*
X169565000Y-78670000D01*
X169565000Y-86710000D02*
X169565000Y-83930000D01*
X169605000Y-81450000D02*
X169605000Y-78640000D01*
X169605000Y-86740000D02*
X169605000Y-83930000D01*
X169645000Y-81450000D02*
X169645000Y-78610000D01*
X169645000Y-86770000D02*
X169645000Y-83930000D01*
X169685000Y-81450000D02*
X169685000Y-78581000D01*
X169685000Y-86799000D02*
X169685000Y-83930000D01*
X169725000Y-81450000D02*
X169725000Y-78552000D01*
X169725000Y-86828000D02*
X169725000Y-83930000D01*
X169765000Y-81450000D02*
X169765000Y-78524000D01*
X169765000Y-86856000D02*
X169765000Y-83930000D01*
X169805000Y-81450000D02*
X169805000Y-78497000D01*
X169805000Y-86883000D02*
X169805000Y-83930000D01*
X169845000Y-81450000D02*
X169845000Y-78470000D01*
X169845000Y-86910000D02*
X169845000Y-83930000D01*
X169885000Y-81450000D02*
X169885000Y-78443000D01*
X169885000Y-86937000D02*
X169885000Y-83930000D01*
X169925000Y-81450000D02*
X169925000Y-78418000D01*
X169925000Y-86962000D02*
X169925000Y-83930000D01*
X169965000Y-81450000D02*
X169965000Y-78392000D01*
X169965000Y-86988000D02*
X169965000Y-83930000D01*
X170005000Y-81450000D02*
X170005000Y-78367000D01*
X170005000Y-87013000D02*
X170005000Y-83930000D01*
X170045000Y-81450000D02*
X170045000Y-78343000D01*
X170045000Y-87037000D02*
X170045000Y-83930000D01*
X170085000Y-81450000D02*
X170085000Y-78319000D01*
X170085000Y-87061000D02*
X170085000Y-83930000D01*
X170125000Y-81450000D02*
X170125000Y-78296000D01*
X170125000Y-87084000D02*
X170125000Y-83930000D01*
X170165000Y-81450000D02*
X170165000Y-78273000D01*
X170165000Y-87107000D02*
X170165000Y-83930000D01*
X170205000Y-81450000D02*
X170205000Y-78251000D01*
X170205000Y-87129000D02*
X170205000Y-83930000D01*
X170245000Y-81450000D02*
X170245000Y-78229000D01*
X170245000Y-87151000D02*
X170245000Y-83930000D01*
X170285000Y-81450000D02*
X170285000Y-78207000D01*
X170285000Y-87173000D02*
X170285000Y-83930000D01*
X170325000Y-81450000D02*
X170325000Y-78186000D01*
X170325000Y-87194000D02*
X170325000Y-83930000D01*
X170365000Y-81450000D02*
X170365000Y-78166000D01*
X170365000Y-87214000D02*
X170365000Y-83930000D01*
X170405000Y-81450000D02*
X170405000Y-78146000D01*
X170405000Y-87234000D02*
X170405000Y-83930000D01*
X170445000Y-81450000D02*
X170445000Y-78126000D01*
X170445000Y-87254000D02*
X170445000Y-83930000D01*
X170485000Y-81450000D02*
X170485000Y-78107000D01*
X170485000Y-87273000D02*
X170485000Y-83930000D01*
X170525000Y-81450000D02*
X170525000Y-78088000D01*
X170525000Y-87292000D02*
X170525000Y-83930000D01*
X170565000Y-81450000D02*
X170565000Y-78070000D01*
X170565000Y-87310000D02*
X170565000Y-83930000D01*
X170605000Y-81450000D02*
X170605000Y-78052000D01*
X170605000Y-87328000D02*
X170605000Y-83930000D01*
X170645000Y-81450000D02*
X170645000Y-78034000D01*
X170645000Y-87346000D02*
X170645000Y-83930000D01*
X170685000Y-81450000D02*
X170685000Y-78017000D01*
X170685000Y-87363000D02*
X170685000Y-83930000D01*
X170725000Y-81450000D02*
X170725000Y-78000000D01*
X170725000Y-87380000D02*
X170725000Y-83930000D01*
X170765000Y-81450000D02*
X170765000Y-77984000D01*
X170765000Y-87396000D02*
X170765000Y-83930000D01*
X170805000Y-81450000D02*
X170805000Y-77968000D01*
X170805000Y-87412000D02*
X170805000Y-83930000D01*
X170845000Y-81450000D02*
X170845000Y-77952000D01*
X170845000Y-87428000D02*
X170845000Y-83930000D01*
X170885000Y-81450000D02*
X170885000Y-77937000D01*
X170885000Y-87443000D02*
X170885000Y-83930000D01*
X170925000Y-81450000D02*
X170925000Y-77922000D01*
X170925000Y-87458000D02*
X170925000Y-83930000D01*
X170965000Y-81450000D02*
X170965000Y-77908000D01*
X170965000Y-87472000D02*
X170965000Y-83930000D01*
X171005000Y-81450000D02*
X171005000Y-77893000D01*
X171005000Y-87487000D02*
X171005000Y-83930000D01*
X171045000Y-81450000D02*
X171045000Y-77880000D01*
X171045000Y-87500000D02*
X171045000Y-83930000D01*
X171085000Y-81450000D02*
X171085000Y-77866000D01*
X171085000Y-87514000D02*
X171085000Y-83930000D01*
X171125000Y-81450000D02*
X171125000Y-77853000D01*
X171125000Y-87527000D02*
X171125000Y-83930000D01*
X171165000Y-81450000D02*
X171165000Y-77841000D01*
X171165000Y-87539000D02*
X171165000Y-83930000D01*
X171205000Y-81450000D02*
X171205000Y-77829000D01*
X171205000Y-87551000D02*
X171205000Y-83930000D01*
X171245000Y-81450000D02*
X171245000Y-77817000D01*
X171245000Y-87563000D02*
X171245000Y-83930000D01*
X171285000Y-81450000D02*
X171285000Y-77805000D01*
X171285000Y-87575000D02*
X171285000Y-83930000D01*
X171325000Y-81450000D02*
X171325000Y-77794000D01*
X171325000Y-87586000D02*
X171325000Y-83930000D01*
X171365000Y-81450000D02*
X171365000Y-77783000D01*
X171365000Y-87597000D02*
X171365000Y-83930000D01*
X171405000Y-81450000D02*
X171405000Y-77773000D01*
X171405000Y-87607000D02*
X171405000Y-83930000D01*
X171445000Y-87618000D02*
X171445000Y-77762000D01*
X171485000Y-87627000D02*
X171485000Y-77753000D01*
X171525000Y-87637000D02*
X171525000Y-77743000D01*
X171565000Y-87646000D02*
X171565000Y-77734000D01*
X171605000Y-87655000D02*
X171605000Y-77725000D01*
X171645000Y-87663000D02*
X171645000Y-77717000D01*
X171685000Y-87671000D02*
X171685000Y-77709000D01*
X171725000Y-87679000D02*
X171725000Y-77701000D01*
X171765000Y-87687000D02*
X171765000Y-77693000D01*
X171805000Y-87694000D02*
X171805000Y-77686000D01*
X171845000Y-87701000D02*
X171845000Y-77679000D01*
X171885000Y-87707000D02*
X171885000Y-77673000D01*
X171925000Y-87713000D02*
X171925000Y-77667000D01*
X171965000Y-87719000D02*
X171965000Y-77661000D01*
X172005000Y-87725000D02*
X172005000Y-77655000D01*
X172045000Y-87730000D02*
X172045000Y-77650000D01*
X172085000Y-87735000D02*
X172085000Y-77645000D01*
X172125000Y-87739000D02*
X172125000Y-77641000D01*
X172165000Y-87744000D02*
X172165000Y-77636000D01*
X172205000Y-87747000D02*
X172205000Y-77633000D01*
X172245000Y-87751000D02*
X172245000Y-77629000D01*
X172285000Y-87754000D02*
X172285000Y-77626000D01*
X172325000Y-87757000D02*
X172325000Y-77623000D01*
X172365000Y-87760000D02*
X172365000Y-77620000D01*
X172405000Y-87762000D02*
X172405000Y-77618000D01*
X172445000Y-87764000D02*
X172445000Y-77616000D01*
X172485000Y-87766000D02*
X172485000Y-77614000D01*
X172525000Y-87767000D02*
X172525000Y-77613000D01*
X172565000Y-87769000D02*
X172565000Y-77611000D01*
X172605000Y-87769000D02*
X172605000Y-77611000D01*
X172645000Y-87770000D02*
X172645000Y-77610000D01*
X172685000Y-87770000D02*
X172685000Y-77610000D01*
X177664646Y-86065000D02*
X177664646Y-85065000D01*
X178164646Y-85565000D02*
X177164646Y-85565000D01*
X177805000Y-82690000D02*
G75*
G02*
X167565000Y-82690000I-5120000J0D01*
G01*
X167565000Y-82690000D02*
G75*
G02*
X177805000Y-82690000I5120000J0D01*
G01*
%TO.C,C11*%
X164765000Y-74955000D02*
X164765000Y-73425000D01*
X166605000Y-73425000D02*
X166605000Y-74955000D01*
%TO.C,C20*%
X199230000Y-89515000D02*
X199230000Y-87985000D01*
X201070000Y-87985000D02*
X201070000Y-89515000D01*
%TO.C,C13*%
X160580000Y-62685000D02*
X160580000Y-61155000D01*
X162420000Y-61155000D02*
X162420000Y-62685000D01*
%TO.C,C10*%
X202152677Y-57625000D02*
X203152677Y-57625000D01*
X202652677Y-57125000D02*
X202652677Y-58125000D01*
X207632323Y-55420000D02*
X207632323Y-65580000D01*
X207672323Y-55420000D02*
X207672323Y-65580000D01*
X207712323Y-55421000D02*
X207712323Y-65579000D01*
X207752323Y-55421000D02*
X207752323Y-65579000D01*
X207792323Y-55423000D02*
X207792323Y-65577000D01*
X207832323Y-55424000D02*
X207832323Y-65576000D01*
X207872323Y-55426000D02*
X207872323Y-65574000D01*
X207912323Y-55428000D02*
X207912323Y-65572000D01*
X207952323Y-55430000D02*
X207952323Y-65570000D01*
X207992323Y-55433000D02*
X207992323Y-65567000D01*
X208032323Y-55436000D02*
X208032323Y-65564000D01*
X208072323Y-55439000D02*
X208072323Y-65561000D01*
X208112323Y-55443000D02*
X208112323Y-65557000D01*
X208152323Y-55446000D02*
X208152323Y-65554000D01*
X208192323Y-55451000D02*
X208192323Y-65549000D01*
X208232323Y-55455000D02*
X208232323Y-65545000D01*
X208272323Y-55460000D02*
X208272323Y-65540000D01*
X208312323Y-55465000D02*
X208312323Y-65535000D01*
X208352323Y-55471000D02*
X208352323Y-65529000D01*
X208392323Y-55477000D02*
X208392323Y-65523000D01*
X208432323Y-55483000D02*
X208432323Y-65517000D01*
X208472323Y-55489000D02*
X208472323Y-65511000D01*
X208512323Y-55496000D02*
X208512323Y-65504000D01*
X208552323Y-55503000D02*
X208552323Y-65497000D01*
X208592323Y-55511000D02*
X208592323Y-65489000D01*
X208632323Y-55519000D02*
X208632323Y-65481000D01*
X208672323Y-55527000D02*
X208672323Y-65473000D01*
X208712323Y-55535000D02*
X208712323Y-65465000D01*
X208752323Y-55544000D02*
X208752323Y-65456000D01*
X208792323Y-55553000D02*
X208792323Y-65447000D01*
X208832323Y-55563000D02*
X208832323Y-65437000D01*
X208872323Y-55572000D02*
X208872323Y-65428000D01*
X208912323Y-55583000D02*
X208912323Y-59260000D01*
X208912323Y-61740000D02*
X208912323Y-65417000D01*
X208952323Y-55593000D02*
X208952323Y-59260000D01*
X208952323Y-61740000D02*
X208952323Y-65407000D01*
X208992323Y-55604000D02*
X208992323Y-59260000D01*
X208992323Y-61740000D02*
X208992323Y-65396000D01*
X209032323Y-55615000D02*
X209032323Y-59260000D01*
X209032323Y-61740000D02*
X209032323Y-65385000D01*
X209072323Y-55627000D02*
X209072323Y-59260000D01*
X209072323Y-61740000D02*
X209072323Y-65373000D01*
X209112323Y-55639000D02*
X209112323Y-59260000D01*
X209112323Y-61740000D02*
X209112323Y-65361000D01*
X209152323Y-55651000D02*
X209152323Y-59260000D01*
X209152323Y-61740000D02*
X209152323Y-65349000D01*
X209192323Y-55663000D02*
X209192323Y-59260000D01*
X209192323Y-61740000D02*
X209192323Y-65337000D01*
X209232323Y-55676000D02*
X209232323Y-59260000D01*
X209232323Y-61740000D02*
X209232323Y-65324000D01*
X209272323Y-55690000D02*
X209272323Y-59260000D01*
X209272323Y-61740000D02*
X209272323Y-65310000D01*
X209312323Y-55703000D02*
X209312323Y-59260000D01*
X209312323Y-61740000D02*
X209312323Y-65297000D01*
X209352323Y-55718000D02*
X209352323Y-59260000D01*
X209352323Y-61740000D02*
X209352323Y-65282000D01*
X209392323Y-55732000D02*
X209392323Y-59260000D01*
X209392323Y-61740000D02*
X209392323Y-65268000D01*
X209432323Y-55747000D02*
X209432323Y-59260000D01*
X209432323Y-61740000D02*
X209432323Y-65253000D01*
X209472323Y-55762000D02*
X209472323Y-59260000D01*
X209472323Y-61740000D02*
X209472323Y-65238000D01*
X209512323Y-55778000D02*
X209512323Y-59260000D01*
X209512323Y-61740000D02*
X209512323Y-65222000D01*
X209552323Y-55794000D02*
X209552323Y-59260000D01*
X209552323Y-61740000D02*
X209552323Y-65206000D01*
X209592323Y-55810000D02*
X209592323Y-59260000D01*
X209592323Y-61740000D02*
X209592323Y-65190000D01*
X209632323Y-55827000D02*
X209632323Y-59260000D01*
X209632323Y-61740000D02*
X209632323Y-65173000D01*
X209672323Y-55844000D02*
X209672323Y-59260000D01*
X209672323Y-61740000D02*
X209672323Y-65156000D01*
X209712323Y-55862000D02*
X209712323Y-59260000D01*
X209712323Y-61740000D02*
X209712323Y-65138000D01*
X209752323Y-55880000D02*
X209752323Y-59260000D01*
X209752323Y-61740000D02*
X209752323Y-65120000D01*
X209792323Y-55898000D02*
X209792323Y-59260000D01*
X209792323Y-61740000D02*
X209792323Y-65102000D01*
X209832323Y-55917000D02*
X209832323Y-59260000D01*
X209832323Y-61740000D02*
X209832323Y-65083000D01*
X209872323Y-55936000D02*
X209872323Y-59260000D01*
X209872323Y-61740000D02*
X209872323Y-65064000D01*
X209912323Y-55956000D02*
X209912323Y-59260000D01*
X209912323Y-61740000D02*
X209912323Y-65044000D01*
X209952323Y-55976000D02*
X209952323Y-59260000D01*
X209952323Y-61740000D02*
X209952323Y-65024000D01*
X209992323Y-55996000D02*
X209992323Y-59260000D01*
X209992323Y-61740000D02*
X209992323Y-65004000D01*
X210032323Y-56017000D02*
X210032323Y-59260000D01*
X210032323Y-61740000D02*
X210032323Y-64983000D01*
X210072323Y-56039000D02*
X210072323Y-59260000D01*
X210072323Y-61740000D02*
X210072323Y-64961000D01*
X210112323Y-56061000D02*
X210112323Y-59260000D01*
X210112323Y-61740000D02*
X210112323Y-64939000D01*
X210152323Y-56083000D02*
X210152323Y-59260000D01*
X210152323Y-61740000D02*
X210152323Y-64917000D01*
X210192323Y-56106000D02*
X210192323Y-59260000D01*
X210192323Y-61740000D02*
X210192323Y-64894000D01*
X210232323Y-56129000D02*
X210232323Y-59260000D01*
X210232323Y-61740000D02*
X210232323Y-64871000D01*
X210272323Y-56153000D02*
X210272323Y-59260000D01*
X210272323Y-61740000D02*
X210272323Y-64847000D01*
X210312323Y-56177000D02*
X210312323Y-59260000D01*
X210312323Y-61740000D02*
X210312323Y-64823000D01*
X210352323Y-56202000D02*
X210352323Y-59260000D01*
X210352323Y-61740000D02*
X210352323Y-64798000D01*
X210392323Y-56228000D02*
X210392323Y-59260000D01*
X210392323Y-61740000D02*
X210392323Y-64772000D01*
X210432323Y-56253000D02*
X210432323Y-59260000D01*
X210432323Y-61740000D02*
X210432323Y-64747000D01*
X210472323Y-56280000D02*
X210472323Y-59260000D01*
X210472323Y-61740000D02*
X210472323Y-64720000D01*
X210512323Y-56307000D02*
X210512323Y-59260000D01*
X210512323Y-61740000D02*
X210512323Y-64693000D01*
X210552323Y-56334000D02*
X210552323Y-59260000D01*
X210552323Y-61740000D02*
X210552323Y-64666000D01*
X210592323Y-56362000D02*
X210592323Y-59260000D01*
X210592323Y-61740000D02*
X210592323Y-64638000D01*
X210632323Y-56391000D02*
X210632323Y-59260000D01*
X210632323Y-61740000D02*
X210632323Y-64609000D01*
X210672323Y-56420000D02*
X210672323Y-59260000D01*
X210672323Y-61740000D02*
X210672323Y-64580000D01*
X210712323Y-56450000D02*
X210712323Y-59260000D01*
X210712323Y-61740000D02*
X210712323Y-64550000D01*
X210752323Y-56480000D02*
X210752323Y-59260000D01*
X210752323Y-61740000D02*
X210752323Y-64520000D01*
X210792323Y-56512000D02*
X210792323Y-59260000D01*
X210792323Y-61740000D02*
X210792323Y-64488000D01*
X210832323Y-56543000D02*
X210832323Y-59260000D01*
X210832323Y-61740000D02*
X210832323Y-64457000D01*
X210872323Y-56576000D02*
X210872323Y-59260000D01*
X210872323Y-61740000D02*
X210872323Y-64424000D01*
X210912323Y-56609000D02*
X210912323Y-59260000D01*
X210912323Y-61740000D02*
X210912323Y-64391000D01*
X210952323Y-56642000D02*
X210952323Y-59260000D01*
X210952323Y-61740000D02*
X210952323Y-64358000D01*
X210992323Y-56677000D02*
X210992323Y-59260000D01*
X210992323Y-61740000D02*
X210992323Y-64323000D01*
X211032323Y-56712000D02*
X211032323Y-59260000D01*
X211032323Y-61740000D02*
X211032323Y-64288000D01*
X211072323Y-56748000D02*
X211072323Y-59260000D01*
X211072323Y-61740000D02*
X211072323Y-64252000D01*
X211112323Y-56784000D02*
X211112323Y-59260000D01*
X211112323Y-61740000D02*
X211112323Y-64216000D01*
X211152323Y-56822000D02*
X211152323Y-59260000D01*
X211152323Y-61740000D02*
X211152323Y-64178000D01*
X211192323Y-56860000D02*
X211192323Y-59260000D01*
X211192323Y-61740000D02*
X211192323Y-64140000D01*
X211232323Y-56899000D02*
X211232323Y-59260000D01*
X211232323Y-61740000D02*
X211232323Y-64101000D01*
X211272323Y-56939000D02*
X211272323Y-59260000D01*
X211272323Y-61740000D02*
X211272323Y-64061000D01*
X211312323Y-56980000D02*
X211312323Y-59260000D01*
X211312323Y-61740000D02*
X211312323Y-64020000D01*
X211352323Y-57022000D02*
X211352323Y-59260000D01*
X211352323Y-61740000D02*
X211352323Y-63978000D01*
X211392323Y-57065000D02*
X211392323Y-63935000D01*
X211432323Y-57109000D02*
X211432323Y-63891000D01*
X211472323Y-57153000D02*
X211472323Y-63847000D01*
X211512323Y-57199000D02*
X211512323Y-63801000D01*
X211552323Y-57246000D02*
X211552323Y-63754000D01*
X211592323Y-57295000D02*
X211592323Y-63705000D01*
X211632323Y-57344000D02*
X211632323Y-63656000D01*
X211672323Y-57395000D02*
X211672323Y-63605000D01*
X211712323Y-57447000D02*
X211712323Y-63553000D01*
X211752323Y-57500000D02*
X211752323Y-63500000D01*
X211792323Y-57555000D02*
X211792323Y-63445000D01*
X211832323Y-57612000D02*
X211832323Y-63388000D01*
X211872323Y-57670000D02*
X211872323Y-63330000D01*
X211912323Y-57730000D02*
X211912323Y-63270000D01*
X211952323Y-57792000D02*
X211952323Y-63208000D01*
X211992323Y-57856000D02*
X211992323Y-63144000D01*
X212032323Y-57922000D02*
X212032323Y-63078000D01*
X212072323Y-57990000D02*
X212072323Y-63010000D01*
X212112323Y-58061000D02*
X212112323Y-62939000D01*
X212152323Y-58135000D02*
X212152323Y-62865000D01*
X212192323Y-58212000D02*
X212192323Y-62788000D01*
X212232323Y-58292000D02*
X212232323Y-62708000D01*
X212272323Y-58376000D02*
X212272323Y-62624000D01*
X212312323Y-58463000D02*
X212312323Y-62537000D01*
X212352323Y-58556000D02*
X212352323Y-62444000D01*
X212392323Y-58654000D02*
X212392323Y-62346000D01*
X212432323Y-58758000D02*
X212432323Y-62242000D01*
X212472323Y-58870000D02*
X212472323Y-62130000D01*
X212512323Y-58991000D02*
X212512323Y-62009000D01*
X212552323Y-59123000D02*
X212552323Y-61877000D01*
X212592323Y-59270000D02*
X212592323Y-61730000D01*
X212632323Y-59438000D02*
X212632323Y-61562000D01*
X212672323Y-59638000D02*
X212672323Y-61362000D01*
X212712323Y-59901000D02*
X212712323Y-61099000D01*
X212752323Y-60500000D02*
G75*
G02*
X202512323Y-60500000I-5120000J0D01*
G01*
X202512323Y-60500000D02*
G75*
G02*
X212752323Y-60500000I5120000J0D01*
G01*
%TO.C,R8*%
X192000000Y-60040000D02*
X192000000Y-60810000D01*
X192000000Y-68120000D02*
X192000000Y-67350000D01*
X193370000Y-60810000D02*
X190630000Y-60810000D01*
X190630000Y-67350000D01*
X193370000Y-67350000D01*
X193370000Y-60810000D01*
%TO.C,R7*%
X185000000Y-59960000D02*
X185000000Y-60730000D01*
X185000000Y-68040000D02*
X185000000Y-67270000D01*
X183630000Y-67270000D02*
X186370000Y-67270000D01*
X186370000Y-60730000D01*
X183630000Y-60730000D01*
X183630000Y-67270000D01*
%TO.C,R4*%
X198300000Y-60040000D02*
X198300000Y-60810000D01*
X198300000Y-68120000D02*
X198300000Y-67350000D01*
X196930000Y-67350000D02*
X199670000Y-67350000D01*
X199670000Y-60810000D01*
X196930000Y-60810000D01*
X196930000Y-67350000D01*
%TO.C,C12*%
X213080000Y-69515000D02*
X213080000Y-67985000D01*
X214920000Y-67985000D02*
X214920000Y-69515000D01*
%TO.C,J4*%
X160195000Y-95230000D02*
X160195000Y-97830000D01*
X160195000Y-95230000D02*
X162855000Y-95230000D01*
X160195000Y-97830000D02*
X162855000Y-97830000D01*
X161525000Y-92630000D02*
X162855000Y-92630000D01*
X162855000Y-92630000D02*
X162855000Y-93960000D01*
X162855000Y-95230000D02*
X162855000Y-97830000D01*
%TO.C,U3*%
X184890000Y-86640000D02*
X195110000Y-86640000D01*
X184890000Y-91260000D02*
X184890000Y-86640000D01*
X188150000Y-91260000D02*
X188150000Y-89880000D01*
X191850000Y-91260000D02*
X191850000Y-89880000D01*
X195110000Y-86640000D02*
X195110000Y-91260000D01*
X195110000Y-89880000D02*
X184890000Y-89880000D01*
X195110000Y-91260000D02*
X184890000Y-91260000D01*
%TO.C,C19*%
X196080000Y-89515000D02*
X196080000Y-87985000D01*
X197920000Y-87985000D02*
X197920000Y-89515000D01*
%TO.C,R6*%
X218000000Y-66380000D02*
X218000000Y-67150000D01*
X218000000Y-74460000D02*
X218000000Y-73690000D01*
X219370000Y-67150000D02*
X216630000Y-67150000D01*
X216630000Y-73690000D01*
X219370000Y-73690000D01*
X219370000Y-67150000D01*
%TO.C,RV2*%
X192975000Y-76125000D02*
X198025000Y-76125000D01*
X192975000Y-85875000D02*
X192975000Y-76125000D01*
X198025000Y-76125000D02*
X198025000Y-85875000D01*
X198025000Y-85875000D02*
X192975000Y-85875000D01*
%TO.C,C6*%
X203822651Y-82033000D02*
X203822651Y-80967000D01*
X203862651Y-82268000D02*
X203862651Y-80732000D01*
X203902651Y-82447000D02*
X203902651Y-80553000D01*
X203942651Y-82597000D02*
X203942651Y-80403000D01*
X203982651Y-82728000D02*
X203982651Y-80272000D01*
X204022651Y-82846000D02*
X204022651Y-80154000D01*
X204062651Y-82953000D02*
X204062651Y-80047000D01*
X204102651Y-83052000D02*
X204102651Y-79948000D01*
X204142651Y-83144000D02*
X204142651Y-79856000D01*
X204182651Y-83231000D02*
X204182651Y-79769000D01*
X204222651Y-83313000D02*
X204222651Y-79687000D01*
X204262651Y-83390000D02*
X204262651Y-79610000D01*
X204302651Y-83464000D02*
X204302651Y-79536000D01*
X204342651Y-83534000D02*
X204342651Y-79466000D01*
X204382651Y-83601000D02*
X204382651Y-79399000D01*
X204422651Y-83665000D02*
X204422651Y-79335000D01*
X204462651Y-83727000D02*
X204462651Y-79273000D01*
X204502651Y-83787000D02*
X204502651Y-79213000D01*
X204542651Y-83844000D02*
X204542651Y-79156000D01*
X204582651Y-83900000D02*
X204582651Y-79100000D01*
X204622651Y-83953000D02*
X204622651Y-79047000D01*
X204662651Y-84005000D02*
X204662651Y-78995000D01*
X204702651Y-84055000D02*
X204702651Y-78945000D01*
X204742651Y-84104000D02*
X204742651Y-78896000D01*
X204782651Y-84151000D02*
X204782651Y-78849000D01*
X204822651Y-84196000D02*
X204822651Y-78804000D01*
X204862651Y-84241000D02*
X204862651Y-78759000D01*
X204902651Y-84284000D02*
X204902651Y-78716000D01*
X204942651Y-84326000D02*
X204942651Y-78674000D01*
X204982651Y-84367000D02*
X204982651Y-78633000D01*
X205022651Y-84406000D02*
X205022651Y-78594000D01*
X205062651Y-84445000D02*
X205062651Y-78555000D01*
X205102651Y-84482000D02*
X205102651Y-78518000D01*
X205142651Y-84519000D02*
X205142651Y-78481000D01*
X205182651Y-84555000D02*
X205182651Y-78445000D01*
X205222651Y-84589000D02*
X205222651Y-78411000D01*
X205262651Y-84623000D02*
X205262651Y-78377000D01*
X205302651Y-84656000D02*
X205302651Y-78344000D01*
X205342651Y-84688000D02*
X205342651Y-78312000D01*
X205382651Y-84719000D02*
X205382651Y-78281000D01*
X205422651Y-84750000D02*
X205422651Y-78250000D01*
X205462651Y-84780000D02*
X205462651Y-78220000D01*
X205502651Y-84809000D02*
X205502651Y-78191000D01*
X205542651Y-84837000D02*
X205542651Y-78163000D01*
X205582651Y-84865000D02*
X205582651Y-78135000D01*
X205622651Y-80460000D02*
X205622651Y-78108000D01*
X205622651Y-84892000D02*
X205622651Y-82540000D01*
X205662651Y-80460000D02*
X205662651Y-78082000D01*
X205662651Y-84918000D02*
X205662651Y-82540000D01*
X205702651Y-80460000D02*
X205702651Y-78057000D01*
X205702651Y-84943000D02*
X205702651Y-82540000D01*
X205742651Y-80460000D02*
X205742651Y-78032000D01*
X205742651Y-84968000D02*
X205742651Y-82540000D01*
X205782651Y-80460000D02*
X205782651Y-78007000D01*
X205782651Y-84993000D02*
X205782651Y-82540000D01*
X205822651Y-80460000D02*
X205822651Y-77984000D01*
X205822651Y-85016000D02*
X205822651Y-82540000D01*
X205862651Y-80460000D02*
X205862651Y-77961000D01*
X205862651Y-85039000D02*
X205862651Y-82540000D01*
X205902651Y-80460000D02*
X205902651Y-77938000D01*
X205902651Y-85062000D02*
X205902651Y-82540000D01*
X205942651Y-80460000D02*
X205942651Y-77916000D01*
X205942651Y-85084000D02*
X205942651Y-82540000D01*
X205982651Y-80460000D02*
X205982651Y-77895000D01*
X205982651Y-85105000D02*
X205982651Y-82540000D01*
X206022651Y-80460000D02*
X206022651Y-77874000D01*
X206022651Y-85126000D02*
X206022651Y-82540000D01*
X206062651Y-80460000D02*
X206062651Y-77854000D01*
X206062651Y-85146000D02*
X206062651Y-82540000D01*
X206102651Y-80460000D02*
X206102651Y-77834000D01*
X206102651Y-85166000D02*
X206102651Y-82540000D01*
X206142651Y-80460000D02*
X206142651Y-77815000D01*
X206142651Y-85185000D02*
X206142651Y-82540000D01*
X206182651Y-80460000D02*
X206182651Y-77796000D01*
X206182651Y-85204000D02*
X206182651Y-82540000D01*
X206222651Y-80460000D02*
X206222651Y-77778000D01*
X206222651Y-85222000D02*
X206222651Y-82540000D01*
X206262651Y-80460000D02*
X206262651Y-77760000D01*
X206262651Y-85240000D02*
X206262651Y-82540000D01*
X206302651Y-80460000D02*
X206302651Y-77743000D01*
X206302651Y-85257000D02*
X206302651Y-82540000D01*
X206342651Y-80460000D02*
X206342651Y-77727000D01*
X206342651Y-85273000D02*
X206342651Y-82540000D01*
X206382651Y-80460000D02*
X206382651Y-77711000D01*
X206382651Y-85289000D02*
X206382651Y-82540000D01*
X206422651Y-80460000D02*
X206422651Y-77695000D01*
X206422651Y-85305000D02*
X206422651Y-82540000D01*
X206462651Y-80460000D02*
X206462651Y-77680000D01*
X206462651Y-85320000D02*
X206462651Y-82540000D01*
X206502651Y-80460000D02*
X206502651Y-77665000D01*
X206502651Y-85335000D02*
X206502651Y-82540000D01*
X206542651Y-80460000D02*
X206542651Y-77651000D01*
X206542651Y-85349000D02*
X206542651Y-82540000D01*
X206582651Y-80460000D02*
X206582651Y-77637000D01*
X206582651Y-85363000D02*
X206582651Y-82540000D01*
X206622651Y-80460000D02*
X206622651Y-77624000D01*
X206622651Y-85376000D02*
X206622651Y-82540000D01*
X206662651Y-80460000D02*
X206662651Y-77611000D01*
X206662651Y-85389000D02*
X206662651Y-82540000D01*
X206702651Y-80460000D02*
X206702651Y-77599000D01*
X206702651Y-85401000D02*
X206702651Y-82540000D01*
X206742651Y-80460000D02*
X206742651Y-77587000D01*
X206742651Y-85413000D02*
X206742651Y-82540000D01*
X206782651Y-80460000D02*
X206782651Y-77575000D01*
X206782651Y-85425000D02*
X206782651Y-82540000D01*
X206822651Y-80460000D02*
X206822651Y-77564000D01*
X206822651Y-85436000D02*
X206822651Y-82540000D01*
X206862651Y-80460000D02*
X206862651Y-77553000D01*
X206862651Y-85447000D02*
X206862651Y-82540000D01*
X206902651Y-80460000D02*
X206902651Y-77543000D01*
X206902651Y-85457000D02*
X206902651Y-82540000D01*
X206942651Y-80460000D02*
X206942651Y-77533000D01*
X206942651Y-85467000D02*
X206942651Y-82540000D01*
X206982651Y-80460000D02*
X206982651Y-77524000D01*
X206982651Y-85476000D02*
X206982651Y-82540000D01*
X207022651Y-80460000D02*
X207022651Y-77515000D01*
X207022651Y-85485000D02*
X207022651Y-82540000D01*
X207062651Y-80460000D02*
X207062651Y-77507000D01*
X207062651Y-85493000D02*
X207062651Y-82540000D01*
X207102651Y-80460000D02*
X207102651Y-77498000D01*
X207102651Y-85502000D02*
X207102651Y-82540000D01*
X207142651Y-80460000D02*
X207142651Y-77491000D01*
X207142651Y-85509000D02*
X207142651Y-82540000D01*
X207182651Y-80460000D02*
X207182651Y-77483000D01*
X207182651Y-85517000D02*
X207182651Y-82540000D01*
X207222651Y-80460000D02*
X207222651Y-77477000D01*
X207222651Y-85523000D02*
X207222651Y-82540000D01*
X207262651Y-80460000D02*
X207262651Y-77470000D01*
X207262651Y-85530000D02*
X207262651Y-82540000D01*
X207302651Y-80460000D02*
X207302651Y-77464000D01*
X207302651Y-85536000D02*
X207302651Y-82540000D01*
X207342651Y-80460000D02*
X207342651Y-77458000D01*
X207342651Y-85542000D02*
X207342651Y-82540000D01*
X207382651Y-80460000D02*
X207382651Y-77453000D01*
X207382651Y-85547000D02*
X207382651Y-82540000D01*
X207422651Y-80460000D02*
X207422651Y-77448000D01*
X207422651Y-85552000D02*
X207422651Y-82540000D01*
X207462651Y-80460000D02*
X207462651Y-77444000D01*
X207462651Y-85556000D02*
X207462651Y-82540000D01*
X207502651Y-80460000D02*
X207502651Y-77439000D01*
X207502651Y-85561000D02*
X207502651Y-82540000D01*
X207542651Y-80460000D02*
X207542651Y-77436000D01*
X207542651Y-85564000D02*
X207542651Y-82540000D01*
X207582651Y-80460000D02*
X207582651Y-77432000D01*
X207582651Y-85568000D02*
X207582651Y-82540000D01*
X207622651Y-80460000D02*
X207622651Y-77430000D01*
X207622651Y-85570000D02*
X207622651Y-82540000D01*
X207662651Y-80460000D02*
X207662651Y-77427000D01*
X207662651Y-85573000D02*
X207662651Y-82540000D01*
X207702651Y-85575000D02*
X207702651Y-77425000D01*
X207742651Y-85577000D02*
X207742651Y-77423000D01*
X207782651Y-85578000D02*
X207782651Y-77422000D01*
X207822651Y-85579000D02*
X207822651Y-77421000D01*
X207862651Y-85580000D02*
X207862651Y-77420000D01*
X207902651Y-85580000D02*
X207902651Y-77420000D01*
X211912349Y-84215000D02*
X211912349Y-83415000D01*
X212312349Y-83815000D02*
X211512349Y-83815000D01*
X212022651Y-81500000D02*
G75*
G02*
X203782651Y-81500000I-4120000J0D01*
G01*
X203782651Y-81500000D02*
G75*
G02*
X212022651Y-81500000I4120000J0D01*
G01*
%TO.C,C4*%
X196735000Y-70580000D02*
X198265000Y-70580000D01*
X198265000Y-72420000D02*
X196735000Y-72420000D01*
%TO.C,R5*%
X161500000Y-66880000D02*
X161500000Y-67650000D01*
X161500000Y-74960000D02*
X161500000Y-74190000D01*
X162870000Y-67650000D02*
X160130000Y-67650000D01*
X160130000Y-74190000D01*
X162870000Y-74190000D01*
X162870000Y-67650000D01*
%TO.C,C14*%
X216930000Y-62259646D02*
X216930000Y-60729646D01*
X218770000Y-60729646D02*
X218770000Y-62259646D01*
%TO.C,C1*%
X187235000Y-55580000D02*
X188765000Y-55580000D01*
X188765000Y-57420000D02*
X187235000Y-57420000D01*
%TO.C,R1*%
X188500000Y-59960000D02*
X188500000Y-60730000D01*
X188500000Y-68040000D02*
X188500000Y-67270000D01*
X189870000Y-60730000D02*
X187130000Y-60730000D01*
X187130000Y-67270000D01*
X189870000Y-67270000D01*
X189870000Y-60730000D01*
%TO.C,R2*%
X195200000Y-60040000D02*
X195200000Y-60810000D01*
X195200000Y-68120000D02*
X195200000Y-67350000D01*
X193830000Y-67350000D02*
X196570000Y-67350000D01*
X196570000Y-60810000D01*
X193830000Y-60810000D01*
X193830000Y-67350000D01*
%TO.C,C7*%
X181485000Y-73080000D02*
X183015000Y-73080000D01*
X183015000Y-74920000D02*
X181485000Y-74920000D01*
%TO.C,J3*%
X186130000Y-52170000D02*
X186130000Y-54830000D01*
X191270000Y-52170000D02*
X186130000Y-52170000D01*
X191270000Y-52170000D02*
X191270000Y-54830000D01*
X191270000Y-54830000D02*
X186130000Y-54830000D01*
X193870000Y-53500000D02*
X193870000Y-54830000D01*
X193870000Y-54830000D02*
X192540000Y-54830000D01*
%TO.C,C16*%
X216760000Y-83780000D02*
X213083000Y-83780000D01*
X216760000Y-83820000D02*
X213093000Y-83820000D01*
X216760000Y-83860000D02*
X213104000Y-83860000D01*
X216760000Y-83900000D02*
X213115000Y-83900000D01*
X216760000Y-83940000D02*
X213127000Y-83940000D01*
X216760000Y-83980000D02*
X213139000Y-83980000D01*
X216760000Y-84020000D02*
X213151000Y-84020000D01*
X216760000Y-84060000D02*
X213163000Y-84060000D01*
X216760000Y-84100000D02*
X213176000Y-84100000D01*
X216760000Y-84140000D02*
X213190000Y-84140000D01*
X216760000Y-84180000D02*
X213203000Y-84180000D01*
X216760000Y-84220000D02*
X213218000Y-84220000D01*
X216760000Y-84260000D02*
X213232000Y-84260000D01*
X216760000Y-84300000D02*
X213247000Y-84300000D01*
X216760000Y-84340000D02*
X213262000Y-84340000D01*
X216760000Y-84380000D02*
X213278000Y-84380000D01*
X216760000Y-84420000D02*
X213294000Y-84420000D01*
X216760000Y-84460000D02*
X213310000Y-84460000D01*
X216760000Y-84500000D02*
X213327000Y-84500000D01*
X216760000Y-84540000D02*
X213344000Y-84540000D01*
X216760000Y-84580000D02*
X213362000Y-84580000D01*
X216760000Y-84620000D02*
X213380000Y-84620000D01*
X216760000Y-84660000D02*
X213398000Y-84660000D01*
X216760000Y-84700000D02*
X213417000Y-84700000D01*
X216760000Y-84740000D02*
X213436000Y-84740000D01*
X216760000Y-84780000D02*
X213456000Y-84780000D01*
X216760000Y-84820000D02*
X213476000Y-84820000D01*
X216760000Y-84860000D02*
X213496000Y-84860000D01*
X216760000Y-84900000D02*
X213517000Y-84900000D01*
X216760000Y-84940000D02*
X213539000Y-84940000D01*
X216760000Y-84980000D02*
X213561000Y-84980000D01*
X216760000Y-85020000D02*
X213583000Y-85020000D01*
X216760000Y-85060000D02*
X213606000Y-85060000D01*
X216760000Y-85100000D02*
X213629000Y-85100000D01*
X216760000Y-85140000D02*
X213653000Y-85140000D01*
X216760000Y-85180000D02*
X213677000Y-85180000D01*
X216760000Y-85220000D02*
X213702000Y-85220000D01*
X216760000Y-85260000D02*
X213728000Y-85260000D01*
X216760000Y-85300000D02*
X213753000Y-85300000D01*
X216760000Y-85340000D02*
X213780000Y-85340000D01*
X216760000Y-85380000D02*
X213807000Y-85380000D01*
X216760000Y-85420000D02*
X213834000Y-85420000D01*
X216760000Y-85460000D02*
X213862000Y-85460000D01*
X216760000Y-85500000D02*
X213891000Y-85500000D01*
X216760000Y-85540000D02*
X213920000Y-85540000D01*
X216760000Y-85580000D02*
X213950000Y-85580000D01*
X216760000Y-85620000D02*
X213980000Y-85620000D01*
X216760000Y-85660000D02*
X214012000Y-85660000D01*
X216760000Y-85700000D02*
X214043000Y-85700000D01*
X216760000Y-85740000D02*
X214076000Y-85740000D01*
X216760000Y-85780000D02*
X214109000Y-85780000D01*
X216760000Y-85820000D02*
X214142000Y-85820000D01*
X216760000Y-85860000D02*
X214177000Y-85860000D01*
X216760000Y-85900000D02*
X214212000Y-85900000D01*
X216760000Y-85940000D02*
X214248000Y-85940000D01*
X216760000Y-85980000D02*
X214284000Y-85980000D01*
X216760000Y-86020000D02*
X214322000Y-86020000D01*
X216760000Y-86060000D02*
X214360000Y-86060000D01*
X216760000Y-86100000D02*
X214399000Y-86100000D01*
X216760000Y-86140000D02*
X214439000Y-86140000D01*
X216760000Y-86180000D02*
X214480000Y-86180000D01*
X216760000Y-86220000D02*
X214522000Y-86220000D01*
X218599000Y-87580000D02*
X217401000Y-87580000D01*
X218862000Y-87540000D02*
X217138000Y-87540000D01*
X219062000Y-87500000D02*
X216938000Y-87500000D01*
X219230000Y-87460000D02*
X216770000Y-87460000D01*
X219377000Y-87420000D02*
X216623000Y-87420000D01*
X219509000Y-87380000D02*
X216491000Y-87380000D01*
X219630000Y-87340000D02*
X216370000Y-87340000D01*
X219742000Y-87300000D02*
X216258000Y-87300000D01*
X219846000Y-87260000D02*
X216154000Y-87260000D01*
X219944000Y-87220000D02*
X216056000Y-87220000D01*
X220037000Y-87180000D02*
X215963000Y-87180000D01*
X220124000Y-87140000D02*
X215876000Y-87140000D01*
X220208000Y-87100000D02*
X215792000Y-87100000D01*
X220288000Y-87060000D02*
X215712000Y-87060000D01*
X220365000Y-87020000D02*
X215635000Y-87020000D01*
X220439000Y-86980000D02*
X215561000Y-86980000D01*
X220510000Y-86940000D02*
X215490000Y-86940000D01*
X220578000Y-86900000D02*
X215422000Y-86900000D01*
X220644000Y-86860000D02*
X215356000Y-86860000D01*
X220708000Y-86820000D02*
X215292000Y-86820000D01*
X220770000Y-86780000D02*
X215230000Y-86780000D01*
X220830000Y-86740000D02*
X215170000Y-86740000D01*
X220875000Y-77020354D02*
X220875000Y-78020354D01*
X220888000Y-86700000D02*
X215112000Y-86700000D01*
X220945000Y-86660000D02*
X215055000Y-86660000D01*
X221000000Y-86620000D02*
X215000000Y-86620000D01*
X221053000Y-86580000D02*
X214947000Y-86580000D01*
X221105000Y-86540000D02*
X214895000Y-86540000D01*
X221156000Y-86500000D02*
X214844000Y-86500000D01*
X221205000Y-86460000D02*
X214795000Y-86460000D01*
X221254000Y-86420000D02*
X214746000Y-86420000D01*
X221301000Y-86380000D02*
X214699000Y-86380000D01*
X221347000Y-86340000D02*
X214653000Y-86340000D01*
X221375000Y-77520354D02*
X220375000Y-77520354D01*
X221391000Y-86300000D02*
X214609000Y-86300000D01*
X221435000Y-86260000D02*
X214565000Y-86260000D01*
X221478000Y-86220000D02*
X219240000Y-86220000D01*
X221520000Y-86180000D02*
X219240000Y-86180000D01*
X221561000Y-86140000D02*
X219240000Y-86140000D01*
X221601000Y-86100000D02*
X219240000Y-86100000D01*
X221640000Y-86060000D02*
X219240000Y-86060000D01*
X221678000Y-86020000D02*
X219240000Y-86020000D01*
X221716000Y-85980000D02*
X219240000Y-85980000D01*
X221752000Y-85940000D02*
X219240000Y-85940000D01*
X221788000Y-85900000D02*
X219240000Y-85900000D01*
X221823000Y-85860000D02*
X219240000Y-85860000D01*
X221858000Y-85820000D02*
X219240000Y-85820000D01*
X221891000Y-85780000D02*
X219240000Y-85780000D01*
X221924000Y-85740000D02*
X219240000Y-85740000D01*
X221957000Y-85700000D02*
X219240000Y-85700000D01*
X221988000Y-85660000D02*
X219240000Y-85660000D01*
X222020000Y-85620000D02*
X219240000Y-85620000D01*
X222050000Y-85580000D02*
X219240000Y-85580000D01*
X222080000Y-85540000D02*
X219240000Y-85540000D01*
X222109000Y-85500000D02*
X219240000Y-85500000D01*
X222138000Y-85460000D02*
X219240000Y-85460000D01*
X222166000Y-85420000D02*
X219240000Y-85420000D01*
X222193000Y-85380000D02*
X219240000Y-85380000D01*
X222220000Y-85340000D02*
X219240000Y-85340000D01*
X222247000Y-85300000D02*
X219240000Y-85300000D01*
X222272000Y-85260000D02*
X219240000Y-85260000D01*
X222298000Y-85220000D02*
X219240000Y-85220000D01*
X222323000Y-85180000D02*
X219240000Y-85180000D01*
X222347000Y-85140000D02*
X219240000Y-85140000D01*
X222371000Y-85100000D02*
X219240000Y-85100000D01*
X222394000Y-85060000D02*
X219240000Y-85060000D01*
X222417000Y-85020000D02*
X219240000Y-85020000D01*
X222439000Y-84980000D02*
X219240000Y-84980000D01*
X222461000Y-84940000D02*
X219240000Y-84940000D01*
X222483000Y-84900000D02*
X219240000Y-84900000D01*
X222504000Y-84860000D02*
X219240000Y-84860000D01*
X222524000Y-84820000D02*
X219240000Y-84820000D01*
X222544000Y-84780000D02*
X219240000Y-84780000D01*
X222564000Y-84740000D02*
X219240000Y-84740000D01*
X222583000Y-84700000D02*
X219240000Y-84700000D01*
X222602000Y-84660000D02*
X219240000Y-84660000D01*
X222620000Y-84620000D02*
X219240000Y-84620000D01*
X222638000Y-84580000D02*
X219240000Y-84580000D01*
X222656000Y-84540000D02*
X219240000Y-84540000D01*
X222673000Y-84500000D02*
X219240000Y-84500000D01*
X222690000Y-84460000D02*
X219240000Y-84460000D01*
X222706000Y-84420000D02*
X219240000Y-84420000D01*
X222722000Y-84380000D02*
X219240000Y-84380000D01*
X222738000Y-84340000D02*
X219240000Y-84340000D01*
X222753000Y-84300000D02*
X219240000Y-84300000D01*
X222768000Y-84260000D02*
X219240000Y-84260000D01*
X222782000Y-84220000D02*
X219240000Y-84220000D01*
X222797000Y-84180000D02*
X219240000Y-84180000D01*
X222810000Y-84140000D02*
X219240000Y-84140000D01*
X222824000Y-84100000D02*
X219240000Y-84100000D01*
X222837000Y-84060000D02*
X219240000Y-84060000D01*
X222849000Y-84020000D02*
X219240000Y-84020000D01*
X222861000Y-83980000D02*
X219240000Y-83980000D01*
X222873000Y-83940000D02*
X219240000Y-83940000D01*
X222885000Y-83900000D02*
X219240000Y-83900000D01*
X222896000Y-83860000D02*
X219240000Y-83860000D01*
X222907000Y-83820000D02*
X219240000Y-83820000D01*
X222917000Y-83780000D02*
X219240000Y-83780000D01*
X222928000Y-83740000D02*
X213072000Y-83740000D01*
X222937000Y-83700000D02*
X213063000Y-83700000D01*
X222947000Y-83660000D02*
X213053000Y-83660000D01*
X222956000Y-83620000D02*
X213044000Y-83620000D01*
X222965000Y-83580000D02*
X213035000Y-83580000D01*
X222973000Y-83540000D02*
X213027000Y-83540000D01*
X222981000Y-83500000D02*
X213019000Y-83500000D01*
X222989000Y-83460000D02*
X213011000Y-83460000D01*
X222997000Y-83420000D02*
X213003000Y-83420000D01*
X223004000Y-83380000D02*
X212996000Y-83380000D01*
X223011000Y-83340000D02*
X212989000Y-83340000D01*
X223017000Y-83300000D02*
X212983000Y-83300000D01*
X223023000Y-83260000D02*
X212977000Y-83260000D01*
X223029000Y-83220000D02*
X212971000Y-83220000D01*
X223035000Y-83180000D02*
X212965000Y-83180000D01*
X223040000Y-83140000D02*
X212960000Y-83140000D01*
X223045000Y-83100000D02*
X212955000Y-83100000D01*
X223049000Y-83060000D02*
X212951000Y-83060000D01*
X223054000Y-83020000D02*
X212946000Y-83020000D01*
X223057000Y-82980000D02*
X212943000Y-82980000D01*
X223061000Y-82940000D02*
X212939000Y-82940000D01*
X223064000Y-82900000D02*
X212936000Y-82900000D01*
X223067000Y-82860000D02*
X212933000Y-82860000D01*
X223070000Y-82820000D02*
X212930000Y-82820000D01*
X223072000Y-82780000D02*
X212928000Y-82780000D01*
X223074000Y-82740000D02*
X212926000Y-82740000D01*
X223076000Y-82700000D02*
X212924000Y-82700000D01*
X223077000Y-82660000D02*
X212923000Y-82660000D01*
X223079000Y-82580000D02*
X212921000Y-82580000D01*
X223079000Y-82620000D02*
X212921000Y-82620000D01*
X223080000Y-82500000D02*
X212920000Y-82500000D01*
X223080000Y-82540000D02*
X212920000Y-82540000D01*
X223120000Y-82500000D02*
G75*
G02*
X212880000Y-82500000I-5120000J0D01*
G01*
X212880000Y-82500000D02*
G75*
G02*
X223120000Y-82500000I5120000J0D01*
G01*
%TO.C,C5*%
X167872651Y-59375000D02*
X168672651Y-59375000D01*
X168272651Y-58975000D02*
X168272651Y-59775000D01*
X172282349Y-57610000D02*
X172282349Y-65770000D01*
X172322349Y-57610000D02*
X172322349Y-65770000D01*
X172362349Y-57611000D02*
X172362349Y-65769000D01*
X172402349Y-57612000D02*
X172402349Y-65768000D01*
X172442349Y-57613000D02*
X172442349Y-65767000D01*
X172482349Y-57615000D02*
X172482349Y-65765000D01*
X172522349Y-57617000D02*
X172522349Y-60650000D01*
X172522349Y-62730000D02*
X172522349Y-65763000D01*
X172562349Y-57620000D02*
X172562349Y-60650000D01*
X172562349Y-62730000D02*
X172562349Y-65760000D01*
X172602349Y-57622000D02*
X172602349Y-60650000D01*
X172602349Y-62730000D02*
X172602349Y-65758000D01*
X172642349Y-57626000D02*
X172642349Y-60650000D01*
X172642349Y-62730000D02*
X172642349Y-65754000D01*
X172682349Y-57629000D02*
X172682349Y-60650000D01*
X172682349Y-62730000D02*
X172682349Y-65751000D01*
X172722349Y-57634000D02*
X172722349Y-60650000D01*
X172722349Y-62730000D02*
X172722349Y-65746000D01*
X172762349Y-57638000D02*
X172762349Y-60650000D01*
X172762349Y-62730000D02*
X172762349Y-65742000D01*
X172802349Y-57643000D02*
X172802349Y-60650000D01*
X172802349Y-62730000D02*
X172802349Y-65737000D01*
X172842349Y-57648000D02*
X172842349Y-60650000D01*
X172842349Y-62730000D02*
X172842349Y-65732000D01*
X172882349Y-57654000D02*
X172882349Y-60650000D01*
X172882349Y-62730000D02*
X172882349Y-65726000D01*
X172922349Y-57660000D02*
X172922349Y-60650000D01*
X172922349Y-62730000D02*
X172922349Y-65720000D01*
X172962349Y-57667000D02*
X172962349Y-60650000D01*
X172962349Y-62730000D02*
X172962349Y-65713000D01*
X173002349Y-57673000D02*
X173002349Y-60650000D01*
X173002349Y-62730000D02*
X173002349Y-65707000D01*
X173042349Y-57681000D02*
X173042349Y-60650000D01*
X173042349Y-62730000D02*
X173042349Y-65699000D01*
X173082349Y-57688000D02*
X173082349Y-60650000D01*
X173082349Y-62730000D02*
X173082349Y-65692000D01*
X173122349Y-57697000D02*
X173122349Y-60650000D01*
X173122349Y-62730000D02*
X173122349Y-65683000D01*
X173162349Y-57705000D02*
X173162349Y-60650000D01*
X173162349Y-62730000D02*
X173162349Y-65675000D01*
X173202349Y-57714000D02*
X173202349Y-60650000D01*
X173202349Y-62730000D02*
X173202349Y-65666000D01*
X173242349Y-57723000D02*
X173242349Y-60650000D01*
X173242349Y-62730000D02*
X173242349Y-65657000D01*
X173282349Y-57733000D02*
X173282349Y-60650000D01*
X173282349Y-62730000D02*
X173282349Y-65647000D01*
X173322349Y-57743000D02*
X173322349Y-60650000D01*
X173322349Y-62730000D02*
X173322349Y-65637000D01*
X173362349Y-57754000D02*
X173362349Y-60650000D01*
X173362349Y-62730000D02*
X173362349Y-65626000D01*
X173402349Y-57765000D02*
X173402349Y-60650000D01*
X173402349Y-62730000D02*
X173402349Y-65615000D01*
X173442349Y-57777000D02*
X173442349Y-60650000D01*
X173442349Y-62730000D02*
X173442349Y-65603000D01*
X173482349Y-57789000D02*
X173482349Y-60650000D01*
X173482349Y-62730000D02*
X173482349Y-65591000D01*
X173522349Y-57801000D02*
X173522349Y-60650000D01*
X173522349Y-62730000D02*
X173522349Y-65579000D01*
X173562349Y-57814000D02*
X173562349Y-60650000D01*
X173562349Y-62730000D02*
X173562349Y-65566000D01*
X173602349Y-57827000D02*
X173602349Y-60650000D01*
X173602349Y-62730000D02*
X173602349Y-65553000D01*
X173642349Y-57841000D02*
X173642349Y-60650000D01*
X173642349Y-62730000D02*
X173642349Y-65539000D01*
X173682349Y-57855000D02*
X173682349Y-60650000D01*
X173682349Y-62730000D02*
X173682349Y-65525000D01*
X173722349Y-57870000D02*
X173722349Y-60650000D01*
X173722349Y-62730000D02*
X173722349Y-65510000D01*
X173762349Y-57885000D02*
X173762349Y-60650000D01*
X173762349Y-62730000D02*
X173762349Y-65495000D01*
X173802349Y-57901000D02*
X173802349Y-60650000D01*
X173802349Y-62730000D02*
X173802349Y-65479000D01*
X173842349Y-57917000D02*
X173842349Y-60650000D01*
X173842349Y-62730000D02*
X173842349Y-65463000D01*
X173882349Y-57933000D02*
X173882349Y-60650000D01*
X173882349Y-62730000D02*
X173882349Y-65447000D01*
X173922349Y-57950000D02*
X173922349Y-60650000D01*
X173922349Y-62730000D02*
X173922349Y-65430000D01*
X173962349Y-57968000D02*
X173962349Y-60650000D01*
X173962349Y-62730000D02*
X173962349Y-65412000D01*
X174002349Y-57986000D02*
X174002349Y-60650000D01*
X174002349Y-62730000D02*
X174002349Y-65394000D01*
X174042349Y-58005000D02*
X174042349Y-60650000D01*
X174042349Y-62730000D02*
X174042349Y-65375000D01*
X174082349Y-58024000D02*
X174082349Y-60650000D01*
X174082349Y-62730000D02*
X174082349Y-65356000D01*
X174122349Y-58044000D02*
X174122349Y-60650000D01*
X174122349Y-62730000D02*
X174122349Y-65336000D01*
X174162349Y-58064000D02*
X174162349Y-60650000D01*
X174162349Y-62730000D02*
X174162349Y-65316000D01*
X174202349Y-58085000D02*
X174202349Y-60650000D01*
X174202349Y-62730000D02*
X174202349Y-65295000D01*
X174242349Y-58106000D02*
X174242349Y-60650000D01*
X174242349Y-62730000D02*
X174242349Y-65274000D01*
X174282349Y-58128000D02*
X174282349Y-60650000D01*
X174282349Y-62730000D02*
X174282349Y-65252000D01*
X174322349Y-58151000D02*
X174322349Y-60650000D01*
X174322349Y-62730000D02*
X174322349Y-65229000D01*
X174362349Y-58174000D02*
X174362349Y-60650000D01*
X174362349Y-62730000D02*
X174362349Y-65206000D01*
X174402349Y-58197000D02*
X174402349Y-60650000D01*
X174402349Y-62730000D02*
X174402349Y-65183000D01*
X174442349Y-58222000D02*
X174442349Y-60650000D01*
X174442349Y-62730000D02*
X174442349Y-65158000D01*
X174482349Y-58247000D02*
X174482349Y-60650000D01*
X174482349Y-62730000D02*
X174482349Y-65133000D01*
X174522349Y-58272000D02*
X174522349Y-60650000D01*
X174522349Y-62730000D02*
X174522349Y-65108000D01*
X174562349Y-58298000D02*
X174562349Y-60650000D01*
X174562349Y-62730000D02*
X174562349Y-65082000D01*
X174602349Y-58325000D02*
X174602349Y-65055000D01*
X174642349Y-58353000D02*
X174642349Y-65027000D01*
X174682349Y-58381000D02*
X174682349Y-64999000D01*
X174722349Y-58410000D02*
X174722349Y-64970000D01*
X174762349Y-58440000D02*
X174762349Y-64940000D01*
X174802349Y-58471000D02*
X174802349Y-64909000D01*
X174842349Y-58502000D02*
X174842349Y-64878000D01*
X174882349Y-58534000D02*
X174882349Y-64846000D01*
X174922349Y-58567000D02*
X174922349Y-64813000D01*
X174962349Y-58601000D02*
X174962349Y-64779000D01*
X175002349Y-58635000D02*
X175002349Y-64745000D01*
X175042349Y-58671000D02*
X175042349Y-64709000D01*
X175082349Y-58708000D02*
X175082349Y-64672000D01*
X175122349Y-58745000D02*
X175122349Y-64635000D01*
X175162349Y-58784000D02*
X175162349Y-64596000D01*
X175202349Y-58823000D02*
X175202349Y-64557000D01*
X175242349Y-58864000D02*
X175242349Y-64516000D01*
X175282349Y-58906000D02*
X175282349Y-64474000D01*
X175322349Y-58949000D02*
X175322349Y-64431000D01*
X175362349Y-58994000D02*
X175362349Y-64386000D01*
X175402349Y-59039000D02*
X175402349Y-64341000D01*
X175442349Y-59086000D02*
X175442349Y-64294000D01*
X175482349Y-59135000D02*
X175482349Y-64245000D01*
X175522349Y-59185000D02*
X175522349Y-64195000D01*
X175562349Y-59237000D02*
X175562349Y-64143000D01*
X175602349Y-59290000D02*
X175602349Y-64090000D01*
X175642349Y-59346000D02*
X175642349Y-64034000D01*
X175682349Y-59403000D02*
X175682349Y-63977000D01*
X175722349Y-59463000D02*
X175722349Y-63917000D01*
X175762349Y-59525000D02*
X175762349Y-63855000D01*
X175802349Y-59589000D02*
X175802349Y-63791000D01*
X175842349Y-59656000D02*
X175842349Y-63724000D01*
X175882349Y-59726000D02*
X175882349Y-63654000D01*
X175922349Y-59800000D02*
X175922349Y-63580000D01*
X175962349Y-59877000D02*
X175962349Y-63503000D01*
X176002349Y-59959000D02*
X176002349Y-63421000D01*
X176042349Y-60046000D02*
X176042349Y-63334000D01*
X176082349Y-60138000D02*
X176082349Y-63242000D01*
X176122349Y-60237000D02*
X176122349Y-63143000D01*
X176162349Y-60344000D02*
X176162349Y-63036000D01*
X176202349Y-60462000D02*
X176202349Y-62918000D01*
X176242349Y-60593000D02*
X176242349Y-62787000D01*
X176282349Y-60743000D02*
X176282349Y-62637000D01*
X176322349Y-60922000D02*
X176322349Y-62458000D01*
X176362349Y-61157000D02*
X176362349Y-62223000D01*
X176402349Y-61690000D02*
G75*
G02*
X168162349Y-61690000I-4120000J0D01*
G01*
X168162349Y-61690000D02*
G75*
G02*
X176402349Y-61690000I4120000J0D01*
G01*
%TO.C,C2*%
X191985000Y-55580000D02*
X193515000Y-55580000D01*
X193515000Y-57420000D02*
X191985000Y-57420000D01*
%TO.C,C17*%
X182080000Y-90015000D02*
X182080000Y-88485000D01*
X183920000Y-88485000D02*
X183920000Y-90015000D01*
%TO.C,U1*%
X169845000Y-66360000D02*
X169845000Y-76640000D01*
X169845000Y-76640000D02*
X171495000Y-76640000D01*
X173495000Y-76640000D02*
X175145000Y-76640000D01*
X175145000Y-66360000D02*
X169845000Y-66360000D01*
X175145000Y-76640000D02*
X175145000Y-66360000D01*
X171495000Y-76640000D02*
G75*
G02*
X173495000Y-76640000I1000000J0D01*
G01*
%TO.C,C15*%
X160260000Y-83780000D02*
X156583000Y-83780000D01*
X160260000Y-83820000D02*
X156593000Y-83820000D01*
X160260000Y-83860000D02*
X156604000Y-83860000D01*
X160260000Y-83900000D02*
X156615000Y-83900000D01*
X160260000Y-83940000D02*
X156627000Y-83940000D01*
X160260000Y-83980000D02*
X156639000Y-83980000D01*
X160260000Y-84020000D02*
X156651000Y-84020000D01*
X160260000Y-84060000D02*
X156663000Y-84060000D01*
X160260000Y-84100000D02*
X156676000Y-84100000D01*
X160260000Y-84140000D02*
X156690000Y-84140000D01*
X160260000Y-84180000D02*
X156703000Y-84180000D01*
X160260000Y-84220000D02*
X156718000Y-84220000D01*
X160260000Y-84260000D02*
X156732000Y-84260000D01*
X160260000Y-84300000D02*
X156747000Y-84300000D01*
X160260000Y-84340000D02*
X156762000Y-84340000D01*
X160260000Y-84380000D02*
X156778000Y-84380000D01*
X160260000Y-84420000D02*
X156794000Y-84420000D01*
X160260000Y-84460000D02*
X156810000Y-84460000D01*
X160260000Y-84500000D02*
X156827000Y-84500000D01*
X160260000Y-84540000D02*
X156844000Y-84540000D01*
X160260000Y-84580000D02*
X156862000Y-84580000D01*
X160260000Y-84620000D02*
X156880000Y-84620000D01*
X160260000Y-84660000D02*
X156898000Y-84660000D01*
X160260000Y-84700000D02*
X156917000Y-84700000D01*
X160260000Y-84740000D02*
X156936000Y-84740000D01*
X160260000Y-84780000D02*
X156956000Y-84780000D01*
X160260000Y-84820000D02*
X156976000Y-84820000D01*
X160260000Y-84860000D02*
X156996000Y-84860000D01*
X160260000Y-84900000D02*
X157017000Y-84900000D01*
X160260000Y-84940000D02*
X157039000Y-84940000D01*
X160260000Y-84980000D02*
X157061000Y-84980000D01*
X160260000Y-85020000D02*
X157083000Y-85020000D01*
X160260000Y-85060000D02*
X157106000Y-85060000D01*
X160260000Y-85100000D02*
X157129000Y-85100000D01*
X160260000Y-85140000D02*
X157153000Y-85140000D01*
X160260000Y-85180000D02*
X157177000Y-85180000D01*
X160260000Y-85220000D02*
X157202000Y-85220000D01*
X160260000Y-85260000D02*
X157228000Y-85260000D01*
X160260000Y-85300000D02*
X157253000Y-85300000D01*
X160260000Y-85340000D02*
X157280000Y-85340000D01*
X160260000Y-85380000D02*
X157307000Y-85380000D01*
X160260000Y-85420000D02*
X157334000Y-85420000D01*
X160260000Y-85460000D02*
X157362000Y-85460000D01*
X160260000Y-85500000D02*
X157391000Y-85500000D01*
X160260000Y-85540000D02*
X157420000Y-85540000D01*
X160260000Y-85580000D02*
X157450000Y-85580000D01*
X160260000Y-85620000D02*
X157480000Y-85620000D01*
X160260000Y-85660000D02*
X157512000Y-85660000D01*
X160260000Y-85700000D02*
X157543000Y-85700000D01*
X160260000Y-85740000D02*
X157576000Y-85740000D01*
X160260000Y-85780000D02*
X157609000Y-85780000D01*
X160260000Y-85820000D02*
X157642000Y-85820000D01*
X160260000Y-85860000D02*
X157677000Y-85860000D01*
X160260000Y-85900000D02*
X157712000Y-85900000D01*
X160260000Y-85940000D02*
X157748000Y-85940000D01*
X160260000Y-85980000D02*
X157784000Y-85980000D01*
X160260000Y-86020000D02*
X157822000Y-86020000D01*
X160260000Y-86060000D02*
X157860000Y-86060000D01*
X160260000Y-86100000D02*
X157899000Y-86100000D01*
X160260000Y-86140000D02*
X157939000Y-86140000D01*
X160260000Y-86180000D02*
X157980000Y-86180000D01*
X160260000Y-86220000D02*
X158022000Y-86220000D01*
X162099000Y-87580000D02*
X160901000Y-87580000D01*
X162362000Y-87540000D02*
X160638000Y-87540000D01*
X162562000Y-87500000D02*
X160438000Y-87500000D01*
X162730000Y-87460000D02*
X160270000Y-87460000D01*
X162877000Y-87420000D02*
X160123000Y-87420000D01*
X163009000Y-87380000D02*
X159991000Y-87380000D01*
X163130000Y-87340000D02*
X159870000Y-87340000D01*
X163242000Y-87300000D02*
X159758000Y-87300000D01*
X163346000Y-87260000D02*
X159654000Y-87260000D01*
X163444000Y-87220000D02*
X159556000Y-87220000D01*
X163537000Y-87180000D02*
X159463000Y-87180000D01*
X163624000Y-87140000D02*
X159376000Y-87140000D01*
X163708000Y-87100000D02*
X159292000Y-87100000D01*
X163788000Y-87060000D02*
X159212000Y-87060000D01*
X163865000Y-87020000D02*
X159135000Y-87020000D01*
X163939000Y-86980000D02*
X159061000Y-86980000D01*
X164010000Y-86940000D02*
X158990000Y-86940000D01*
X164078000Y-86900000D02*
X158922000Y-86900000D01*
X164144000Y-86860000D02*
X158856000Y-86860000D01*
X164208000Y-86820000D02*
X158792000Y-86820000D01*
X164270000Y-86780000D02*
X158730000Y-86780000D01*
X164330000Y-86740000D02*
X158670000Y-86740000D01*
X164375000Y-77020354D02*
X164375000Y-78020354D01*
X164388000Y-86700000D02*
X158612000Y-86700000D01*
X164445000Y-86660000D02*
X158555000Y-86660000D01*
X164500000Y-86620000D02*
X158500000Y-86620000D01*
X164553000Y-86580000D02*
X158447000Y-86580000D01*
X164605000Y-86540000D02*
X158395000Y-86540000D01*
X164656000Y-86500000D02*
X158344000Y-86500000D01*
X164705000Y-86460000D02*
X158295000Y-86460000D01*
X164754000Y-86420000D02*
X158246000Y-86420000D01*
X164801000Y-86380000D02*
X158199000Y-86380000D01*
X164847000Y-86340000D02*
X158153000Y-86340000D01*
X164875000Y-77520354D02*
X163875000Y-77520354D01*
X164891000Y-86300000D02*
X158109000Y-86300000D01*
X164935000Y-86260000D02*
X158065000Y-86260000D01*
X164978000Y-86220000D02*
X162740000Y-86220000D01*
X165020000Y-86180000D02*
X162740000Y-86180000D01*
X165061000Y-86140000D02*
X162740000Y-86140000D01*
X165101000Y-86100000D02*
X162740000Y-86100000D01*
X165140000Y-86060000D02*
X162740000Y-86060000D01*
X165178000Y-86020000D02*
X162740000Y-86020000D01*
X165216000Y-85980000D02*
X162740000Y-85980000D01*
X165252000Y-85940000D02*
X162740000Y-85940000D01*
X165288000Y-85900000D02*
X162740000Y-85900000D01*
X165323000Y-85860000D02*
X162740000Y-85860000D01*
X165358000Y-85820000D02*
X162740000Y-85820000D01*
X165391000Y-85780000D02*
X162740000Y-85780000D01*
X165424000Y-85740000D02*
X162740000Y-85740000D01*
X165457000Y-85700000D02*
X162740000Y-85700000D01*
X165488000Y-85660000D02*
X162740000Y-85660000D01*
X165520000Y-85620000D02*
X162740000Y-85620000D01*
X165550000Y-85580000D02*
X162740000Y-85580000D01*
X165580000Y-85540000D02*
X162740000Y-85540000D01*
X165609000Y-85500000D02*
X162740000Y-85500000D01*
X165638000Y-85460000D02*
X162740000Y-85460000D01*
X165666000Y-85420000D02*
X162740000Y-85420000D01*
X165693000Y-85380000D02*
X162740000Y-85380000D01*
X165720000Y-85340000D02*
X162740000Y-85340000D01*
X165747000Y-85300000D02*
X162740000Y-85300000D01*
X165772000Y-85260000D02*
X162740000Y-85260000D01*
X165798000Y-85220000D02*
X162740000Y-85220000D01*
X165823000Y-85180000D02*
X162740000Y-85180000D01*
X165847000Y-85140000D02*
X162740000Y-85140000D01*
X165871000Y-85100000D02*
X162740000Y-85100000D01*
X165894000Y-85060000D02*
X162740000Y-85060000D01*
X165917000Y-85020000D02*
X162740000Y-85020000D01*
X165939000Y-84980000D02*
X162740000Y-84980000D01*
X165961000Y-84940000D02*
X162740000Y-84940000D01*
X165983000Y-84900000D02*
X162740000Y-84900000D01*
X166004000Y-84860000D02*
X162740000Y-84860000D01*
X166024000Y-84820000D02*
X162740000Y-84820000D01*
X166044000Y-84780000D02*
X162740000Y-84780000D01*
X166064000Y-84740000D02*
X162740000Y-84740000D01*
X166083000Y-84700000D02*
X162740000Y-84700000D01*
X166102000Y-84660000D02*
X162740000Y-84660000D01*
X166120000Y-84620000D02*
X162740000Y-84620000D01*
X166138000Y-84580000D02*
X162740000Y-84580000D01*
X166156000Y-84540000D02*
X162740000Y-84540000D01*
X166173000Y-84500000D02*
X162740000Y-84500000D01*
X166190000Y-84460000D02*
X162740000Y-84460000D01*
X166206000Y-84420000D02*
X162740000Y-84420000D01*
X166222000Y-84380000D02*
X162740000Y-84380000D01*
X166238000Y-84340000D02*
X162740000Y-84340000D01*
X166253000Y-84300000D02*
X162740000Y-84300000D01*
X166268000Y-84260000D02*
X162740000Y-84260000D01*
X166282000Y-84220000D02*
X162740000Y-84220000D01*
X166297000Y-84180000D02*
X162740000Y-84180000D01*
X166310000Y-84140000D02*
X162740000Y-84140000D01*
X166324000Y-84100000D02*
X162740000Y-84100000D01*
X166337000Y-84060000D02*
X162740000Y-84060000D01*
X166349000Y-84020000D02*
X162740000Y-84020000D01*
X166361000Y-83980000D02*
X162740000Y-83980000D01*
X166373000Y-83940000D02*
X162740000Y-83940000D01*
X166385000Y-83900000D02*
X162740000Y-83900000D01*
X166396000Y-83860000D02*
X162740000Y-83860000D01*
X166407000Y-83820000D02*
X162740000Y-83820000D01*
X166417000Y-83780000D02*
X162740000Y-83780000D01*
X166428000Y-83740000D02*
X156572000Y-83740000D01*
X166437000Y-83700000D02*
X156563000Y-83700000D01*
X166447000Y-83660000D02*
X156553000Y-83660000D01*
X166456000Y-83620000D02*
X156544000Y-83620000D01*
X166465000Y-83580000D02*
X156535000Y-83580000D01*
X166473000Y-83540000D02*
X156527000Y-83540000D01*
X166481000Y-83500000D02*
X156519000Y-83500000D01*
X166489000Y-83460000D02*
X156511000Y-83460000D01*
X166497000Y-83420000D02*
X156503000Y-83420000D01*
X166504000Y-83380000D02*
X156496000Y-83380000D01*
X166511000Y-83340000D02*
X156489000Y-83340000D01*
X166517000Y-83300000D02*
X156483000Y-83300000D01*
X166523000Y-83260000D02*
X156477000Y-83260000D01*
X166529000Y-83220000D02*
X156471000Y-83220000D01*
X166535000Y-83180000D02*
X156465000Y-83180000D01*
X166540000Y-83140000D02*
X156460000Y-83140000D01*
X166545000Y-83100000D02*
X156455000Y-83100000D01*
X166549000Y-83060000D02*
X156451000Y-83060000D01*
X166554000Y-83020000D02*
X156446000Y-83020000D01*
X166557000Y-82980000D02*
X156443000Y-82980000D01*
X166561000Y-82940000D02*
X156439000Y-82940000D01*
X166564000Y-82900000D02*
X156436000Y-82900000D01*
X166567000Y-82860000D02*
X156433000Y-82860000D01*
X166570000Y-82820000D02*
X156430000Y-82820000D01*
X166572000Y-82780000D02*
X156428000Y-82780000D01*
X166574000Y-82740000D02*
X156426000Y-82740000D01*
X166576000Y-82700000D02*
X156424000Y-82700000D01*
X166577000Y-82660000D02*
X156423000Y-82660000D01*
X166579000Y-82580000D02*
X156421000Y-82580000D01*
X166579000Y-82620000D02*
X156421000Y-82620000D01*
X166580000Y-82500000D02*
X156420000Y-82500000D01*
X166580000Y-82540000D02*
X156420000Y-82540000D01*
X166620000Y-82500000D02*
G75*
G02*
X156380000Y-82500000I-5120000J0D01*
G01*
X156380000Y-82500000D02*
G75*
G02*
X166620000Y-82500000I5120000J0D01*
G01*
%TO.C,C3*%
X181485000Y-70580000D02*
X183015000Y-70580000D01*
X183015000Y-72420000D02*
X181485000Y-72420000D01*
%TO.C,U2*%
X204855000Y-66360000D02*
X204855000Y-76640000D01*
X204855000Y-76640000D02*
X210155000Y-76640000D01*
X206505000Y-66360000D02*
X204855000Y-66360000D01*
X210155000Y-66360000D02*
X208505000Y-66360000D01*
X210155000Y-76640000D02*
X210155000Y-66360000D01*
X208505000Y-66360000D02*
G75*
G02*
X206505000Y-66360000I-1000000J0D01*
G01*
%TD*%
M02*
